<?xml version="1.0" encoding="utf-8"?>
<!-- Generator: Adobe Illustrator 16.0.0, SVG Export Plug-In . SVG Version: 6.00 Build 0)  -->
<!DOCTYPE svg PUBLIC "-//W3C//DTD SVG 1.1//EN" "http://www.w3.org/Graphics/SVG/1.1/DTD/svg11.dtd">
<svg version="1.1" id="Layer_1" xmlns="http://www.w3.org/2000/svg" xmlns:xlink="http://www.w3.org/1999/xlink" x="0px" y="0px"
	 width="196.26px" height="27.479px" viewBox="2.427 86.045 196.26 27.479" enable-background="new 2.427 86.045 196.26 27.479"
	 xml:space="preserve">
<g>
	<ellipse fill="#FFFFFF" cx="15.71" cy="99.787" rx="12.104" ry="12.104"/>
	<path fill="#FCDD40" d="M15.75,87.964c-6.534,0-11.829,5.295-11.829,11.829s5.295,11.83,11.829,11.83s11.83-5.296,11.83-11.83
		C27.579,93.329,22.214,87.964,15.75,87.964z M15.75,112.242c-6.809,0-12.379-5.57-12.379-12.38c0-6.809,5.571-12.379,12.379-12.379
		c6.809,0,12.38,5.571,12.38,12.379C28.129,106.672,22.559,112.242,15.75,112.242z"/>
	<path fill="#222D65" d="M14.581,93.191c0,1.513-1.238,2.682-2.682,2.682c-1.513,0-2.683-1.238-2.683-2.682
		c0-1.444,1.169-2.683,2.683-2.683C13.411,90.509,14.581,91.747,14.581,93.191z"/>
	<path fill="#222D65" d="M18.5,92.091c0,1.513-1.238,2.682-2.682,2.682c-1.513,0-2.682-1.238-2.682-2.682
		c0-1.513,1.238-2.682,2.682-2.682S18.5,90.578,18.5,92.091z"/>
	<path fill="#222D65" d="M22.283,93.191c0,1.513-1.238,2.682-2.682,2.682c-1.513,0-2.682-1.238-2.682-2.682
		c0-1.513,1.238-2.683,2.682-2.683S22.283,91.747,22.283,93.191z"/>
	<path fill="#222D65" d="M25.103,95.874c0,1.513-1.238,2.682-2.682,2.682c-1.513,0-2.682-1.238-2.682-2.682
		c0-1.513,1.238-2.682,2.682-2.682S25.103,94.36,25.103,95.874z"/>
	<path fill="#222D65" d="M26.135,99.793c0,1.513-1.238,2.683-2.682,2.683c-1.513,0-2.682-1.238-2.682-2.683
		c0-1.513,1.238-2.682,2.682-2.682C24.897,97.042,26.135,98.281,26.135,99.793z"/>
	<path fill="#222D65" d="M25.034,103.714c0,1.513-1.238,2.683-2.682,2.683c-1.513,0-2.682-1.238-2.682-2.683
		c0-1.513,1.238-2.683,2.682-2.683S25.034,102.201,25.034,103.714z"/>
	<path fill="#222D65" d="M22.352,106.396c0,1.513-1.238,2.682-2.682,2.682c-1.513,0-2.682-1.238-2.682-2.682
		c0-1.514,1.238-2.683,2.682-2.683S22.352,104.951,22.352,106.396z"/>
	<path fill="#222D65" d="M18.5,107.496c0,1.514-1.238,2.683-2.682,2.683c-1.513,0-2.682-1.237-2.682-2.683
		c0-1.513,1.238-2.682,2.682-2.682S18.5,105.983,18.5,107.496z"/>
	<path fill="#222D65" d="M14.581,106.396c0,1.513-1.238,2.682-2.682,2.682c-1.513,0-2.683-1.238-2.683-2.682
		c0-1.514,1.238-2.683,2.683-2.683C13.411,103.714,14.581,104.951,14.581,106.396z"/>
	<path fill="#222D65" d="M11.761,103.645c0,1.514-1.238,2.683-2.682,2.683c-1.513,0-2.683-1.237-2.683-2.683
		c0-1.513,1.238-2.682,2.683-2.682C10.591,100.963,11.761,102.201,11.761,103.645z"/>
	<path fill="#222D65" d="M10.729,99.862c0,1.513-1.238,2.683-2.682,2.683s-2.682-1.238-2.682-2.683c0-1.513,1.238-2.682,2.682-2.682
		S10.729,98.35,10.729,99.862z"/>
	<path fill="#222D65" d="M11.83,95.942c0,1.513-1.238,2.682-2.683,2.682c-1.513,0-2.682-1.238-2.682-2.682
		c0-1.513,1.238-2.683,2.682-2.683C10.66,93.191,11.83,94.429,11.83,95.942z"/>
	<ellipse fill="#FFFFFF" cx="15.75" cy="99.794" rx="9.079" ry="9.147"/>
	<path fill="#222D65" d="M9.079,101.788c0-0.069,0-0.206,0-0.274c0-0.139-0.069-0.207-0.207-0.275
		c-0.069-0.069-0.138-0.069-0.275-0.069l-0.138,0.069c-0.069,0.068-0.069,0.137-0.069,0.206s0,0.206,0,0.274v0.139v0.068
		L9.079,101.788z M8.322,101.926v-0.068v-0.139c0-0.137-0.069-0.205-0.069-0.274l-0.137-0.138H7.909
		c-0.069,0-0.138,0.068-0.207,0.138c-0.068,0.069-0.068,0.206,0,0.344c0,0.069,0.069,0.138,0.069,0.206L8.322,101.926z
		 M8.253,101.307c0-0.138,0-0.206,0.069-0.275c0.069-0.068,0.138-0.137,0.207-0.206c0.069,0,0.137,0,0.275,0
		c0.069,0,0.138,0.069,0.207,0.138s0.069,0.206,0.137,0.412l0.207,0.757H9.285v-0.068c0-0.069-0.069-0.138-0.069-0.138
		s-0.069,0-0.206,0l-1.032,0.275c-0.069,0-0.138,0.068-0.207,0.068v0.138v0.069H7.703l-0.137-0.688c0-0.138-0.069-0.206-0.069-0.344
		s0-0.206,0.069-0.275c0.069-0.068,0.137-0.138,0.206-0.138s0.138,0,0.207,0C8.116,101.169,8.184,101.238,8.253,101.307z"/>
	<path fill="#222D65" d="M8.322,99.656l-0.619,0.275l0.688,0.275L8.322,99.656z M8.391,99.587v0.619l0.275,0.137
		c0.069,0,0.138,0.069,0.138,0.069l0.069-0.069c0,0,0-0.069,0-0.137h0.069v0.481H8.872c0-0.068,0-0.137-0.069-0.137
		c-0.069-0.069-0.138-0.069-0.206-0.138l-1.307-0.55v-0.069l1.307-0.55c0.137-0.069,0.206-0.069,0.206-0.138
		s0.069-0.069,0.069-0.138h0.069v0.619H8.872c0-0.069,0-0.138,0-0.138H8.803c-0.069,0-0.069,0-0.138,0.069L8.391,99.587z"/>
	<path fill="#222D65" d="M8.253,98.35L8.253,98.35L8.253,98.35c0.069-0.207,0.069-0.344,0-0.413
		c-0.069-0.068-0.137-0.137-0.206-0.206c-0.069,0-0.207,0-0.275,0.069s-0.137,0.137-0.137,0.206s0,0.138,0,0.207L8.253,98.35z
		 M9.285,97.455l-0.069,0.413l-0.894,0.344v0.069l0,0v0.069l0.481,0.137c0.069,0,0.138,0,0.207,0l0.069-0.137v-0.069h0.068
		L9.01,98.968H8.941v-0.069c0-0.068,0-0.137,0-0.137s-0.069-0.069-0.138-0.069l-1.032-0.207c-0.069,0-0.137,0-0.206,0l-0.069,0.138
		v0.069H7.428l0.138-0.55c0.069-0.138,0.069-0.275,0.137-0.344c0.069-0.069,0.138-0.138,0.207-0.138
		c0.069-0.069,0.138-0.069,0.275,0c0.069,0,0.207,0.069,0.207,0.138c0.069,0.069,0.069,0.206,0.069,0.344l0.55-0.207
		c0.137-0.068,0.206-0.068,0.275-0.137C9.216,97.593,9.216,97.524,9.285,97.455L9.285,97.455z"/>
	<path fill="#222D65" d="M8.253,95.805l0.481,0.206v0.069c-0.069,0-0.206-0.069-0.275-0.069s-0.138,0-0.207,0.069
		s-0.137,0.069-0.137,0.138c-0.069,0.069-0.069,0.138,0,0.207c0,0.068,0.068,0.137,0.137,0.137h0.138
		c0.069,0,0.207-0.069,0.344-0.206c0.138-0.069,0.207-0.138,0.275-0.207s0.137-0.069,0.206-0.069s0.138,0,0.207,0.069
		c0.138,0.069,0.206,0.138,0.206,0.275c0.069,0.137,0,0.275-0.068,0.413l-0.069,0.137l-0.138,0.138l-0.069,0.138v0.069l0.069,0.069
		v0.068l-0.481-0.206V97.18c0.138,0,0.207,0.069,0.275,0.069c0.069,0,0.138-0.069,0.207-0.069c0.069-0.069,0.138-0.138,0.138-0.207
		c0.069-0.068,0.069-0.137,0-0.275c0-0.069-0.069-0.138-0.138-0.138H9.216L9.079,96.63c-0.069,0-0.138,0.069-0.275,0.138
		s-0.206,0.138-0.275,0.206c-0.069,0-0.138,0.069-0.207,0.069s-0.138,0-0.206-0.069c-0.138-0.068-0.207-0.137-0.207-0.275
		c-0.069-0.138,0-0.207,0-0.344c0.069-0.069,0.069-0.138,0.207-0.207l0.068-0.069v-0.069L8.253,95.805L8.253,95.805z"/>
	<path fill="#222D65" d="M9.354,94.292l0.344,0.207v0.069L9.56,94.498H9.422l-0.138,0.137l-0.138,0.207l0.963,0.756
		c0.069,0.069,0.138,0.069,0.138,0.069l0.138-0.069V95.53h0.069l-0.413,0.55H9.973v-0.069l0.069-0.137c0,0-0.069-0.069-0.138-0.138
		l-0.963-0.756l-0.138,0.137l-0.069,0.138v0.138l0.138,0.138v0.068l-0.275-0.275L9.354,94.292z"/>
	<path fill="#222D65" d="M10.248,93.535c-0.138,0.069-0.138,0.206-0.138,0.344c0,0.207,0.069,0.344,0.275,0.55
		c0.206,0.206,0.344,0.344,0.55,0.344c0.137,0,0.275,0,0.344-0.069c0.138-0.069,0.138-0.206,0.138-0.413
		c0-0.137-0.069-0.344-0.275-0.55c-0.206-0.206-0.344-0.344-0.55-0.344C10.454,93.397,10.316,93.397,10.248,93.535z M10.179,93.397
		c0.138-0.138,0.344-0.138,0.55-0.138s0.413,0.138,0.55,0.275c0.138,0.206,0.206,0.413,0.206,0.619c0,0.206-0.068,0.413-0.275,0.55
		c-0.138,0.138-0.344,0.207-0.55,0.207c-0.206,0-0.413-0.138-0.55-0.344c-0.137-0.207-0.206-0.413-0.206-0.619
		C9.973,93.741,10.042,93.535,10.179,93.397z"/>
	<path fill="#222D65" d="M13.205,91.678L13.205,91.678l-0.069,0.137v0.138c0,0,0,0.069,0,0.207l0.138,1.375h-0.069l-0.757-0.757
		l0.069,1.101h-0.069l-1.031-1.032c-0.069-0.069-0.138-0.137-0.138-0.137H11.21h-0.138v-0.069l0.619-0.275v0.069l0,0l-0.069,0.069
		v0.069c0,0,0.069,0.069,0.138,0.138l0.688,0.688l-0.069-0.756l-0.068-0.069l-0.069-0.069l-0.069-0.069h-0.069h-0.069h-0.069v-0.069
		l0.55-0.275v0.069h-0.069h-0.069v0.069c0,0.068,0.069,0.068,0.138,0.137l0.619,0.688l-0.069-0.894c0-0.138,0-0.207-0.069-0.207
		l-0.069-0.069h-0.069h-0.137v-0.069L13.205,91.678z"/>
	<path fill="#222D65" d="M15.681,91.334l0.069,0.55h-0.069c-0.068-0.137-0.137-0.275-0.206-0.344s-0.207-0.069-0.344-0.069
		c-0.138,0-0.207,0.069-0.275,0.138s-0.137,0.138-0.206,0.275c-0.069,0.138-0.069,0.275-0.069,0.481
		c0,0.138,0.069,0.275,0.069,0.344c0.069,0.068,0.137,0.206,0.206,0.206c0.069,0.069,0.207,0.069,0.344,0.069
		c0.138,0,0.207-0.069,0.275-0.069c0.206-0.069,0.275-0.206,0.344-0.344h0.069c-0.069,0.138-0.138,0.275-0.275,0.344
		c-0.069,0.069-0.207,0.138-0.344,0.138c-0.275,0-0.481-0.069-0.619-0.275c-0.138-0.137-0.207-0.275-0.207-0.481
		c0-0.137,0-0.344,0.069-0.481c0.069-0.137,0.138-0.275,0.275-0.344c0.138-0.069,0.275-0.138,0.413-0.138
		c0.138,0,0.207,0,0.344,0.069h0.069h0.068V91.334L15.681,91.334z"/>
	<path fill="#222D65" d="M16.988,91.541c-0.138,0-0.275,0-0.344,0.138c-0.137,0.137-0.206,0.275-0.275,0.55
		c-0.069,0.275,0,0.481,0.069,0.619c0.069,0.138,0.206,0.207,0.344,0.207s0.275,0,0.413-0.138c0.138-0.069,0.207-0.275,0.207-0.55
		c0.069-0.275,0-0.481-0.069-0.619C17.263,91.609,17.125,91.541,16.988,91.541z M17.056,91.472c0.207,0,0.344,0.138,0.481,0.344
		c0.138,0.207,0.207,0.413,0.138,0.619c-0.069,0.275-0.138,0.413-0.344,0.55c-0.207,0.138-0.344,0.207-0.619,0.138
		c-0.206,0-0.413-0.138-0.55-0.344c-0.137-0.206-0.137-0.413-0.137-0.619c0.069-0.275,0.137-0.481,0.344-0.55
		C16.644,91.472,16.85,91.403,17.056,91.472z"/>
	<path fill="#222D65" d="M18.432,93.604v-1.513l-0.413,0.963c-0.068,0.069-0.068,0.138-0.068,0.206l0.137,0.138h0.069v0.069
		l-0.481-0.207v-0.068h0.069c0.069,0,0.138,0,0.138,0s0.069-0.069,0.069-0.138l0.413-0.963c0-0.069,0.069-0.138,0.069-0.138v-0.069
		l-0.138-0.069v-0.068l0.413,0.137v1.375l1.032-0.894l0.413,0.207v0.069h-0.069c-0.069-0.069-0.138-0.069-0.138-0.069
		s-0.069,0.069-0.069,0.138l-0.413,0.963c-0.068,0.068-0.068,0.137-0.068,0.206l0.137,0.138h0.069v0.069l-0.619-0.275v-0.069h0.069
		c0.069,0,0.138,0,0.138,0s0.069-0.068,0.069-0.137l0.413-0.963L18.432,93.604L18.432,93.604z"/>
	<path fill="#222D65" d="M20.151,94.704l0.481-1.444l-0.688,0.826c-0.069,0.069-0.069,0.137-0.069,0.137l0.069,0.138l0.069,0.069
		l0,0l-0.413-0.344l0,0l0.069,0.069l0.138,0.068c0,0,0.068-0.068,0.137-0.137l0.688-0.757v-0.275v-0.069l-0.069-0.138l0,0
		l0.344,0.275l-0.413,1.307l1.238-0.55l0.344,0.275l0,0l-0.069,0.068l-0.138-0.068c0,0-0.069,0.068-0.138,0.137l-0.688,0.757
		c-0.069,0.068-0.069,0.137-0.069,0.137l0.069,0.138l0.069,0.069l0,0l-0.481-0.481l0,0l0.069,0.069l0.137,0.069
		c0,0,0.069-0.069,0.138-0.138l0.688-0.825L20.151,94.704L20.151,94.704z"/>
	<path fill="#222D65" d="M22.902,95.53L22.902,95.53l0.344,0.481h-0.069v-0.068c-0.068-0.069-0.068-0.069-0.137-0.069
		c0,0-0.069,0-0.138,0.069l-0.55,0.344c-0.138,0.069-0.275,0.138-0.344,0.138s-0.207,0-0.275-0.069
		c-0.137-0.069-0.206-0.138-0.275-0.275c-0.069-0.137-0.138-0.275-0.138-0.413c0-0.137,0.069-0.206,0.069-0.275
		c0.069-0.069,0.138-0.138,0.344-0.275l0.55-0.344c0.069-0.069,0.138-0.069,0.138-0.138v-0.137v-0.069h0.069l0.344,0.619h-0.069
		v-0.069l-0.137-0.069c-0.069,0-0.069,0-0.138,0.069l-0.619,0.413l-0.138,0.138c-0.068,0.068-0.137,0.137-0.137,0.137
		c0,0.069,0,0.138,0,0.138c0,0.069,0,0.138,0.069,0.206c0.068,0.069,0.137,0.138,0.206,0.207s0.138,0.069,0.275,0.069
		c0.068,0,0.206-0.069,0.344-0.138l0.55-0.344c0.069-0.069,0.137-0.069,0.137-0.138L22.902,95.53L22.902,95.53z"/>
	<path fill="#222D65" d="M23.384,96.286l0.138,0.413l-0.826,1.307l0.895-0.275c0.068,0,0.137-0.069,0.137-0.069v-0.138v-0.069h0.069
		l0.207,0.55h-0.069v-0.069c0-0.068-0.069-0.137-0.138-0.137c0,0-0.069,0-0.206,0l-1.307,0.413v-0.069l0.894-1.444l-0.963,0.344
		c-0.068,0-0.137,0.069-0.137,0.069v0.138v0.069h-0.069l-0.207-0.55h0.069v0.069c0,0.069,0.069,0.137,0.138,0.137
		c0,0,0.069,0,0.206,0l1.032-0.344l0.069-0.138v-0.137L23.384,96.286L23.384,96.286z"/>
	<path fill="#222D65" d="M22.559,99.175L22.559,99.175l-0.138-0.688h0.069v0.069c0,0.069,0.069,0.138,0.069,0.138s0.069,0,0.206,0
		l1.032-0.138c0.069,0,0.138,0,0.138-0.069l0.069-0.069v-0.137v-0.069h0.068l0.069,0.688h-0.069v-0.068
		c0-0.069-0.068-0.138-0.068-0.138s-0.069,0-0.207,0l-1.032,0.138c-0.069,0-0.137,0-0.137,0.068l-0.069,0.069V99.175L22.559,99.175z
		"/>
	<path fill="#222D65" d="M24.14,100.619h-0.413v-0.068c0.069,0,0.138,0,0.138,0l0.138-0.069c0-0.069,0.069-0.069,0.069-0.138v-0.206
		h-1.238c-0.069,0-0.138,0-0.206,0c0,0-0.069,0.069-0.069,0.137v0.069H22.49v-0.688h0.069v0.069c0,0.068,0,0.137,0.069,0.137
		c0,0,0.068,0,0.206,0h1.238v-0.206c0-0.069,0-0.138,0-0.138l-0.069-0.138c-0.069,0-0.069-0.069-0.207-0.069v-0.068h0.413
		L24.14,100.619z"/>
	<path fill="#222D65" d="M23.865,102.063l-0.138,0.55h-0.069l0,0v-0.068l-0.068-0.138c0-0.069-0.069-0.069-0.138-0.138l-0.481-0.551
		l-0.413-0.068c-0.069,0-0.138,0-0.207,0s-0.069,0.068-0.069,0.138v0.069h-0.069l0.138-0.688h0.069v0.069c0,0.068,0,0.137,0,0.137
		s0.069,0.069,0.138,0.069l0.344,0.069l0.756-0.275c0.069,0,0.138-0.069,0.138-0.069l0.069-0.068v-0.069h0.069l-0.138,0.688h-0.069
		v-0.068v-0.137l-0.069-0.069c0,0-0.068,0-0.137,0l-0.619,0.206l0.413,0.413c0.069,0.068,0.138,0.068,0.138,0.138h0.069l0.069-0.069
		L23.865,102.063L23.865,102.063z"/>
	<path fill="#222D65" d="M12.242,105.709l-0.275,0.48l0,0c0.069-0.137,0.069-0.275,0.069-0.412c0-0.138-0.069-0.207-0.206-0.275
		c-0.069-0.068-0.207-0.068-0.275-0.138c-0.069,0-0.206,0-0.344,0.069c-0.138,0.068-0.207,0.137-0.344,0.344
		c-0.069,0.137-0.138,0.206-0.138,0.344s0,0.206,0,0.344c0.069,0.068,0.138,0.207,0.207,0.275c0.068,0.068,0.206,0.068,0.275,0.137
		c0.069,0,0.207,0,0.344-0.068v0.068c-0.137,0.069-0.275,0.069-0.413,0.069s-0.275-0.069-0.344-0.138
		c-0.207-0.137-0.344-0.344-0.344-0.619c0-0.206,0.068-0.344,0.206-0.55c0.069-0.138,0.207-0.206,0.344-0.275
		c0.138-0.068,0.275-0.068,0.413-0.068c0.137,0,0.275,0.068,0.413,0.138c0.069,0.068,0.137,0.137,0.206,0.275l0.069,0.068h0.069
		L12.242,105.709L12.242,105.709z"/>
	<path fill="#222D65" d="M12.999,106.121c-0.138-0.068-0.275-0.068-0.413,0s-0.275,0.206-0.413,0.481
		c-0.138,0.274-0.138,0.481-0.069,0.619s0.138,0.206,0.275,0.274c0.138,0.069,0.275,0.069,0.413,0
		c0.137-0.068,0.275-0.206,0.344-0.48c0.138-0.275,0.138-0.482,0.069-0.619C13.205,106.327,13.136,106.189,12.999,106.121z
		 M13.067,106.053c0.207,0.068,0.344,0.206,0.413,0.412c0.069,0.207,0.069,0.412,0,0.619c-0.069,0.206-0.275,0.412-0.481,0.481
		c-0.206,0.069-0.413,0.069-0.619,0c-0.206-0.069-0.344-0.206-0.413-0.413c-0.068-0.206-0.068-0.412,0-0.688
		c0.069-0.206,0.275-0.412,0.481-0.481C12.655,105.983,12.861,105.983,13.067,106.053z"/>
	<path fill="#222D65" d="M14.924,107.84L14.924,107.84l-0.206,0.413l-1.238-0.274v-0.069h0.069c0.069,0,0.138,0,0.138-0.069
		c0,0,0.069-0.068,0.069-0.137l0.206-1.031c0-0.069,0-0.139,0-0.207l-0.138-0.068h-0.068v-0.069l0.688,0.138v0.068
		c-0.069,0-0.138,0-0.206,0l-0.069,0.069c0,0-0.069,0.069-0.069,0.206l-0.207,0.963c0,0.068,0,0.138,0,0.138l0.069,0.069
		c0,0,0.069,0,0.207,0.068h0.137c0.138,0,0.207,0,0.275,0l0.138-0.068C14.787,107.979,14.855,107.909,14.924,107.84z"/>
	<path fill="#222D65" d="M16.506,107.84L16.506,107.84l-0.069,0.482h-1.238v-0.069h0.069c0.069,0,0.138,0,0.138-0.068
		c0,0,0-0.069,0-0.206v-1.032c0-0.069,0-0.138-0.069-0.206l-0.138-0.068h-0.068v-0.069h0.756v0.069c-0.069,0-0.138,0-0.207,0
		l-0.068,0.068c0,0,0,0.068,0,0.206v1.032c0,0.068,0,0.137,0,0.137l0.068,0.069c0,0,0.069,0,0.207,0h0.138c0.137,0,0.206,0,0.275,0
		l0.138-0.069C16.438,107.979,16.438,107.909,16.506,107.84z"/>
	<path fill="#222D65" d="M16.988,106.603l0.137,0.619l0.344-0.069c0.068,0,0.137-0.068,0.137-0.068c0-0.068,0.069-0.138,0-0.207
		h0.069l0.138,0.551h-0.069c0-0.068-0.069-0.138-0.069-0.138l-0.069-0.068c-0.069,0-0.069,0-0.137,0l-0.344,0.068l0.138,0.55
		c0,0.069,0,0.139,0.069,0.139H17.4h0.069l0.275-0.069c0.069,0,0.138-0.069,0.207-0.069l0.068-0.068
		c0.069-0.068,0.069-0.137,0.069-0.275h0.069l-0.069,0.413l-1.238,0.274v-0.068h0.069l0.069-0.068l0.068-0.068c0,0,0-0.069,0-0.139
		l-0.206-1.031c0-0.068-0.069-0.137-0.069-0.206c-0.069,0-0.069,0-0.138,0h-0.068v-0.069l1.238-0.274l0.069,0.344h-0.069
		c-0.069-0.069-0.069-0.138-0.069-0.138l-0.138-0.068c0,0-0.069,0-0.137,0L16.988,106.603z"/>
	<path fill="#222D65" d="M19.188,105.709l0.275,0.412h-0.068c-0.069-0.068-0.207-0.138-0.275-0.207c-0.138-0.068-0.275,0-0.413,0
		c-0.207,0.069-0.275,0.207-0.344,0.413c0,0.138,0,0.345,0.069,0.481c0.068,0.138,0.137,0.275,0.275,0.344
		c0.138,0.069,0.207,0.138,0.344,0.138c0.138,0,0.207,0,0.275-0.068l0.137-0.069l0.138-0.137l-0.206-0.413
		c0-0.069-0.069-0.138-0.069-0.138h-0.069l-0.138,0.068v-0.068l0.55-0.275v0.069l0,0l-0.069,0.138c0,0,0,0.068,0.069,0.137
		l0.206,0.482c-0.068,0.068-0.137,0.137-0.206,0.206c-0.069,0.068-0.138,0.138-0.275,0.138c-0.275,0.137-0.55,0.137-0.757,0
		c-0.206-0.069-0.275-0.207-0.413-0.413c-0.069-0.138-0.069-0.274-0.069-0.413c0-0.206,0.069-0.344,0.138-0.48
		c0.069-0.139,0.206-0.207,0.344-0.275l0.138-0.068c0.069,0,0.138,0,0.206,0h0.069v-0.069L19.188,105.709L19.188,105.709z"/>
	<path fill="#222D65" d="M19.739,105.434l0.413,0.48l0.275-0.205c0.069-0.069,0.138-0.139,0.138-0.139c0-0.068,0-0.137-0.069-0.206
		h0.069l0.344,0.413h-0.069l-0.137-0.068h-0.069l-0.138,0.068l-0.275,0.206l0.344,0.413l0.069,0.068h0.069l0.069-0.068l0.206-0.138
		c0.069-0.069,0.138-0.069,0.138-0.138l0.069-0.138c0-0.069,0-0.138,0-0.274h0.069l0.137,0.412l-0.963,0.756v-0.068l0.069-0.068
		l0.069-0.068v-0.069c0,0-0.069-0.069-0.069-0.138l-0.619-0.825c-0.206,0-0.275,0-0.344,0h-0.137l-0.069,0.069v-0.069l0.963-0.757
		l0.206,0.275h-0.069c-0.069-0.068-0.137-0.068-0.137-0.138h-0.138c0,0-0.069,0.069-0.138,0.069L19.739,105.434z"/>
	<path fill="#222D65" d="M15.75,93.948c-3.232,0-5.846,2.613-5.846,5.846c0,3.233,2.613,5.846,5.846,5.846s5.846-2.613,5.846-5.846
		C21.596,96.561,18.982,93.948,15.75,93.948z M15.75,106.053c-3.438,0-6.189-2.82-6.189-6.19c0-3.438,2.819-6.189,6.189-6.189
		c3.439,0,6.19,2.819,6.19,6.189S19.188,106.053,15.75,106.053z"/>
	<path fill="#222D65" d="M15.199,99.381c0.619,0,1.032-0.069,1.307-0.206c0.275-0.138,0.481-0.344,0.619-0.619
		c0.138-0.275,0.207-0.55,0.207-0.963s-0.069-0.688-0.207-0.963c-0.137-0.275-0.344-0.413-0.619-0.55
		c-0.275-0.137-0.688-0.206-1.307-0.206V99.381z M15.199,99.862v2.889v0.344c0,0.206,0.069,0.413,0.207,0.55
		c0.138,0.139,0.275,0.207,0.481,0.207c0.344,0,0.619-0.068,0.894-0.207c0.275-0.137,0.481-0.412,0.619-0.688
		c0.137-0.275,0.206-0.619,0.206-0.963c0-0.412-0.069-0.825-0.275-1.1c-0.207-0.344-0.413-0.551-0.756-0.688
		C16.3,99.931,15.818,99.862,15.199,99.862z M17.469,99.587c0.825,0.206,1.375,0.413,1.719,0.688
		c0.481,0.413,0.688,0.894,0.688,1.583c0,0.688-0.275,1.237-0.756,1.65c-0.619,0.55-1.582,0.825-2.751,0.825h-4.333v-0.275
		c0.413,0,0.688-0.069,0.825-0.138c0.138-0.068,0.207-0.206,0.275-0.275c0.069-0.137,0.069-0.412,0.069-0.894v-5.777
		c0-0.481,0-0.756-0.069-0.894c-0.069-0.137-0.138-0.206-0.275-0.275c-0.137-0.069-0.413-0.138-0.825-0.138v-0.344h4.058
		c0.962,0,1.65,0.069,2.063,0.275c0.413,0.207,0.757,0.481,0.963,0.826c0.207,0.344,0.344,0.756,0.344,1.169
		s-0.137,0.825-0.413,1.169C18.707,99.106,18.226,99.381,17.469,99.587z"/>
	<path fill="#FCDD40" d="M10.11,104.127c0,0.48-0.344,0.824-0.825,0.824s-0.825-0.344-0.825-0.824c0-0.482,0.344-0.826,0.825-0.826
		C9.697,103.301,10.11,103.645,10.11,104.127z"/>
	<path fill="#FCDD40" d="M23.04,104.127c0,0.48-0.344,0.824-0.826,0.824s-0.825-0.344-0.825-0.824c0-0.482,0.344-0.826,0.825-0.826
		S23.04,103.645,23.04,104.127z"/>
	<path fill="#FFFFFF" d="M194.979,96.974c0.481,0,0.757,0,0.894,0.069c0.275,0.069,0.482,0.275,0.619,0.481
		c0.138,0.207,0.275,0.55,0.344,1.101h0.138v-2.063h-4.952v0.207h0.207c0.206,0,0.344,0.069,0.481,0.138
		c0.068,0.068,0.138,0.137,0.138,0.275c0,0.069,0,0.275,0,0.55v4.539c0,0.344,0,0.551-0.069,0.619
		c-0.068,0.138-0.068,0.206-0.206,0.275c-0.138,0.068-0.275,0.137-0.412,0.137h-0.207v0.207h5.09l0.275-2.201h0.068
		c-0.138,0.619-0.413,1.031-0.688,1.375c-0.344,0.275-0.757,0.413-1.307,0.413h-0.344c-0.139,0-0.275,0-0.345-0.068
		c-0.069-0.069-0.138-0.138-0.138-0.206c0-0.069-0.068-0.344-0.068-0.688v-1.994c0.275,0,0.481,0.069,0.619,0.137
		c0.137,0.069,0.275,0.276,0.412,0.481c0.138,0.275,0.207,0.551,0.207,0.963h0.137v-3.576h-0.137
		c-0.069,0.55-0.139,0.963-0.344,1.238c-0.139,0.275-0.413,0.413-0.826,0.413h-0.137v-2.82H194.979z M190.439,96.424
		c-0.068,0.206-0.137,0.344-0.205,0.413c-0.069,0.069-0.139,0.137-0.207,0.137s-0.206-0.068-0.481-0.206
		c-0.274-0.138-0.481-0.207-0.618-0.207c-0.207-0.069-0.482-0.069-0.826-0.069c-0.963,0-1.719,0.344-2.338,1.101
		c-0.619,0.688-0.963,1.582-0.963,2.614c0,0.549,0.068,1.1,0.275,1.582c0.137,0.344,0.412,0.688,0.688,0.963
		c0.275,0.275,0.619,0.55,0.963,0.688c0.344,0.205,0.825,0.274,1.375,0.274c0.413,0,0.895-0.069,1.238-0.138
		c0.412-0.068,0.825-0.275,1.169-0.412v-1.445c0-0.274,0-0.412,0.069-0.48c0.068-0.138,0.137-0.207,0.206-0.275
		s0.206-0.068,0.481-0.138v-0.206h-2.82v0.206h0.138c0.138,0,0.275,0,0.345,0.069c0.068,0.068,0.137,0.137,0.205,0.206
		c0,0.068,0.069,0.274,0.069,0.55v1.444c-0.138,0.069-0.344,0.138-0.481,0.138c-0.138,0.068-0.275,0.068-0.412,0.068
		c-0.413,0-0.757-0.137-1.032-0.344c-0.274-0.206-0.481-0.619-0.618-1.1c-0.139-0.482-0.207-1.102-0.207-1.72
		c0-0.55,0.068-1.101,0.207-1.582c0.137-0.55,0.344-0.894,0.618-1.238c0.275-0.275,0.688-0.413,1.101-0.413
		c0.481,0,0.895,0.206,1.307,0.55c0.412,0.344,0.688,0.826,0.895,1.513h0.137v-2.407h-0.275V96.424z M180.949,96.974
		c0.481,0,0.756,0,0.895,0.069c0.274,0.069,0.48,0.275,0.619,0.481c0.137,0.207,0.274,0.55,0.344,1.101h0.137v-2.063h-4.951v0.207
		h0.206c0.206,0,0.344,0.069,0.481,0.138c0.068,0.068,0.137,0.137,0.137,0.275c0,0.069,0,0.275,0,0.55v4.539
		c0,0.344,0,0.551-0.068,0.619c-0.068,0.138-0.068,0.206-0.206,0.275c-0.138,0.068-0.274,0.137-0.413,0.137h-0.206v0.207h5.089
		l0.275-2.201h-0.137c-0.139,0.619-0.413,1.031-0.688,1.375c-0.345,0.275-0.758,0.413-1.308,0.413h-0.274
		c-0.139,0-0.275,0-0.344-0.068c-0.069-0.069-0.139-0.138-0.139-0.206c0-0.069-0.068-0.344-0.068-0.688v-1.994
		c0.275,0,0.481,0.069,0.619,0.137c0.137,0.069,0.275,0.276,0.412,0.481c0.139,0.275,0.207,0.551,0.207,0.963h0.137v-3.576h-0.137
		c-0.068,0.55-0.138,0.963-0.344,1.238c-0.139,0.275-0.413,0.413-0.826,0.413h-0.137v-2.82H180.949z M176.822,101.031
		c-0.137,0.551-0.275,0.963-0.412,1.238c-0.138,0.275-0.344,0.481-0.551,0.619c-0.206,0.138-0.48,0.206-0.756,0.206h-0.482
		c-0.274,0-0.48,0-0.55-0.068c-0.068-0.069-0.138-0.138-0.206-0.206c-0.068-0.069-0.068-0.344-0.068-0.688V97.73
		c0-0.344,0-0.55,0.068-0.619c0.068-0.138,0.138-0.206,0.206-0.275c0.138-0.069,0.275-0.138,0.413-0.138h0.275v-0.207h-3.164v0.207
		h0.206c0.138,0,0.275,0,0.413,0.069c0.068,0.069,0.137,0.138,0.206,0.206c0,0.069,0.069,0.275,0.069,0.688v4.54
		c0,0.344,0,0.55-0.069,0.619c-0.069,0.137-0.069,0.206-0.206,0.274c-0.138,0.069-0.275,0.138-0.413,0.138h-0.206v0.207h5.227
		l0.207-2.408H176.822z M170.289,101.031c-0.138,0.551-0.275,0.963-0.413,1.238s-0.344,0.481-0.55,0.619
		c-0.207,0.138-0.481,0.206-0.757,0.206h-0.481c-0.275,0-0.481,0-0.551-0.068c-0.068-0.069-0.137-0.138-0.205-0.206
		c-0.069-0.069-0.069-0.344-0.069-0.688V97.73c0-0.344,0-0.55,0.069-0.619c0.068-0.138,0.137-0.206,0.205-0.275
		c0.139-0.069,0.275-0.138,0.414-0.138h0.274v-0.207h-3.163v0.207h0.205c0.139,0,0.275,0,0.413,0.069
		c0.069,0.069,0.138,0.138,0.206,0.206c0,0.069,0.069,0.275,0.069,0.688v4.54c0,0.344,0,0.55-0.069,0.619
		c-0.068,0.137-0.068,0.206-0.206,0.274c-0.138,0.069-0.274,0.138-0.413,0.138h-0.205v0.207h5.227l0.206-2.408H170.289z
		 M161.555,97.111c0.206,0.207,0.412,0.481,0.55,0.963s0.206,1.101,0.206,2.063c0,0.757-0.068,1.376-0.206,1.856
		c-0.138,0.482-0.344,0.826-0.619,1.032c-0.206,0.138-0.481,0.274-0.757,0.274c-0.412,0-0.824-0.206-1.031-0.619
		c-0.344-0.55-0.551-1.443-0.551-2.613c0-0.963,0.139-1.719,0.345-2.27c0.274-0.619,0.688-0.963,1.237-0.963
		C161.072,96.768,161.348,96.905,161.555,97.111z M158.528,97.455c-0.619,0.688-0.894,1.513-0.894,2.545
		c0,0.895,0.205,1.719,0.688,2.338c0.55,0.826,1.375,1.238,2.476,1.238c1.032,0,1.856-0.412,2.476-1.307
		c0.413-0.688,0.688-1.444,0.688-2.27c0-1.032-0.274-1.857-0.894-2.545c-0.619-0.688-1.376-1.031-2.27-0.963
		C159.904,96.424,159.146,96.768,158.528,97.455z M156.053,96.424c0,0.206-0.069,0.275-0.139,0.344
		c-0.068,0.069-0.137,0.138-0.274,0.138c-0.069,0-0.274-0.069-0.481-0.207c-0.481-0.207-0.895-0.344-1.307-0.344
		c-0.551,0-1.101,0.137-1.582,0.481c-0.481,0.344-0.895,0.756-1.169,1.375c-0.275,0.619-0.413,1.238-0.413,1.857
		c0,0.619,0.138,1.238,0.413,1.789c0.274,0.55,0.618,0.963,1.169,1.237c0.481,0.275,1.031,0.413,1.65,0.413
		c0.482,0,0.895-0.068,1.238-0.275c0.344-0.206,0.688-0.481,1.031-0.895v-0.619c-0.344,0.482-0.688,0.758-0.963,0.963
		c-0.344,0.207-0.619,0.275-1.031,0.275c-0.481,0-0.825-0.137-1.101-0.412c-0.274-0.275-0.481-0.619-0.618-1.17
		c-0.139-0.48-0.207-1.031-0.207-1.65c0-0.619,0.068-1.169,0.275-1.72c0.137-0.413,0.344-0.688,0.688-0.963
		c0.275-0.275,0.619-0.344,1.031-0.344c0.413,0,0.826,0.138,1.17,0.481s0.619,0.825,0.688,1.444h0.138v-2.407h-0.206V96.424z
		 M145.323,96.561v0.207c0.274,0,0.413,0.069,0.55,0.138c0.069,0.068,0.139,0.137,0.139,0.206c0,0.138-0.139,0.481-0.414,1.032
		l-1.031,2.063l-1.1-2.27c-0.207-0.481-0.344-0.825-0.344-0.894s0-0.137,0.068-0.206s0.206-0.069,0.344-0.069h0.138v-0.207h-2.819
		v0.207c0.205,0,0.344,0.069,0.48,0.138c0.138,0.068,0.275,0.413,0.619,1.031l1.375,2.958v1.375c0,0.344,0,0.551-0.068,0.619
		c-0.068,0.138-0.137,0.206-0.206,0.275c-0.069,0.068-0.206,0.137-0.413,0.137h-0.344v0.207h3.301v-0.207h-0.344
		c-0.137,0-0.274,0-0.344-0.068c-0.068-0.068-0.137-0.138-0.206-0.206c0-0.069-0.069-0.275-0.069-0.688v-1.65l1.308-2.476
		c0.344-0.619,0.55-1.032,0.688-1.169c0.138-0.069,0.275-0.137,0.481-0.206V96.63h-1.788V96.561z M134.525,96.561v1.857h0.138
		c0.069-0.481,0.206-0.894,0.481-1.169c0.206-0.207,0.481-0.275,0.895-0.275h0.412v5.296c0,0.344,0,0.551-0.068,0.619
		c-0.069,0.138-0.139,0.206-0.207,0.275c-0.137,0.068-0.275,0.137-0.412,0.137h-0.207v0.207h3.096v-0.207h-0.207
		c-0.137,0-0.275,0-0.412-0.068c-0.068-0.068-0.138-0.138-0.207-0.206c0-0.069-0.068-0.275-0.068-0.688v-5.295h0.412
		c0.275,0,0.482,0,0.551,0.069c0.207,0.138,0.344,0.275,0.481,0.481c0.138,0.207,0.206,0.481,0.344,0.894h0.138V96.63h-5.158V96.561
		z M133.287,103.232c-0.137,0-0.275,0-0.412-0.068c-0.068-0.069-0.138-0.138-0.207-0.207c0-0.068-0.068-0.275-0.068-0.688V97.73
		c0-0.344,0-0.55,0.068-0.619c0.069-0.138,0.139-0.206,0.207-0.275c0.137-0.069,0.275-0.138,0.412-0.138h0.207v-0.207h-3.096v0.207
		h0.207c0.137,0,0.275,0,0.412,0.069c0.068,0.069,0.138,0.138,0.207,0.206c0,0.069,0.068,0.275,0.068,0.688v4.54
		c0,0.344,0,0.55-0.068,0.619c-0.069,0.137-0.069,0.206-0.207,0.274c-0.137,0.069-0.275,0.138-0.412,0.138h-0.207v0.207h3.096
		v-0.207H133.287z M123.246,96.561v0.207c0.207,0,0.344,0.069,0.412,0.069c0.069,0.069,0.207,0.206,0.345,0.344l0.138,0.207v4.814
		c0,0.344-0.069,0.619-0.207,0.756c-0.137,0.138-0.344,0.207-0.688,0.207v0.206h2.133v-0.206h-0.139
		c-0.206,0-0.412-0.069-0.55-0.207c-0.138-0.137-0.206-0.412-0.206-0.825v-4.333l3.988,5.708h0.139v-5.708
		c0-0.344,0-0.55,0.068-0.688s0.137-0.206,0.206-0.275s0.275-0.138,0.481-0.138v-0.207h-1.926v0.207
		c0.344,0,0.551,0.069,0.688,0.275c0.069,0.138,0.139,0.413,0.139,0.826v3.026l-2.889-4.264H123.246z M116.3,96.768
		c0.275,0,0.413,0,0.481,0.069s0.138,0.137,0.207,0.206c0.068,0.069,0.068,0.344,0.068,0.757v3.37c0,0.55,0.068,1.032,0.206,1.376
		s0.413,0.619,0.825,0.825c0.275,0.138,0.688,0.206,1.17,0.206c0.618,0,1.1-0.137,1.443-0.481c0.344-0.274,0.551-0.618,0.688-0.963
		c0.069-0.344,0.139-0.963,0.139-1.719v-2.613c0-0.275,0-0.481,0.068-0.55c0.068-0.138,0.138-0.275,0.206-0.344
		c0.138-0.069,0.275-0.138,0.413-0.138h0.137v-0.207h-2.063v0.207c0.206,0,0.412,0.069,0.55,0.138
		c0.069,0.068,0.138,0.137,0.206,0.275c0.069,0.138,0.069,0.344,0.069,0.688v2.819c0,0.757-0.069,1.238-0.138,1.514
		c-0.138,0.275-0.275,0.55-0.481,0.688s-0.481,0.275-0.825,0.275c-0.275,0-0.481-0.069-0.688-0.207
		c-0.207-0.137-0.344-0.275-0.413-0.48c-0.069-0.207-0.138-0.619-0.138-1.238v-3.37c0-0.413,0-0.619,0.068-0.757
		c0.069-0.069,0.069-0.206,0.207-0.206c0.068-0.069,0.275-0.069,0.481-0.069h0.138V96.63H116.3V96.768L116.3,96.768z
		 M109.697,96.561h-2.407v0.207h0.206c0.139,0,0.275,0,0.413,0.069c0.069,0.069,0.138,0.137,0.206,0.206
		c0,0.069,0.069,0.275,0.069,0.619v4.333c0,0.275,0,0.482,0,0.551c0,0.137-0.069,0.275-0.138,0.344s-0.138,0.138-0.275,0.206
		c-0.137,0.069-0.206,0.069-0.344,0.069h-0.138v0.206h1.995v-0.206c-0.275,0-0.482-0.069-0.619-0.138
		c-0.138-0.138-0.207-0.275-0.275-0.413c0-0.068,0-0.275,0-0.619V97.18l2.338,6.19h0.139l2.27-6.259v5.09
		c0,0.344,0,0.55-0.069,0.619c-0.069,0.137-0.069,0.206-0.206,0.274c-0.138,0.069-0.275,0.138-0.413,0.138h-0.206v0.207h3.095
		v-0.207h-0.206c-0.138,0-0.275,0-0.413-0.068c-0.068-0.069-0.138-0.138-0.206-0.207c0-0.068-0.068-0.275-0.068-0.688V97.73
		c0-0.344,0-0.55,0.068-0.619c0.068-0.138,0.068-0.206,0.206-0.206c0.138-0.069,0.275-0.138,0.413-0.138h0.206v-0.207h-2.407
		l-1.582,4.54L109.697,96.561z M100.688,96.561h-2.407v0.207h0.206c0.138,0,0.275,0,0.413,0.069
		c0.069,0.069,0.138,0.137,0.207,0.206s0.069,0.275,0.069,0.619v4.333c0,0.275,0,0.482,0,0.551c0,0.137-0.069,0.275-0.138,0.344
		s-0.138,0.138-0.275,0.206c-0.138,0.069-0.207,0.069-0.344,0.069H98.35v0.206h1.994v-0.206c-0.275,0-0.481-0.069-0.619-0.138
		c-0.138-0.138-0.207-0.275-0.275-0.413c0-0.068,0-0.275,0-0.619V97.18l2.338,6.19h0.138l2.27-6.259v5.09
		c0,0.344,0,0.55-0.068,0.619c-0.069,0.137-0.069,0.206-0.207,0.274c-0.137,0.069-0.275,0.138-0.412,0.138h-0.207v0.207h3.096
		v-0.207h-0.207c-0.137,0-0.275,0-0.412-0.068c-0.068-0.069-0.138-0.138-0.207-0.207c0-0.068-0.068-0.275-0.068-0.688V97.73
		c0-0.344,0-0.55,0.068-0.619c0.069-0.138,0.069-0.206,0.207-0.206c0.137-0.069,0.275-0.138,0.412-0.138h0.207v-0.207h-2.408
		l-1.581,4.54L100.688,96.561z M94.842,97.111c0.207,0.207,0.413,0.481,0.55,0.963s0.206,1.101,0.206,2.063
		c0,0.757-0.068,1.376-0.206,1.856c-0.138,0.482-0.344,0.826-0.619,1.032c-0.206,0.138-0.481,0.274-0.756,0.274
		c-0.413,0-0.825-0.206-1.032-0.619c-0.344-0.55-0.55-1.443-0.55-2.613c0-0.963,0.138-1.719,0.344-2.27
		c0.275-0.619,0.688-0.963,1.238-0.963C94.36,96.768,94.635,96.905,94.842,97.111z M91.816,97.455
		c-0.619,0.688-0.895,1.513-0.895,2.545c0,0.895,0.207,1.719,0.688,2.338c0.55,0.826,1.375,1.238,2.476,1.238
		c1.031,0,1.857-0.412,2.476-1.307c0.413-0.688,0.688-1.444,0.688-2.27c0-1.032-0.275-1.857-0.894-2.545
		c-0.619-0.688-1.375-1.031-2.27-0.963C93.123,96.424,92.435,96.768,91.816,97.455z M89.34,96.424c0,0.206-0.069,0.275-0.138,0.344
		s-0.138,0.138-0.275,0.138c-0.069,0-0.275-0.069-0.481-0.207c-0.481-0.207-0.894-0.344-1.307-0.344
		c-0.55,0-1.101,0.137-1.582,0.481c-0.481,0.344-0.894,0.756-1.169,1.375c-0.275,0.619-0.413,1.238-0.413,1.857
		c0,0.619,0.138,1.238,0.413,1.789c0.275,0.55,0.619,0.963,1.169,1.237c0.481,0.275,1.032,0.413,1.65,0.413
		c0.481,0,0.894-0.068,1.238-0.275c0.344-0.206,0.688-0.481,1.032-0.895v-0.619c-0.344,0.482-0.688,0.758-0.963,0.963
		c-0.344,0.207-0.619,0.275-1.032,0.275c-0.481,0-0.825-0.137-1.101-0.412c-0.275-0.275-0.481-0.619-0.619-1.17
		c-0.137-0.48-0.206-1.031-0.206-1.65c0-0.619,0.069-1.169,0.275-1.72c0.138-0.413,0.344-0.688,0.688-0.963
		c0.275-0.275,0.619-0.344,1.032-0.344s0.825,0.138,1.169,0.481s0.619,0.825,0.688,1.444h0.137v-2.407H89.34V96.424z M78.68,96.561
		v0.207c0.206,0,0.413,0.069,0.481,0.138c0.068,0.068,0.137,0.206,0.137,0.344c0,0.069,0,0.206-0.069,0.275
		c0,0.138-0.068,0.344-0.206,0.619l-0.963,2.958l-1.101-3.232c-0.137-0.413-0.206-0.619-0.206-0.688s0-0.138,0.069-0.207
		l0.137-0.137c0.069,0,0.207-0.069,0.413-0.069v-0.207h-2.888v0.207c0.206,0,0.344,0,0.413,0.069s0.206,0.137,0.275,0.275
		s0.207,0.413,0.344,0.825l0.275,0.757l-0.963,2.613l-1.169-3.301c-0.137-0.413-0.206-0.688-0.206-0.825
		c0-0.069,0-0.207,0.069-0.275c0.069-0.069,0.206-0.069,0.413-0.138v-0.207h-2.545v0.207c0.207,0,0.344,0.069,0.413,0.206
		c0.069,0.138,0.207,0.481,0.413,1.032l1.926,5.639h0.138l1.582-4.401l1.444,4.401h0.137l1.857-5.639
		c0.138-0.481,0.275-0.756,0.275-0.756c0.069-0.138,0.137-0.207,0.206-0.275c0.069-0.068,0.138-0.068,0.275-0.137V96.63H78.68
		V96.561z M68.157,97.111c0.207,0.207,0.413,0.481,0.55,0.963s0.207,1.101,0.207,2.063c0,0.757-0.069,1.376-0.207,1.856
		c-0.138,0.482-0.344,0.826-0.619,1.032c-0.206,0.138-0.481,0.274-0.756,0.274c-0.413,0-0.825-0.206-1.032-0.619
		c-0.344-0.55-0.55-1.443-0.55-2.613c0-0.963,0.138-1.719,0.344-2.27c0.275-0.619,0.688-0.963,1.238-0.963
		C67.675,96.768,67.882,96.905,68.157,97.111z M65.131,97.455c-0.619,0.688-0.894,1.513-0.894,2.545
		c0,0.895,0.206,1.719,0.688,2.338c0.55,0.826,1.375,1.238,2.476,1.238c1.032,0,1.857-0.412,2.476-1.307
		c0.413-0.688,0.688-1.444,0.688-2.27c0-1.032-0.275-1.857-0.894-2.545c-0.619-0.688-1.375-1.031-2.27-0.963
		C66.438,96.424,65.681,96.768,65.131,97.455z M57.771,96.561v1.857h0.138c0.069-0.481,0.207-0.894,0.481-1.169
		c0.207-0.207,0.481-0.275,0.894-0.275h0.413v5.296c0,0.344,0,0.551-0.069,0.619c-0.068,0.138-0.137,0.206-0.206,0.275
		c-0.138,0.068-0.275,0.137-0.413,0.137h-0.207v0.207h3.095v-0.207h-0.207c-0.138,0-0.275,0-0.413-0.068
		c-0.069-0.068-0.138-0.138-0.207-0.206c0-0.069-0.069-0.275-0.069-0.688v-5.295h0.413c0.275,0,0.481,0,0.55,0.069
		c0.207,0.138,0.344,0.275,0.481,0.481c0.138,0.207,0.207,0.481,0.344,0.894h0.137V96.63h-5.158V96.561z M55.983,96.424
		c-0.069,0.206-0.069,0.344-0.137,0.413c-0.069,0.069-0.138,0.069-0.207,0.069s-0.207-0.069-0.413-0.138
		c-0.207-0.138-0.344-0.207-0.481-0.207c-0.207-0.069-0.344-0.069-0.55-0.069c-0.55,0-0.963,0.207-1.307,0.55
		c-0.344,0.413-0.55,0.826-0.55,1.375c0,0.344,0.069,0.619,0.207,0.894c0.137,0.275,0.275,0.481,0.55,0.757
		c0.207,0.206,0.619,0.482,1.169,0.756c0.413,0.206,0.619,0.413,0.825,0.55c0.207,0.139,0.275,0.275,0.344,0.413
		c0.069,0.138,0.138,0.275,0.138,0.481c0,0.275-0.069,0.481-0.275,0.688c-0.207,0.207-0.481,0.275-0.757,0.275
		c-0.413,0-0.825-0.206-1.169-0.551c-0.344-0.412-0.619-0.963-0.757-1.65h-0.137v2.545h0.137c0.069-0.137,0.138-0.275,0.207-0.275
		c0.069-0.068,0.138-0.068,0.207-0.068c0.068,0,0.206,0,0.344,0.068c0.275,0.139,0.481,0.207,0.619,0.275c0.138,0,0.344,0,0.481,0
		c0.619,0,1.101-0.206,1.444-0.619c0.413-0.412,0.55-0.894,0.55-1.513c0-0.481-0.138-0.825-0.344-1.238
		c-0.275-0.344-0.688-0.757-1.375-1.101c-0.481-0.275-0.825-0.481-0.963-0.619c-0.207-0.137-0.344-0.344-0.413-0.481
		c-0.069-0.137-0.069-0.275-0.069-0.413c0-0.206,0.069-0.481,0.275-0.619c0.207-0.206,0.413-0.275,0.688-0.275
		c0.413,0,0.756,0.207,1.101,0.55c0.344,0.344,0.55,0.825,0.619,1.375h0.207l-0.069-2.27h-0.138V96.424z M47.73,96.974
		c0.481,0,0.825,0.138,1.032,0.344c0.206,0.275,0.344,0.619,0.344,1.169c0,0.344-0.069,0.688-0.207,0.894
		c-0.137,0.207-0.275,0.413-0.481,0.481C48.212,99.931,47.937,100,47.524,100h-0.275v-3.026H47.73z M47.662,100.344l1.926,3.164
		h1.857v-0.207c-0.138,0-0.275-0.068-0.413-0.206c-0.069-0.068-0.207-0.274-0.413-0.55l-1.444-2.338
		c0.344-0.138,0.619-0.275,0.825-0.481c0.344-0.344,0.481-0.757,0.481-1.238c0-0.413-0.138-0.756-0.344-1.1
		c-0.207-0.275-0.481-0.55-0.826-0.619c-0.344-0.138-0.825-0.138-1.582-0.138h-2.751v0.207c0.275,0,0.481,0,0.55,0.069
		c0.068,0.068,0.137,0.137,0.206,0.206s0.069,0.344,0.069,0.688v4.402c0,0.344,0,0.619-0.069,0.688s-0.138,0.138-0.206,0.206
		c-0.069,0.069-0.275,0.069-0.55,0.069v0.206h3.026v-0.206c-0.275,0-0.481,0-0.55-0.069c-0.068-0.068-0.137-0.138-0.206-0.206
		s-0.069-0.344-0.069-0.688v-1.926h0.481V100.344z M39.684,101.101l0.894-2.338l0.894,2.338H39.684z M41.884,102.338
		c0.069,0.207,0.138,0.344,0.138,0.413s0,0.138,0,0.206c0,0.069,0,0.207-0.069,0.207c-0.069,0.068-0.275,0.137-0.481,0.137h-0.137
		v0.207h2.888v-0.207c-0.206,0-0.344-0.068-0.413-0.206c-0.137-0.138-0.275-0.481-0.481-1.031l-2.132-5.64h-0.069l-2.132,5.502
		c-0.207,0.551-0.344,0.895-0.481,1.031c-0.138,0.138-0.344,0.275-0.55,0.275v0.207h1.926v-0.207c-0.275,0-0.481-0.068-0.55-0.138
		c-0.138-0.068-0.207-0.206-0.207-0.413c0-0.137,0.069-0.344,0.138-0.55l0.275-0.688h2.063L41.884,102.338z M34.732,100.207
		c0.206,0.068,0.413,0.275,0.55,0.549c0.138,0.275,0.207,0.551,0.207,0.895c0,0.275-0.069,0.551-0.138,0.757
		c-0.137,0.206-0.275,0.413-0.481,0.55c-0.206,0.138-0.413,0.207-0.619,0.207c-0.138,0-0.275-0.069-0.344-0.138
		c-0.068-0.069-0.137-0.206-0.137-0.413v-0.275v-2.2C34.182,100.069,34.525,100.069,34.732,100.207z M33.7,96.974
		c0.413,0,0.756,0.069,0.894,0.138c0.207,0.069,0.344,0.275,0.413,0.413c0.138,0.207,0.138,0.413,0.138,0.757
		c0,0.275-0.069,0.55-0.138,0.756c-0.138,0.207-0.275,0.344-0.481,0.481c-0.206,0.138-0.481,0.138-0.894,0.138v-2.683H33.7z
		 M36.382,99.175c0.207-0.275,0.344-0.55,0.344-0.894c0-0.344-0.068-0.619-0.275-0.894c-0.138-0.275-0.413-0.481-0.688-0.619
		c-0.275-0.138-0.756-0.207-1.444-0.207H31.5v0.207c0.275,0,0.481,0,0.55,0.069c0.069,0.069,0.138,0.137,0.207,0.206
		s0.069,0.344,0.069,0.688v4.471c0,0.344,0,0.619-0.069,0.688s-0.138,0.138-0.207,0.206c-0.068,0.069-0.275,0.069-0.55,0.069v0.206
		h3.026c0.825,0,1.444-0.206,1.926-0.619c0.344-0.344,0.55-0.757,0.55-1.307c0-0.481-0.138-0.894-0.481-1.169
		c-0.207-0.206-0.619-0.413-1.169-0.55C35.832,99.656,36.176,99.45,36.382,99.175z"/>
	<path fill="#FFFFFF" d="M194.979,96.974v0.138c0.413,0,0.757,0,0.825,0.069c0.275,0.069,0.412,0.207,0.551,0.413
		c0.137,0.207,0.274,0.481,0.344,1.032v0.138h0.344h0.137v-2.407h-5.295v0.344v0.138h0.344c0.137,0,0.275,0.069,0.344,0.069
		c0.068,0.068,0.068,0.068,0.138,0.206c0,0,0,0.207,0,0.55v4.54c0,0.344,0,0.55-0.069,0.55c-0.068,0.069-0.068,0.138-0.137,0.138
		c-0.069,0.068-0.207,0.068-0.344,0.068h-0.207h-0.137v0.344v0.139h5.433l0.274-2.545h-0.137h-0.138v0.137
		c-0.138,0.619-0.344,1.032-0.688,1.238c-0.274,0.275-0.688,0.412-1.237,0.412h-0.344c-0.138,0-0.275,0-0.275-0.068l-0.069-0.137
		c0,0-0.068-0.275,0-0.619v-1.72h-0.137v0.137c0.275,0,0.481,0.069,0.551,0.138c0.068,0.069,0.205,0.207,0.344,0.413
		c0.068,0.206,0.137,0.55,0.205,0.894v0.139h0.345h0.138v-3.921h-0.344h-0.139v0.138c-0.068,0.55-0.137,0.894-0.274,1.169
		c-0.138,0.206-0.344,0.344-0.688,0.344h-0.137v0.138h0.137v-2.614h0.414v-0.138v-0.137h-0.619h-0.139V100h0.275
		c0.413,0,0.757-0.138,0.963-0.481c0.207-0.344,0.275-0.756,0.344-1.307h-0.137v0.138h0.137v-0.138h-0.206v3.576h0.206v-0.138
		h-0.137v0.138h0.137c-0.068-0.413-0.137-0.757-0.206-1.032c-0.138-0.274-0.274-0.481-0.481-0.549
		c-0.206-0.138-0.412-0.138-0.756-0.138h-0.139v2.132c0,0.412,0,0.619,0.069,0.756c0.069,0.138,0.138,0.207,0.206,0.275
		c0.138,0.068,0.275,0.138,0.482,0.138h0.344c0.55,0,1.1-0.138,1.443-0.481s0.619-0.825,0.757-1.444l-0.138-0.069v0.139h0.138
		v-0.139h-0.138l-0.275,2.064h-4.814l0,0h-0.137v0.137h0.206c0.206,0,0.344-0.068,0.481-0.137c0.138-0.069,0.207-0.207,0.207-0.345
		c0.068-0.138,0.068-0.344,0.068-0.688v-4.539c0-0.344,0-0.481,0-0.619c-0.068-0.138-0.138-0.275-0.207-0.344
		c-0.137-0.138-0.344-0.207-0.55-0.207l0,0l0,0h-0.138v0.138h4.814v1.857h0.207v-0.138h-0.139v0.138h0.139
		c-0.069-0.481-0.207-0.894-0.413-1.169c-0.206-0.275-0.413-0.413-0.757-0.55c-0.206-0.068-0.551-0.068-0.963-0.068v0.068H194.979z
		 M190.439,96.424l-0.137-0.069c-0.068,0.206-0.138,0.275-0.138,0.344l-0.138,0.069c0,0,0,0-0.137-0.069
		c-0.069,0-0.207-0.069-0.345-0.138c-0.274-0.137-0.481-0.206-0.688-0.275c-0.275-0.069-0.55-0.069-0.825-0.069
		c-0.963,0-1.857,0.413-2.477,1.101c-0.688,0.756-0.963,1.65-0.963,2.751c0,0.619,0.139,1.169,0.344,1.65
		c0.139,0.413,0.413,0.758,0.688,1.032c0.274,0.275,0.618,0.55,1.031,0.757c0.413,0.206,0.895,0.275,1.444,0.275
		c0.481,0,0.895-0.069,1.307-0.139c0.413-0.068,0.826-0.274,1.238-0.48l0.068-0.069v-1.513c0-0.207,0-0.413,0-0.413
		c0.069-0.068,0.069-0.138,0.138-0.206c0.069,0,0.206-0.068,0.413-0.068h0.137v-0.344v-0.138h-3.232v0.343v0.139h0.345
		c0.138,0,0.206,0,0.274,0.068c0.069,0.068,0.139,0.068,0.139,0.138c0,0,0.068,0.206,0.068,0.481v1.444h0.137l-0.068-0.138
		c-0.137,0.068-0.275,0.138-0.412,0.138c-0.138,0-0.275,0.068-0.413,0.068c-0.413,0-0.688-0.138-0.963-0.344
		c-0.274-0.206-0.481-0.55-0.618-1.032c-0.139-0.48-0.207-1.031-0.207-1.719c0-0.55,0.068-1.032,0.207-1.582
		c0.137-0.481,0.344-0.894,0.549-1.1c0.275-0.275,0.551-0.413,0.963-0.413c0.413,0,0.826,0.137,1.17,0.481
		c0.344,0.344,0.619,0.756,0.825,1.444l0.069,0.137h0.274h0.138v-2.751h-0.344h-0.138l-0.069,0.138L190.439,96.424v0.137h0.139
		v-0.137H190.439v2.407h0.139v-0.138h-0.139v0.138l0.139-0.069c-0.207-0.688-0.482-1.238-0.895-1.582s-0.895-0.55-1.375-0.55
		c-0.482,0-0.895,0.138-1.238,0.481s-0.551,0.757-0.688,1.307c-0.139,0.55-0.207,1.101-0.207,1.651c0,0.687,0.069,1.238,0.207,1.789
		c0.137,0.55,0.344,0.894,0.688,1.169c0.344,0.274,0.756,0.413,1.169,0.413c0.138,0,0.344,0,0.481-0.069s0.344-0.069,0.481-0.138
		l0.138-0.068v-1.514c0-0.275,0-0.481-0.068-0.619c-0.069-0.137-0.139-0.206-0.275-0.275c-0.138-0.068-0.275-0.137-0.481-0.137
		h-0.069v0.137h0.138l0,0h2.545l0,0h0.138v-0.137c-0.207,0-0.412,0.068-0.551,0.137c-0.137,0.069-0.206,0.207-0.274,0.345
		c-0.069,0.138-0.069,0.274-0.069,0.55v1.444h0.138v-0.206c-0.344,0.206-0.757,0.344-1.169,0.412
		c-0.412,0.069-0.825,0.139-1.238,0.139c-0.55,0-0.963-0.069-1.307-0.275c-0.344-0.138-0.688-0.413-0.963-0.688
		c-0.275-0.275-0.481-0.551-0.619-0.895c-0.206-0.413-0.275-0.963-0.275-1.513c0-1.032,0.275-1.857,0.895-2.476
		c0.619-0.688,1.307-1.032,2.201-1.032c0.275,0,0.55,0,0.756,0.069c0.139,0,0.344,0.069,0.619,0.207
		c0.275,0.137,0.413,0.206,0.551,0.206c0.137,0,0.275-0.069,0.344-0.137c0.137-0.138,0.137-0.275,0.206-0.481H190.439v0.137V96.424z
		 M180.949,96.974v0.138c0.412,0,0.756,0,0.825,0.069c0.274,0.069,0.413,0.207,0.55,0.413c0.139,0.207,0.275,0.481,0.344,1.032
		v0.138h0.344h0.139v-2.407h-5.297v0.344v0.138h0.345c0.138,0,0.274,0.069,0.344,0.069c0.069,0.068,0.069,0.068,0.138,0.206
		c0,0,0,0.207,0,0.55v4.54c0,0.344,0,0.55-0.068,0.55c-0.069,0.069-0.069,0.138-0.139,0.138c-0.068,0.068-0.205,0.068-0.344,0.068
		h-0.206h-0.138v0.344v0.139h5.434l0.275-2.545h-0.344h-0.139v0.137c-0.137,0.619-0.344,1.032-0.688,1.238
		c-0.275,0.275-0.688,0.412-1.238,0.412h-0.205c-0.139,0-0.275,0-0.275-0.068l-0.068-0.137c0,0-0.069-0.275,0-0.619v-1.72h-0.139
		v0.137c0.275,0,0.482,0.069,0.551,0.138s0.206,0.207,0.344,0.413c0.068,0.206,0.138,0.55,0.207,0.894v0.139h0.344h0.137v-3.921
		h-0.412h-0.138v0.138c-0.069,0.55-0.138,0.894-0.275,1.169c-0.138,0.206-0.344,0.344-0.688,0.344h-0.138v0.138h0.138v-2.614h0.413
		v-0.138v-0.137h-0.619h-0.069V100h0.275c0.413,0,0.757-0.138,0.963-0.481s0.274-0.756,0.344-1.307h-0.138v0.138h0.138v-0.138
		h-0.206v3.576h0.206v-0.138h-0.206v0.138h0.137c-0.068-0.413-0.137-0.757-0.205-1.032c-0.139-0.274-0.275-0.481-0.482-0.549
		c-0.206-0.138-0.412-0.138-0.756-0.138h-0.069v2.132c0,0.412,0,0.619,0.069,0.756c0.068,0.138,0.137,0.207,0.206,0.275
		c0.138,0.068,0.274,0.138,0.481,0.138h0.344c0.551,0,1.101-0.138,1.444-0.481s0.619-0.825,0.757-1.444l-0.138-0.069v0.139h0.138
		v-0.139h-0.138l-0.275,2.064h-4.813l0,0h-0.139v0.137h0.207c0.206,0,0.344-0.068,0.48-0.137c0.139-0.069,0.207-0.207,0.207-0.345
		c0.068-0.138,0.068-0.344,0.068-0.688v-4.539c0-0.344,0-0.481,0-0.619c-0.068-0.138-0.137-0.275-0.206-0.344
		c-0.138-0.138-0.344-0.207-0.55-0.207l0,0l0,0h-0.138v0.138h4.813v1.857h0.207v-0.138h-0.138v0.138h0.138
		c-0.068-0.481-0.207-0.894-0.412-1.169c-0.207-0.275-0.413-0.413-0.758-0.55c-0.205-0.068-0.549-0.068-0.963-0.068v0.068H180.949z
		 M176.822,101.031l-0.137-0.068c-0.139,0.551-0.275,0.963-0.413,1.169c-0.138,0.275-0.275,0.413-0.481,0.55
		c-0.207,0.139-0.412,0.139-0.688,0.139h-0.482c-0.274,0-0.48,0-0.48,0c-0.069,0-0.069-0.069-0.138-0.139
		c0-0.068-0.069-0.274-0.069-0.618v-4.402c0-0.344,0-0.55,0.069-0.55c0.068-0.069,0.068-0.138,0.138-0.138
		c0.068-0.068,0.206-0.068,0.344-0.068h0.275h0.137v-0.344v-0.206h-3.508v0.344v0.138h0.344c0.139,0,0.207,0,0.275,0.069
		c0.069,0.068,0.139,0.068,0.139,0.137c0,0,0.068,0.275,0.068,0.619v4.54c0,0.344,0,0.55-0.068,0.55
		c-0.069,0.069-0.069,0.138-0.139,0.138c-0.068,0.068-0.206,0.068-0.344,0.068h-0.206h-0.138v0.344v0.139h5.57l0.275-2.752h-0.344
		h-0.137v0.138L176.822,101.031v0.138h0.207v-0.138H176.822l-0.206,2.27h-4.952l0,0h-0.137v0.139h0.206
		c0.206,0,0.344-0.069,0.481-0.139c0.137-0.068,0.206-0.206,0.206-0.344c0.069-0.137,0.069-0.344,0.069-0.688V97.73
		c0-0.344,0-0.55-0.069-0.688c-0.069-0.137-0.138-0.206-0.274-0.344c-0.139-0.069-0.275-0.138-0.482-0.138l0,0l0,0h-0.137v0.138
		h2.957l0,0h0.137v-0.138h-0.274c-0.206,0-0.344,0.069-0.481,0.138s-0.207,0.207-0.275,0.344c-0.068,0.138-0.068,0.344-0.068,0.688
		v4.401c0,0.345,0,0.55,0.068,0.757c0.068,0.138,0.138,0.275,0.275,0.344s0.344,0.068,0.619,0.068h0.481
		c0.344,0,0.618-0.068,0.894-0.206s0.413-0.344,0.619-0.688c0.138-0.275,0.344-0.688,0.481-1.238L176.822,101.031v0.138V101.031z
		 M170.289,101.031l-0.138-0.068c-0.138,0.551-0.275,0.963-0.413,1.169c-0.137,0.275-0.275,0.413-0.48,0.55
		c-0.207,0.139-0.413,0.139-0.688,0.139h-0.481c-0.275,0-0.481,0-0.481,0c-0.069,0-0.069-0.069-0.138-0.139
		c0-0.068-0.068-0.274-0.068-0.618v-4.402c0-0.344,0-0.55,0.068-0.55c0.068-0.069,0.068-0.138,0.138-0.138
		c0.069-0.068,0.206-0.068,0.345-0.068h0.274h0.138v-0.344v-0.206h-3.508v0.344v0.138h0.344c0.138,0,0.207,0,0.275,0.069
		c0.068,0.068,0.138,0.068,0.138,0.137c0,0,0.068,0.275,0.068,0.619v4.54c0,0.344,0,0.55-0.068,0.55
		c-0.069,0.069-0.069,0.138-0.138,0.138c-0.068,0.068-0.207,0.068-0.344,0.068h-0.207h-0.137v0.344v0.139h5.57l0.275-2.752h-0.344
		h-0.138v0.138L170.289,101.031v0.138h0.206v-0.138H170.289l-0.207,2.27h-4.951l0,0h-0.138v0.139h0.206
		c0.207,0,0.344-0.069,0.481-0.139c0.138-0.068,0.206-0.206,0.206-0.344c0.069-0.137,0.069-0.344,0.069-0.688V97.73
		c0-0.344,0-0.55-0.069-0.688c-0.068-0.137-0.137-0.206-0.274-0.344c-0.138-0.069-0.275-0.138-0.481-0.138l0,0l0,0h-0.138v0.138
		h2.958l0,0h0.137v-0.138h-0.275c-0.206,0-0.344,0.069-0.48,0.138c-0.139,0.069-0.207,0.207-0.275,0.344
		c-0.068,0.138-0.068,0.344-0.068,0.688v4.401c0,0.345,0,0.55,0.068,0.757c0.068,0.138,0.137,0.275,0.275,0.344
		c0.137,0.068,0.344,0.068,0.619,0.068h0.48c0.344,0,0.619-0.068,0.895-0.206s0.412-0.344,0.619-0.688
		c0.137-0.275,0.344-0.688,0.48-1.238L170.289,101.031v0.138V101.031z M161.555,97.111l-0.138,0.138
		c0.206,0.138,0.344,0.413,0.481,0.894c0.137,0.413,0.206,1.101,0.206,1.995c0,0.757-0.069,1.376-0.206,1.788
		c-0.138,0.481-0.344,0.756-0.551,0.963c-0.137,0.138-0.344,0.206-0.619,0.206c-0.412,0-0.688-0.138-0.894-0.481
		c-0.344-0.481-0.481-1.375-0.481-2.476c0-0.963,0.138-1.72,0.344-2.201c0.275-0.619,0.619-0.825,1.101-0.825
		c0.274,0,0.481,0.069,0.688,0.207L161.555,97.111l0.137-0.138c-0.274-0.206-0.55-0.344-0.894-0.344
		c-0.619,0-1.101,0.413-1.376,1.032c-0.275,0.55-0.344,1.307-0.344,2.338c0,1.169,0.207,2.063,0.551,2.682
		c0.275,0.413,0.688,0.688,1.169,0.688c0.344,0,0.619-0.069,0.894-0.275c0.275-0.274,0.482-0.618,0.619-1.101
		c0.138-0.48,0.207-1.1,0.207-1.925c0-0.894-0.069-1.582-0.207-2.063c-0.137-0.481-0.344-0.825-0.619-1.032L161.555,97.111z
		 M158.528,97.455l-0.138-0.137c-0.619,0.688-0.963,1.582-0.963,2.682c0,0.963,0.207,1.788,0.688,2.477
		c0.619,0.894,1.514,1.307,2.613,1.307c1.102,0,1.995-0.482,2.613-1.376c0.482-0.688,0.688-1.513,0.688-2.407
		c0-1.032-0.274-1.926-0.894-2.682c-0.551-0.688-1.376-1.032-2.27-1.032h-0.139v0.138v-0.138h-0.137
		c-0.826,0-1.582,0.344-2.201,1.032L158.528,97.455l0.138,0.138c0.55-0.619,1.169-0.894,1.926-0.894h0.137l0,0h0.139
		c0.824,0,1.512,0.275,1.994,0.894c0.55,0.619,0.825,1.444,0.825,2.407c0,0.825-0.206,1.582-0.619,2.201
		c-0.55,0.825-1.307,1.238-2.339,1.238c-1.031,0-1.787-0.413-2.338-1.17c-0.412-0.619-0.688-1.375-0.688-2.27
		c0-0.963,0.275-1.788,0.825-2.407V97.455z M156.053,96.424h-0.139c0,0.137-0.068,0.275-0.068,0.275l-0.137,0.069
		c0,0-0.207-0.069-0.413-0.138c-0.481-0.206-0.963-0.344-1.376-0.344c-0.619,0-1.169,0.206-1.719,0.481
		c-0.551,0.344-0.963,0.825-1.238,1.444s-0.481,1.238-0.481,1.926c0,0.618,0.138,1.237,0.413,1.856
		c0.274,0.551,0.688,1.032,1.169,1.307c0.55,0.344,1.101,0.482,1.788,0.482c0.481,0,0.963-0.069,1.307-0.275
		c0.412-0.207,0.756-0.481,1.101-0.895l0.068-0.068v-0.688v-0.551l-0.344,0.412c-0.344,0.482-0.618,0.758-0.963,0.963
		c-0.274,0.207-0.618,0.275-0.963,0.275c-0.413,0-0.757-0.137-0.963-0.344c-0.274-0.206-0.481-0.55-0.55-1.031
		c-0.138-0.481-0.207-1.031-0.207-1.651c0-0.619,0.069-1.169,0.275-1.65c0.138-0.344,0.344-0.688,0.619-0.894
		c0.275-0.207,0.551-0.344,0.895-0.344c0.412,0,0.756,0.138,1.1,0.481c0.344,0.275,0.551,0.757,0.688,1.307v0.137h0.345h0.138
		v-2.751h-0.344h-0.139v0.138L156.053,96.424v0.137h0.137v-0.137H156.053v2.407h0.137v-0.138h-0.137v0.069l0.137-0.069
		c-0.137-0.619-0.412-1.169-0.756-1.513s-0.826-0.55-1.307-0.55c-0.413,0-0.826,0.138-1.102,0.413
		c-0.344,0.275-0.549,0.619-0.756,1.032c-0.206,0.55-0.275,1.101-0.275,1.788c0,0.619,0.069,1.169,0.207,1.72
		c0.137,0.55,0.344,0.963,0.688,1.238c0.344,0.274,0.756,0.412,1.238,0.412c0.412,0,0.756-0.068,1.1-0.275
		c0.344-0.206,0.688-0.55,1.032-1.031l-0.138-0.068h-0.138v0.619h0.138l-0.138-0.139c-0.344,0.413-0.618,0.688-0.963,0.826
		c-0.344,0.137-0.757,0.275-1.169,0.275c-0.619,0-1.101-0.139-1.582-0.413c-0.481-0.275-0.825-0.688-1.1-1.169
		c-0.275-0.551-0.414-1.102-0.414-1.651c0-0.619,0.139-1.238,0.414-1.789c0.274-0.55,0.688-0.963,1.168-1.307
		c0.482-0.275,0.963-0.481,1.514-0.481c0.412,0,0.825,0.069,1.238,0.275c0.275,0.137,0.412,0.206,0.55,0.206
		s0.274-0.069,0.344-0.206c0.069-0.138,0.138-0.275,0.206-0.481H156.053v0.137V96.424z M145.323,96.561h-0.206v0.207v0.138h0.137
		c0.275,0,0.413,0.068,0.413,0.137l0.069,0.069c0,0.069-0.139,0.413-0.344,0.894l-0.895,1.788l-0.895-1.925
		c-0.206-0.481-0.344-0.826-0.344-0.826l0.068-0.069c0,0,0.069-0.068,0.275-0.068h0.138h0.138v-0.344v-0.206h-3.164v0.344v0.138
		h0.139c0.137,0,0.274,0.069,0.344,0.137c0.068,0.069,0.274,0.413,0.55,0.963l1.376,2.889v1.307c0,0.345,0,0.55-0.069,0.55
		c-0.069,0.069-0.069,0.139-0.138,0.139c-0.068,0.068-0.138,0.068-0.344,0.068h-0.344h-0.138v0.344v0.138h3.646v-0.344v-0.138
		h-0.482c-0.137,0-0.205,0-0.274-0.068c-0.069-0.069-0.138-0.069-0.138-0.139c0,0-0.068-0.274-0.068-0.618v-1.651l1.238-2.476
		c0.344-0.619,0.549-1.031,0.688-1.1c0.068-0.069,0.206-0.138,0.344-0.138h0.137v-0.344v-0.138h-2.063v0.138h0.206v0.137h1.65l0,0
		h0.138v-0.137c-0.206,0-0.412,0.137-0.551,0.275c-0.205,0.207-0.412,0.55-0.756,1.238l-1.307,2.544v1.719
		c0,0.345,0,0.55,0.068,0.688c0.068,0.137,0.138,0.206,0.275,0.274c0.138,0.069,0.275,0.138,0.481,0.138h0.138l0,0h0.137v-0.206
		h-3.163l0,0h-0.138v0.138h0.344c0.207,0,0.344-0.069,0.482-0.138c0.137-0.069,0.205-0.206,0.274-0.345
		c0.069-0.137,0.069-0.344,0.069-0.688v-1.443l-1.376-2.958c-0.275-0.619-0.481-0.894-0.619-1.101
		c-0.138-0.137-0.344-0.206-0.55-0.206v0.138h0.137l0,0h2.477l0,0h0.138v-0.138h-0.138c-0.207,0-0.344,0-0.481,0.138
		c-0.069,0.068-0.138,0.206-0.138,0.344c0,0.206,0.138,0.481,0.344,0.963l1.238,2.613l1.238-2.407c0.275-0.55,0.412-0.825,0.412-1.1
		c0-0.138-0.068-0.275-0.206-0.344C145.805,96.63,145.598,96.63,145.323,96.561v0.207h0.138v-0.207H145.323v0.138V96.561z
		 M134.525,96.561h-0.138v2.063h0.345h0.137v-0.138c0.068-0.481,0.207-0.825,0.413-1.1c0.138-0.138,0.344-0.207,0.757-0.207h0.274
		v5.158c0,0.344,0,0.551-0.069,0.551c-0.068,0.068-0.068,0.138-0.137,0.138c-0.068,0.068-0.207,0.068-0.344,0.068h-0.207h-0.068
		v0.345v0.137h3.439v-0.344v-0.138h-0.345c-0.138,0-0.274,0-0.274-0.068c-0.069-0.069-0.139-0.069-0.139-0.138
		c0,0-0.068-0.275-0.068-0.619v-5.158h0.275c0.275,0,0.412,0.069,0.481,0.069c0.206,0.069,0.274,0.207,0.413,0.413
		c0.068,0.138,0.206,0.481,0.274,0.894v0.138h0.275h0.138v-2.201h-5.64v0.206h0.206v0.138h5.158v1.719h0.138V98.35h-0.138v0.137
		l0.138-0.069c-0.069-0.413-0.206-0.756-0.344-0.963c-0.138-0.206-0.275-0.413-0.55-0.481c-0.139-0.068-0.345-0.137-0.688-0.137
		h-0.413h-0.137v5.501c0,0.344,0,0.551,0.068,0.688s0.138,0.206,0.275,0.344c0.137,0.069,0.275,0.138,0.481,0.138l0,0l0,0h0.138
		v-0.138h-2.957l0,0h-0.139v0.138h0.207c0.206,0,0.344-0.068,0.48-0.138c0.139-0.069,0.207-0.206,0.275-0.344
		c0.069-0.138,0.069-0.345,0.069-0.688v-5.501h-0.619c-0.413,0-0.757,0.137-0.963,0.344c-0.274,0.275-0.481,0.756-0.55,1.238h0.137
		v-0.137h-0.137v0.137h0.137v-1.857H134.525v0.138V96.561z M133.287,103.232v-0.138c-0.137,0-0.206,0-0.275-0.068
		c-0.068-0.069-0.137-0.069-0.137-0.138c0,0-0.068-0.275-0.068-0.619V97.73c0-0.344,0-0.55,0.068-0.55
		c0.068-0.069,0.068-0.138,0.137-0.138c0.069-0.069,0.207-0.069,0.345-0.069h0.206h0.138V96.63v-0.206h-3.438v0.344v0.138h0.344
		c0.137,0,0.206,0,0.275,0.068c0.068,0.069,0.137,0.069,0.137,0.138c0,0,0.068,0.275,0.068,0.619v4.539c0,0.344,0,0.551-0.068,0.551
		c-0.068,0.068-0.068,0.137-0.137,0.137c-0.069,0.069-0.207,0.069-0.344,0.069h-0.207h-0.138v0.344v0.138h3.438v-0.344v-0.138
		h-0.344V103.232v0.138l0,0l0,0h0.138v-0.206h-2.957l0,0h-0.138v0.137h0.207c0.205,0,0.344-0.068,0.48-0.137
		c0.138-0.069,0.207-0.207,0.207-0.344c0.068-0.139,0.068-0.344,0.068-0.688v-4.539c0-0.344,0-0.55-0.068-0.688
		c-0.069-0.138-0.139-0.207-0.275-0.344c-0.138-0.069-0.275-0.137-0.481-0.137l0,0l0,0h-0.138v0.137h2.889l0,0h0.138v-0.137h-0.206
		c-0.207,0-0.344,0.068-0.482,0.137c-0.137,0.069-0.205,0.207-0.274,0.344c-0.069,0.137-0.069,0.344-0.069,0.688v4.539
		c0,0.345,0,0.55,0.069,0.688c0.069,0.137,0.138,0.206,0.274,0.344c0.139,0.068,0.275,0.137,0.482,0.137v-0.068H133.287z
		 M123.246,96.561h-0.137v0.207v0.138h0.137c0.138,0,0.275,0.068,0.344,0.068s0.138,0.138,0.275,0.275l0.068,0.138v4.814
		c0,0.344-0.068,0.55-0.137,0.688c-0.069,0.068-0.275,0.138-0.551,0.206h-0.137v0.345v0.137h2.475v-0.344v-0.138h-0.344
		c-0.137,0-0.274-0.068-0.412-0.138c-0.068-0.068-0.207-0.275-0.207-0.688v-3.852l3.715,5.365h0.206h0.138v-5.915
		c0-0.344,0-0.55,0.068-0.619c0.068-0.138,0.068-0.207,0.138-0.207s0.206-0.069,0.413-0.137h0.137v-0.344v-0.137h-2.2v0.344v0.206
		h0.206l0,0c0.275,0,0.412,0.069,0.551,0.207c0.068,0.069,0.137,0.344,0.137,0.756v2.407l-2.682-3.852h-2.338v0.138h0.137v0.138
		h1.994l3.164,4.677v-3.508c0-0.413-0.068-0.756-0.206-0.963c-0.206-0.275-0.481-0.344-0.825-0.344h-0.068v0.138h0.137l0,0h1.582
		l0,0h0.138V96.63c-0.275,0.069-0.413,0.069-0.55,0.207c-0.139,0.069-0.207,0.206-0.275,0.344c-0.069,0.207-0.069,0.413-0.069,0.756
		v5.708h0.206v-0.137h-0.068l-4.264-6.121v4.883c0,0.412,0.068,0.757,0.275,0.963c0.205,0.138,0.412,0.275,0.618,0.275h0.138v-0.138
		l0,0l0,0h-1.788l0,0h-0.138v0.138c0.344,0,0.619-0.068,0.825-0.275c0.138-0.206,0.206-0.481,0.206-0.895v-4.883l-0.137-0.206
		c-0.138-0.207-0.275-0.344-0.413-0.413C123.658,96.63,123.453,96.63,123.246,96.561v0.207h0.138v-0.207H123.246v0.138V96.561z
		 M116.3,96.768v0.138l0,0c0.206,0,0.344,0,0.413,0.068c0.068,0.069,0.068,0.069,0.137,0.138c0,0,0.069,0.275,0.069,0.688v3.37
		c0,0.619,0.069,1.032,0.274,1.444c0.207,0.344,0.482,0.688,0.895,0.895c0.344,0.206,0.757,0.275,1.307,0.275
		c0.619,0,1.17-0.139,1.582-0.482c0.344-0.344,0.619-0.688,0.757-1.1c0.068-0.413,0.138-0.963,0.138-1.789v-2.613
		c0-0.275,0-0.481,0.068-0.55c0.068-0.138,0.068-0.207,0.207-0.275c0.068-0.068,0.205-0.068,0.344-0.068h0.137h0.138v-0.344v-0.137
		h-2.407v0.344v0.138h0.138c0.206,0,0.344,0.068,0.481,0.068c0.068,0,0.068,0.069,0.138,0.207c0.069,0.069,0.069,0.275,0.069,0.619
		v2.82c0,0.688-0.069,1.238-0.139,1.444c-0.068,0.274-0.274,0.481-0.48,0.618c-0.207,0.139-0.413,0.207-0.688,0.207
		c-0.274,0-0.413-0.068-0.618-0.138c-0.139-0.138-0.275-0.274-0.344-0.413c-0.069-0.137-0.139-0.55-0.139-1.169v-3.37
		c0-0.413,0-0.619,0.069-0.688c0-0.069,0.069-0.138,0.138-0.138c0,0,0.137-0.068,0.412-0.068h0.138h0.138v-0.344v-0.137h-3.37
		V96.768v0.206h0.206L116.3,96.768h0.138l0,0h2.682l0,0h0.139V96.63h-0.139c-0.274,0-0.412,0-0.55,0.138
		c-0.138,0.069-0.206,0.206-0.274,0.344c-0.069,0.138-0.069,0.413-0.069,0.825v3.37c0,0.619,0.069,1.031,0.138,1.307
		c0.068,0.207,0.275,0.413,0.481,0.551c0.206,0.137,0.481,0.206,0.825,0.206s0.688-0.069,0.895-0.275
		c0.274-0.206,0.412-0.481,0.55-0.757c0.138-0.344,0.206-0.824,0.206-1.582v-2.819c0-0.344,0-0.55-0.068-0.756
		c-0.068-0.138-0.138-0.275-0.275-0.344s-0.412-0.138-0.619-0.138v0.138h0.138l0,0h1.72l0,0h0.137v-0.138h-0.137
		c-0.207,0-0.344,0.069-0.482,0.138c-0.137,0.069-0.274,0.275-0.274,0.413c-0.069,0.138-0.069,0.344-0.069,0.619v2.613
		c0,0.825-0.068,1.376-0.137,1.72s-0.275,0.619-0.619,0.894c-0.344,0.275-0.757,0.413-1.375,0.413c-0.482,0-0.895-0.068-1.102-0.207
		c-0.344-0.206-0.619-0.48-0.756-0.756c-0.138-0.275-0.207-0.757-0.207-1.307v-3.37c0-0.413,0-0.619-0.068-0.826
		c-0.068-0.137-0.137-0.206-0.275-0.344c-0.137-0.069-0.344-0.138-0.55-0.138h-0.069L116.3,96.768h0.138H116.3z M109.697,96.561
		v-0.137h-2.613v0.344v0.138h0.344c0.138,0,0.207,0,0.275,0.068c0.068,0.069,0.137,0.069,0.137,0.138c0,0,0.069,0.275,0.069,0.619
		v4.333c0,0.274,0,0.481,0,0.481c0,0.137-0.069,0.275-0.138,0.275c-0.068,0.068-0.068,0.137-0.206,0.137
		c-0.069,0.069-0.206,0.069-0.275,0.069l0,0l0,0h-0.138v0.344v0.138h2.339v-0.344v-0.138h-0.138c-0.275,0-0.412-0.069-0.481-0.138
		s-0.138-0.207-0.206-0.344c0-0.068,0-0.275,0-0.619v-3.852l1.994,5.434h0.207h0.137l1.994-5.434v4.127c0,0.344,0,0.55-0.068,0.55
		c-0.068,0.069-0.068,0.138-0.137,0.138c-0.069,0.068-0.207,0.068-0.345,0.068h-0.206h-0.138v0.344v0.139h3.438v-0.345v-0.138
		h-0.344c-0.137,0-0.275,0-0.275-0.068c-0.068-0.068-0.137-0.068-0.137-0.138c0,0-0.068-0.274-0.068-0.619v-4.539
		c0-0.344,0-0.55,0.068-0.55c0.068-0.069,0.068-0.137,0.137-0.137c0.069-0.069,0.207-0.069,0.344-0.069h0.207h0.138v-0.344v-0.137
		h-2.683l-1.513,4.196l-1.513-4.196h-0.139v0.206l-0.137,0.069l1.856,4.952l1.72-4.883h2.132l0,0h0.138v-0.138h-0.207
		c-0.205,0-0.344,0.069-0.549,0.138c-0.139,0.069-0.207,0.207-0.207,0.344c-0.068,0.138-0.068,0.344-0.068,0.688v4.539
		c0,0.344,0,0.551,0.068,0.688c0.068,0.138,0.138,0.207,0.275,0.344c0.137,0.069,0.275,0.139,0.48,0.139l0,0l0,0h0.139v-0.139
		h-2.889l0,0h-0.138v0.139h0.206c0.207,0,0.344-0.069,0.481-0.139c0.138-0.068,0.206-0.206,0.206-0.344
		c0.068-0.137,0.068-0.344,0.068-0.688v-6.052l-2.613,7.153l0.139,0.069v-0.139h-0.139v0.139l0.139-0.069l-2.614-7.084v5.777
		c0,0.344,0,0.55,0,0.688c0.069,0.206,0.138,0.413,0.275,0.481c0.206,0.138,0.413,0.207,0.688,0.207v-0.139h-0.138l0,0h-1.65l0,0
		h-0.138v0.139h0.069l0,0c0.137,0,0.275,0,0.412-0.069c0.138-0.069,0.275-0.138,0.344-0.275c0.069-0.138,0.138-0.274,0.138-0.413
		c0-0.068,0-0.205,0-0.55v-4.333c0-0.344,0-0.55-0.069-0.688c-0.068-0.138-0.137-0.206-0.274-0.344
		c-0.138-0.069-0.274-0.138-0.481-0.138l0,0l0,0h-0.138v0.138h2.407V96.561l-0.137,0.069L109.697,96.561z M100.688,96.561v-0.137
		h-2.613v0.344v0.138h0.344c0.138,0,0.207,0,0.275,0.068c0.069,0.069,0.137,0.069,0.137,0.138c0,0,0.069,0.275,0.069,0.619v4.333
		c0,0.274,0,0.481,0,0.481c0,0.137-0.069,0.206-0.137,0.275c-0.069,0.068-0.069,0.137-0.207,0.137
		c-0.069,0.069-0.206,0.069-0.275,0.069l0,0h-0.069h-0.138v0.344v0.138h2.338v-0.344v-0.138h-0.138
		c-0.275,0-0.413-0.069-0.481-0.138c-0.068-0.068-0.137-0.207-0.206-0.344c0-0.068,0-0.275,0-0.619v-3.852l1.995,5.434h0.206h0.138
		l1.994-5.434v4.127c0,0.344,0,0.55-0.068,0.55c-0.068,0.069-0.068,0.138-0.138,0.138c-0.069,0.068-0.206,0.068-0.344,0.068h-0.206
		h-0.139v0.344v0.139h3.439v-0.345v-0.138h-0.344c-0.138,0-0.275,0-0.275-0.068c-0.068-0.068-0.137-0.068-0.137-0.138
		c0,0-0.069-0.274-0.069-0.619v-4.539c0-0.344,0-0.55,0.069-0.55c0.068-0.069,0.068-0.137,0.137-0.137
		c0.068-0.069,0.207-0.069,0.344-0.069h0.207h0.137v-0.344v-0.137h-2.682l-1.514,4.196l-1.513-4.196h-0.138V96.561l-0.137,0.069
		l1.856,4.952l1.72-4.883h2.132l0,0h0.138v-0.138h-0.207c-0.206,0-0.344,0.069-0.55,0.138c-0.138,0.069-0.206,0.207-0.206,0.344
		c-0.068,0.138-0.068,0.344-0.068,0.688v4.539c0,0.344,0,0.551,0.068,0.688c0.068,0.138,0.137,0.207,0.275,0.344
		c0.137,0.069,0.274,0.139,0.48,0.139l0,0l0,0h0.138v-0.139h-2.888l0,0h-0.139v0.139h0.207c0.206,0,0.344-0.069,0.48-0.139
		c0.139-0.068,0.207-0.206,0.207-0.344c0.068-0.137,0.068-0.344,0.068-0.688v-6.052l-2.613,7.153l0.138,0.069v-0.139h-0.138v0.139
		l0.138-0.069l-2.613-7.084v5.777c0,0.344,0,0.55,0,0.688c0.069,0.206,0.137,0.413,0.275,0.481c0.207,0.138,0.413,0.207,0.688,0.207
		v-0.139H100l0,0h-1.65l0,0h-0.138v0.139h0.069l0,0c0.137,0,0.275,0,0.413-0.069s0.275-0.138,0.344-0.275s0.138-0.274,0.138-0.413
		c0-0.068,0-0.205,0-0.55v-4.333c0-0.344,0-0.55-0.069-0.688s-0.138-0.206-0.275-0.344c-0.138-0.069-0.275-0.138-0.481-0.138l0,0
		l0,0h-0.138v0.138h2.407v-0.207l-0.138,0.069L100.688,96.561z M94.842,97.111l-0.138,0.138c0.207,0.138,0.344,0.413,0.481,0.894
		c0.138,0.413,0.207,1.101,0.207,1.995c0,0.757-0.069,1.376-0.207,1.788c-0.137,0.481-0.344,0.756-0.55,0.963
		c-0.137,0.138-0.344,0.206-0.619,0.206c-0.413,0-0.688-0.138-0.894-0.481c-0.344-0.481-0.481-1.375-0.481-2.476
		c0-0.963,0.137-1.72,0.344-2.201c0.275-0.619,0.619-0.825,1.101-0.825c0.275,0,0.481,0.069,0.688,0.207L94.842,97.111l0.138-0.138
		c-0.275-0.206-0.55-0.344-0.894-0.344c-0.619,0-1.101,0.413-1.375,1.032c-0.275,0.55-0.344,1.307-0.344,2.338
		c0,1.169,0.207,2.063,0.55,2.682c0.275,0.413,0.688,0.688,1.169,0.688c0.344,0,0.619-0.069,0.894-0.275
		c0.275-0.274,0.481-0.618,0.619-1.101c0.138-0.48,0.207-1.1,0.207-1.925c0-0.894-0.069-1.582-0.207-2.063
		c-0.137-0.481-0.344-0.825-0.619-1.032L94.842,97.111z M91.816,97.455l-0.138-0.137c-0.619,0.688-0.963,1.582-0.963,2.682
		c0,0.963,0.206,1.788,0.688,2.477c0.619,0.894,1.513,1.307,2.614,1.307c1.1,0,1.995-0.482,2.613-1.376
		c0.481-0.688,0.688-1.513,0.688-2.407c0-1.032-0.275-1.926-0.894-2.682c-0.55-0.688-1.375-1.032-2.27-1.032h-0.138v0.138v-0.138
		h-0.138c-0.825,0-1.582,0.344-2.201,1.032L91.816,97.455l0.137,0.138c0.55-0.619,1.169-0.894,1.926-0.894h0.138l0,0h0.137
		c0.826,0,1.513,0.275,1.995,0.894c0.55,0.619,0.825,1.444,0.825,2.407c0,0.825-0.206,1.582-0.619,2.201
		c-0.55,0.825-1.307,1.238-2.338,1.238s-1.788-0.413-2.338-1.17c-0.413-0.619-0.688-1.375-0.688-2.27
		c0-0.963,0.275-1.788,0.826-2.407V97.455z M89.34,96.424h-0.138c0,0.137-0.069,0.275-0.069,0.275l-0.137,0.069
		c0,0-0.207-0.069-0.413-0.138c-0.481-0.206-0.963-0.344-1.375-0.344c-0.619,0-1.169,0.206-1.719,0.481
		c-0.55,0.344-0.963,0.825-1.238,1.444c-0.275,0.619-0.481,1.238-0.481,1.926c0,0.618,0.137,1.237,0.413,1.856
		c0.275,0.551,0.688,1.032,1.169,1.307c0.55,0.344,1.101,0.482,1.789,0.482c0.481,0,0.962-0.069,1.307-0.275
		c0.344-0.207,0.756-0.481,1.1-0.895l0.069-0.068v-0.688v-0.551l-0.344,0.412c-0.344,0.482-0.619,0.758-0.963,0.963
		c-0.275,0.207-0.619,0.275-0.963,0.275c-0.413,0-0.756-0.137-0.963-0.344c-0.275-0.206-0.481-0.55-0.55-1.031
		c-0.137-0.481-0.206-1.031-0.206-1.651c0-0.619,0.069-1.169,0.275-1.65c0.138-0.344,0.344-0.688,0.619-0.894
		c0.275-0.207,0.55-0.344,0.894-0.344c0.413,0,0.756,0.138,1.101,0.481c0.344,0.275,0.55,0.757,0.688,1.307v0.137h0.344h0.138
		v-2.751H89.34h-0.138v0.138L89.34,96.424v0.137h0.137v-0.137H89.34v2.407h0.137v-0.138H89.34v0.069l0.137-0.069
		c-0.137-0.619-0.413-1.169-0.756-1.513s-0.825-0.55-1.307-0.55c-0.413,0-0.756,0.138-1.101,0.413
		c-0.344,0.275-0.55,0.619-0.756,1.032c-0.207,0.55-0.275,1.101-0.275,1.788c0,0.619,0.069,1.169,0.207,1.72
		c0.138,0.55,0.344,0.963,0.688,1.238c0.344,0.274,0.756,0.412,1.238,0.412c0.413,0,0.756-0.068,1.101-0.275
		c0.344-0.206,0.688-0.55,1.031-1.031l-0.137-0.068h-0.138v0.619h0.138l-0.138-0.139c-0.344,0.413-0.619,0.688-0.963,0.826
		c-0.344,0.137-0.756,0.275-1.169,0.275c-0.619,0-1.101-0.139-1.582-0.413c-0.481-0.275-0.825-0.688-1.101-1.169
		c-0.275-0.551-0.413-1.102-0.413-1.651c0-0.619,0.138-1.238,0.413-1.789c0.275-0.55,0.688-0.963,1.169-1.307
		c0.481-0.275,0.963-0.481,1.513-0.481c0.413,0,0.825,0.069,1.238,0.275c0.275,0.137,0.413,0.206,0.55,0.206
		c0.137,0,0.275-0.069,0.344-0.206c0.069-0.138,0.138-0.275,0.207-0.481H89.34v0.137V96.424z M78.68,96.561h-0.138v0.207v0.138
		h0.138c0.206,0,0.344,0.068,0.344,0.068c0.069,0.069,0.069,0.069,0.069,0.207c0,0.069,0,0.138,0,0.275
		c0,0.069-0.069,0.275-0.207,0.619l-0.825,2.477l-0.894-2.751c-0.138-0.413-0.207-0.619-0.207-0.688v-0.069l0.069-0.069
		c0.069,0,0.207-0.068,0.344-0.068h0.138v-0.344v-0.206h-3.232v0.344v0.138h0.138c0.137,0,0.275,0,0.344,0.069
		c0.069,0.068,0.138,0.137,0.207,0.206c0.068,0.138,0.137,0.344,0.275,0.757l0.207,0.688l-0.757,2.063l-1.032-2.889
		c-0.137-0.413-0.206-0.688-0.206-0.757l0.069-0.137c0,0,0.137-0.069,0.275-0.069h0.138v-0.344v-0.138h-2.889v0.344v0.138h0.138
		c0.137,0,0.206,0.069,0.275,0.138c0.069,0.068,0.207,0.413,0.413,0.963l1.995,5.708h0.275h0.138l1.513-4.058l1.375,4.058h0.275
		h0.138l1.926-5.777c0.138-0.481,0.275-0.757,0.275-0.757c0.069-0.137,0.138-0.206,0.138-0.206c0.069-0.069,0.138-0.069,0.207-0.069
		h0.137v-0.344v-0.138h-1.857v0.138h0.275V96.561h1.375l0,0h0.137v-0.137c-0.137,0-0.275,0.068-0.344,0.137
		c-0.138,0.069-0.206,0.207-0.275,0.344c0,0.068-0.138,0.344-0.275,0.825l-1.788,5.57h-0.069v0.275l0.138-0.068l-1.651-4.883
		l-1.719,4.746H74.14v0.206l0.138-0.068l-1.926-5.64c-0.206-0.55-0.344-0.895-0.413-1.032c-0.138-0.138-0.275-0.275-0.55-0.275
		v0.138h0.138l0,0h2.201l0,0h0.138v-0.138c-0.207,0-0.413,0.069-0.55,0.138c-0.069,0.069-0.138,0.207-0.138,0.344
		c0,0.207,0.069,0.413,0.207,0.894l1.307,3.782l1.101-3.094l-0.275-0.756c-0.137-0.413-0.206-0.688-0.344-0.826
		c-0.069-0.137-0.206-0.275-0.344-0.344s-0.275-0.138-0.481-0.138v0.138h0.138l0,0h2.544l0,0h0.138v-0.138
		c-0.207,0-0.344,0-0.481,0.069c-0.069,0.069-0.207,0.069-0.207,0.207c-0.069,0.069-0.069,0.206-0.069,0.275
		c0,0.138,0.069,0.344,0.207,0.757l1.238,3.714l1.101-3.439c0.069-0.275,0.138-0.481,0.207-0.619c0-0.137,0.068-0.206,0.068-0.344
		s-0.068-0.344-0.206-0.481C79.161,96.63,78.955,96.63,78.68,96.561v0.207h0.137v-0.207H78.68v0.138V96.561z M68.157,97.111
		l-0.138,0.138c0.207,0.138,0.344,0.413,0.481,0.894c0.138,0.413,0.207,1.101,0.207,1.995c0,0.757-0.069,1.376-0.207,1.788
		c-0.137,0.481-0.344,0.756-0.55,0.963c-0.138,0.138-0.344,0.206-0.619,0.206c-0.413,0-0.688-0.138-0.894-0.481
		c-0.344-0.481-0.481-1.375-0.481-2.476c0-0.963,0.138-1.72,0.344-2.201c0.275-0.619,0.619-0.825,1.101-0.825
		c0.275,0,0.481,0.069,0.688,0.207L68.157,97.111l0.138-0.138c-0.275-0.206-0.55-0.344-0.894-0.344
		c-0.619,0-1.101,0.413-1.375,1.032c-0.275,0.55-0.344,1.307-0.344,2.338c0,1.169,0.207,2.063,0.55,2.682
		c0.275,0.413,0.688,0.688,1.169,0.688c0.344,0,0.619-0.069,0.894-0.275c0.275-0.274,0.481-0.618,0.619-1.101
		c0.137-0.48,0.206-1.1,0.206-1.925c0-0.894-0.069-1.582-0.206-2.063c-0.138-0.481-0.344-0.825-0.619-1.032L68.157,97.111z
		 M65.131,97.455l-0.138-0.137c-0.619,0.688-0.963,1.582-0.963,2.682c0,0.963,0.207,1.788,0.688,2.477
		c0.619,0.894,1.513,1.307,2.613,1.307s1.995-0.482,2.613-1.376c0.481-0.688,0.688-1.513,0.688-2.407
		c0-1.032-0.275-1.926-0.894-2.682c-0.55-0.688-1.375-1.032-2.27-1.032h-0.138v0.138v-0.138h-0.138
		c-0.825,0-1.582,0.344-2.201,1.032L65.131,97.455l0.137,0.138c0.55-0.619,1.169-0.894,1.926-0.894h0.138l0,0h0.138
		c0.825,0,1.513,0.275,1.994,0.894c0.55,0.619,0.826,1.444,0.826,2.407c0,0.825-0.207,1.582-0.619,2.201
		c-0.55,0.825-1.307,1.238-2.338,1.238s-1.788-0.413-2.338-1.17c-0.413-0.619-0.688-1.375-0.688-2.27
		c0-0.963,0.275-1.788,0.826-2.407V97.455z M57.771,96.561h-0.137v2.063h0.344h0.138v-0.138c0.068-0.481,0.206-0.825,0.413-1.1
		c0.137-0.138,0.344-0.207,0.756-0.207h0.275v5.158c0,0.344,0,0.551-0.069,0.551c-0.069,0.068-0.069,0.138-0.138,0.138
		c-0.069,0.068-0.207,0.068-0.344,0.068h-0.207h-0.138v0.345v0.137h3.439v-0.344v-0.138h-0.344c-0.138,0-0.275,0-0.275-0.068
		c-0.068-0.069-0.137-0.069-0.137-0.138c0,0-0.069-0.275-0.069-0.619v-5.158h0.275c0.275,0,0.413,0.069,0.481,0.069
		c0.207,0.069,0.275,0.207,0.413,0.413c0.069,0.138,0.207,0.481,0.275,0.894v0.138h0.275h0.275v-2.201h-5.64v0.206h0.137v0.138
		h5.158v1.719h0.138V98.35H62.93v0.137l0.138-0.069c-0.069-0.413-0.207-0.756-0.344-0.963c-0.138-0.206-0.275-0.413-0.55-0.481
		c-0.138-0.068-0.344-0.137-0.688-0.137h-0.413h-0.137v5.501c0,0.344,0,0.551,0.068,0.688c0.069,0.138,0.138,0.206,0.275,0.344
		c0.138,0.069,0.275,0.138,0.481,0.138l0,0l0,0h0.138v-0.207h-2.958l0,0h-0.138v0.139h0.207c0.206,0,0.344-0.069,0.481-0.139
		c0.137-0.068,0.206-0.206,0.275-0.344c0.069-0.137,0.069-0.344,0.069-0.688v-5.502h-0.619c-0.413,0-0.756,0.138-0.963,0.344
		c-0.275,0.275-0.481,0.757-0.55,1.238h0.138v-0.138h-0.069v0.138h0.138v-1.857h-0.138v0.138V96.561z M55.983,96.424h-0.137
		c0,0.206-0.069,0.344-0.069,0.344l-0.069-0.069c0,0-0.138-0.069-0.344-0.138c-0.207-0.137-0.413-0.206-0.55-0.206
		c-0.207-0.069-0.413-0.069-0.619-0.069c-0.55,0-1.032,0.206-1.444,0.619c-0.344,0.413-0.55,0.963-0.55,1.513
		c0,0.344,0.069,0.688,0.207,0.963c0.138,0.275,0.344,0.55,0.55,0.757c0.275,0.206,0.619,0.481,1.169,0.825
		c0.413,0.206,0.619,0.412,0.757,0.481c0.137,0.138,0.206,0.274,0.275,0.413c0.069,0.137,0.069,0.274,0.069,0.412
		c0,0.207-0.069,0.412-0.275,0.619c-0.137,0.138-0.344,0.275-0.688,0.275s-0.688-0.138-1.032-0.551
		c-0.344-0.344-0.55-0.895-0.688-1.582v-0.137H52.27h-0.138v2.957h0.344h0.137l0.069-0.138c0.069-0.138,0.069-0.206,0.138-0.206
		c0.069-0.068,0.138-0.068,0.138-0.068c0.068,0,0.137,0,0.275,0.068c0.275,0.137,0.481,0.206,0.688,0.275
		c0.206,0.068,0.344,0.068,0.55,0.068c0.619,0,1.169-0.207,1.582-0.688c0.413-0.413,0.619-0.963,0.619-1.582
		c0-0.481-0.138-0.895-0.413-1.307c-0.275-0.413-0.757-0.756-1.444-1.169c-0.481-0.275-0.826-0.481-0.894-0.55
		c-0.207-0.138-0.275-0.275-0.344-0.413c-0.069-0.069-0.069-0.207-0.069-0.344c0-0.207,0.069-0.344,0.207-0.55
		c0.138-0.138,0.344-0.207,0.55-0.207c0.344,0,0.619,0.138,0.963,0.481c0.275,0.344,0.481,0.757,0.55,1.307v0.137h0.344h0.206
		l-0.068-2.613h-0.275h-0.137v0.137L55.983,96.424v0.137h0.138v-0.137H55.983v2.132l0,0v0.138h0.138
		c-0.069-0.619-0.275-1.101-0.688-1.444c-0.344-0.344-0.756-0.55-1.169-0.55c-0.344,0-0.619,0.138-0.825,0.344
		c-0.207,0.207-0.275,0.481-0.275,0.757c0,0.206,0.069,0.344,0.138,0.481c0.069,0.206,0.275,0.344,0.481,0.55
		c0.138,0.137,0.481,0.344,0.963,0.619c0.688,0.413,1.101,0.757,1.375,1.101c0.206,0.344,0.344,0.688,0.344,1.1
		c0,0.551-0.206,0.963-0.55,1.376c-0.344,0.413-0.756,0.55-1.375,0.55c-0.206,0-0.344,0-0.481-0.068
		c-0.137-0.068-0.344-0.138-0.619-0.207c-0.138-0.068-0.275-0.137-0.413-0.137c-0.138,0-0.275,0.068-0.344,0.137
		c-0.137,0.069-0.206,0.207-0.275,0.413l0.138,0.069v-0.139h-0.138v-0.068h0.138v-2.613h-0.138v0.138h0.138v-0.138h-0.138
		c0.138,0.756,0.413,1.307,0.756,1.788c0.413,0.413,0.825,0.619,1.307,0.619c0.344,0,0.688-0.138,0.895-0.344
		c0.206-0.206,0.344-0.55,0.344-0.825c0-0.207-0.069-0.344-0.138-0.551c-0.069-0.206-0.206-0.344-0.344-0.481
		s-0.413-0.344-0.825-0.55c-0.55-0.275-0.895-0.55-1.101-0.757c-0.207-0.206-0.413-0.413-0.481-0.688
		c-0.138-0.275-0.207-0.481-0.207-0.825c0-0.481,0.138-0.895,0.481-1.307c0.344-0.344,0.688-0.55,1.169-0.55
		c0.206,0,0.344,0,0.481,0.069s0.275,0.138,0.481,0.207c0.206,0.138,0.344,0.206,0.481,0.206c0.137,0,0.206-0.068,0.344-0.137
		c0.069-0.138,0.138-0.275,0.138-0.481L55.983,96.424v0.137V96.424z M47.73,96.974v0.138c0.413,0,0.688,0.138,0.894,0.344
		c0.206,0.207,0.275,0.55,0.275,1.032c0,0.344-0.069,0.619-0.137,0.825c-0.069,0.207-0.207,0.344-0.413,0.413
		c-0.138,0.068-0.481,0.137-0.826,0.137h-0.069V97.18h0.275V96.974v-0.137h-0.481h-0.207v3.301h0.413
		c0.413,0,0.757-0.069,0.963-0.138c0.207-0.069,0.413-0.275,0.55-0.55c0.138-0.275,0.207-0.55,0.207-0.963
		c0-0.55-0.138-0.963-0.344-1.238c-0.275-0.275-0.688-0.413-1.169-0.413v0.137H47.73z M47.662,100.344l-0.138,0.069l1.926,3.232
		h2.132v-0.344v-0.137h-0.138c-0.138,0-0.207-0.069-0.344-0.138c-0.069-0.069-0.207-0.206-0.344-0.55l-1.375-2.339l-0.137,0.069
		l0.068,0.137c0.413-0.137,0.688-0.275,0.895-0.55c0.344-0.344,0.55-0.825,0.55-1.375c0-0.413-0.137-0.825-0.344-1.169
		c-0.206-0.344-0.55-0.55-0.894-0.688c-0.344-0.137-0.894-0.206-1.65-0.206h-2.889v0.344v0.138h0.137
		c0.275,0,0.413,0.069,0.481,0.069c0.069,0.068,0.138,0.068,0.138,0.137s0.069,0.275,0.069,0.619v4.47c0,0.345,0,0.619-0.069,0.619
		c0,0.069-0.069,0.138-0.138,0.138c-0.068,0-0.206,0.068-0.481,0.068h-0.137v0.344v0.139h3.37v-0.345v-0.138h-0.138
		c-0.275,0-0.413-0.068-0.481-0.068c-0.069-0.068-0.138-0.068-0.138-0.138s-0.069-0.274-0.069-0.619v-1.719h0.207v-0.069
		l-0.138,0.069L47.662,100.344v-0.206h-0.413h-0.138v2.063c0,0.412,0,0.619,0.069,0.756c0.069,0.138,0.138,0.275,0.275,0.344
		c0.138,0.069,0.344,0.139,0.619,0.139v-0.139h-0.138l0,0h-2.682l0,0h-0.138v0.139c0.275,0,0.481,0,0.619-0.139
		c0.138-0.068,0.207-0.206,0.275-0.344c0.068-0.137,0.068-0.344,0.068-0.756V97.73c0-0.413,0-0.619-0.068-0.757
		c-0.069-0.137-0.138-0.275-0.275-0.344s-0.344-0.138-0.619-0.138v0.138h0.138l0,0h2.545c0.688,0,1.238,0.069,1.513,0.138
		c0.275,0.138,0.55,0.275,0.757,0.55c0.206,0.275,0.275,0.619,0.275,0.963c0,0.481-0.137,0.825-0.413,1.169
		c-0.206,0.207-0.413,0.344-0.756,0.413l-0.207,0.069l1.513,2.545c0.207,0.274,0.344,0.48,0.413,0.618
		c0.138,0.138,0.344,0.206,0.55,0.206v-0.137h-0.138l0,0h-1.582l-1.926-3.026H47.73v0.206H47.662z M39.684,101.101l0.138,0.068
		l0.756-1.925l0.619,1.719h-1.513V101.101l0.138,0.068L39.684,101.101v0.138h2.063l-1.169-2.958l-1.169,3.026h0.275V101.101z
		 M41.884,102.338l-0.137,0.069c0.069,0.206,0.137,0.344,0.137,0.344l0,0v0.138c0,0.068,0,0.068-0.068,0.068
		c0,0-0.138,0.069-0.344,0.069h-0.137h-0.138v0.344v0.138h3.232v-0.344v-0.138h-0.138c-0.137,0-0.275-0.069-0.344-0.138
		s-0.275-0.412-0.481-0.963l-2.201-5.64h-0.207h-0.138l-2.132,5.571c-0.207,0.55-0.344,0.824-0.481,0.963
		c-0.138,0.137-0.275,0.206-0.413,0.274h-0.138v0.345v0.137h2.338v-0.344v-0.138h-0.138c-0.275,0-0.481-0.068-0.481-0.068
		c-0.069-0.069-0.138-0.138-0.138-0.275s0-0.274,0.138-0.481l0.206-0.551h1.857l0.275,0.758L41.884,102.338l0.138-0.068
		l-0.344-0.963H39.34l-0.275,0.757c-0.068,0.206-0.137,0.413-0.137,0.618c0,0.207,0.069,0.413,0.275,0.551
		c0.138,0.068,0.344,0.138,0.688,0.138v-0.138h-0.138l0,0h-1.651l0,0h-0.137v0.138c0.275-0.069,0.481-0.138,0.619-0.344
		c0.138-0.206,0.344-0.55,0.55-1.101l2.132-5.502l-0.138-0.069v0.137h0.069v-0.137l-0.138,0.069l2.132,5.64
		c0.206,0.55,0.344,0.894,0.55,1.031c0.138,0.138,0.344,0.206,0.55,0.206v-0.137h-0.138l0,0h-2.544l0,0h-0.138v0.137h0.138
		c0.275,0,0.413,0,0.619-0.137c0.137-0.069,0.137-0.207,0.137-0.344c0-0.069,0-0.139,0-0.207l-0.137,0.068h0.137
		c0-0.068-0.069-0.205-0.137-0.412L41.884,102.338z M34.732,100.207l-0.069,0.137c0.206,0.069,0.344,0.207,0.413,0.481
		c0.138,0.206,0.206,0.481,0.206,0.757s-0.068,0.481-0.137,0.688c-0.069,0.207-0.207,0.344-0.413,0.412
		c-0.138,0.139-0.344,0.207-0.55,0.207c-0.138,0-0.207,0-0.207-0.068c-0.069-0.069-0.069-0.139-0.069-0.275v-0.275v-2.201H33.7
		v0.138h0.069c0.413,0,0.688,0.068,0.894,0.137L34.732,100.207l0.069-0.138c-0.275-0.138-0.619-0.138-1.032-0.138H33.7h-0.138v2.338
		v0.275c0,0.206,0.069,0.412,0.138,0.55c0.138,0.138,0.275,0.206,0.481,0.206c0.275,0,0.481-0.068,0.756-0.206
		c0.207-0.138,0.413-0.344,0.55-0.618c0.138-0.275,0.207-0.551,0.207-0.826c0-0.344-0.069-0.688-0.207-0.963
		c-0.138-0.275-0.344-0.481-0.619-0.619L34.732,100.207z M33.7,96.974v0.138h0.069c0.413,0,0.688,0.069,0.825,0.138
		s0.275,0.206,0.344,0.344s0.138,0.413,0.138,0.688c0,0.275-0.069,0.481-0.138,0.688c-0.069,0.138-0.206,0.275-0.413,0.413
		c-0.138,0.069-0.413,0.138-0.825,0.138v0.138h0.138v-2.683H33.7v0.138V96.974h-0.138v2.889H33.7c0.413,0,0.756-0.069,1.032-0.206
		c0.206-0.138,0.413-0.275,0.55-0.55c0.138-0.207,0.207-0.481,0.207-0.825c0-0.344-0.069-0.619-0.207-0.826
		c-0.137-0.206-0.275-0.413-0.481-0.481c-0.207-0.137-0.55-0.137-0.963-0.137h-0.069h-0.138v0.137H33.7z M36.382,99.175l0.138,0.137
		c0.206-0.275,0.344-0.619,0.344-0.962c0-0.344-0.069-0.688-0.275-0.963c-0.207-0.275-0.413-0.55-0.757-0.688
		c-0.344-0.138-0.825-0.207-1.513-0.207h-3.026v0.344v0.137h0.138c0.275,0,0.413,0.069,0.481,0.069
		c0.069,0.069,0.137,0.069,0.137,0.138s0.069,0.275,0.069,0.619v4.47c0,0.344,0,0.619-0.069,0.619c0,0.068-0.068,0.138-0.137,0.138
		s-0.207,0.068-0.481,0.068h-0.138v0.345v0.137h3.164c0.894,0,1.582-0.206,2.063-0.688c0.413-0.344,0.619-0.825,0.619-1.375
		c0-0.551-0.207-0.963-0.55-1.307c-0.275-0.275-0.688-0.413-1.238-0.619l-0.069,0.138l0.069,0.137
		c0.55-0.137,0.963-0.344,1.169-0.688H36.382l-0.138-0.138c-0.137,0.207-0.481,0.413-1.031,0.55l-0.619,0.138l0.619,0.137
		c0.55,0.138,0.894,0.344,1.1,0.481c0.275,0.275,0.413,0.619,0.413,1.101s-0.137,0.825-0.481,1.169
		c-0.413,0.344-0.963,0.551-1.788,0.551h-2.82l0,0H31.5v0.137c0.275,0,0.481,0,0.619-0.137c0.138-0.069,0.207-0.207,0.275-0.344
		c0.069-0.139,0.069-0.413,0.069-0.757v-4.471c0-0.413,0-0.619-0.069-0.756c-0.069-0.138-0.138-0.275-0.275-0.344
		c-0.137-0.068-0.344-0.137-0.619-0.137v0.137h0.137l0,0h2.683c0.688,0,1.1,0.069,1.375,0.207c0.275,0.138,0.481,0.275,0.619,0.55
		c0.138,0.275,0.207,0.55,0.207,0.825c0,0.275-0.069,0.55-0.275,0.757L36.382,99.175z"/>
</g>
</svg>
