<?xml version="1.0" encoding="utf-8"?>
<!-- Generator: Adobe Illustrator 22.1.0, SVG Export Plug-In . SVG Version: 6.00 Build 0)  -->
<svg version="1.1" baseProfile="tiny" id="Layer_1" xmlns="http://www.w3.org/2000/svg" xmlns:xlink="http://www.w3.org/1999/xlink"
	 x="0px" y="0px" viewBox="0 0 309.8 155.4" xml:space="preserve">
<rect fill="#FFFFFF" width="308" height="105"/>
<rect x="104" y="33.5" transform="matrix(0.7071 -0.7071 0.7071 0.7071 -13.9155 133.3387)" fill="#FFFFFF" width="100" height="100"/>
<g>
	<path fill="#003B70" d="M125.7,66.7c0,0,26.4-26.4,31.3-31.3c4.9-4.9,9.8-0.1,9.8-0.1l-4.9-4.8l-7.1-7
		c-7.2,7.2-43.2,43.2-43.2,43.2H125.7z"/>
	<path fill="#003B70" d="M198.1,66.7L186,54.6c0,0-7.4-7.1-14.6,0.1s-12,12-12,12H198.1z"/>
	<path fill="#003B70" d="M149.8,66.7c0,0,14.3-14.3,19.2-19.2s9.8-0.1,9.8-0.1l-4.8-4.8c0,0-7.4-7.1-14.6,0.1s-24.1,24.1-24.1,24.1
		h14.5V66.7z"/>
	<path fill="#FFCE00" d="M125.7,90.9c0,0,26.4,26.4,31.3,31.3c4.9,4.9,9.8,0.1,9.8,0.1l-4.8,4.8l-7.1,7
		c-7.2-7.2-43.2-43.2-43.2-43.2S125.7,90.9,125.7,90.9z"/>
	<path fill="#FFCE00" d="M198.1,90.9L186,103c0,0-7.4,7.1-14.6-0.1s-12-12-12-12H198.1z"/>
	<path fill="#FFCE00" d="M149.8,90.9c0,0,14.3,14.3,19.2,19.2s9.8,0.1,9.8,0.1L174,115c0,0-7.4,7.1-14.6-0.1s-24.1-24.1-24.1-24.1
		L149.8,90.9L149.8,90.9z"/>
	<path d="M47.8,84.1l-0.4,1.1c-0.7,0.5-1.3,0.8-1.9,0.9c-0.5,0.2-1.2,0.3-2.1,0.3c-1.2,0-2.2-0.2-3.1-0.7c-0.7-0.4-1.3-0.9-1.8-1.5
		s-0.9-1.3-1.1-2c-0.3-1.1-0.5-2.3-0.5-3.6c0-2.2,0.6-4,1.8-5.4s2.9-2.1,5-2.1c0.7,0,1.4,0.1,2,0.2c0.6,0.1,1.3,0.4,2.1,0.7v0.1
		c-0.1,0.3-0.2,0.7-0.2,1.2c-0.1,0.8-0.1,1.5-0.2,2.2h-0.6c0-0.8,0-1.4-0.1-1.8c-0.4-0.5-0.8-0.9-1.2-1.1c-0.5-0.2-1-0.4-1.8-0.4
		c-1.3,0-2.3,0.5-3.1,1.6c-0.8,1-1.2,2.5-1.2,4.4c0,1.1,0.1,2.1,0.4,3c0.3,0.8,0.6,1.5,1,2.1c0.4,0.5,0.9,1,1.3,1.2
		c0.6,0.3,1.3,0.5,2.2,0.5c0.6,0,1.1-0.1,1.6-0.2c0.5-0.1,1-0.4,1.6-0.8L47.8,84.1z"/>
	<path d="M48.7,78.8c0-1.3,0.2-2.4,0.5-3.3c0.3-1,0.7-1.8,1.3-2.4c0.6-0.7,1.2-1.1,1.9-1.4c0.9-0.4,1.8-0.6,2.8-0.6s1.9,0.2,2.7,0.5
		c0.6,0.3,1.1,0.7,1.6,1.2s0.8,1,1.1,1.6c0.2,0.5,0.4,1.1,0.6,1.8c0.1,0.6,0.2,1.4,0.2,2.1c0,1.3-0.2,2.5-0.5,3.7
		c-0.3,0.8-0.7,1.6-1.2,2.2c-0.5,0.7-1.1,1.2-1.7,1.5c-0.9,0.5-1.9,0.7-3.1,0.7s-2.3-0.3-3.2-0.9c-0.9-0.6-1.6-1.4-2.1-2.5
		C49,81.9,48.7,80.5,48.7,78.8 M51.3,78.2c0,1.6,0.2,3,0.5,4.1c0.4,1.1,0.8,1.8,1.4,2.3c0.6,0.4,1.2,0.7,2,0.7
		c0.7,0,1.3-0.2,1.9-0.6c0.5-0.4,1-1.1,1.3-2.1c0.3-1,0.5-2.2,0.5-3.6c0-1-0.1-1.9-0.3-2.7c-0.2-0.8-0.4-1.5-0.7-2.1
		c-0.3-0.6-0.7-1-1.1-1.3c-0.4-0.3-1-0.5-1.7-0.5c-0.8,0-1.5,0.2-2.1,0.7c-0.6,0.5-1,1.2-1.2,2.1C51.4,76,51.3,77.1,51.3,78.2"/>
	<path d="M62.7,86v-0.5c0.1-0.1,0.3-0.2,0.6-0.4c0.1-0.1,0.2-0.2,0.2-0.2v-0.1c0-0.2,0.1-0.8,0.1-1.9c0-1.1,0-2.4,0-3.9
		c0-2.2,0-3.6,0-4.1c0-1.3-0.1-2.1-0.1-2.3c0-0.1-0.1-0.1-0.1-0.2c-0.1-0.1-0.5-0.2-1.3-0.2v-0.9c0.7,0,1.5,0.1,2.4,0.1
		c1,0,2,0,2.9-0.1v0.9c-0.6,0-1,0.1-1.1,0.2c-0.1,0-0.1,0.1-0.1,0.2s-0.1,0.5-0.1,1.3c0,0.8,0,1.7,0,2.9c0,0.1,0,1.1,0,3
		c0,1,0,2,0,3s0,1.6,0,1.8c0.8,0,1.3,0.1,1.6,0.1c0.8,0,1.6-0.1,2.2-0.2c0.2,0,0.4-0.1,0.4-0.1s0.1-0.2,0.1-0.4
		c0.1-0.5,0.2-1.1,0.3-1.8h0.7c0,0.2,0,0.3,0,0.3l-0.2,2.1c0,0.7-0.1,1.1-0.1,1.2c-0.2,0.1-0.3,0.1-0.5,0.1c-0.3,0-0.9,0.1-1.6,0.1
		c-0.1,0-0.7,0-1.9-0.1c-0.9,0-1.5,0-1.9,0C64.6,85.9,63.8,86,62.7,86"/>
	<path d="M72.6,86v-0.5c0.1-0.1,0.3-0.2,0.6-0.4c0.1-0.1,0.2-0.2,0.2-0.2v-0.1c0-0.2,0.1-0.8,0.1-1.9c0-1.1,0-2.4,0-3.9
		c0-2.2,0-3.6,0-4.1c0-1.3-0.1-2.1-0.1-2.3c0-0.1-0.1-0.1-0.1-0.2c-0.1-0.1-0.5-0.2-1.3-0.2v-0.9c0.7,0,1.5,0.1,2.4,0.1
		c1,0,2,0,2.9-0.1v0.9c-0.6,0-1,0.1-1.1,0.2c-0.1,0-0.1,0.1-0.1,0.2S76,73.1,76,73.9c0,0.8,0,1.7,0,2.9c0,0.1,0,1.1,0,3c0,1,0,2,0,3
		s0,1.6,0,1.8c0.8,0,1.3,0.1,1.6,0.1c0.8,0,1.6-0.1,2.2-0.2c0.2,0,0.4-0.1,0.4-0.1s0.1-0.2,0.1-0.4c0.1-0.5,0.2-1.1,0.3-1.8h0.7
		c0,0.2,0,0.3,0,0.3l-0.2,2.1c0,0.7-0.1,1.1-0.1,1.2c-0.2,0.1-0.3,0.1-0.5,0.1c-0.3,0-0.9,0.1-1.6,0.1c-0.1,0-0.7,0-1.9-0.1
		c-0.9,0-1.5,0-1.9,0C74.5,85.9,73.7,86,72.6,86"/>
	<path d="M82.4,86v-0.5c0.3-0.2,0.6-0.4,0.8-0.6c0-0.3,0.1-0.8,0.1-1.4c0-1.2,0.1-2.1,0.1-2.6v-4.7c0-0.2,0-0.9,0-2
		c0-0.8-0.1-1.3-0.1-1.5c0-0.1-0.1-0.1-0.1-0.2c-0.1-0.1-0.5-0.1-1.2-0.2v-0.8h1.9c0.4,0,0.7,0,1.1,0c0.8,0,1.6,0,2.5,0l1.7-0.1
		c0.2,0,0.6,0,1.2,0c0.1,0,0.1,0,0.3,0.1l0.1,0.1l-0.2,1.5c0,0.1,0,0.6-0.1,1.5h-0.6c0-0.8,0-1.3-0.1-1.5c0-0.1-0.1-0.2-0.1-0.2
		c-0.1-0.1-0.3-0.1-0.7-0.2c-0.5-0.1-1.1-0.1-1.6-0.1s-1,0-1.5,0.1c-0.1,0.8-0.1,1.8-0.1,3v2.2c0.4,0,0.8,0.1,1.2,0.1
		c0.1,0,0.6,0,1.4,0c0.3,0,0.5,0,0.5-0.1c0.1,0,0.1-0.1,0.1-0.2c0.1-0.3,0.1-0.7,0.1-1.3h0.7v2.3V81h-0.7c0-0.8,0-1.3-0.1-1.5
		c-0.1-0.1-0.2-0.2-0.4-0.3c-0.4-0.1-0.9-0.1-1.5-0.1c-0.5,0-1,0-1.3,0.1v4.4c0,0.5,0,0.9,0,1.3c0.4,0,1,0.1,1.6,0.1
		c0.6,0,1.1,0,1.6-0.1c0.5,0,0.8-0.1,0.9-0.2c0,0,0.1-0.1,0.1-0.2c0.1-0.3,0.2-1,0.3-1.9H91c-0.1,1.4-0.2,2.5-0.2,3.4l-0.1,0.1
		c-0.4,0.1-0.9,0.1-1.5,0.1h-1.3c-1.3,0-2.2,0-2.7,0C85,85.9,84.1,86,82.4,86"/>
	<path d="M103.4,75.6h-0.7c0-0.2,0-0.6,0-1c0-0.3,0-0.6-0.1-0.8c-0.1-0.2-0.3-0.4-0.4-0.5c-0.4-0.3-0.8-0.5-1.2-0.7
		c-0.5-0.2-1-0.3-1.6-0.3c-1.4,0-2.5,0.5-3.3,1.6c-0.8,1.1-1.2,2.6-1.2,4.5c0,2.1,0.4,3.7,1.3,4.9c0.9,1.2,1.9,1.8,3.2,1.8
		c0.4,0,0.7,0,1.1-0.1s0.7-0.2,1-0.4c0-0.2,0-0.6,0-1.1s0-0.9,0-1c0-0.7,0-1.1-0.1-1.2c0-0.1-0.1-0.1-0.2-0.2
		c-0.2-0.1-0.7-0.1-1.6-0.2v-0.8h2.5h2.5v0.7c-0.3,0.1-0.5,0.2-0.6,0.3c0,0.1-0.1,0.3-0.1,0.6c0,0.8,0,1.4,0,1.7
		c0,0.5,0,1.1,0.1,1.6c-1,0.5-1.9,0.8-2.7,1c-0.8,0.2-1.5,0.3-2.3,0.3c-1.2,0-2.3-0.3-3.3-0.8C95,85.1,94.5,84.6,94,84
		c-0.5-0.6-0.8-1.2-1.1-1.9c-0.4-1.1-0.6-2.2-0.6-3.5c0-1.1,0.1-2.1,0.4-2.9c0.3-0.8,0.6-1.5,1.1-2.1c0.5-0.6,1-1.1,1.6-1.5
		c0.6-0.4,1.2-0.7,1.8-0.8c0.6-0.2,1.3-0.2,2.1-0.2c0.9,0,1.8,0.1,2.6,0.3c0.8,0.2,1.4,0.5,1.9,0.7l0.1,0.2
		C103.7,72.9,103.5,74,103.4,75.6"/>
	<path d="M106,86v-0.5c0.3-0.2,0.6-0.4,0.8-0.6c0-0.3,0.1-0.8,0.1-1.4c0-1.2,0.1-2.1,0.1-2.6v-4.7c0-0.2,0-0.9,0-2
		c0-0.8-0.1-1.3-0.1-1.5c0-0.1-0.1-0.1-0.1-0.2c-0.1-0.1-0.5-0.1-1.2-0.2v-0.8h1.9c0.4,0,0.7,0,1.1,0c0.8,0,1.6,0,2.5,0l1.7-0.1
		c0.2,0,0.6,0,1.2,0c0.1,0,0.1,0,0.3,0.1l0.1,0.1l-0.2,1.5c0,0.1,0,0.6-0.1,1.5h-0.6c0-0.8,0-1.3-0.1-1.5c0-0.1-0.1-0.2-0.1-0.2
		c-0.1-0.1-0.3-0.1-0.7-0.2c-0.5-0.1-1.1-0.1-1.6-0.1s-1,0-1.5,0.1c-0.1,0.8-0.1,1.8-0.1,3v2.2c0.4,0,0.8,0.1,1.2,0.1
		c0.1,0,0.6,0,1.4,0c0.3,0,0.5,0,0.5-0.1c0.1,0,0.1-0.1,0.1-0.2c0.1-0.3,0.1-0.7,0.1-1.3h0.7v2.3V81h-0.7c0-0.8,0-1.3-0.1-1.5
		c-0.1-0.1-0.2-0.2-0.4-0.3c-0.4-0.1-0.9-0.1-1.5-0.1c-0.5,0-1,0-1.3,0.1v4.4c0,0.5,0,0.9,0,1.3c0.4,0,1,0.1,1.6,0.1s1.1,0,1.6-0.1
		c0.5,0,0.8-0.1,0.9-0.2c0,0,0.1-0.1,0.1-0.2c0.1-0.3,0.2-1,0.3-1.9h0.7c-0.1,1.4-0.2,2.5-0.2,3.4l-0.1,0.1
		c-0.4,0.1-0.9,0.1-1.5,0.1h-1.3c-1.3,0-2.2,0-2.7,0C108.6,85.9,107.7,86,106,86"/>
	<path d="M119.6,78.8c0-1.3,0.2-2.4,0.5-3.3c0.3-1,0.7-1.8,1.3-2.4c0.6-0.7,1.2-1.1,1.9-1.4c0.9-0.4,1.8-0.6,2.8-0.6
		s1.9,0.2,2.7,0.5c0.6,0.3,1.1,0.7,1.6,1.2s0.8,1,1.1,1.6c0.2,0.5,0.4,1.1,0.5,1.8c0.1,0.6,0.2,1.4,0.2,2.1c0,1.3-0.2,2.5-0.5,3.7
		c-0.3,0.8-0.7,1.6-1.2,2.2c-0.5,0.7-1.1,1.2-1.7,1.5c-0.9,0.5-1.9,0.7-3.1,0.7s-2.3-0.3-3.2-0.9c-0.9-0.6-1.6-1.4-2.1-2.5
		C119.9,81.9,119.6,80.5,119.6,78.8 M122.2,78.2c0,1.6,0.2,3,0.5,4.1c0.4,1.1,0.8,1.8,1.4,2.3c0.6,0.4,1.2,0.7,2,0.7
		c0.7,0,1.3-0.2,1.9-0.6c0.5-0.4,1-1.1,1.3-2.1c0.3-1,0.5-2.2,0.5-3.6c0-1-0.1-1.9-0.3-2.7c-0.2-0.8-0.4-1.5-0.7-2.1
		c-0.3-0.6-0.7-1-1.1-1.3c-0.4-0.3-1-0.5-1.7-0.5c-0.8,0-1.5,0.2-2.1,0.7s-1,1.2-1.2,2.1C122.3,76,122.2,77.1,122.2,78.2"/>
	<path d="M140.5,80.9h-0.7c0-0.9-0.1-1.4-0.1-1.6c0-0.1-0.1-0.2-0.3-0.2c-0.4-0.1-1.1-0.1-1.9-0.1c-0.1,0-0.3,0-0.7,0v1.2
		c0,1.7,0,2.8,0,3.5s0.1,1.1,0.1,1.2c0,0.1,0.1,0.1,0.2,0.2c0.1,0,0.5,0.1,1.3,0.2v0.8l-3.2-0.1c-0.5,0-1.2,0-2.2,0.1v-0.9
		c0.6,0,1,0,1.1-0.1c0.1,0,0.1-0.1,0.1-0.1c0-0.1,0.1-0.3,0.1-0.5s0-0.7,0.1-1.5c0-0.9,0-1.5,0-1.8v-4.4c0-0.1,0-1.1-0.1-2.9
		c0-0.5,0-0.9-0.1-1.1c0-0.1,0-0.1-0.1-0.2c0,0-0.1-0.1-0.2-0.1s-0.4-0.1-1-0.1v-0.9l2.9,0.1l4-0.1c0.6,0,1.1,0,1.6,0.1l0.1,0.1
		c-0.1,0.4-0.1,0.9-0.2,1.5c0,0.6-0.1,1.2-0.1,1.6h-0.7c0-0.2,0-0.5,0-1.1c0-0.3,0-0.5-0.1-0.6c0,0,0-0.1-0.1-0.1
		c-0.1-0.1-0.3-0.2-0.7-0.2c-0.4-0.1-0.8-0.1-1.3-0.1c-0.1,0-0.4,0-0.8,0s-0.7,0-0.9,0c-0.1,0.7-0.1,2-0.1,3.8V78
		c0.7,0,1.2,0.1,1.4,0.1c0.7,0,1.2,0,1.4-0.1c0.1,0,0.1-0.1,0.2-0.2c0-0.2,0.1-0.6,0.1-1.2h0.7v4.3H140.5z"/>
	<path d="M148.2,86v-0.9c0.7,0,1.1-0.1,1.2-0.2c0.1-0.1,0.2-0.2,0.3-0.4c0.1-0.3,0.1-1.2,0.1-2.7v-6.3c0-1.7,0-2.7,0-2.9h-1.2
		c-0.6,0-1.1,0-1.6,0.1c-0.2,0-0.3,0-0.3,0.1c0,0-0.1,0.2-0.1,0.4c-0.1,0.5-0.1,1-0.1,1.6h-0.7c0-1.4,0-2.2,0-2.4c0-0.3,0-0.6-0.1-1
		l0.1-0.1c0.3,0,0.5,0.1,0.8,0.1c0.5,0,1.4,0,2.7,0h3.3c1.4,0,2.3,0,2.8,0c0.3,0,0.5,0,0.8-0.1l0.1,0.1c0,0.4-0.1,0.8-0.1,1.1
		c0,0.1,0,0.8,0,2.3h-0.7c0-0.5,0-1.1-0.1-1.6c0-0.3-0.1-0.4-0.1-0.5c0,0-0.1-0.1-0.3-0.1c-0.5-0.1-1-0.1-1.6-0.1h-1.2
		c0,0.2,0,1.2,0,2.9v6.3c0,1.5,0,2.4,0.1,2.7c0,0.2,0.1,0.3,0.2,0.4c0.1,0.1,0.5,0.1,1.2,0.2v0.9c-1.1-0.1-2-0.1-2.7-0.1
		C150.1,85.9,149.2,86,148.2,86"/>
	<path d="M156.7,86v-0.9c0.5,0,0.8,0,1-0.1c0.1,0,0.2-0.1,0.3-0.1c0.1-0.1,0.1-0.1,0.1-0.2c0.1-0.2,0.1-0.7,0.1-1.5v-2.1v-4.9v-2.1
		c0-0.8,0-1.3-0.1-1.5c0-0.1-0.1-0.2-0.1-0.2c-0.1-0.1-0.1-0.1-0.3-0.1c-0.1,0-0.4-0.1-1-0.1v-0.9c0.9,0,1.9,0.1,2.9,0.1
		c0.9,0,1.7,0,2.4-0.1v0.9c-0.6,0-0.9,0.1-1,0.1c-0.1,0-0.2,0.1-0.2,0.2c0,0.1-0.1,0.3-0.1,0.7c0,0.7-0.1,1.7-0.1,3.1v1.2
		c0.4,0,1.2,0.1,2.5,0.1c1.6,0,2.6,0,3-0.1v-1.2c0-1.1,0-1.8,0-2.1c0-0.9-0.1-1.5-0.1-1.6c0-0.1,0-0.1-0.1-0.2c0,0-0.1-0.1-0.2-0.1
		c-0.1,0-0.4-0.1-1-0.1v-0.9c0.7,0,1.5,0.1,2.4,0.1c1,0,2,0,2.9-0.1v0.9c-0.5,0-0.8,0-1,0.1c-0.1,0-0.2,0.1-0.3,0.1
		s-0.1,0.1-0.1,0.2c-0.1,0.2-0.1,0.7-0.1,1.5v2.1v4.9v2.1c0,0.8,0,1.3,0.1,1.5c0,0.1,0.1,0.2,0.1,0.2c0.1,0.1,0.1,0.1,0.3,0.1
		c0.1,0,0.4,0,1,0.1V86c-0.9,0-1.9-0.1-2.9-0.1c-0.9,0-1.7,0-2.4,0.1v-0.9c0.6,0,0.9-0.1,1-0.1c0.1,0,0.2-0.1,0.2-0.2
		c0-0.1,0.1-0.3,0.1-0.7c0-0.7,0.1-1.7,0.1-3.1v-2.2c-0.3,0-1.1-0.1-2.4-0.1s-2.1,0-2.5,0c-0.2,0-0.3,0-0.5,0.1V81
		c0,1.1,0,1.8,0,2.1c0,0.9,0.1,1.5,0.1,1.6s0,0.1,0.1,0.2c0,0,0.1,0.1,0.2,0.1s0.4,0.1,1,0.1V86c-0.7,0-1.5-0.1-2.4-0.1
		C158.6,85.9,157.6,86,156.7,86"/>
	<path d="M170.8,86v-0.5c0.3-0.2,0.6-0.4,0.8-0.6c0-0.3,0.1-0.8,0.1-1.4c0-1.2,0.1-2.1,0.1-2.6v-4.7c0-0.2,0-0.9,0-2
		c0-0.8-0.1-1.3-0.1-1.5c0-0.1-0.1-0.1-0.1-0.2c-0.1-0.1-0.5-0.1-1.2-0.2v-0.8h1.9c0.4,0,0.7,0,1.1,0c0.8,0,1.6,0,2.5,0l1.7-0.1
		c0.2,0,0.6,0,1.2,0c0.1,0,0.1,0,0.3,0.1l0.1,0.1l-0.2,1.5c0,0.1,0,0.6-0.1,1.5h-0.6c0-0.8,0-1.3-0.1-1.5c0-0.1-0.1-0.2-0.1-0.2
		c-0.1-0.1-0.3-0.1-0.7-0.2c-0.5-0.1-1.1-0.1-1.6-0.1s-1,0-1.5,0.1c-0.1,0.8-0.1,1.8-0.1,3v2.2c0.4,0,0.8,0.1,1.2,0.1
		c0.1,0,0.6,0,1.4,0c0.3,0,0.5,0,0.5-0.1c0.1,0,0.1-0.1,0.1-0.2c0.1-0.3,0.1-0.7,0.1-1.3h0.7v2.3V81h-0.7c0-0.8,0-1.3-0.1-1.5
		c-0.1-0.1-0.2-0.2-0.4-0.3c-0.4-0.1-0.9-0.1-1.5-0.1c-0.5,0-1,0-1.3,0.1v4.4c0,0.5,0,0.9,0,1.3c0.4,0,1,0.1,1.6,0.1s1.1,0,1.6-0.1
		c0.5,0,0.8-0.1,0.9-0.2c0,0,0.1-0.1,0.1-0.2c0.1-0.3,0.2-1,0.3-1.9h0.7c-0.1,1.4-0.2,2.5-0.2,3.4l-0.1,0.1
		c-0.4,0.1-0.9,0.1-1.5,0.1h-1.3c-1.3,0-2.2,0-2.7,0C173.5,85.9,172.5,86,170.8,86"/>
	<path d="M195.4,84.1l-0.4,1.1c-0.7,0.5-1.3,0.8-1.9,0.9c-0.5,0.2-1.2,0.3-2.1,0.3c-1.2,0-2.2-0.2-3.1-0.7c-0.7-0.4-1.3-0.9-1.8-1.5
		s-0.9-1.3-1.1-2c-0.4-1.1-0.6-2.3-0.6-3.6c0-2.2,0.6-4,1.8-5.4c1.2-1.4,2.9-2.1,5-2.1c0.7,0,1.4,0.1,2,0.2c0.6,0.1,1.3,0.4,2.1,0.7
		v0.1c-0.1,0.3-0.2,0.7-0.2,1.2c-0.1,0.8-0.1,1.5-0.2,2.2h-0.6c0-0.8,0-1.4-0.1-1.8c-0.4-0.5-0.8-0.9-1.2-1.1
		c-0.5-0.2-1-0.4-1.8-0.4c-1.3,0-2.3,0.5-3.1,1.6c-0.8,1-1.2,2.5-1.2,4.4c0,1.1,0.1,2.1,0.4,3c0.3,0.8,0.6,1.5,1,2.1
		c0.4,0.5,0.9,1,1.3,1.2c0.6,0.3,1.3,0.5,2.2,0.5c0.6,0,1.1-0.1,1.6-0.2c0.5-0.2,1-0.4,1.6-0.8L195.4,84.1z"/>
	<path d="M195.8,86v-0.9c0.4,0,0.7-0.1,0.8-0.1s0.2-0.1,0.2-0.1c0.1-0.1,0.1-0.2,0.2-0.3c0.1-0.1,0.3-0.7,0.6-1.6
		c0.1-0.4,0.4-1.3,0.8-2.6l2.2-6.8l0.7-2.4h1.2l3.7,11l0.5,1.4l0.3,1c0.1,0.1,0.1,0.2,0.2,0.3c0,0.1,0.1,0.1,0.2,0.1
		s0.2,0.1,0.5,0.1c0.1,0,0.2,0,0.4,0.1v0.9L206,86l-2.9,0.1v-0.9c0.7,0,1-0.1,1.1-0.1c0.1-0.1,0.1-0.2,0.1-0.3
		c0-0.2-0.1-0.5-0.2-0.9l-0.7-2.3h-4.3l-0.4,1.3c-0.3,1-0.4,1.6-0.4,1.8c0,0.2,0,0.3,0.1,0.4c0.1,0.1,0.5,0.2,1.2,0.2v0.9l-1.9-0.1
		L195.8,86z M199.4,80.3c0.5,0,1.1,0,1.8,0c0.6,0,1.2,0,1.7,0l-1.8-5.4L199.4,80.3z"/>
	<path d="M208.8,85.1c0.7,0,1-0.1,1.1-0.1s0.1-0.1,0.2-0.1c0-0.1,0.1-0.2,0.1-0.4c0-0.3,0.1-0.9,0.1-1.9c0-0.6,0-1.3,0-2.3v-3.4
		v-3.1c0-0.5,0-0.8,0-1c0-0.2-0.1-0.3-0.1-0.3c-0.1-0.1-0.1-0.1-0.3-0.2c-0.1,0-0.5-0.1-1.1-0.1v-0.9c0.7,0,1.2,0.1,1.5,0.1h1.2h0.8
		c1.1,1.9,2.5,4.1,4.1,6.5c1.2,1.8,2.1,3.2,2.9,4.2v-2.4c0-3.8,0-6-0.1-6.7c0-0.3-0.1-0.4-0.1-0.5c-0.1-0.1-0.6-0.2-1.3-0.2v-0.9
		c0.7,0,1.3,0.1,1.9,0.1c0.5,0,1.2,0,2.1-0.1v0.9c-0.7,0-1.1,0.1-1.2,0.2c0,0-0.1,0.1-0.1,0.2c-0.1,0.4-0.1,1.2-0.2,2.4
		c0,1.3,0,2.2,0,2.8c0,4.7,0,7.5,0.1,8.5l-0.1,0.1c-0.5-0.1-0.9-0.2-1.4-0.3c-1.8-2.5-4.3-6.3-7.6-11.4V80c0,1.1,0,2.2,0.1,3.4
		c0,0.8,0.1,1.3,0.1,1.5c0,0.1,0.1,0.2,0.1,0.2c0.1,0.1,0.1,0.1,0.3,0.1c0.4,0.1,0.6,0.1,0.8,0.1c0,0,0.1,0,0.2,0v0.8
		c-1,0-1.6,0-1.8,0c-0.5,0-1.3,0-2.2,0.1v-1.1H208.8z"/>
	<path d="M228.5,78.3l1-2.1c0.2-0.4,0.7-1.6,1.6-3.5c0.3-0.7,0.5-1.1,0.6-1.3h1.3v0.5c-0.7,1.1-1.4,2.5-2.2,4
		c-0.8,1.5-1.3,2.5-1.4,3c-0.1,0.3-0.2,0.6-0.2,0.8c0,0.2,0,0.4,0,0.8v1.8c0,0.9,0,1.5,0.1,1.9c0,0.4,0.1,0.7,0.1,0.7
		c0.1,0.1,0.1,0.1,0.2,0.2c0.1,0.1,0.5,0.1,1.1,0.1v0.9c-1.1,0-2-0.1-2.8-0.1c-0.8,0-1.7,0-2.5,0.1v-0.9c0.6,0,1-0.1,1.1-0.1
		s0.2-0.1,0.2-0.2s0.1-0.3,0.1-0.6c0-0.8,0-1.5,0-2v-2c0-0.2-0.1-0.5-0.3-1c-0.5-1.2-1.1-2.4-1.7-3.6c-0.5-1-0.9-1.7-1.3-2.3
		c-0.3-0.4-0.5-0.6-0.6-0.7c-0.1,0-0.3-0.1-0.7-0.1v-0.8l1.8-0.4c0.3-0.1,0.6-0.2,0.9-0.3c0.3,0.2,0.6,0.4,0.7,0.6
		c0.2,0.2,0.4,0.5,0.6,1c0.4,0.8,0.8,1.6,1.2,2.6C228,77,228.4,77.9,228.5,78.3"/>
	<path d="M233.6,78.8c0-1.3,0.2-2.4,0.5-3.3c0.3-1,0.7-1.8,1.3-2.4c0.6-0.7,1.2-1.1,1.9-1.4c0.9-0.4,1.8-0.6,2.8-0.6
		s1.9,0.2,2.7,0.5c0.6,0.3,1.1,0.7,1.6,1.2s0.8,1,1.1,1.6c0.2,0.5,0.4,1.1,0.6,1.8c0.1,0.6,0.2,1.4,0.2,2.1c0,1.3-0.2,2.5-0.5,3.7
		c-0.3,0.8-0.7,1.6-1.2,2.2c-0.5,0.7-1.1,1.2-1.7,1.5c-0.9,0.5-1.9,0.7-3.1,0.7s-2.3-0.3-3.2-0.9c-0.9-0.6-1.6-1.4-2.1-2.5
		C233.8,81.9,233.6,80.5,233.6,78.8 M236.1,78.2c0,1.6,0.2,3,0.5,4.1c0.4,1.1,0.8,1.8,1.4,2.3c0.5,0.4,1.2,0.7,2,0.7
		c0.7,0,1.3-0.2,1.9-0.6c0.5-0.4,1-1.1,1.3-2.1c0.3-1,0.5-2.2,0.5-3.6c0-1-0.1-1.9-0.3-2.7c-0.2-0.8-0.4-1.5-0.7-2.1
		c-0.3-0.6-0.7-1-1.1-1.3c-0.4-0.3-1-0.5-1.7-0.5c-0.8,0-1.5,0.2-2.1,0.7s-1,1.2-1.2,2.1C236.3,76,236.1,77.1,236.1,78.2"/>
	<path d="M247,85.1c0.6,0,1-0.1,1.1-0.1s0.1-0.1,0.2-0.1c0-0.1,0.1-0.2,0.1-0.4c0-0.3,0.1-0.9,0.1-1.9c0-0.6,0-1.3,0-2.3v-3.4v-3.1
		c0-0.5,0-0.8,0-1c0-0.2-0.1-0.3-0.1-0.3c-0.1-0.1-0.1-0.1-0.3-0.2c-0.2-0.1-0.5-0.1-1.1-0.1v-0.9c0.7,0,1.2,0.1,1.5,0.1h1.2h0.8
		c1.1,1.9,2.5,4.1,4.1,6.5c1.2,1.8,2.1,3.2,2.9,4.2v-2.4c0-3.8,0-6-0.1-6.7c0-0.3-0.1-0.4-0.1-0.5c-0.1-0.1-0.6-0.2-1.3-0.2v-0.9
		c0.7,0,1.3,0.1,1.9,0.1c0.5,0,1.2,0,2.1-0.1v0.9c-0.7,0-1.1,0.1-1.2,0.2c0,0-0.1,0.1-0.1,0.2c-0.1,0.4-0.1,1.2-0.2,2.4
		c0,1.3,0,2.2,0,2.8c0,4.7,0,7.5,0.1,8.5l-0.1,0.1c-0.5-0.1-0.9-0.2-1.4-0.3c-1.8-2.5-4.3-6.3-7.6-11.4V80c0,1.1,0,2.2,0.1,3.4
		c0,0.8,0.1,1.3,0.1,1.5c0,0.1,0.1,0.2,0.1,0.2c0.1,0.1,0.1,0.1,0.3,0.1c0.4,0.1,0.6,0.1,0.8,0.1c0,0,0.1,0,0.2,0v0.8
		c-1,0-1.6,0-1.8,0c-0.5,0-1.3,0-2.2,0.1v-1.1H247z"/>
	<path d="M268.6,75.2h-0.7c0-0.8,0-1.4-0.1-1.7c-0.2-0.3-0.5-0.6-0.9-0.8c-0.4-0.2-0.9-0.4-1.4-0.4c-0.7,0-1.3,0.2-1.7,0.7
		s-0.6,1-0.6,1.7c0,0.5,0.1,0.8,0.2,1.1c0.1,0.3,0.3,0.5,0.5,0.7c0.2,0.2,0.5,0.3,0.9,0.5c0.3,0.1,0.8,0.2,1.3,0.3
		c0.6,0.1,0.9,0.2,1.1,0.3c0.4,0.1,0.8,0.3,1.1,0.5c0.3,0.2,0.5,0.4,0.7,0.7c0.2,0.3,0.3,0.6,0.4,1c0.1,0.4,0.2,0.9,0.2,1.4
		c0,0.9-0.1,1.7-0.4,2.4c-0.2,0.5-0.5,1-0.9,1.4c-0.4,0.4-0.8,0.7-1.2,1c-0.7,0.3-1.5,0.5-2.4,0.5c-0.7,0-1.3-0.1-1.8-0.2
		c-0.5-0.2-1.1-0.4-1.7-0.8c0.2-0.8,0.3-2,0.3-3.6h0.7c0,0.5,0,1.1,0.1,1.9c0.2,0.4,0.6,0.8,1.1,1.1c0.5,0.3,1.1,0.5,1.7,0.5
		c0.5,0,1-0.1,1.4-0.4c0.4-0.2,0.7-0.6,0.9-1c0.2-0.4,0.3-0.9,0.3-1.4c0-0.4-0.1-0.8-0.2-1.1c-0.1-0.3-0.3-0.6-0.6-0.8
		c-0.3-0.2-0.8-0.4-1.5-0.6c-1-0.3-1.7-0.5-2-0.6c-0.5-0.2-0.9-0.4-1.1-0.8c-0.3-0.3-0.5-0.8-0.6-1.2c-0.1-0.5-0.2-1-0.2-1.6
		c0-0.8,0.1-1.5,0.4-2.2c0.3-0.7,0.6-1.2,1-1.5c0.4-0.4,0.9-0.6,1.4-0.8s1.1-0.2,1.6-0.2c0.6,0,1.1,0.1,1.7,0.2
		c0.5,0.1,1,0.3,1.4,0.6l0.1,0.3c-0.1,0.5-0.1,0.9-0.2,1.3C268.6,73.9,268.6,74.4,268.6,75.2"/>
</g>
</svg>
