<svg xmlns="http://www.w3.org/2000/svg" xmlns:xlink="http://www.w3.org/1999/xlink" viewBox="0 0 262.77 44.78"><defs><style>.a,.c{fill:none;}.b{fill:#00263d;}.c{stroke:#00263d;stroke-miterlimit:10;stroke-width:0.5px;}.d{fill:#00263e;}.e{clip-path:url(#a);}.f{fill:#ff6c0e;}.g{fill:#fff;}</style><clipPath id="a"><path class="a" d="M35.49,1.48H1.26V25.92a17.4,17.4,0,0,0,34.79,0V1.48Z"/></clipPath></defs><path class="b" d="M48.57,6.94A5.28,5.28,0,0,1,52.36,8.4a.28.28,0,0,1,0,.39s0,0,0,.05l-1,1a.26.26,0,0,1-.37,0s0,0,0,0a3.73,3.73,0,0,0-2.42-.93,3.64,3.64,0,0,0,0,7.28A3.76,3.76,0,0,0,51,15.3a.29.29,0,0,1,.39,0l1,1a.3.3,0,0,1,0,.43,5.41,5.41,0,0,1-3.81,1.52,5.65,5.65,0,1,1,0-11.3h0Z"/><path class="b" d="M60.09,6.94a5.65,5.65,0,1,1-5.64,5.66,5.65,5.65,0,0,1,5.64-5.66Zm0,9.26a3.61,3.61,0,1,0-3.59-3.63v0A3.62,3.62,0,0,0,60.09,16.2Z"/><path class="b" d="M67.92,16.54l.56-1a.36.36,0,0,1,.51-.13l0,0a5.16,5.16,0,0,0,2.37,1,1.32,1.32,0,0,0,1.43-1.2h0c0-.8-.68-1.35-2-1.89s-3-1.54-3-3.39c0-1.4,1-3,3.53-3a5.45,5.45,0,0,1,3.14,1,.39.39,0,0,1,.1.52l-.6.89a.43.43,0,0,1-.55.19,5.1,5.1,0,0,0-2.18-.86,1.24,1.24,0,0,0-1.38,1.08v0c0,.73.58,1.24,1.85,1.75,1.52.62,3.28,1.53,3.28,3.55A3.32,3.32,0,0,1,71.5,18.2h-.1A5.08,5.08,0,0,1,68,17C67.86,16.87,67.78,16.8,67.92,16.54Z"/><path class="b" d="M77.7,7.39a.32.32,0,0,1,.3-.3h1.49a.29.29,0,0,1,.3.3h0v6.42a2.28,2.28,0,0,0,4.56,0h0V7.39a.29.29,0,0,1,.3-.3h1.49a.32.32,0,0,1,.3.3v6.53a4.37,4.37,0,0,1-8.74,0Z"/><path class="b" d="M91.09,7.17a.26.26,0,0,1,.28-.23h.26a.3.3,0,0,1,.26.15l3.46,7.41h0l3.46-7.41a.26.26,0,0,1,.26-.15h.26a.26.26,0,0,1,.28.23l1.85,10.55a.28.28,0,0,1-.16.35H99.75a.33.33,0,0,1-.3-.23l-.92-6h0L95.78,18a.26.26,0,0,1-.27.17h-.28A.3.3,0,0,1,95,18l-2.78-6.17h0l-.91,6a.3.3,0,0,1-.29.23H89.57a.29.29,0,0,1-.31-.27.28.28,0,0,1,0-.09Z"/><path class="b" d="M104.41,7.22a.29.29,0,0,1,.3-.28h.38l6.54,6.94h0V7.39a.29.29,0,0,1,.3-.3h1.44a.32.32,0,0,1,.3.3V18a.29.29,0,0,1-.3.28H113L106.45,11h0v6.76a.31.31,0,0,1-.3.29h-1.43a.31.31,0,0,1-.3-.29Z"/><path class="b" d="M117.33,7.39a.29.29,0,0,1,.3-.3H124a.29.29,0,0,1,.3.3h0V8.68a.29.29,0,0,1-.3.3h-4.65v2.57h3.88a.32.32,0,0,1,.3.3v1.3a.29.29,0,0,1-.28.3h-3.9V16.2H124a.29.29,0,0,1,.3.3h0v1.29a.31.31,0,0,1-.3.29h-6.39a.31.31,0,0,1-.3-.29Z"/><path class="b" d="M126.7,16.54l.57-1a.37.37,0,0,1,.49-.14l0,0a5.16,5.16,0,0,0,2.37,1,1.31,1.31,0,0,0,1.43-1.18v0c0-.8-.67-1.35-2-1.89s-3-1.54-3-3.39c0-1.4,1-3,3.53-3a5.45,5.45,0,0,1,3.14,1,.39.39,0,0,1,.09.52l-.59.89a.43.43,0,0,1-.55.19A5.23,5.23,0,0,0,130,8.68a1.25,1.25,0,0,0-1.39,1.09h0c0,.73.58,1.24,1.86,1.75,1.52.62,3.28,1.53,3.28,3.55a3.32,3.32,0,0,1-3.51,3.12h-.1a5.14,5.14,0,0,1-3.4-1.19C126.64,16.87,126.56,16.8,126.7,16.54Z"/><path class="b" d="M141.09,7.39a.29.29,0,0,1,.28-.3h4.08a3.38,3.38,0,0,1,3.42,3.34h0a3.51,3.51,0,0,1-2.32,3.2l2.15,4a.29.29,0,0,1-.08.4.26.26,0,0,1-.19.05h-.8a.27.27,0,0,1-.25-.14l-2.09-4.16h-3v4a.3.3,0,0,1-.29.29h-.62a.29.29,0,0,1-.29-.29Zm4.28,5.35a2.25,2.25,0,0,0,0-4.5h-3v4.5Z"/><path class="b" d="M152,7.39a.32.32,0,0,1,.3-.3h.63a.32.32,0,0,1,.3.3v10.4a.31.31,0,0,1-.3.29h-.63a.31.31,0,0,1-.3-.29Z"/><path class="b" d="M155.41,7.5a.28.28,0,0,1,.12-.38.37.37,0,0,1,.15,0h.63a.29.29,0,0,1,.27.18l3.91,8.79h.06l3.91-8.79a.29.29,0,0,1,.27-.18h.62a.28.28,0,0,1,.3.26.27.27,0,0,1,0,.15l-4.77,10.57a.31.31,0,0,1-.27.17h-.16a.3.3,0,0,1-.26-.17Z"/><path class="b" d="M167.85,7.39a.29.29,0,0,1,.28-.3h6.2a.29.29,0,0,1,.3.28v.48a.29.29,0,0,1-.3.3h-5.24V12h4.5a.31.31,0,0,1,.3.29v.46a.29.29,0,0,1-.3.3h-4.5v4h5.27a.29.29,0,0,1,.3.28v.48a.29.29,0,0,1-.29.29h-6.19a.29.29,0,0,1-.3-.28h0Z"/><path class="b" d="M177.66,7.39a.29.29,0,0,1,.3-.3H182a3.38,3.38,0,0,1,3.42,3.34h0a3.52,3.52,0,0,1-2.33,3.2l2.16,4a.29.29,0,0,1-.08.4.26.26,0,0,1-.19.05h-.8A.27.27,0,0,1,184,18l-2.09-4.16h-3v4a.31.31,0,0,1-.3.29H178a.31.31,0,0,1-.3-.29ZM182,12.74a2.25,2.25,0,0,0,0-4.5h-3v4.5Z"/><path class="b" d="M197.43,6.94a5.56,5.56,0,0,1,3.8,1.46.3.3,0,0,1,0,.42l0,0-.42.42c-.13.16-.25.14-.41,0a4.8,4.8,0,0,0-3-1.17,4.51,4.51,0,0,0,0,9,4.57,4.57,0,0,0,3-1.17.29.29,0,0,1,.38-.05l.47.42a.3.3,0,0,1,0,.43,5.41,5.41,0,0,1-3.81,1.52,5.65,5.65,0,0,1,0-11.3h0Z"/><path class="b" d="M209,6.94a5.65,5.65,0,1,1-5.63,5.67h0A5.63,5.63,0,0,1,209,6.94Zm0,10.2a4.56,4.56,0,1,0-4.54-4.58v0A4.58,4.58,0,0,0,209,17.14Z"/><path class="b" d="M217.58,7.39a.29.29,0,0,1,.3-.3h.61a.32.32,0,0,1,.3.3V17h4.52a.29.29,0,0,1,.3.28v.48a.29.29,0,0,1-.29.29h-5.44a.31.31,0,0,1-.3-.29Z"/><path class="b" d="M225.81,7.39a.29.29,0,0,1,.3-.3h.61a.32.32,0,0,1,.3.3V17h4.52a.29.29,0,0,1,.3.3h0v.46a.31.31,0,0,1-.3.29h-5.45a.31.31,0,0,1-.3-.29Z"/><path class="b" d="M234.09,7.39a.29.29,0,0,1,.28-.3h6.2a.29.29,0,0,1,.3.3v.46a.32.32,0,0,1-.3.3H235.3V12h4.5a.31.31,0,0,1,.3.29v.46a.29.29,0,0,1-.3.3h-4.5v4h5.27a.29.29,0,0,1,.3.3v.46a.31.31,0,0,1-.3.29h-6.18a.29.29,0,0,1-.3-.28h0Z"/><path class="b" d="M248.72,6.94a5.56,5.56,0,0,1,3.8,1.46.3.3,0,0,1,0,.42l0,0c-.14.14-.31.29-.44.44s-.23.14-.41,0a4.77,4.77,0,0,0-3-1.23,4.53,4.53,0,0,0,0,9,5.92,5.92,0,0,0,2.83-.66v-2.2h-1.81a.29.29,0,0,1-.3-.26v-.6a.29.29,0,0,1,.28-.3h2.74a.3.3,0,0,1,.28.3V17a.34.34,0,0,1-.13.25,7.7,7.7,0,0,1-3.87,1,5.65,5.65,0,0,1,0-11.3h0Z"/><path class="b" d="M255.86,7.39a.29.29,0,0,1,.28-.3h6.2a.29.29,0,0,1,.3.28v.48a.29.29,0,0,1-.3.3h-5.25V12h4.5a.31.31,0,0,1,.3.29v.46a.29.29,0,0,1-.3.3h-4.5v4h5.27a.29.29,0,0,1,.3.28v.48a.29.29,0,0,1-.29.29h-6.19a.29.29,0,0,1-.3-.28h0Z"/><path class="b" d="M48.54,34.87h-5v-.28h.14c.63,0,.72-.17.73-1.11v-3c0-1-.09-1.07-.75-1.07h-.12v-.29h2.9v.29h-.25c-.66,0-.74.12-.75,1.07V33.6c0,.89.08,1,.86,1h.33c.93,0,1.36-.35,1.66-1.47h.28Z"/><path class="b" d="M56.26,32a3.18,3.18,0,1,1-3.35-3h.18a3,3,0,0,1,3.17,2.83Zm-5.1,0a4.06,4.06,0,0,0,.37,1.88,1.75,1.75,0,0,0,1.58.84c1.25,0,1.9-.91,1.9-2.64a3.81,3.81,0,0,0-.39-1.85,1.7,1.7,0,0,0-1.53-.91c-1.26,0-1.93.93-1.93,2.62Z"/><path class="b" d="M57.94,32.91h.32a2.8,2.8,0,0,0,.36,1,1.49,1.49,0,0,0,1.3.77A1,1,0,0,0,61,33.81a.57.57,0,0,0,0-.13.91.91,0,0,0-.27-.64c-.28-.27-.34-.31-1.32-.75a2.66,2.66,0,0,1-1.25-.94,1.59,1.59,0,0,1-.23-.82A1.53,1.53,0,0,1,59.52,29h.07a1.69,1.69,0,0,1,1.3.57.77.77,0,0,0,.2-.47h.29v1.58h-.29a1.57,1.57,0,0,0-1.46-1.38.83.83,0,0,0-.9.76v.06c0,.48.33.79,1.27,1.2a4.37,4.37,0,0,1,1.42.81,1.66,1.66,0,0,1,.45,1.16A1.71,1.71,0,0,1,60.14,35H60a2,2,0,0,1-1.58-.72,1.25,1.25,0,0,0-.19.53h-.32Z"/><path class="b" d="M70.85,34.87a6.21,6.21,0,0,1-1.12-1.43c-.74-1.15-.9-1.3-1.31-1.27h-.2v1.31c0,.94.1,1.1.71,1.11h.22v.28H66.26v-.28h.17c.61,0,.71-.17.72-1.11v-3c0-1-.1-1.07-.76-1.07h-.1v-.29h2.19a4.17,4.17,0,0,1,2,.36,1.32,1.32,0,0,1,.71,1.17c0,.75-.5,1.23-1.49,1.44a4.92,4.92,0,0,1,1.2,1.37c.66.91,1,1.19,1.53,1.22h0V35Zm-2.63-3a6.91,6.91,0,0,0,.91,0c.6-.07.91-.49.91-1.21a1.26,1.26,0,0,0-.33-1,1.65,1.65,0,0,0-1.16-.29h-.33Z"/><path class="b" d="M73.64,29.09h2.78v.29h-.11c-.66,0-.75.12-.75,1.07v3c0,.94.1,1.1.72,1.11h.14v.28H73.64v-.28h.14c.61,0,.71-.17.72-1.11v-3c0-1-.1-1.07-.76-1.07h-.1Z"/><path class="b" d="M84.22,32a3.18,3.18,0,1,1-3.35-3h.22a3,3,0,0,1,3.13,2.87Zm-5.1,0a4.06,4.06,0,0,0,.37,1.88,1.76,1.76,0,0,0,1.58.84c1.25,0,1.9-.91,1.9-2.64a3.82,3.82,0,0,0-.38-1.85A1.73,1.73,0,0,0,81,29.38c-1.25-.06-2,.87-2,2.56Z"/><path class="b" d="M85.91,32.91h.31a3,3,0,0,0,.36,1,1.49,1.49,0,0,0,1.3.77A1,1,0,0,0,89,33.81a.57.57,0,0,0,0-.13.91.91,0,0,0-.27-.64c-.28-.27-.34-.31-1.32-.75a2.66,2.66,0,0,1-1.25-.94,1.59,1.59,0,0,1-.23-.82A1.53,1.53,0,0,1,87.48,29h.07a1.69,1.69,0,0,1,1.3.57.77.77,0,0,0,.2-.47h.29v1.58h-.25a1.57,1.57,0,0,0-1.45-1.38.84.84,0,0,0-.91.75v.07c0,.48.33.79,1.27,1.2a4.37,4.37,0,0,1,1.42.81,1.66,1.66,0,0,1,.45,1.16A1.72,1.72,0,0,1,88.15,35H88a2,2,0,0,1-1.58-.72,1.25,1.25,0,0,0-.19.53h-.31Z"/><path class="b" d="M99.72,32.69v2.07h-.28a1.48,1.48,0,0,0-.27-.6,2.49,2.49,0,0,1-2,.83,2.79,2.79,0,0,1-2.86-2.72v-.21a3.27,3.27,0,0,1,1-2.38A2.82,2.82,0,0,1,97.23,29a2.55,2.55,0,0,1,1.89.8,2,2,0,0,0,.21-.67h.28v2.17h-.27A3.08,3.08,0,0,0,98.83,30a1.85,1.85,0,0,0-1.49-.71c-1.18,0-1.83,1-1.83,2.72a3.45,3.45,0,0,0,.35,1.7,1.74,1.74,0,0,0,1.53.89A1.83,1.83,0,0,0,99,33.76a2.94,2.94,0,0,0,.39-1.07Z"/><path class="b" d="M107.85,32a3.18,3.18,0,1,1-3.35-3h.22a3,3,0,0,1,3.13,2.87Zm-5.1,0a4.06,4.06,0,0,0,.37,1.88,1.75,1.75,0,0,0,1.58.84c1.24,0,1.9-.91,1.9-2.64a4,4,0,0,0-.39-1.85,1.71,1.71,0,0,0-1.54-.85c-1.25-.06-1.92.87-1.92,2.56Z"/><path class="b" d="M113.18,33.54l2-4.45h2v.29H117c-.67,0-.74.1-.75,1.07v3c0,.94.1,1.1.72,1.11h.22v.28H114.3v-.28h.17c.61,0,.71-.17.72-1.11V29.89l-2.24,5h-.24l-2.26-4.95v3.25c0,1,.15,1.33.85,1.41h0v.28h-2.07V34.6h0c.67-.08.86-.4.82-1.43v-2.7c0-.94-.09-1.07-.75-1.07h-.12v-.29h2Z"/><path class="b" d="M122.34,33.54l2-4.45h2v.29h-.25c-.67,0-.74.1-.75,1.07v3c0,.94.1,1.1.73,1.11h.21v.28h-2.89v-.28h.17c.62,0,.71-.17.72-1.11V29.89l-2.24,5h-.24l-2.26-4.95v3.25c0,1,.15,1.33.85,1.41h0v.28h-2V34.6h0c.67-.08.86-.4.83-1.43v-2.7c0-.94-.1-1.07-.76-1.07h-.12v-.29h2Z"/><path class="b" d="M133.91,29.09v.29h-.07c-.55.08-.73.31-.74.88v2.48a2.61,2.61,0,0,1-.29,1.25,2.29,2.29,0,0,1-2.08,1,2.37,2.37,0,0,1-2.08-1,2,2,0,0,1-.27-1.1V30.45c0-1-.09-1.07-.75-1.07h-.1v-.29h2.78v.29h-.12c-.65,0-.74.12-.74,1.07v2a3.93,3.93,0,0,0,.13,1.32,1.41,1.41,0,0,0,1.43.85,1.77,1.77,0,0,0,1.65-1,3.14,3.14,0,0,0,.12-1.22v-2c0-.78-.18-1-.83-1h0v-.29Z"/><path class="b" d="M140.26,35l-4-5v3.55c0,.54,0,.56.09.69a.91.91,0,0,0,.78.37h.08v.28h-2.12v-.28h0a1,1,0,0,0,.77-.36c.06-.1.07-.2.07-.69v-3c0-1-.14-1.13-.8-1.13h0v-.29h1.78l3.35,4.19v-3c0-.62-.2-.84-.83-.9h-.1v-.29h2.1v.29h-.07c-.61.08-.81.32-.78.93V35Z"/><path class="b" d="M142.62,29.09h2.79v.29h-.12c-.65,0-.74.12-.75,1.07v3c0,.94.1,1.1.73,1.11h.14v.28h-2.79v-.28h.14c.62,0,.71-.17.72-1.11v-3c0-1-.09-1.07-.75-1.07h-.11Z"/><path class="b" d="M146.78,30.57V29.09h5.66v1.48h-.29c-.21-1-.43-1.2-1.26-1.17h-.78v4.08c0,.94.1,1.1.72,1.11h.26v.28h-3v-.28h.24c.62,0,.71-.17.72-1.11V29.4h-.73c-.9,0-1.11.15-1.29,1.17Z"/><path class="b" d="M156.2,29.09v.29h-.06c-.36,0-.54.09-.54.28s0,.2.21.46l1.28,2.05,1-1.75a1.28,1.28,0,0,0,.24-.59c0-.28-.22-.45-.6-.45h0v-.29h1.91v.29h0c-.42.07-.67.29-1.11,1l-1.27,2.09v1c0,.94.1,1.1.72,1.11H158v.28h-2.72v-.28h.09c.62,0,.71-.17.72-1.11V32.6l-1.39-2.29c-.47-.8-.57-.89-1-.93h0v-.29Z"/><path class="b" d="M169,32.69v2.07h-.28a1.48,1.48,0,0,0-.27-.6,2.49,2.49,0,0,1-1.95.83,2.79,2.79,0,0,1-2.86-2.72v-.21a3.23,3.23,0,0,1,1-2.38,2.8,2.8,0,0,1,1.91-.69,2.5,2.5,0,0,1,1.89.8,1.75,1.75,0,0,0,.21-.67H169l0,2.17h-.28a3.06,3.06,0,0,0-.5-1.26,1.85,1.85,0,0,0-1.49-.71c-1.19,0-1.84,1-1.84,2.72a3.23,3.23,0,0,0,.36,1.7,1.71,1.71,0,0,0,1.52.89,1.83,1.83,0,0,0,1.59-.87,2.94,2.94,0,0,0,.39-1.07Z"/><path class="b" d="M177.15,32a3.19,3.19,0,1,1-3.37-3H174a3,3,0,0,1,3.13,2.87ZM172,32a4.06,4.06,0,0,0,.37,1.88,1.76,1.76,0,0,0,1.58.84c1.25,0,1.91-.91,1.91-2.64a4,4,0,0,0-.39-1.85,1.73,1.73,0,0,0-1.55-.85c-1.24-.06-1.87.87-1.87,2.56Z"/><path class="b" d="M183.62,34.87h-5v-.28h.14c.63,0,.72-.17.73-1.11v-3c0-1-.09-1.07-.75-1.07h-.12v-.29h2.9v.29h-.21c-.66,0-.74.12-.75,1.07V33.6c0,.89.08,1,.86,1h.33c.93,0,1.36-.35,1.66-1.47h.28Z"/><path class="b" d="M189.86,34.87h-5v-.28H185c.63,0,.72-.17.73-1.11v-3c0-1-.09-1.07-.75-1.07h-.11v-.29h2.89v.29h-.21c-.66,0-.74.12-.75,1.07V33.6c0,.89.08,1,.86,1H188c.93,0,1.36-.35,1.66-1.47h.29Z"/><path class="b" d="M196.09,33l-.1,1.83h-4.9v-.29h.11c.62,0,.72-.16.73-1.1v-3c0-.92-.1-1-.68-1.06h-.09v-.29h4.4l.11,1.46h-.29c-.24-.95-.54-1.19-1.5-1.15H193v2.28h.59c.64,0,.78-.13.79-.66v-.16h.29v2h-.29v-.07c0-.66-.15-.79-.78-.78H193v1.38c0,1.06.12,1.22.85,1.2h.34c.91,0,1.37-.4,1.67-1.53Z"/><path class="b" d="M203.72,32.34v.3h-.07c-.57,0-.64.15-.63,1.11v.81h-.18a3.12,3.12,0,0,0-1,.2,4,4,0,0,1-1.37.25,2.82,2.82,0,0,1-2.91-2.73v-.19a3.28,3.28,0,0,1,1-2.36,2.81,2.81,0,0,1,1.93-.72,2.51,2.51,0,0,1,1.89.79,1.75,1.75,0,0,0,.18-.63h.28v2h-.29a1.92,1.92,0,0,0-1.91-1.77,1.69,1.69,0,0,0-1.52.84,3.8,3.8,0,0,0-.35,1.85,3.92,3.92,0,0,0,.35,1.82,1.66,1.66,0,0,0,1.48.82,1.35,1.35,0,0,0,1.19-.56,1,1,0,0,0,.13-.59v-.21c0-.54-.15-.67-.68-.67h-.12v-.3Z"/><path class="b" d="M210,33l-.09,1.83H205v-.29h.13c.63,0,.72-.16.73-1.1v-3c0-.92-.1-1-.68-1.06h0v-.29h4.39l.11,1.46h-.28c-.24-.95-.55-1.19-1.51-1.15h-.89v2.28h.59c.64,0,.78-.13.79-.66v-.16h.3v2h-.3v-.07c0-.66-.14-.79-.78-.78h-.6v1.38c0,1.06.11,1.22.85,1.2h.33c.91,0,1.37-.4,1.67-1.53Z"/><path class="b" d="M214.31,29.12h2.06a5.36,5.36,0,0,1,2.7.53A2.73,2.73,0,0,1,220.4,32a2.62,2.62,0,0,1-1.79,2.65,5.63,5.63,0,0,1-1.92.18h-2.4v-.28h.19c.61,0,.71-.17.72-1.11v-3c0-.94-.1-1.06-.76-1.06h-.13Zm1.94,4.13a3.06,3.06,0,0,0,.08,1c.1.21.31.3.75.3a1.81,1.81,0,0,0,1.63-.65,3.15,3.15,0,0,0,.49-1.84,2.64,2.64,0,0,0-1.11-2.45,2.42,2.42,0,0,0-1.32-.27h-.54Z"/><path class="b" d="M221.85,29.09h2.78v.29h-.11c-.66,0-.74.12-.75,1.07v3c0,.94.1,1.1.73,1.11h.13v.28h-2.78v-.28H222c.62,0,.71-.17.72-1.11v-3c0-1-.09-1.07-.75-1.07h-.11Z"/><path class="b" d="M226.19,32.91h.31a3,3,0,0,0,.36,1,1.49,1.49,0,0,0,1.3.77,1,1,0,0,0,1.11-.87.57.57,0,0,0,0-.13A.91.91,0,0,0,229,33c-.28-.27-.34-.31-1.32-.75a2.66,2.66,0,0,1-1.25-.94,1.59,1.59,0,0,1-.23-.82A1.55,1.55,0,0,1,227.78,29h.05a1.69,1.69,0,0,1,1.3.57.77.77,0,0,0,.2-.47h.29v1.58h-.29a1.57,1.57,0,0,0-1.45-1.38.84.84,0,0,0-.91.75v.07c0,.48.33.79,1.27,1.2a4.37,4.37,0,0,1,1.42.81,1.66,1.66,0,0,1,.45,1.16A1.71,1.71,0,0,1,228.38,35h-.11a2,2,0,0,1-1.58-.72,1.25,1.25,0,0,0-.19.53h-.31Z"/><path class="b" d="M231.31,30.57V29.09H237v1.48h-.29c-.2-1-.43-1.2-1.26-1.17h-.78v4.08c0,.94.1,1.1.72,1.11h.24v.28h-3v-.28h.24c.62,0,.71-.17.72-1.11V29.4h-.73c-.9,0-1.11.15-1.29,1.17Z"/><path class="b" d="M243,34.87a6.21,6.21,0,0,1-1.12-1.43c-.74-1.15-.9-1.3-1.31-1.27h-.21v1.31c0,.94.11,1.1.72,1.11h.22v.28h-2.89v-.28h.17c.61,0,.71-.17.72-1.11v-3c0-1-.1-1.07-.76-1.07h-.1v-.29h2.19a4.17,4.17,0,0,1,2,.36,1.32,1.32,0,0,1,.71,1.17c0,.75-.49,1.23-1.48,1.44a4.92,4.92,0,0,1,1.2,1.37c.66.91,1,1.19,1.53,1.22h.05V35Zm-2.64-3a7.06,7.06,0,0,0,.92,0c.6-.07.91-.49.91-1.21a1.24,1.24,0,0,0-.34-1,1.62,1.62,0,0,0-1.15-.29h-.34Z"/><path class="b" d="M245.74,29.09h2.78v.29h-.11c-.66,0-.75.12-.76,1.07v3c0,.94.11,1.1.73,1.11h.14v.28h-2.78v-.28h.14c.61,0,.71-.17.72-1.11v-3c0-1-.1-1.07-.76-1.07h-.1Z"/><path class="b" d="M255.32,32.69v2.07h-.23a1.48,1.48,0,0,0-.27-.6,2.49,2.49,0,0,1-1.95.83A2.79,2.79,0,0,1,250,32.27v-.21a3.23,3.23,0,0,1,1-2.38,2.8,2.8,0,0,1,1.91-.69,2.5,2.5,0,0,1,1.89.8,1.75,1.75,0,0,0,.21-.67h.29v2.17H255a3.06,3.06,0,0,0-.5-1.26,1.85,1.85,0,0,0-1.49-.71c-1.19,0-1.84,1-1.84,2.72a3.33,3.33,0,0,0,.36,1.7,1.71,1.71,0,0,0,1.52.89,1.83,1.83,0,0,0,1.59-.87,2.94,2.94,0,0,0,.39-1.07Z"/><path class="b" d="M256.86,30.57V29.09h5.66v1.48h-.28c-.21-1-.44-1.2-1.27-1.17h-.78v4.08c0,.94.1,1.1.72,1.11h.24v.28h-3v-.28h.24c.62,0,.71-.17.72-1.11V29.4h-.72c-.91,0-1.11.15-1.3,1.17Z"/><line class="c" x1="43.35" y1="23.18" x2="262.77" y2="23.18"/><path class="d" d="M36.05,1.47V25.92a17.4,17.4,0,0,1-34.79,0V1.47Z"/><g class="e"><path class="f" d="M34.65,17.2c-.48-.14-.89-.41-1.1-.36a3.06,3.06,0,0,0-1.16.49c-.21.14-.28-.09-.75.45-.07.09-.07.09-.21.14s-.83.23-1,.32l-.48.31a2.15,2.15,0,0,1-.76-.36,5.34,5.34,0,0,0-.88-.13c-.28,0-.12.5-.33.6a10.15,10.15,0,0,0-1-1.06c-.27-.13-.48-.13-.68-.22A2.76,2.76,0,0,0,25,17a6.52,6.52,0,0,0-1.23.18c-.41.14,0,.15-.53.24a11.44,11.44,0,0,0-1.6-1.27c-.07-.05-.2-.05-.27-.09s-.28-.41-.55-.59-.55-.09-.69-.14a4.39,4.39,0,0,0-1.57-.63,10.33,10.33,0,0,0-1.58.45c-.34.09-.68.14-1,.23-.2,0-.54-.23-.75-.18a5.23,5.23,0,0,0-1.57.59c-.14.08-.48,0-.69.18a1.12,1.12,0,0,0-.27.26,6.35,6.35,0,0,0-2.13.86c-.34-.13-1.36-.58-1.57-.63a1.15,1.15,0,0,0-.62.27,2.65,2.65,0,0,1-.75.63c-.21.09-.48.14-.69.23-.68.41-1.64.77-2.25,1.22a2,2,0,0,0-1-.23,1.58,1.58,0,0,1-.35.09A6.56,6.56,0,0,0,2,19a4.66,4.66,0,0,0-.62.33H1.26v6.58a17.4,17.4,0,0,0,34.79,0V17.59C35.56,17.43,35.05,17.29,34.65,17.2Zm-16,16.19c-2.51,3.31-3.25,5-3.71,8,0,.06-.07.08-.16.08h0l-.17-.06A35.11,35.11,0,0,1,6.75,35.3a.17.17,0,0,1,0-.27.23.23,0,0,1,.3,0,34.24,34.24,0,0,0,6.54,5.41c-3.79-4-4.81-6.39-5.14-10.55a.3.3,0,0,1,.22-.25c.13,0,.24,0,.24.11.3,4.39,1.41,6.94,5.57,11.12l0-.24a14.5,14.5,0,0,1-2.11-3.58.51.51,0,0,1-.46-.29A11.92,11.92,0,0,1,11,33.52a.38.38,0,0,1,.28-.41.68.68,0,0,1,0-.14.07.07,0,0,1,.07-.08c.05,0,.09,0,.09,0l0,.14a.36.36,0,0,1,.38.3,12.67,12.67,0,0,0,.89,3.26.3.3,0,0,1-.17.41,14.75,14.75,0,0,0,1.77,3.11,11.35,11.35,0,0,1-1.18-8.23.38.38,0,0,1-.33-.45,11.57,11.57,0,0,1,1.5-4,.94.94,0,0,1,.65-.41l.1-.16a.19.19,0,0,1,.15-.08c.06,0,.09,0,0,.08l-.09.16c.21,0,.29.2.17.41a11.57,11.57,0,0,0-1.5,4,.61.61,0,0,1-.5.45,11.44,11.44,0,0,0,1.25,8.37c.09-.35.14-.52.24-.86a11.16,11.16,0,0,1-.56-3.85.52.52,0,0,1-.4-.48A11.7,11.7,0,0,1,14.71,31a.67.67,0,0,1,.57-.4l.07-.17a.14.14,0,0,1,.13-.08c.06,0,.09.05.06.1s0,.1-.06.17a.34.34,0,0,1,.24.47,11.72,11.72,0,0,0-.79,4.12.43.43,0,0,1-.42.41A10.81,10.81,0,0,0,15,39.1a17.45,17.45,0,0,1,3.31-5.93.25.25,0,0,1,.32-.06A.18.18,0,0,1,18.65,33.39Z"/><path class="d" d="M18.85,29.07c1.62.92,8.74,1.85,16.31,2.32A17.46,17.46,0,0,1,22.57,42.86a8.21,8.21,0,0,0-1.1-.69c-4.29-2.28-27.35-7.38-14.61-14C14,24.53,27.5,24.06,36.05,24v.79C26.23,25.29,13.55,26.6,18.85,29.07Z"/><path class="a" d="M35.49,1.48H1.26V25.92a17.4,17.4,0,0,0,34.79,0V1.48Z"/><path class="a" d="M35.49,1.48H1.26V25.92a17.4,17.4,0,0,0,34.79,0V1.48Z"/><path class="f" d="M18.87,32.87a.27.27,0,0,0-.33.06,17.06,17.06,0,0,0-3.41,5.94,10.4,10.4,0,0,1-.48-3.5.45.45,0,0,0,.44-.41,1.55,1.55,0,0,1,0-.22L15,34.63a.24.24,0,0,1,.06-.34l0,0c0-.23,0-.44.06-.65l-.1-.14a.25.25,0,0,1,.06-.35l.13-.08c0-.22.08-.43.13-.65l0,0a.24.24,0,0,1,.06-.34l.1-.07c.05-.16.1-.33.16-.5h0a.24.24,0,0,1,.06-.34l.07-.05a1.59,1.59,0,0,0,.07-.2.36.36,0,0,0-.24-.48c0-.06,0-.1.06-.17s0-.09-.06-.1a.16.16,0,0,0-.14.09l-.07.16a.71.71,0,0,0-.58.41A11.26,11.26,0,0,0,14,34.87a.51.51,0,0,0,.41.48A10.72,10.72,0,0,0,15,39.2c-.11.35-.16.52-.25.86a11.12,11.12,0,0,1-1.29-8.37.63.63,0,0,0,.52-.44,16.17,16.17,0,0,1,.43-1.65l0,0a.24.24,0,0,1,.06-.34l.13-.09a8.48,8.48,0,0,1,.4-.89.24.24,0,0,1,.1-.26l.06-.05c.12-.21.24-.44.39-.69a.25.25,0,0,0-.18-.41l.1-.16s0-.08-.05-.08a.25.25,0,0,0-.17.08l-.1.16a1,1,0,0,0-.67.41l0,0v0a.24.24,0,0,1-.06.34l-.26.17c-.08.15-.15.3-.23.44a.23.23,0,0,1-.08.28l-.08.05-.21.49h0a.24.24,0,0,1-.06.34l-.11.08a7.79,7.79,0,0,0-.24.81l0,.07a.25.25,0,0,1-.06.35l-.1.07c0,.13-.07.27-.1.42a.37.37,0,0,0,.34.44,11.07,11.07,0,0,0,1.22,8.23,14.17,14.17,0,0,1-1.82-3.11.28.28,0,0,0,.17-.4,12.43,12.43,0,0,1-.92-3.27.38.38,0,0,0-.39-.3c0-.05,0-.08,0-.13a.07.07,0,0,0-.09-.06.09.09,0,0,0-.08.09s0,.08,0,.13a.39.39,0,0,0-.29.41,1.42,1.42,0,0,1,0,.2h0a.24.24,0,0,1,.11.33l0,.08c0,.17.07.34.11.5l0,0a.25.25,0,0,1,.11.33l0,.06c0,.18.1.37.17.55l.07,0a.25.25,0,0,1,.11.33l0,.05c0,.11.08.22.13.34l.2.1a.24.24,0,0,1,.1.33l-.05.11a.57.57,0,0,0,.41.19,14.34,14.34,0,0,0,2.18,3.57l0,.25c-4.29-4.18-5.44-6.73-5.75-11.12,0-.1-.12-.15-.25-.12s-.23.15-.22.25c.33,4.16,1.39,6.55,5.29,10.55A35,35,0,0,1,7,34.82a.26.26,0,0,0-.31,0,.18.18,0,0,0,0,.28,36.34,36.34,0,0,0,8.08,6.14.32.32,0,0,0,.18.06h0c.09,0,.16,0,.17-.08.48-3,1.24-4.73,3.83-8A.19.19,0,0,0,18.87,32.87Z"/></g><path class="f" d="M32.1,11.12s-.11.14,0-.11c0,.19-.87.18-1.39,0-.21-.08-.29-.17-.29-.34s0-.16,0-.22.11-.18.12-.14.05.09.06.08c.06-.23,0-.49-.22-.36a.7.7,0,0,0-.46.23c-.16,0-.11,0-.33-.08-.76-.14-2-.53-2.26-1.33,0,0-.07-.1-.25-.06s0,.16.21.57c-.1,0-.23-.41-.67-.66,0,0-.06.07.19.54,0,0,0,0,0,.05-.16-.08-.55-.51-.77-.43.1.13-.14.25.78.72-.13,0-.42-.16-1.07-.43-.22,0-.4,0,.06.31l.53.22s-.92-.3-1.16-.11c0,0,.87.21.89.23-.33,0,0,0-1-.1-.06,0-.08.05-.08.07.27.16.07.08.88.27a6.79,6.79,0,0,0-.83.05c0,.16-.07.16.53.21-.05.06-.11.08,0,.19a.19.19,0,0,0,.12,0h0a.11.11,0,0,0-.06.1c.09,0-.14.2.55.15-.05,0-.25.13-.05.22,0,0-.16.2.16.2,0,0,0,.05,0,.07a.18.18,0,0,0,.13,0c0,.12.11.17.48.14a.83.83,0,0,0,0,.12.12.12,0,0,0,.14,0c.07,0,.06.1.33-.05,0,0-.08.18.21.12l.09,0h0s0,0,0,0,0,0,.16,0a.2.2,0,0,0,.19,0,.13.13,0,0,0,.07-.05.06.06,0,0,0,.05,0s0,0,0,0,.18,0,.14.13-.64.28-.6.67c0,.1.12.1.18.06-.1.09.93.49.86-.19.07.1,0-.28.34-.44h.05s-.13.24.16.19c0,.12.15.2.17.18l0,0s.1.05.1.05.05.12.22,0,0,.09.15,0a.47.47,0,0,0,.45,0,.13.13,0,0,1,.09,0s.08.06.2-.06a.17.17,0,0,0,.14,0,.11.11,0,0,0,.07-.06c.09,0,.18,0,.23-.22a.25.25,0,0,0,.29.15.08.08,0,0,0,0,0l-.08-.22a.18.18,0,0,0,.27,0c0-.09,0,0-.1-.18.06,0,0,0,.22,0,.06-.06.12-.09-.11-.15a.52.52,0,0,0,.2-.06s.2-.19,0-.09-.11,0,.1-.15a.12.12,0,0,0,0-.07s0,0,0,0Z"/><path class="g" d="M5,3.87a.09.09,0,0,1,.09-.09H7a.09.09,0,0,1,.09.09v.37A.09.09,0,0,1,7,4.33H5.6v.75H6.74a.09.09,0,0,1,.08.09v.38a.09.09,0,0,1-.08.09H5.6v.8H7a.1.1,0,0,1,.09.09v.38A.09.09,0,0,1,7,7H5.09A.09.09,0,0,1,5,6.91Z"/><path class="g" d="M8.67,6.54l.16-.28a.12.12,0,0,1,.16,0,1.53,1.53,0,0,0,.69.28.38.38,0,0,0,.42-.35c0-.24-.2-.4-.58-.55s-.87-.45-.87-1a.93.93,0,0,1,1-.88,1.63,1.63,0,0,1,.92.31.11.11,0,0,1,0,.15l-.17.26c0,.06-.11.1-.16.06a1.61,1.61,0,0,0-.64-.25.36.36,0,0,0-.4.32c0,.21.17.36.54.51s1,.45,1,1A1,1,0,0,1,9.7,7a1.45,1.45,0,0,1-1-.36S8.63,6.62,8.67,6.54Z"/><path class="g" d="M12.93,4.33h-.71a.08.08,0,0,1-.08-.09V3.87a.08.08,0,0,1,.08-.09h2a.09.09,0,0,1,.09.09v.37a.09.09,0,0,1-.09.09h-.7V6.91a.09.09,0,0,1-.09.08H13a.09.09,0,0,1-.08-.08Z"/><path class="g" d="M16.07,6.28a.39.39,0,0,1,.38.38.39.39,0,0,1-.38.38.38.38,0,0,1-.38-.38A.39.39,0,0,1,16.07,6.28Z"/><path class="g" d="M20.57,4.71l-.41.08a.07.07,0,0,1-.09-.06l0-.22s0-.07,0-.08l.66-.56h.32a.08.08,0,0,1,.08.09v3a.08.08,0,0,1-.08.08h-.39a.09.09,0,0,1-.09-.08Z"/><path class="g" d="M23.31,6.6c.21-.07.87-.38,1-.88a1.34,1.34,0,0,1-.52.13.94.94,0,0,1-.94-1,1,1,0,0,1,1-1A1.12,1.12,0,0,1,25,5.07a2.14,2.14,0,0,1-1.53,2A.1.1,0,0,1,23.33,7l-.1-.27C23.2,6.68,23.22,6.63,23.31,6.6ZM24.44,5c0-.32-.17-.68-.54-.68a.54.54,0,0,0,0,1.08A.57.57,0,0,0,24.44,5Z"/><path class="g" d="M26.58,6.86l1.19-2.49H26.56a.1.1,0,0,1-.09-.09V4a.1.1,0,0,1,.09-.09h1.91a.09.09,0,0,1,.09.09V4L27.19,6.87A.17.17,0,0,1,27,7h-.34c-.05,0-.11,0-.11-.08Z"/><path class="g" d="M30,5.43c0-1,.42-1.61,1.16-1.61s1.16.61,1.16,1.61S31.88,7,31.15,7,30,6.44,30,5.43Zm1.71,0c0-.68-.2-1.06-.55-1.06s-.56.38-.56,1.06.2,1.07.56,1.07S31.7,6.12,31.7,5.43Z"/><path class="f" d="M18.65,44.78A18.68,18.68,0,0,1,0,26.13V0H37.31V26.13A18.68,18.68,0,0,1,18.65,44.78ZM.43.43v25.7a18.23,18.23,0,0,0,36.45,0V.43Z"/><path class="f" d="M18.87,32.87a.27.27,0,0,0-.33.06,17.06,17.06,0,0,0-3.41,5.94,10.4,10.4,0,0,1-.48-3.5.45.45,0,0,0,.44-.41,1.55,1.55,0,0,1,0-.22L15,34.63a.24.24,0,0,1,.06-.34l0,0c0-.23,0-.44.06-.65l-.1-.14a.25.25,0,0,1,.06-.35l.13-.08c0-.22.08-.43.13-.65l0,0a.24.24,0,0,1,.06-.34l.1-.07c.05-.16.1-.33.16-.5h0a.24.24,0,0,1,.06-.34l.07-.05a1.59,1.59,0,0,0,.07-.2.36.36,0,0,0-.24-.48c0-.06,0-.1.06-.17s0-.09-.06-.1a.16.16,0,0,0-.14.09l-.07.16a.71.71,0,0,0-.58.41A11.26,11.26,0,0,0,14,34.87a.51.51,0,0,0,.41.48A10.72,10.72,0,0,0,15,39.2c-.11.35-.16.52-.25.86a11.12,11.12,0,0,1-1.29-8.37.63.63,0,0,0,.52-.44,16.17,16.17,0,0,1,.43-1.65l0,0a.24.24,0,0,1,.06-.34l.13-.09a8.48,8.48,0,0,1,.4-.89.24.24,0,0,1,.1-.26l.06-.05c.12-.21.24-.44.39-.69a.25.25,0,0,0-.18-.41l.1-.16s0-.08-.05-.08a.25.25,0,0,0-.17.08l-.1.16a1,1,0,0,0-.67.41l0,0v0a.24.24,0,0,1-.06.34l-.26.17c-.08.15-.15.3-.23.44a.23.23,0,0,1-.08.28l-.08.05-.21.49h0a.24.24,0,0,1-.06.34l-.11.08a7.79,7.79,0,0,0-.24.81l0,.07a.25.25,0,0,1-.06.35l-.1.07c0,.13-.07.27-.1.42a.37.37,0,0,0,.34.44,11.07,11.07,0,0,0,1.22,8.23,14.17,14.17,0,0,1-1.82-3.11.28.28,0,0,0,.17-.4,12.43,12.43,0,0,1-.92-3.27.38.38,0,0,0-.39-.3c0-.05,0-.08,0-.13a.07.07,0,0,0-.09-.06.09.09,0,0,0-.08.09s0,.08,0,.13a.39.39,0,0,0-.29.41,1.42,1.42,0,0,1,0,.2h0a.24.24,0,0,1,.11.33l0,.08c0,.17.07.34.11.5l0,0a.25.25,0,0,1,.11.33l0,.06c0,.18.1.37.17.55l.07,0a.25.25,0,0,1,.11.33l0,.05c0,.11.08.22.13.34l.2.1a.24.24,0,0,1,.1.33l-.05.11a.57.57,0,0,0,.41.19,14.34,14.34,0,0,0,2.18,3.57l0,.25c-4.29-4.18-5.44-6.73-5.75-11.12,0-.1-.12-.15-.25-.12s-.23.15-.22.25c.33,4.16,1.39,6.55,5.29,10.55A35,35,0,0,1,7,34.82a.26.26,0,0,0-.31,0,.18.18,0,0,0,0,.28,36.34,36.34,0,0,0,8.08,6.14.32.32,0,0,0,.18.06h0c.09,0,.16,0,.17-.08.48-3,1.24-4.73,3.83-8A.19.19,0,0,0,18.87,32.87Z"/></svg>