<svg xmlns="http://www.w3.org/2000/svg" width="280" height="63" viewBox="0 0 280 63">
    <g fill="#1D4E91" fill-rule="evenodd">
        <path d="M54.792 59.168c.011-.265.024-.413.024-.561 0-9.807.017-19.613-.017-29.42a24.176 24.176 0 0 0-.404-4.366c-1.128-5.996-4.027-11.014-8.792-14.855C39.097 4.72 31.685 3.05 23.544 4.96c-5.752 1.35-10.417 4.493-14.02 9.145-3.352 4.33-5.18 9.265-5.226 14.732-.084 9.929-.028 19.86-.03 29.789v.518c.168.016.287.038.408.038 3.054.002 6.11.008 9.164-.013.227-.001.503-.148.671-.313 1.953-1.92 3.89-3.857 5.83-5.79 1.92-1.91 3.834-3.826 5.76-5.73 1.344-1.33 3.05-1.484 4.417-.281 1.158 1.018 2.197 2.17 3.33 3.305l-4.39 4.351c-1.467 1.454-2.93 2.908-4.396 4.362.884.11 1.716.129 2.544.098.22-.008.485-.116.642-.267 1.426-1.375 2.832-2.77 4.242-4.16 2.204-2.172 4.4-4.353 6.62-6.508a5 5 0 0 1 1.318-.926c1.16-.548 2.355-.218 3.476.905 3.28 3.284 6.553 6.575 9.828 9.865.333.333.658.674 1.06 1.087m3.643-32.126v35.77H.37V27.597c.032-.163.07-.326.093-.49.207-1.415.315-2.853.633-4.243C2.73 15.712 6.576 9.99 12.546 5.709 16.432 2.922 20.777 1.245 25.53.627c.763-.099 1.528-.183 2.292-.275h3.257c.07.026.14.066.213.075 1.183.14 2.38.201 3.547.424 6.937 1.327 12.693 4.686 17.171 10.135 3.38 4.113 5.421 8.832 6.156 14.103l.27 1.953"/>
        <path d="M21.349 16.083c-4.592 1.502-8.751 7.243-8.846 12.446-.1 5.522 4.538 11.338 8.944 12.645l-.017.115c-.85-.148-1.715-.238-2.547-.452-4.2-1.076-7.43-3.427-9.292-7.382-1.885-4.006-1.358-7.887 1.097-11.483 2.305-3.375 5.606-5.22 9.65-5.772.336-.046.674-.078 1.01-.117"/>
        <path d="M21.528 23.157c-4.5 3.2-4.382 8.958.193 11.73-3.347-.15-5.997-2.847-6.028-5.701-.033-3.013 2.61-5.864 5.835-6.03M92.435 24.156c-1.8.653-2.922.885-4.53.885-4.468 0-7.644-2.994-7.644-7.19 0-4.153 3.176-7.253 7.432-7.253 1.376 0 2.328.19 3.557.717v-.885h1.164v3.774H91.25v-1.35c-1.207-.843-1.885-1.075-3.007-1.075-2.943 0-4.997 2.446-4.997 5.946 0 3.416 2.266 6.072 5.188 6.072 1.058 0 1.82-.232 2.816-.843v-1.602h1.185v2.804zM121.053 11.737h-1.778v7.928c0 2.382-.826 3.88-2.626 4.723a7.427 7.427 0 0 1-3.069.653c-3.43 0-5.653-1.876-5.653-4.786v-8.518h-1.61v-.886h5.93v.886h-1.59v7.864c0 2.13.382 3.1 1.463 3.67.507.252 1.122.4 1.756.4 2.54 0 4.022-1.497 4.022-4.07v-7.843h-1.757v-.907h4.912v.886zM143.233 24.767h-5.928v-.885h1.588v-5.82l-4.192-6.325h-1.333v-.886h5.927v.886h-1.566l3.007 4.618 2.815-4.618h-1.799v-.886h4.932v.886h-1.524l-3.536 5.777v6.368h1.61zM165.5 19.18l-2.01-5.272-2.138 5.271h4.149zm5.484 5.587h-5.165v-.885h1.483l-1.314-3.416h-5.144l-1.377 3.416h1.694v.885h-4.382v-.885h1.313l5.461-13.474h1.292l5.25 13.474h.89v.885zM200.957 24.767h-6.288v-.885h1.779v-9.109l-4.659 10.205-5.101-10.015v8.919h1.778v.885h-4.89v-.885h1.777V11.737h-1.778v-.886h3.747l5.017 9.804 4.425-9.804h4.193v.886h-1.78v12.145h1.78zM222.333 19.18l-2.012-5.272-2.138 5.271h4.15zm5.483 5.587h-5.166v-.885h1.483l-1.313-3.416h-5.145l-1.377 3.416h1.694v.885h-4.382v-.885h1.313l5.462-13.474h1.291l5.25 13.474h.89v.885zM252.666 24.156c-1.8.653-2.923.885-4.53.885-4.468 0-7.644-2.994-7.644-7.19 0-4.153 3.176-7.253 7.432-7.253 1.375 0 2.328.19 3.556.717v-.885h1.164v3.774h-1.164v-1.35c-1.207-.843-1.884-1.075-3.006-1.075-2.943 0-4.998 2.446-4.998 5.946 0 3.416 2.266 6.072 5.189 6.072 1.058 0 1.82-.232 2.815-.843v-1.602h1.186v2.804zM274.212 19.18l-2.012-5.272-2.138 5.271h4.15zm5.482 5.587h-5.165v-.885h1.482l-1.313-3.416h-5.144l-1.377 3.416h1.694v.885h-4.382v-.885h1.313l5.461-13.474h1.292l5.25 13.474h.89v.885zM110.933 57.979c-1.8.654-2.923.886-4.53.886-4.468 0-7.644-2.995-7.644-7.19 0-4.154 3.176-7.253 7.432-7.253 1.375 0 2.328.19 3.556.716v-.885h1.164v3.775h-1.164v-1.35c-1.207-.844-1.884-1.076-3.006-1.076-2.943 0-4.997 2.446-4.997 5.946 0 3.416 2.265 6.073 5.187 6.073 1.059 0 1.82-.233 2.816-.844v-1.602h1.186v2.804zM131.547 57.663c2.139 0 4.023-2.825 4.023-6.03 0-3.185-1.884-6.009-4.023-6.009-2.117 0-4.002 2.824-4.002 6.009 0 3.205 1.885 6.03 4.002 6.03m0 1.201c-3.895 0-6.987-3.204-6.987-7.231 0-4.028 3.092-7.212 6.987-7.212 3.896 0 7.008 3.184 7.008 7.212 0 4.027-3.112 7.231-7.008 7.231M162.133 58.59h-9.993v-.885h1.61V45.56h-1.61v-.886h5.928v.886h-1.588v11.786h4.51v-1.56h1.143zM185.056 58.59h-9.992v-.885h1.61V45.56h-1.61v-.886h5.928v.886h-1.588v11.786h4.51v-1.56h1.142zM208.065 58.59h-10.078v-.885h1.61V45.56h-1.61v-.886h8.723v-.59h1.144v3.352h-1.123v-1.518h-4.404v4.977h3.388V49.46l1.143-.02v4.153l-1.143.022v-1.476h-3.388v5.207h4.595v-1.56h1.143zM234.544 58.063c-2.075.57-3.387.802-4.849.802-4.635 0-7.896-3.015-7.896-7.254 0-3.056 1.926-5.84 4.7-6.747.932-.295 1.99-.464 3.132-.464 1.293 0 2.076.148 3.452.633v-.78h1.165v3.752h-1.165v-1.601c-1.08-.57-1.926-.802-3.175-.802-2.88 0-5.124 2.636-5.124 6.01 0 3.268 2.456 5.988 5.4 5.988.59 0 .888-.064 1.629-.296v-3.5h-1.82v-.885h6.139v.885h-1.588v4.26zM259.5 58.59H249.42v-.885h1.61V45.56h-1.61v-.886h8.724v-.59h1.142v3.352h-1.122v-1.518h-4.403v4.977h3.387V49.46l1.143-.02v4.153l-1.143.022v-1.476h-3.387v5.207h4.594v-1.56h1.144zM278.097 52.009l-1.928 1.92-1.928-1.92 1.928-1.92zM84.756 52.009l-1.929 1.92-1.927-1.92 1.927-1.92z"/>
    </g>
</svg>
