<svg id="Layer_1" data-name="Layer 1" xmlns="http://www.w3.org/2000/svg" viewBox="0 0 423.47 165.31"><defs><style>.cls-1{fill:#fff;}</style></defs><title>deanza_logo</title><polygon class="cls-1" points="14.54 138.62 20.54 132.62 113.54 132.62 113.54 138.62 14.54 138.62"/><polygon class="cls-1" points="0 149.92 6 143.92 113.5 143.92 113.5 149.92 0 149.92"/><path class="cls-1" d="M84.62,44.82"/><path class="cls-1" d="M84.62,44.82"/><path class="cls-1" d="M77.59,19.41"/><path class="cls-1" d="M77.59,19.41"/><path class="cls-1" d="M142.39,24.32c0-4.17.63-10.79-3.93-12.15V11.89h23.91c20.39,0,33.08,11.25,33.08,29.3,0,17.87-13.5,30.38-33.53,30.38H138.46V71.3c4.47-3.08,3.93-7.44,3.93-12.79V24.32Zm9.12,40.84a53.21,53.21,0,0,0,8.53.39c13.32,0,26.71-6.83,26.71-22.52,0-15.87-10.26-25.11-25.19-25.11-2.68,0-7.36-.13-10,0.5V65.16Z"/><path class="cls-1" d="M254.78,49.17L250.13,62c-1.88,5.08-2.5,7.71,1.79,9.34v0.27H235.47V71.3c5.19-2.63,6.71-7.71,8.67-12.88L259.07,20.6c1.93-4.53,1.18-6.78-.34-8.43V11.89h13.13l18.6,46.53c2.06,5.17,3.67,10.25,8.76,12.88v0.27H280.88V71.3c4.38-2,3.67-3,1.25-9.34l-4.83-12.79H254.78ZM266,19.6L257.1,42.46h17.61Z"/><path class="cls-1" d="M349.05,71.57h29.66l3.94-11.69S383,58,381.45,59s-2.88,5.8-8,7.5c-6.2,2.06-12.2,1.56-18,1.67l23.7-42.37v-0.3H349.49L345.55,37.2s-0.3,1.87,1.2.87,2.75-6.25,8-7.5a33.9,33.9,0,0,1,13.75-.42l-25,40.63-0.25.8h5.76Z"/><path class="cls-1" d="M403.86,71.56c-1.42.3-2.36,1.26-9.36,1.19-8.46-.09-14.33-6.39-14.33-14.68,0-8.53,6.58-13.55,13.16-16,0,0,5.17-1.71,14.42-1.21,3.09,0.17,1.75-.25,2-1.5a11.44,11.44,0,0,0,0-3.13c-0.47-4.87-9.44-5.47-12.54-5.39-8.82.23-11.18,5.52-11.93,6.52s-2,1.75-1.25.25,4.5-11.25,6.25-11.75a44.4,44.4,0,0,1,6.84-1.11c9,0,20.92.6,21,12.68v15c0,7.89-1.58,13.89,5.37,14.78l-8.69,5.59c-5.53-1.93-5.31-8.4-5.31-16.39V43.83c-6.22,0-10.68,1.13-13.29,2.35-5.68,2.64-7.55,5.7-7.55,11.79s4.69,8.19,9.13,8.19A13.61,13.61,0,0,0,405.55,64a39,39,0,0,0,4.7-4.69c1.25-1.75-3.07,7-4.5,11.25-0.12.38,0.25,0.25-1.25,1"/><path class="cls-1" d="M184.93,94.23c-4.92-3.3-10.65-5.63-16.54-5.37-16.14.71-24.45,12.77-24.42,26.43,0,15.53,12.94,27.45,26.71,27.45,6.71,0,13.66-2.79,19.29-6.19h0.27l-3.56,9.68c-4.2,2.07-13.85,2.39-18.5,2.33C150.5,148.32,134,136.13,134,116c0-19.51,14.8-32.67,33.13-32.67a87.26,87.26,0,0,1,18.52,2.11Z"/><path class="cls-1" d="M190,123.55c-1.14-15.69,8.87-26.29,21.66-26.82a20.17,20.17,0,0,1,15.28,5.56,28.32,28.32,0,0,1,8.64,18.43c1.1,15.07-8.77,26.39-21.29,26.91C202.08,148.13,191,138.41,190,123.55Zm36.77-.26c-0.88-10.14-6.59-22.8-16.09-22.41-8.26.34-12.76,9.13-11.85,20.41,1,11.9,6.84,23.09,15.9,22.72C222.86,143.68,228,138,226.73,123.29Z"/><path class="cls-1" d="M239.55,82.67c2.06,0,6.7.34,9.53-1h0.27v52.56c0,4.34-.63,10.57,3.31,12.93v0.28H237.91v-0.28c3.84-2.36,3.31-8.59,3.31-12.93V93.13c0-4.34.54-7.82-3.31-10.18V82.67h1.64Z"/><path class="cls-1" d="M357.5,94.7a6.83,6.83,0,0,1,.81-0.72l7-.08s2-.08,2.1.42-0.28.64-.87,1.63c-0.75,1.25-3.12,4.38-3.75,4.38s-5.87-1.75-7.75-1.5c0,0-2.87-.12-1.87.5s1.67,1.12,1.67,1.12c5.45,3.38,6.76,8.37,6.91,13.19,0.42,14.57-16.33,17.57-27.22,15.13-1.14-.26-2.86,1.56-2.78,3.68,0.14,4,6.17,3,7.24,2.92,20.81-2.29,27,3.44,27,12.81,0,10.69-9.52,17.14-22.5,17.14-12.23,0-21.34-6.31-23.91-13.93-0.7-2.06,4.05-3.69,9.48-7.41,0.78-.54.79-1.25,2.37-0.4-2.08.47-2.41,4.42-2.41,6.88,0,7.94,7.94,10.36,13.35,10.36s15.27-2.37,15.22-12c0-8.32-15.45-7-19.09-6.55l-7.07,1.29c-3.66.09-7.87-5.17-8-8.57-0.05-1.44,7.95-6.07,9.7-7-6-1.32-8.73-7-8.73-14.06,0-11,9.31-16.08,17.88-16.08H351A8.31,8.31,0,0,0,357.5,94.7Zm-14,31.06c5,0,9.15-5,9.15-11.74,0-7.42-5-12.36-10.9-12.36-4.57,0-9.11,3.85-9.11,10.57C332.61,119.76,338.06,125.76,343.46,125.76Z"/><path class="cls-1" d="M30.42,127.32V41.77a41.77,41.77,0,0,1,83.53,0v85.56H30.42Zm74.82-8V45.45a20.45,20.45,0,1,0-40.89,0v73.87h40.89Zm-47.33,0V45.65A26.94,26.94,0,0,1,84.85,18.71c4.77,0,8.1.34,12,2.52A29.1,29.1,0,0,0,51.48,45.35V123Zm-12.49,0V40.8A30.69,30.69,0,0,1,76.11,10.1c5.44,0,9.33.44,13.66,2.87A32.42,32.42,0,0,0,39.23,39.85V123Zm18.93,0V45.45a20.45,20.45,0,1,1,40.89,0,20.45,20.45,0,1,0-40.89,0v73.87"/><path class="cls-1" d="M338.19,43.49c0-4.69.5-8.89-1.84-12.88-2.68-4.69-9.09-6.3-16.74-6.14l-2.11.11c-1.5.25-3.54,4.33-4.79,6.08-0.84,1.18-1.67,2.73-2.92,4.5l-0.25-8.94V26c0.46-2.39-10.27-1-12.11-1h-4.94v0.3c3.69,2.5,9.51.76,9.18,10.54l-1,32.39c0.08,3.21,4.07,3.34,4.07,3.34h12.74v-0.3c-3.69-2.5-7.73-.83-7.68-10.69L309.54,42c0-5.89,3.21-11,9.13-11.23,7.62-.34,11.39,2.52,11.39,10l-1,27.39c0.08,3.21,4.07,3.34,4.07,3.34h12.74l-0.06-.11c-3.69-2.5-7.67-1-7.62-10.87V43.49"/><path class="cls-1" d="M262.39,82.29c2.06,0,6.7.34,9.53-1h0.27v52.56c0,4.34-.63,10.57,3.31,12.93v0.28H260.74v-0.28c3.84-2.36,3.31-8.59,3.31-12.93V92.75c0-4.34.54-7.82-3.31-10.18V82.29h1.64Z"/><path class="cls-1" d="M201.36,51.71a15.11,15.11,0,0,1,4-3.07s1.36-1,10.79-.55c11.22,0.49,12.89,1,15.51-.18,2-.86,2.3-3.21,2.28-4.31-0.66-11.54-8.49-19.66-18.88-19.66-12.25,0-20.92,10.29-20.92,24s9.62,24.17,23.59,24.17c3.86,0,3.58-.38,7.11-2.15,0,0,7.31-7.5,8-8.23s0-1.94-.56-1.37c-3.76,3.56-6.47,4.06-11.4,4.29-14.41.65-19.54-9.43-19.63-17.48-0.07-6.33.41-7.57,0.41-7.57,1.37-7.21,6.33-12,12.1-12,6.2,0,11.37,5.15,11.48,14.82,0,0.63-1.85.47-3.07,0.49l-14.5-.25c-2.66.1-3.77,7.82-7.2,7.56Z"/><path class="cls-1" d="M285.38,126.49a16,16,0,0,1,4.29-3.26s1.44-1,11.44-.59c11.89,0.52,13.66,1,16.44-.2,2.08-.91,2.43-3.4,2.42-4.57C319.27,105.65,311,97,300,97c-13,0-22.17,10.91-22.17,25.39s10.19,25.62,25,25.62c4.1,0,3.79-.4,7.54-2.28,0,0,7.74-7.95,8.52-8.73s0-2.06-.59-1.45c-4,3.77-6.86,4.31-12.08,4.54-15.27.69-20.72-10-20.81-18.53-0.08-6.71.43-8,.43-8,1.45-7.64,6.71-12.69,12.83-12.69,6.57,0,12.06,5.46,12.17,15.71,0,0.67-2,.5-3.26.52l-15.37-.26c-2.82.11-4,8.29-7.64,8Z"/><path class="cls-1" d="M373.13,126.49a16,16,0,0,1,4.29-3.26s1.44-1,11.44-.59c11.89,0.52,13.66,1,16.44-.2,2.08-.91,2.43-3.4,2.42-4.57-0.7-12.23-9-20.84-20-20.84-13,0-22.17,10.91-22.17,25.39s10.19,25.62,25,25.62c4.1,0,3.79-.4,7.54-2.28,0,0,7.74-7.95,8.52-8.73s0-2.06-.59-1.45c-4,3.77-6.86,4.31-12.08,4.54-15.27.69-20.72-10-20.81-18.53-0.08-6.71.43-8,.43-8,1.45-7.64,6.71-12.69,12.83-12.69,6.57,0,12.06,5.46,12.17,15.71,0,0.67-2,.5-3.26.52l-15.37-.26c-2.82.11-4,8.29-7.64,8Z"/></svg>