<svg width="361" height="46" viewBox="0 0 361 46" fill="none" xmlns="http://www.w3.org/2000/svg">
<g clip-path="url(#clip0)">
<path d="M155.664 24.6566V22.345V21.7672C157.041 20.9616 158.582 20.4746 160.172 20.3417C160.972 20.3072 161.77 20.4588 162.502 20.7847C163.851 21.3626 164.217 21.7094 164.217 22.8652C164.217 24.3292 164.101 27.5461 164.101 29.2605C164.101 30.5126 164.39 30.7244 165.777 30.9749V31.8609C164.563 31.9094 163.353 32.0382 162.156 32.2462C161.76 31.7461 161.537 31.131 161.52 30.4933C160.904 30.8978 160.788 31.0327 160.21 31.4179C159.455 31.9858 158.535 32.2903 157.59 32.2847C155.529 32.1499 154.817 31.2253 154.817 29.1449C154.723 28.5565 154.83 27.9537 155.119 27.4332C155.409 26.9128 155.866 26.5047 156.415 26.2747C158.041 25.6976 159.709 25.2468 161.404 24.9263V24.0402C161.46 23.6252 161.366 23.2042 161.14 22.8516C160.915 22.499 160.572 22.2376 160.172 22.1139C159.626 21.8774 159.022 21.8103 158.438 21.9212C157.378 22.268 157.552 22.4991 156.724 24.6373L155.664 24.6566ZM161.443 26.005C160.345 26.2482 159.279 26.6166 158.265 27.103C158.048 27.2878 157.882 27.5241 157.781 27.79C157.68 28.056 157.648 28.343 157.687 28.6248C157.687 29.3375 157.802 29.665 158.053 29.8769C158.411 30.1353 158.844 30.2705 159.286 30.2621C160.091 30.2073 160.856 29.8891 161.462 29.3568L161.443 26.005Z" fill="#1F693C"/>
<path d="M168.686 18.3384C169.638 18.1135 170.577 17.837 171.498 17.5101L171.633 17.6257C171.633 18.2999 171.633 19.552 171.518 20.8233H174.523V22.3451C174.272 22.3451 173.675 22.3451 171.518 22.3451C171.518 23.8668 171.518 27.4883 171.518 28.6055C171.484 28.8333 171.515 29.0659 171.607 29.277C171.699 29.4881 171.848 29.6692 172.038 29.7999C172.26 30.004 172.546 30.1263 172.847 30.1466C173.383 30.0503 173.89 29.8328 174.33 29.5109L174.831 30.3392C173.617 31.1675 172.905 31.7454 172.365 32.0729C172.143 32.2572 171.878 32.383 171.595 32.4389C170.678 32.2867 169.831 31.8563 169.168 31.206C168.821 30.8208 168.782 30.397 168.763 28.6248V22.3451H166.721V21.3819L168.763 20.9581L168.686 18.3384Z" fill="#1F693C"/>
<path d="M175.467 14.6976C177.038 14.5463 178.6 14.3149 180.147 14.0042L180.282 14.1391C180.282 15.4875 180.186 16.6625 180.167 22.0947C182.093 20.9389 182.806 20.1684 183.48 20.1684C184.296 20.1391 185.095 20.4086 185.726 20.9264C186.357 21.4443 186.778 22.1748 186.909 22.9808C186.909 24.7722 186.909 28.5092 186.909 29.4917C186.909 30.4741 187.121 30.8401 188.565 31.1097V32.0343C187.93 32.0343 186.812 32.0343 185.56 32.0343C184.308 32.0343 183.461 32.0343 182.786 32.0343V31.1097C184.212 30.8401 184.25 30.6667 184.25 29.4724C184.25 27.9121 184.25 25.0419 184.154 24.3291C184.058 23.6164 184.154 23.2119 183.692 22.9037C183.332 22.6329 182.889 22.4967 182.44 22.5185C181.646 22.5838 180.893 22.8934 180.282 23.4046C180.282 25.3308 180.282 27.8543 180.282 29.1834C180.282 30.5126 180.417 30.8401 181.823 31.1097V32.0343C181.072 32.0343 180.013 32.0343 178.78 32.0343C177.547 32.0343 176.738 32.0343 176.025 32.0343V31.1097C177.431 30.8015 177.605 30.6667 177.605 29.3183C177.605 27.9699 177.605 18.9548 177.489 17.2597C177.489 16.1809 177.489 15.8149 175.563 15.7379L175.467 14.6976Z" fill="#1F693C"/>
<path d="M200.951 20.8425C202.512 20.719 204.063 20.4939 205.594 20.1684L205.729 20.3032C205.729 20.9581 205.729 21.5745 205.632 22.2295C207.559 20.6884 208.117 20.3032 209.061 20.3032C209.381 20.2979 209.7 20.3435 210.005 20.438L209.851 24.0788H208.907C208.541 23.1349 208.137 22.7303 207.385 22.7303C207.036 22.7542 206.696 22.8546 206.39 23.0243C206.084 23.1941 205.818 23.4291 205.613 23.7128C205.613 25.4079 205.613 28.0084 205.613 29.3568C205.613 30.7052 205.613 30.9556 208.252 31.2831V32.2077H204.188C203.128 32.2077 201.934 32.2077 201.202 32.2077V31.2831C202.781 30.9556 202.936 31.0519 202.936 29.3568C202.936 28.3166 202.935 25.0419 202.781 23.6742C202.627 22.3065 202.685 22.3258 201.048 22.1332L200.951 20.8425Z" fill="#1F693C"/>
<path d="M235.471 20.8425C237.006 20.7183 238.531 20.4931 240.036 20.1684L240.209 20.3032C240.209 23.2504 240.075 27.469 240.075 29.3375C240.075 30.6281 240.19 30.7823 241.712 31.052V31.9765C241.018 31.9765 239.786 31.9765 238.611 31.9765C237.436 31.9765 236.453 31.9765 235.74 31.9765V31.052C237.185 30.7438 237.397 30.6089 237.397 29.3953C237.397 28.1817 237.397 24.9263 237.262 23.4431C237.127 21.9598 237.031 22.0369 235.528 21.825L235.471 20.8425ZM238.63 14.7555C239.03 14.8722 239.381 15.1155 239.631 15.4489C239.882 15.7824 240.017 16.1879 240.017 16.6047C240.017 17.0215 239.882 17.4271 239.631 17.7605C239.381 18.0939 239.03 18.3372 238.63 18.454C238.4 18.4465 238.173 18.3937 237.963 18.2986C237.753 18.2036 237.564 18.0681 237.407 17.9C237.25 17.7318 237.127 17.5343 237.046 17.3186C236.965 17.103 236.927 16.8735 236.935 16.6432C236.919 16.4023 236.952 16.1606 237.031 15.9324C237.11 15.7043 237.234 15.4943 237.396 15.3148C237.557 15.1353 237.753 14.99 237.972 14.8873C238.19 14.7847 238.427 14.7267 238.668 14.7169" fill="#1F693C"/>
<path d="M242.232 20.8425C243.605 20.7444 244.966 20.5188 246.297 20.1684L246.489 20.2647C246.836 21.3627 247.549 23.7512 249.398 29.5109C250.251 27.3622 250.896 25.1368 251.324 22.8652C251.324 22.1717 250.881 22.0369 249.571 21.825V20.5729C249.976 20.5729 250.843 20.5729 251.498 20.5729C252.576 20.5729 253.963 20.5729 254.503 20.5729V21.6901C253.578 21.9598 253.25 22.4606 252.576 23.8476C251.902 25.2345 251.209 27.4112 249.552 31.9958H247.24L244.178 23.5779C243.735 22.3451 243.715 22.0947 242.155 21.8443L242.232 20.8425Z" fill="#1F693C"/>
<path d="M266.6 20.8425C268.154 20.7214 269.699 20.4962 271.223 20.1684L271.377 20.3032C271.377 20.9581 271.377 21.5745 271.377 22.2295C273.303 20.6884 273.862 20.3032 274.806 20.3032C275.119 20.2966 275.432 20.3422 275.73 20.438L275.595 24.0788H274.652C274.286 23.1349 273.881 22.7303 273.13 22.7303C272.78 22.7515 272.439 22.8507 272.132 23.0207C271.826 23.1907 271.561 23.4272 271.358 23.7128C271.358 25.4079 271.358 28.0084 271.358 29.3568C271.358 30.7052 271.512 30.9556 274.093 31.2831V32.2077H269.951C268.892 32.2077 267.698 32.2077 266.966 32.2077V31.2831C268.545 30.9556 268.68 31.0519 268.68 29.3568C268.68 28.3166 268.68 25.0419 268.545 23.6742C268.41 22.3065 268.545 22.3258 266.812 22.1332L266.6 20.8425Z" fill="#1F693C"/>
<path d="M296.958 27.2378C296.958 28.7403 296.958 30.2814 296.958 31.3409C295.24 31.9615 293.43 32.2872 291.603 32.304C286.556 32.304 284.206 29.1449 284.206 24.021C284.206 20.2647 285.323 18.6851 287.481 17.3174C288.982 16.2519 290.783 15.6919 292.624 15.7186C294.134 15.7513 295.637 15.932 297.112 16.258C297.112 17.3174 296.92 18.9548 296.823 20.8618H295.841C295.686 19.9237 295.257 19.0524 294.608 18.3576C293.562 17.7813 292.371 17.5203 291.179 17.6063C289.638 17.6063 288.829 17.799 288.271 18.6081C287.558 19.984 287.244 21.5321 287.365 23.077C287.365 27.9698 288.926 30.7822 292.316 30.7822C292.756 30.824 293.2 30.7718 293.618 30.629C294.037 30.4862 294.42 30.256 294.743 29.9539C295.361 29.1076 295.8 28.1441 296.034 27.1223L296.958 27.2378Z" fill="#1F693C"/>
<path d="M307.861 30.7245C306.824 31.7318 305.453 32.3216 304.008 32.3811C303.362 32.3947 302.72 32.2771 302.121 32.0354C301.522 31.7937 300.978 31.4329 300.522 30.9749C299.512 29.6606 299.013 28.0252 299.116 26.3711C299.016 25.4295 299.177 24.4787 299.581 23.6225C299.986 22.7664 300.617 22.0379 301.408 21.5168C302.515 20.6711 303.868 20.211 305.261 20.2069C306.511 20.1645 307.739 20.5445 308.747 21.2856C309.273 21.8007 309.674 22.43 309.918 23.1249C310.162 23.8197 310.242 24.5613 310.153 25.2923C310.261 26.3195 310.105 27.3571 309.7 28.3074C309.296 29.2577 308.656 30.0895 307.842 30.7245H307.861ZM306.59 23.1348C306.251 22.7973 305.843 22.5379 305.394 22.3748C304.945 22.2117 304.465 22.149 303.989 22.191C303.18 22.191 302.718 22.3451 302.41 22.923C302.067 23.826 301.917 24.7903 301.967 25.7546C301.967 29.1835 303.045 30.32 305.049 30.32C305.993 30.32 306.513 30.1466 306.782 29.5109C307.134 28.476 307.297 27.3865 307.264 26.294C307.397 25.1953 307.16 24.0834 306.59 23.1348Z" fill="#1F693C"/>
<path d="M310.827 14.6976C313.197 14.4665 314.68 14.1198 315.605 14.0042L315.759 14.1391C315.759 17.5486 315.624 27.6231 315.624 29.5494C315.624 30.5511 315.874 30.8593 317.55 31.129V32.0536C316.818 32.0536 315.412 32.0536 314.314 32.0536H311.367V31.129C312.811 30.8593 313.081 30.7437 313.081 29.588C313.081 27.6617 312.985 18.7621 312.927 17.1826C312.927 16.0461 312.657 15.9112 311.001 15.7571L310.827 14.6976Z" fill="#1F693C"/>
<path d="M318.032 14.6976C320.382 14.4665 321.884 14.1198 322.79 14.0042L322.963 14.1391C322.963 17.5486 322.809 27.6231 322.809 29.5494C322.809 30.5511 323.079 30.8593 324.735 31.129V32.0536H321.499H318.552V31.129C319.997 30.8593 320.266 30.7437 320.266 29.588C320.266 27.6617 320.17 18.7621 320.112 17.1826C320.112 16.0461 319.842 15.9112 318.186 15.7571L318.032 14.6976Z" fill="#1F693C"/>
<path d="M347.292 22.345C347.56 22.8541 347.68 23.4279 347.639 24.0017C347.735 24.8732 347.505 25.7494 346.992 26.461C346.48 27.1725 345.722 27.6689 344.865 27.8543C342.823 28.5285 341.359 28.7018 341.359 29.5686C341.359 30.4355 341.995 30.2814 343.132 30.2814H345.636C347.562 30.2814 348.814 31.1482 348.814 32.9975C348.814 35.598 346.175 37.4087 342.438 37.4087C339.125 37.4087 337.43 36.1566 337.43 34.1147C337.43 32.6508 338.239 31.9573 340.049 31.2831C339.125 31.0327 338.528 30.6089 338.528 29.9154C338.528 29.222 339.048 28.8174 340.281 28.3166C339.543 28.1033 338.905 27.6366 338.479 26.9986C338.052 26.3607 337.865 25.5926 337.95 24.83C337.898 24.1008 338.072 23.3733 338.447 22.7462C338.823 22.119 339.382 21.6226 340.049 21.3241C341.088 20.6188 342.301 20.2124 343.555 20.1491C344.535 20.1299 345.496 20.4124 346.31 20.9581C347.235 20.9581 347.716 20.8425 348.756 20.804L348.891 20.9389C348.891 21.2471 348.891 21.7672 348.891 22.3258L347.292 22.345ZM340.281 33.8065C340.281 35.0008 340.858 36.2337 342.958 36.2337C345.058 36.2337 345.944 34.9816 345.944 33.6524C345.944 32.3233 345.212 31.7261 343.112 31.7261C341.013 31.7261 340.281 32.2462 340.281 33.845V33.8065ZM344.827 24.6566C344.827 22.8651 344.229 21.9791 342.149 21.9791C341.552 21.9791 341.263 21.9791 341.051 22.3258C340.755 22.8032 340.633 23.3677 340.704 23.9246C340.704 25.8509 341.167 27.0645 342.939 27.0645C344.191 27.0645 344.865 26.371 344.865 24.6566" fill="#1F693C"/>
<path d="M265.347 29.1064C264.646 30.1621 263.726 31.0554 262.651 31.7262C261.657 32.2451 260.521 32.4276 259.414 32.2463C258.822 32.1753 258.243 32.0128 257.7 31.7647C257.206 31.5065 256.77 31.1519 256.415 30.7217C256.061 30.2915 255.797 29.7947 255.639 29.2605C255.356 28.2585 255.226 27.2193 255.254 26.1784C255.254 23.4816 255.793 22.6533 257.315 21.7094C258.348 20.8538 259.619 20.3361 260.956 20.2262C261.993 20.198 263.009 20.5166 263.845 21.1315C264.422 21.6907 264.859 22.3782 265.12 23.138C265.381 23.8978 265.459 24.7085 265.347 25.5042V26.0051C264.461 26.0051 263.421 26.005 258.066 26.1399V26.5444C258.066 28.7789 258.837 29.954 261.071 29.954C262.447 29.8296 263.738 29.2382 264.731 28.2781L265.347 29.1064ZM261.765 24.83C262.323 24.83 262.381 24.83 262.381 24.387C262.414 24.0701 262.374 23.7499 262.264 23.4509C262.154 23.1519 261.977 22.8822 261.746 22.6626C261.515 22.4429 261.237 22.2792 260.933 22.1841C260.629 22.089 260.307 22.065 259.992 22.1139C259.705 22.0734 259.412 22.1051 259.139 22.206C258.867 22.3068 258.624 22.4738 258.432 22.6918C258.103 23.3469 257.963 24.0806 258.028 24.8107H261.765" fill="#1F693C"/>
<path d="M199.526 29.1063C198.819 30.1576 197.9 31.0499 196.829 31.7261C195.832 32.2372 194.697 32.4128 193.593 32.2269C193 32.1559 192.422 31.9935 191.878 31.7453C191.382 31.4958 190.943 31.1462 190.588 30.7185C190.233 30.2909 189.971 29.7945 189.817 29.2605C189.535 28.2516 189.406 27.2063 189.432 26.1591C189.432 23.4815 189.971 22.6532 191.512 21.7093C192.532 20.8441 193.8 20.3248 195.134 20.2261C196.169 20.1909 197.186 20.5028 198.023 21.1122C198.6 21.6714 199.037 22.3589 199.298 23.1187C199.559 23.8785 199.637 24.6892 199.526 25.4849V26.005C198.64 26.005 197.6 26.005 192.244 26.1206V26.5251C192.244 28.7596 193.015 29.9346 195.249 29.9346C196.62 29.8066 197.909 29.2235 198.909 28.278L199.526 29.1063ZM196.001 24.8299C196.559 24.8299 196.617 24.83 196.617 24.3676C196.617 22.9807 195.904 22.1139 194.229 22.1139C193.943 22.0744 193.652 22.1047 193.38 22.2019C193.108 22.2992 192.864 22.4606 192.668 22.6725C192.344 23.3292 192.204 24.0615 192.264 24.7914H196.001" fill="#1F693C"/>
<path d="M152.89 29.1063C152.178 30.1533 151.261 31.0447 150.194 31.7261C149.19 32.2374 148.049 32.4129 146.938 32.2269C146.352 32.154 145.78 31.9916 145.243 31.7454C144.747 31.4958 144.307 31.1462 143.952 30.7185C143.598 30.2909 143.335 29.7945 143.182 29.2605C142.885 28.2545 142.748 27.2077 142.777 26.1591C142.777 23.4816 143.317 22.6533 144.858 21.7094C145.883 20.8404 147.158 20.3208 148.498 20.2261C149.528 20.1908 150.539 20.5029 151.369 21.1122C151.952 21.6677 152.394 22.3541 152.658 23.1145C152.923 23.875 153.002 24.6876 152.89 25.4849V26.005C151.985 26.005 150.964 26.005 145.59 26.1206V26.5251C145.59 28.7596 146.36 29.9346 148.614 29.9346C149.984 29.8023 151.271 29.2198 152.274 28.278L152.89 29.1063ZM149.288 24.83C149.866 24.83 149.905 24.83 149.905 24.3677C149.905 22.9807 149.192 22.1139 147.516 22.1139C147.23 22.0744 146.939 22.1047 146.667 22.2019C146.396 22.2992 146.152 22.4606 145.956 22.6725C145.628 23.3278 145.495 24.0629 145.57 24.7915H149.288" fill="#1F693C"/>
<path d="M335.85 29.1257C335.138 30.1782 334.221 31.0759 333.153 31.7647C332.15 32.2759 331.009 32.4515 329.898 32.2655C329.312 32.1926 328.74 32.0302 328.203 31.784C327.705 31.5313 327.265 31.1784 326.91 30.7474C326.556 30.3165 326.294 29.8168 326.142 29.2797C325.843 28.2806 325.707 27.24 325.737 26.1976C325.737 23.5201 326.276 22.6918 327.817 21.7479C328.842 20.8754 330.116 20.3495 331.458 20.2454C332.489 20.2171 333.5 20.5359 334.328 21.1508C334.911 21.7062 335.353 22.3927 335.618 23.1531C335.883 23.9136 335.962 24.7261 335.85 25.5235V26.0436C334.945 26.0436 333.924 26.0436 328.549 26.1591V26.5636C328.549 28.7982 329.32 29.9732 331.574 29.9732C332.943 29.8409 334.23 29.2583 335.234 28.3166L335.85 29.1257ZM332.248 24.8686C332.826 24.8686 332.864 24.8685 332.864 24.4062C332.864 23.0193 332.152 22.1525 330.476 22.1525C330.19 22.113 329.899 22.1432 329.627 22.2405C329.355 22.3377 329.111 22.4992 328.915 22.7111C328.597 23.3693 328.464 24.1018 328.53 24.83H332.248" fill="#1F693C"/>
<path d="M360.218 29.1256C359.516 30.1868 358.597 31.0865 357.521 31.7647C356.524 32.2757 355.389 32.4514 354.285 32.2655C353.697 32.1963 353.125 32.0338 352.589 31.7839C352.091 31.5287 351.65 31.1752 351.293 30.7448C350.935 30.3144 350.669 29.816 350.509 29.2797C350.226 28.2777 350.096 27.2385 350.124 26.1976C350.124 23.5201 350.663 22.6918 352.204 21.7479C353.224 20.8791 354.491 20.3534 355.826 20.2454C356.863 20.2172 357.88 20.5358 358.715 21.1507C359.292 21.7099 359.729 22.3974 359.99 23.1572C360.251 23.917 360.329 24.7278 360.218 25.5235V26.0436C359.331 26.0436 358.291 26.0435 352.936 26.1591V26.5636C352.936 28.7981 353.707 29.9732 355.96 29.9732C357.325 29.8439 358.607 29.2606 359.601 28.3166L360.218 29.1256ZM356.635 24.8685C357.193 24.8685 357.251 24.8685 357.251 24.4062C357.251 23.0193 356.538 22.1525 354.862 22.1525C354.577 22.113 354.286 22.1432 354.014 22.2405C353.742 22.3377 353.498 22.4991 353.302 22.711C352.975 23.3668 352.835 24.0999 352.898 24.83H356.635" fill="#1F693C"/>
<path d="M232.273 29.1064L230.674 26.0436C230.452 25.5811 230.134 25.1705 229.743 24.8387C229.351 24.5068 228.894 24.261 228.401 24.1173C228.676 24.0515 228.946 23.9678 229.21 23.8669C230.083 23.4877 230.828 22.864 231.354 22.071C231.881 21.278 232.166 20.3496 232.177 19.3978C232.221 18.7997 232.094 18.2013 231.811 17.6726C231.528 17.1439 231.1 16.7067 230.578 16.4121C229.573 15.9466 228.465 15.7476 227.361 15.8342C226.205 15.8342 224.375 16.0846 223.277 16.0846H219.964V17.2019C221.659 17.5679 221.736 17.5486 221.736 18.7622C221.736 20.6885 221.736 27.9121 221.736 29.2798C221.736 30.6474 221.582 30.5126 219.906 30.9171V31.9188C220.773 31.9188 221.929 31.9188 223.085 31.9188C224.24 31.9188 225.704 31.9188 226.475 31.9188V30.9171C224.761 30.5126 224.549 30.4356 224.549 29.299C224.549 28.1625 224.549 26.0051 224.549 24.5026H225.743C226.238 24.7438 226.638 25.1439 226.879 25.6391L229.268 29.8962C229.664 30.6373 230.163 31.3183 230.751 31.9188C230.751 31.9188 231.445 31.9188 232.408 31.9188H234.488V31.0134C234.001 30.8593 233.548 30.6097 233.158 30.2789C232.768 29.9482 232.447 29.543 232.215 29.0871L232.273 29.1064ZM224.51 18.6273C224.51 17.9916 224.51 17.7412 224.876 17.6064C225.252 17.5013 225.641 17.4494 226.032 17.4523C227.746 17.4523 228.786 18.2806 228.786 19.995C228.806 20.4276 228.739 20.8598 228.59 21.2665C228.442 21.6732 228.214 22.0464 227.92 22.3643C227.72 22.5473 227.486 22.6891 227.232 22.7816C226.977 22.8742 226.707 22.9157 226.436 22.9037H224.51V18.6273Z" fill="#1F693C"/>
<path d="M140.138 20.6885C139.974 19.7984 139.655 18.9442 139.194 18.165C138.558 17.6766 137.756 17.4555 136.96 17.5486C135.977 17.5486 135.688 17.6642 135.477 17.8568C135.265 18.0494 135.245 18.3576 135.245 18.9355V23.3082H136.112C137.438 23.3412 138.764 23.2768 140.08 23.1156C140.08 23.6742 139.965 24.6181 139.888 25.4464H139.329C138.607 24.9899 137.753 24.7866 136.902 24.8686H135.245C135.245 25.851 135.245 27.6231 135.245 29.0486C135.245 30.4741 135.245 30.5511 138.039 30.9749V32.0151C137.075 32.0151 135.303 32.0151 133.781 32.0151C132.26 32.0151 131.142 32.0151 130.41 32.0151V30.8593C132.221 30.4355 132.337 30.4933 132.337 29.1064C132.337 27.4112 132.221 20.0335 132.202 18.6466C132.183 17.2597 131.99 17.4715 130.391 17.1826V16.0654C131.374 16.0654 132.529 16.0654 133.878 16.0654C135.708 16.0654 137.73 16.0654 141.487 16.0654L141.66 16.2194C141.66 17.1248 141.332 18.8777 141.178 20.727L140.138 20.6885Z" fill="#1F693C"/>
<path d="M107.141 17.2403C106.198 18.7255 104.998 20.0303 103.596 21.0929C101.757 22.3418 99.8023 23.4125 97.7596 24.2906C90.5814 27.4186 82.7316 28.6905 74.9329 27.9891C64.1457 27.026 53.5703 24.1365 42.8023 23.0578C40.4024 22.8173 37.989 22.74 35.5787 22.8266C31.3424 23.0193 27.151 23.7773 23.1155 25.0804C20.0996 26.0272 17.1783 27.2524 14.3894 28.7403L12.8483 29.6072C10.2093 31.1482 7.49324 32.4581 4.73863 33.7872L3.40949 34.3844L0.770462 35.3668C-0.40458 35.8099 -0.134898 35.964 0.770462 35.8099C3.92959 35.309 7.03093 34.5 10.1901 33.9799C18.6259 32.789 27.2252 33.6886 35.2319 36.5997C42.2244 39.2194 48.3308 43.9196 55.747 45.4028C61.6635 46.3091 67.6988 46.0738 73.5267 44.7094C74.0083 44.7094 77.8609 43.8811 76.5896 42.7831C76.3006 42.5327 74.3936 42.7831 74.0661 42.7831C68.2872 42.7831 63.1825 40.4908 57.8274 38.3911C52.4723 36.2915 47.7529 34.0762 42.5326 32.4389C39.855 31.6106 29.8576 27.8157 11.9622 31.938C12.4246 31.7261 12.8676 31.495 13.3299 31.3024C17.6628 29.3921 22.2997 28.2638 27.0259 27.9698C29.7258 27.7731 32.4392 27.8764 35.1164 28.2781C44.5745 29.6457 53.2621 33.9221 62.3542 36.5804C67.87 38.2044 73.526 39.3072 79.2478 39.8743C82.1026 40.1531 84.9721 40.2496 87.8391 40.1633C89.7654 40.1633 94.6775 40.1633 95.8525 38.68C94.9628 37.8687 93.9397 37.217 92.8282 36.7538C95.4287 36.5996 98.6071 37.6591 101.015 36.6189C103.543 35.269 105.569 33.1415 106.794 30.5511C108.489 27.2378 109.876 20.4573 107.16 17.1826" fill="#EBB618"/>
<path fill-rule="evenodd" clip-rule="evenodd" d="M91.7882 20.9389C90.3281 20.6759 88.8916 20.2958 87.4925 19.8024C85.8284 19.355 84.2244 18.7082 82.7153 17.8761C81.6157 17.2469 80.5717 16.5252 79.5947 15.7186C76.4934 13.1952 74.49 9.47738 71.0034 7.35845C70.703 7.14805 70.3489 7.02777 69.9825 7.01173C69.5753 7.04886 69.181 7.17373 68.8267 7.37773L68.48 7.57037C68.3173 7.69012 68.143 7.79337 67.9599 7.87859C67.5168 7.78227 66.8234 6.99245 66.3418 6.45309C65.1391 5.24629 63.8085 4.17413 62.3736 3.25549C61.1865 2.20479 59.9317 1.23311 58.6173 0.346756C58.214 0.134189 57.7632 0.0280954 57.3074 0.0385411C55.8883 0.231472 54.5806 0.912569 53.6089 1.96484C53.2875 2.26781 52.9912 2.59638 52.7229 2.94727C51.9716 3.85263 50.7966 5.20101 49.949 5.20101C49.821 5.19904 49.6954 5.16601 49.583 5.10471L49.0629 4.81578C48.6227 4.54273 48.1585 4.31058 47.6759 4.12228C47.474 4.03896 47.2586 3.99325 47.0403 3.98743C46.6646 4.01257 46.3099 4.16949 46.0386 4.4305L45.7111 4.68093C42.7046 7.16728 39.8667 9.85072 37.2161 12.7136C37.0428 12.8869 36.8887 13.0796 36.7346 13.2529C36.3485 13.0778 35.9807 12.8649 35.6366 12.6173H36.4842C36.4842 12.6173 36.0026 12.0971 35.9641 12.0586C35.5017 11.8082 35.0009 11.5385 34.8661 10.9799C35.0202 11.1147 35.1935 10.9799 35.3669 11.0955C35.5403 11.2111 35.8099 11.3652 36.0796 11.3652C36.0796 11.3652 35.6559 10.7873 35.6173 10.7102C35.5788 10.6332 36.0411 10.7102 36.253 10.7102C35.6808 9.86187 34.8791 9.19377 33.9414 8.78395C34.2298 8.89432 34.5388 8.9403 34.8468 8.91875C34.7681 8.67594 34.6289 8.45719 34.4423 8.28309C34.8223 8.41828 35.2373 8.41828 35.6173 8.28309C35.019 7.77165 34.4997 7.17442 34.0763 6.51088C34.1815 6.48745 34.2846 6.45526 34.3845 6.41458C34.2143 5.75394 33.8443 5.16193 33.325 4.71943C33.325 5.22027 32.959 6.53017 32.4197 6.78058C32.593 6.78058 32.8049 6.78057 32.959 6.64573C32.3426 7.30067 31.5721 7.8593 31.0327 8.57203C31.3035 8.60462 31.5779 8.55775 31.8225 8.43717C31.8225 8.43717 31.6299 8.66835 31.5336 8.76467C31.7541 8.72329 31.968 8.65203 32.1692 8.5528C31.3722 9.11695 30.7135 9.85461 30.243 10.7102C30.4884 10.6311 30.717 10.507 30.9172 10.3442C30.9172 10.4984 30.8016 10.6909 30.7053 10.845C31.0284 10.8197 31.3368 10.6991 31.5914 10.4983C31.4272 10.7921 31.2266 11.064 30.9942 11.3074C31.1868 11.3074 31.418 11.3074 31.5914 11.134C31.3756 11.382 31.1297 11.602 30.8594 11.789H31.0135C30.6873 11.9971 30.3723 12.2222 30.0696 12.4632H30.3007C30.3007 12.4632 30.0503 12.8484 29.8962 12.964C30.1546 12.9462 30.4119 12.9141 30.6667 12.8677C30.6667 12.8677 30.6667 13.0796 30.6667 13.1373C30.8564 13.1855 31.055 13.1855 31.2446 13.1373C31.4758 13.1373 31.6684 12.9062 31.8996 12.9062C31.5143 13.1951 31.1483 13.5034 30.7823 13.8308C30.4163 14.1583 30.3007 14.2161 30.0888 14.428C30.0962 14.4597 30.0962 14.4926 30.0888 14.5243C30.2453 14.4162 30.4133 14.3258 30.5897 14.2546C30.5897 14.4665 30.3393 14.6206 30.243 14.8133C30.1717 14.9533 30.1199 15.1023 30.0888 15.2563C30.32 15.2563 30.6282 15.0444 30.8786 15.0444C30.4163 15.3334 30.5512 15.9691 30.1659 16.258C30.4307 16.2557 30.6901 16.1825 30.9172 16.0461C30.8118 16.2832 30.6827 16.5091 30.5319 16.7203L30.4163 16.8937L29.6073 16.2387L29.1835 15.9498C29.1835 15.9498 29.4146 15.9498 29.5302 15.9498C29.6549 15.9997 29.7839 16.0384 29.9155 16.0654C29.8092 15.9654 29.7125 15.8557 29.6265 15.7379C29.6265 15.6415 29.6265 15.5067 29.4146 15.4489C29.5569 15.5057 29.7155 15.5057 29.8577 15.4489C29.8577 15.4489 29.8577 15.3526 29.7228 15.2948C29.588 15.2371 29.4917 15.0636 29.4146 14.9481C29.2997 14.81 29.2086 14.6538 29.145 14.4858C29.145 14.4858 29.2798 14.4858 29.3569 14.5821H29.511C29.6257 14.6011 29.7429 14.6011 29.8577 14.5821C29.7614 14.5821 29.7036 14.3124 29.6843 14.2546C29.6109 14.124 29.5651 13.9798 29.5495 13.8308C29.6445 13.853 29.7434 13.853 29.8384 13.8308C29.8384 13.8308 29.7036 13.6575 29.6651 13.5804L29.4724 13.3108C29.315 13.1358 29.1909 12.9333 29.1064 12.7136C29.2372 12.77 29.3725 12.8151 29.511 12.8484C29.6481 12.8969 29.7976 12.8969 29.9347 12.8484H29.7614L29.4532 12.598C29.4958 12.616 29.5417 12.6253 29.588 12.6253C29.6343 12.6253 29.6802 12.616 29.7228 12.598L29.511 12.4054C29.4374 12.3513 29.3725 12.2863 29.3183 12.2128C29.3183 12.2128 29.3183 12.0394 29.1835 11.9816C29.0486 11.9238 28.8175 11.5963 28.779 11.6156C28.7404 11.6349 29.0294 11.6156 29.1257 11.6156C29.222 11.6156 28.9523 11.4808 28.856 11.3845C28.7597 11.2882 28.6441 10.7487 28.3552 10.5561C28.2396 10.8258 28.1818 11.1148 28.047 11.3845C27.9535 11.6517 27.8022 11.8951 27.6039 12.0972C27.4286 12.2214 27.2614 12.3564 27.1031 12.5017C27.2884 12.4831 27.4701 12.4376 27.6424 12.3668C27.6424 12.4632 27.5076 12.598 27.4113 12.6943C27.5331 12.703 27.6554 12.703 27.7773 12.6943C27.5444 13.1061 27.1962 13.4409 26.7756 13.6575H27.0646C26.7756 13.8886 26.5252 14.1776 26.2362 14.4087C26.4785 14.3937 26.718 14.3484 26.949 14.2739C26.949 14.3895 26.8141 14.5628 26.7371 14.6784L27.6424 14.5821C27.3867 14.8881 27.0543 15.1207 26.6793 15.2563C26.7552 15.2375 26.8345 15.2375 26.9105 15.2563C26.6994 15.5496 26.4036 15.7715 26.0629 15.892C26.3708 15.9112 26.6796 15.9112 26.9875 15.892C26.6496 16.4652 26.2126 16.974 25.6969 17.3945C25.8232 17.4439 25.9581 17.4677 26.0937 17.4643C26.2293 17.461 26.3629 17.4307 26.4867 17.3752C26.4177 17.4712 26.3595 17.5746 26.3133 17.6834C26.4481 17.6834 26.6215 17.6834 26.7563 17.6834C26.4213 18.0922 26.0399 18.4607 25.6198 18.7814H25.7932C25.6391 19.0319 25.4272 19.2437 25.2538 19.4749C25.6579 19.3914 26.0474 19.2486 26.4096 19.0511C26.1592 19.34 25.9088 19.629 25.6776 19.9372C25.7785 19.9093 25.885 19.9093 25.9858 19.9372C25.9858 20.0913 25.9858 20.2069 25.9858 20.3417C26.1426 20.3906 26.3106 20.3906 26.4674 20.3417C26.3518 20.3417 26.1977 20.7655 26.0821 20.8811C25.9666 20.9967 25.7547 21.2086 25.6006 21.3627C25.9837 21.4063 26.3714 21.3394 26.7178 21.17C26.7178 21.17 26.7178 21.4012 26.6022 21.4397C26.5427 21.5544 26.4646 21.6586 26.3711 21.7479C26.192 21.9182 25.9987 22.0729 25.7932 22.2103C25.5826 22.3271 25.3827 22.4625 25.1961 22.6148C25.0594 22.7686 24.9309 22.9293 24.8108 23.0963C25.5274 23.1119 26.2364 22.9462 26.8719 22.6148C29.9675 21.5009 32.8819 19.9366 35.521 17.9724C38.1793 16.0461 40.4138 13.6382 43.0336 11.6734C43.8811 11.0377 45.2103 9.43888 46.1734 9.18846C46.052 9.69667 45.9041 10.1982 45.7304 10.691C45.4629 11.1852 45.1536 11.6557 44.8058 12.0972C44.2086 12.8677 43.5344 13.5997 42.8795 14.3509C41.7237 15.7379 39.8552 16.7203 39.2388 18.4925C40.6724 17.9268 42.0742 17.2838 43.4381 16.5662C44.3416 16.0665 45.2104 15.5066 46.0386 14.8903L47.0403 14.1198C47.9633 13.296 48.8199 12.4007 49.6022 11.4423C50.5461 10.2865 51.5285 9.11138 52.4339 7.89781C52.9389 7.15873 53.527 6.48011 54.1868 5.87522C55.3811 4.93134 54.9188 6.95395 55.6123 7.26216C56.3058 7.57037 56.6525 7.41624 56.2094 8.37939C55.7825 9.14771 55.3063 9.88771 54.784 10.5947C54.2573 11.4791 53.6649 12.3226 53.0118 13.1181C52.6073 13.6382 51.413 15.4104 50.6617 15.3141C51.9083 15.3445 53.1246 14.9277 54.0905 14.1391C55.1215 13.3837 56.1956 12.689 57.3074 12.0586C57.057 12.1935 56.9992 14.1198 56.98 14.4665V14.7747H57.2882H57.5771C58.6558 14.7747 59.2915 13.5997 60.2739 13.4648C61.2563 13.33 61.6609 14.1583 61.7572 14.9866C61.7657 15.8924 61.5681 16.7882 61.1793 17.6064C61.0315 18.2007 60.7626 18.7581 60.3895 19.2437C60.3895 19.2437 59.5227 20.0528 59.4841 20.0528C60.8343 19.8889 62.117 19.3704 63.2019 18.5502C65.1928 17.2103 67.0854 15.7297 68.8652 14.1198C69.3428 13.6173 69.8873 13.1831 70.4833 12.8292C70.224 14.2295 69.8569 15.6077 69.3853 16.9514C68.6663 18.2392 68.0913 19.6023 67.6709 21.016C67.5553 22.0369 68.4414 21.6516 69.0771 21.3627C69.7128 21.0737 71.0034 20.1684 71.5813 20.3802C72.6408 20.6692 71.4272 23.1348 71.7932 24.0402C71.9666 24.4447 72.5059 24.5411 72.8912 24.6181C77.6702 25.208 82.5204 24.7545 87.1073 23.289C88.6663 22.8849 90.1924 22.3633 91.6726 21.7287C91.9037 21.6324 92.6743 21.4783 92.7706 21.2471C92.8669 21.0159 92.0579 20.9582 91.8652 20.9389H91.7882ZM30.2237 17.5101C30.2237 17.5101 30.0118 17.2789 30.0311 17.2597H30.3393C30.3475 17.3365 30.3475 17.414 30.3393 17.4908L30.2237 17.5101ZM36.5034 13.5611C36.3664 13.4994 36.2371 13.4218 36.1182 13.33C36.3171 13.3197 36.5164 13.3197 36.7153 13.33L36.5034 13.5997" fill="#1F693C"/>
</g>
<defs>
<clipPath id="clip0">
<rect width="360.237" height="46" fill="white"/>
</clipPath>
</defs>
</svg>
