<svg xmlns="http://www.w3.org/2000/svg" viewBox="0 0 680.31 55.25"><defs><style>.a{fill:#007da5}.c{fill:#092a31}</style></defs><path class="a" d="M.48 7.05v7.46H124.9V7.05H.48zM124.9 47.41c-5.74-8.08-14.49-14.86-25.17-19.62a90.84 90.84 0 0 0-36.82-7.51 90.77 90.77 0 0 0-36.8 7.5C15.44 32.53 6.7 39.29 1 47.37L0 48.7l14.58-.19.24-.28c10.52-12.3 26.47-20.57 48.36-20.58s38 8.41 48.46 20.76l.25.29h13.94zM150.69 16.52c0 3.24 0 5.78.17 7.2.11 1 .31 1.73 1.32 1.86a13.92 13.92 0 0 0 1.69.14c.44 0 .58.1.58.27s-.24.33-.74.33c-2.14 0-4.27-.1-5.15-.1s-3 .1-4.3.1c-.47 0-.71-.06-.71-.33s.14-.27.51-.27a5.31 5.31 0 0 0 1.22-.14c.68-.13.85-.88 1-1.86.17-1.42.17-4 .17-7.2v-6c0-5.15 0-6.09-.07-7.18s-.33-1.69-1.45-1.93a6.81 6.81 0 0 0-1.32-.1c-.34 0-.58-.06-.58-.27s.27-.34.78-.34h2.74c.88 0 1.66.07 2.13.07h8.94a5.81 5.81 0 0 0 1.38-.1c.2-.06.37-.2.54-.2s.23.14.23.31-.17.64-.27 1.52c0 .34-.1 2.34-.17 2.74s-.1.47-.33.47-.31-.16-.34-.54a3.18 3.18 0 0 0-.21-1.28 2.46 2.46 0 0 0-2.23-1L151 2.57c-.2 0-.31.1-.31.47v8.47c0 .2 0 .3.24.3h5.85a1.76 1.76 0 0 0 1.46-.61c.17-.2.24-.33.44-.33s.2.1.2.3-.17 1.05-.27 2.1c-.07.67-.13 2.23-.13 2.47s0 .64-.34.64-.27-.24-.27-.47a3.57 3.57 0 0 0-.21-1.05 2 2 0 0 0-1.72-1.22c-.85-.1-4.43-.1-5-.1-.17 0-.24.07-.24.3zM171.56 13.54c0-5.79 3.82-13.27 14-13.27 8.43 0 13.67 4.9 13.67 12.65s-5.41 13.88-14 13.88c-9.75 0-13.67-7.27-13.67-13.26zm22.91.64c0-7.58-4.37-12.29-9.92-12.29-3.89 0-8.32 2.17-8.32 10.6 0 7 3.89 12.62 10.39 12.62 2.38 0 7.85-1.11 7.85-10.93zM216 16.52c0 4.32 0 6.66.71 7.27s1.45.74 4.09.74c1.8 0 3.11 0 4-1a4.2 4.2 0 0 0 .88-2c0-.31.1-.51.37-.51s.27.17.27.57a26.62 26.62 0 0 1-.5 3.89c-.21.75-.38.92-2.14.92-2.43 0-4.19-.07-5.72-.11s-2.73-.1-4.12-.1h-1.93c-.81 0-1.66.06-2.34.06-.43 0-.67-.1-.67-.33s.13-.27.54-.27a5.39 5.39 0 0 0 1.22-.14c.67-.13.84-.88 1-1.86.17-1.42.17-4.09.17-7.2v-6c0-5.15 0-6.09-.07-7.18s-.34-1.69-1.45-1.93a4.93 4.93 0 0 0-1.12-.1c-.37 0-.58-.06-.58-.3s.24-.31.75-.31c1.59 0 3.72.11 4.64.11s3.28-.11 4.6-.11c.47 0 .71.07.71.31s-.21.3-.61.3a8.66 8.66 0 0 0-1.32.1c-.92.17-1.19.75-1.26 1.93s-.06 2-.06 7.18zM236.16 25.92c-.54-.24-.65-.41-.65-1.15 0-1.87.14-3.89.17-4.43s.14-.88.41-.88.34.3.34.57a7.15 7.15 0 0 0 .3 1.73 4.66 4.66 0 0 0 4.84 3.41c3.05 0 4.54-2.06 4.54-3.85s-.51-3.25-3.32-5.42l-1.56-1.22c-3.72-2.9-5-5.27-5-8 0-3.73 3.12-6.4 7.82-6.4a16.2 16.2 0 0 1 4.5.58c.3.06.48.17.48.4 0 .44-.14 1.42-.14 4.06 0 .75-.1 1-.37 1s-.34-.21-.34-.61a4.06 4.06 0 0 0-.88-2.23 4.27 4.27 0 0 0-3.69-1.66c-2.5 0-4 1.45-4 3.48 0 1.56.78 2.75 3.59 4.87l1 .72c4.06 3.14 5.55 5.41 5.55 8.63a6.82 6.82 0 0 1-3.18 5.88 9.72 9.72 0 0 1-5.38 1.39 11.73 11.73 0 0 1-5.03-.87zM260.79 13.54c0-5.79 3.82-13.27 14-13.27 8.42 0 13.67 4.9 13.67 12.65S283 26.8 274.43 26.8c-9.71 0-13.64-7.27-13.64-13.26zm22.91.64c0-7.58-4.37-12.29-9.92-12.29-3.89 0-8.32 2.17-8.32 10.6 0 7 3.89 12.62 10.39 12.62 2.37 0 7.85-1.11 7.85-10.93zM301.7.88c.1-.58.3-.88.57-.88s.48.17.92 1.05l9.23 19.08L321.63.81c.23-.54.44-.81.74-.81s.51.34.61 1.05L326.06 22c.3 2.13.64 3.11 1.66 3.42a6.92 6.92 0 0 0 2.09.34c.31 0 .55 0 .55.23s-.41.37-.88.37c-.85 0-5.52-.1-6.87-.19-.78-.07-1-.18-1-.38s.13-.27.37-.37.3-.51.17-1.46L320.14 9H320l-7.37 15.4c-.78 1.59-.95 1.89-1.26 1.89s-.64-.68-1.18-1.69c-.81-1.56-3.48-6.73-3.89-7.68-.31-.71-2.34-5-3.52-7.51h-.14l-1.75 13.46a13 13 0 0 0-.11 1.6c0 .64.44.94 1 1.08a6.89 6.89 0 0 0 1.42.17c.27 0 .51.07.51.23 0 .31-.31.37-.81.37-1.43 0-2.95-.1-3.56-.1s-2.26.1-3.35.1c-.34 0-.61-.06-.61-.37 0-.16.21-.23.55-.23a4 4 0 0 0 1-.11c1-.2 1.22-1.52 1.39-2.67zM362.13 16.52c0 4.32 0 6.66.7 7.27s1.46.74 4.1.74c1.79 0 3.11 0 4-1a4.2 4.2 0 0 0 .88-2c0-.31.1-.51.37-.51s.28.17.28.57a26.86 26.86 0 0 1-.51 3.89c-.21.75-.38.92-2.14.92-2.43 0-4.19-.07-5.71-.11s-2.75-.1-4.13-.1h-1.93c-.81 0-1.66.06-2.34.06-.44 0-.67-.1-.67-.33s.13-.27.53-.27a5.41 5.41 0 0 0 1.23-.14c.67-.13.84-.88 1-1.86.17-1.42.17-4.09.17-7.2v-6c0-5.15 0-6.09-.07-7.18s-.34-1.69-1.46-1.93a4.83 4.83 0 0 0-1.11-.1c-.37 0-.58-.06-.58-.3s.24-.31.74-.31c1.59 0 3.73.11 4.64.11s3.29-.11 4.61-.11c.47 0 .71.07.71.31s-.21.3-.61.3a8.56 8.56 0 0 0-1.32.1c-.92.17-1.19.75-1.26 1.93s-.06 2-.06 7.18zM388.17 17.49c-.17 0-.24.07-.31.28L386 22.6a6.49 6.49 0 0 0-.5 2.07c0 .61.3 1 1.35 1h.51c.41 0 .5.07.5.27s-.2.33-.57.33c-1.08 0-2.54-.1-3.59-.1-.37 0-2.23.1-4 .1-.45 0-.66-.06-.66-.33s.14-.27.41-.27.78 0 1.05-.07c1.56-.2 2.2-1.35 2.88-3l8.49-21.25c.41-1 .61-1.35.95-1.35s.51.3.84 1.08c.81 1.86 6.23 15.67 8.39 20.81 1.29 3 2.28 3.52 3 3.69a7.66 7.66 0 0 0 1.43.14c.27 0 .44 0 .44.27s-.31.33-1.56.33-3.69 0-6.4-.06c-.61 0-1 0-1-.27s.13-.27.47-.31a.55.55 0 0 0 .31-.78l-2.71-7.17a.33.33 0 0 0-.33-.24zm6.9-1.69c.17 0 .2-.1.17-.2l-3.05-8.36c0-.13-.06-.31-.17-.31s-.17.18-.2.31l-3.11 8.33c0 .13 0 .23.13.23zM418.66 12.05h.17c1.15-1.25 6.09-6.3 7.07-7.45s1.69-2 1.69-2.54c0-.37-.14-.61-.47-.68s-.44-.13-.44-.33.17-.31.54-.31c.71 0 2.57.11 3.48.11s2.92-.11 4-.11c.34 0 .58.07.58.31s-.17.3-.51.3a6.53 6.53 0 0 0-2 .38 10.75 10.75 0 0 0-3.66 2.53c-1 1-6.15 6.09-7.31 7.31 1.22 1.59 7.85 8.73 9.17 10a16 16 0 0 0 4.84 3.65 6.05 6.05 0 0 0 2.1.51c.24 0 .44.07.44.27s-.17.33-.81.33h-2.94c-1 0-1.63 0-2.34-.06-1.82-.17-2.74-.91-4.19-2.2s-8.16-9.14-8.87-10.12l-.37-.51h-.17v3.09c0 3.11 0 5.78.1 7.23.07.95.37 1.7 1.22 1.83a13.77 13.77 0 0 0 1.66.14c.27 0 .44.1.44.27s-.28.33-.65.33c-1.89 0-4-.1-4.87-.1s-2.91.1-4.26.1c-.44 0-.68-.1-.68-.33s.14-.27.54-.27a5.39 5.39 0 0 0 1.22-.14c.68-.13.85-.88 1-1.86.17-1.42.17-4.09.17-7.2v-6c0-5.15 0-6.09-.07-7.18s-.33-1.69-1.45-1.93a6.81 6.81 0 0 0-1.32-.1c-.37 0-.58-.06-.58-.3s.24-.31.75-.31c1.79 0 3.92.11 4.73.11s3-.11 4.1-.11c.47 0 .71.07.71.31s-.2.3-.48.3a4.78 4.78 0 0 0-.94.1c-.91.17-1.19.75-1.25 1.93s-.07 2-.07 7.18zM447.55 10.56c0-5.15 0-6.09-.07-7.18s-.34-1.69-1.45-1.93a6.81 6.81 0 0 0-1.32-.1c-.38 0-.58-.06-.58-.3s.24-.31.75-.31h2.74c.85 0 1.65.07 2.13.07h8.46c.64 0 1.18-.14 1.45-.2a2.61 2.61 0 0 1 .55-.14c.17 0 .2.14.2.31a21.3 21.3 0 0 0-.27 2.2c0 .34-.11 1.82-.17 2.23 0 .17-.1.37-.34.37s-.31-.17-.31-.47a3.61 3.61 0 0 0-.2-1.22c-.24-.61-.57-1-2.26-1.22-.58-.07-4.13-.13-4.81-.13-.17 0-.24.1-.24.34v8.56c0 .23 0 .37.24.37.75 0 4.64 0 5.41-.07a2.38 2.38 0 0 0 1.63-.51c.23-.27.37-.43.54-.43s.24.06.24.27-.17.74-.28 2.47c-.06.67-.13 2-.13 2.26s0 .64-.3.64-.31-.13-.31-.3a8.48 8.48 0 0 0-.13-1.22c-.17-.67-.65-1.18-1.9-1.32-.64-.06-4-.1-4.8-.1-.17 0-.21.14-.21.34v7.92c.07 2.33.61 2.84 4.06 2.84a8.48 8.48 0 0 0 3.18-.41c.88-.4 1.29-1.11 1.53-2.5.06-.37.13-.51.37-.51s.27.27.27.61a26.5 26.5 0 0 1-.44 3.76c-.24.88-.54.88-1.83.88-2.53 0-4.39-.07-5.85-.11s-2.51-.1-3.52-.1h-1.93c-.81 0-1.66.06-2.33.06-.44 0-.68-.1-.68-.33s.14-.27.54-.27a5.39 5.39 0 0 0 1.22-.14c.67-.13.84-.88 1-1.86.17-1.42.17-4.09.17-7.2zM491.6 23.11a12.77 12.77 0 0 1-4.19-10 12.74 12.74 0 0 1 3.95-9.27C493.8 1.62 497 .27 502.05.27a34.07 34.07 0 0 1 4.95.34c1.28.17 2.36.47 3.38.58.37 0 .51.19.51.4s-.11.68-.18 1.86 0 3-.1 3.66c0 .5-.1.77-.4.77s-.34-.27-.34-.74A4.83 4.83 0 0 0 508.52 4c-1.12-1.19-3.75-2.1-6.87-2.1-2.94 0-4.87.74-6.36 2.1-2.47 2.27-3.11 5.48-3.11 8.76 0 8.05 6.12 12.05 10.66 12.05 3 0 4.83-.34 6.19-1.9a5.74 5.74 0 0 0 1.15-2.23c.1-.54.17-.68.44-.68s.3.24.3.51a31.69 31.69 0 0 1-.74 4.5 1.2 1.2 0 0 1-.88 1 19.64 19.64 0 0 1-6.09.78c-4.64.01-8.53-1-11.61-3.68zM520.24 13.54c0-5.79 3.82-13.27 14-13.27 8.42 0 13.67 4.9 13.67 12.65s-5.42 13.88-14 13.88c-9.74 0-13.67-7.27-13.67-13.26zm22.91.64c0-7.58-4.36-12.29-9.92-12.29-3.88 0-8.32 2.17-8.32 10.6 0 7 3.89 12.62 10.39 12.62 2.37 0 7.85-1.11 7.85-10.93zM563 16.52c0 4.32 0 6.66.71 7.27s1.45.74 4.09.74c1.8 0 3.12 0 4-1a4.2 4.2 0 0 0 .88-2c0-.31.11-.51.38-.51s.26.17.26.57a26.62 26.62 0 0 1-.5 3.89c-.21.75-.38.92-2.13.92-2.44 0-4.2-.07-5.73-.11s-2.73-.1-4.12-.1h-1.93c-.81 0-1.66.06-2.33.06-.44 0-.68-.1-.68-.33s.13-.27.54-.27a5.22 5.22 0 0 0 1.21-.14c.68-.13.86-.88 1-1.86.17-1.42.17-4.09.17-7.2v-6c0-5.15 0-6.09-.07-7.18s-.34-1.69-1.45-1.93a5 5 0 0 0-1.12-.1c-.37 0-.58-.06-.58-.3s.24-.31.75-.31c1.59 0 3.72.11 4.63.11s3.28-.11 4.61-.11c.47 0 .71.07.71.31s-.21.3-.62.3a8.63 8.63 0 0 0-1.31.1c-.92.17-1.19.75-1.26 1.93s-.06 2-.06 7.18zM587.46 16.52c0 4.32 0 6.66.71 7.27s1.46.74 4.09.74c1.8 0 3.12 0 4-1a4.22 4.22 0 0 0 .89-2c0-.31.1-.51.37-.51s.27.17.27.57a26.86 26.86 0 0 1-.51 3.89c-.2.75-.37.92-2.13.92-2.44 0-4.2-.07-5.72-.11s-2.74-.1-4.13-.1h-1.93c-.81 0-1.65.06-2.33.06-.44 0-.68-.1-.68-.33s.14-.27.55-.27a5.29 5.29 0 0 0 1.21-.14c.68-.13.85-.88 1-1.86.17-1.42.17-4.09.17-7.2v-6c0-5.15 0-6.09-.07-7.18s-.34-1.69-1.46-1.93a4.77 4.77 0 0 0-1.11-.1c-.37 0-.57-.06-.57-.3s.23-.31.74-.31c1.59 0 3.72.11 4.64.11s3.28-.11 4.6-.11c.47 0 .71.07.71.31s-.2.3-.61.3a8.75 8.75 0 0 0-1.32.1c-.91.17-1.18.75-1.25 1.93s-.07 2-.07 7.18zM607.74 10.56c0-5.15 0-6.09-.07-7.18s-.34-1.69-1.45-1.93a6.93 6.93 0 0 0-1.33-.1c-.37 0-.57-.06-.57-.3s.23-.31.74-.31h2.74c.84 0 1.66.07 2.14.07h8.46c.65 0 1.18-.14 1.45-.2a2.69 2.69 0 0 1 .54-.14c.17 0 .2.14.2.31s-.16.64-.27 2.2c0 .34-.1 1.82-.17 2.23 0 .17-.1.37-.34.37s-.3-.17-.3-.47a3.61 3.61 0 0 0-.2-1.22c-.24-.61-.58-1-2.27-1.22-.57-.07-4.13-.13-4.8-.13-.18 0-.24.1-.24.34v8.56c0 .23 0 .37.24.37.74 0 4.63 0 5.41-.07a2.4 2.4 0 0 0 1.63-.51c.23-.27.37-.43.53-.43s.24.06.24.27a24.22 24.22 0 0 0-.27 2.47c-.07.67-.13 2-.13 2.26s0 .64-.31.64a.26.26 0 0 1-.3-.3 10.39 10.39 0 0 0-.14-1.22c-.17-.67-.64-1.18-1.89-1.32-.64-.06-4-.1-4.81-.1-.17 0-.2.14-.2.34v7.92c.06 2.33.61 2.84 4.06 2.84a8.5 8.5 0 0 0 3.18-.41c.88-.4 1.28-1.11 1.52-2.5.07-.37.14-.51.38-.51s.26.27.26.61a26.51 26.51 0 0 1-.43 3.76c-.24.88-.54.88-1.83.88-2.54 0-4.4-.07-5.85-.11s-2.51-.1-3.52-.1h-1.93c-.81 0-1.66.06-2.34.06-.44 0-.68-.1-.68-.33s.14-.27.55-.27a5.29 5.29 0 0 0 1.21-.14c.68-.13.85-.88 1-1.86.18-1.42.18-4.09.18-7.2zM654.43 24.06c0 .91 0 1-.44 1.22-2.2 1.15-5.52 1.52-8.16 1.52-8.29 0-15.63-3.93-15.63-13.26a12.65 12.65 0 0 1 5.89-11.07 16.42 16.42 0 0 1 9.1-2.2 40 40 0 0 1 6 .54 22.29 22.29 0 0 0 2.67.38c.41 0 .48.16.48.4a45 45 0 0 0-.24 5.55c0 .54-.1.71-.37.71s-.31-.17-.34-.44a4.74 4.74 0 0 0-1.15-2.81 10.86 10.86 0 0 0-7.56-2.6 9.77 9.77 0 0 0-6.7 2.1c-1.89 1.59-3.11 4.13-3.11 8.29 0 7.28 4.64 12.72 11.78 12.72a7.5 7.5 0 0 0 2.87-.37 1.19 1.19 0 0 0 .65-1.25v-3.22-4c0-1-.34-1.69-1.46-1.93a6.7 6.7 0 0 0-1.31-.1c-.31 0-.51-.07-.51-.28s.24-.33.71-.33c1.76 0 3.89.1 4.91.1s2.84-.1 4-.1c.44 0 .67.06.67.33s-.2.28-.44.28a5 5 0 0 0-.91.1c-.92.17-1.26.74-1.29 1.93v4.06zM666.64 10.56c0-5.15 0-6.09-.07-7.18s-.34-1.69-1.46-1.93a6.74 6.74 0 0 0-1.32-.1c-.37 0-.57-.06-.57-.3s.24-.31.74-.31h2.74c.84 0 1.66.07 2.14.07h8.45c.64 0 1.19-.14 1.46-.2a2.69 2.69 0 0 1 .54-.14c.17 0 .2.14.2.31s-.16.64-.26 2.2c0 .34-.11 1.82-.17 2.23 0 .17-.11.37-.34.37s-.31-.17-.31-.47a3.61 3.61 0 0 0-.2-1.22c-.24-.61-.58-1-2.27-1.22-.58-.07-4.13-.13-4.81-.13-.16 0-.23.1-.23.34v8.56c0 .23 0 .37.23.37.75 0 4.64 0 5.42-.07s1.32-.17 1.62-.51.38-.43.55-.43.23.06.23.27a24.22 24.22 0 0 0-.27 2.47c-.07.67-.13 2-.13 2.26s0 .64-.31.64a.26.26 0 0 1-.3-.3 10.39 10.39 0 0 0-.14-1.22c-.17-.67-.64-1.18-1.89-1.32-.65-.06-4-.1-4.81-.1-.17 0-.2.14-.2.34v7.92c.07 2.33.61 2.84 4.06 2.84a8.5 8.5 0 0 0 3.18-.41c.88-.4 1.29-1.11 1.52-2.5.07-.37.14-.51.38-.51s.27.27.27.61a26.5 26.5 0 0 1-.44 3.76c-.24.88-.54.88-1.83.88-2.54 0-4.4-.07-5.85-.11s-2.51-.1-3.52-.1h-1.93c-.81 0-1.66.06-2.34.06-.44 0-.67-.1-.67-.33s.13-.27.54-.27a5.46 5.46 0 0 0 1.22-.14c.67-.13.84-.88 1-1.86.17-1.42.17-4.09.17-7.2z"/><path fill="none" stroke="#007da5" stroke-miterlimit="10" stroke-width=".5" d="M143.18 35.39h536"/><path class="c" d="M146.27 52v-4.47a8.1 8.1 0 0 0-.16-2.13.68.68 0 0 0-.48-.45 3.64 3.64 0 0 0-.89-.09v-.37h4.72v.37h-.56a1.44 1.44 0 0 0-.47.14.74.74 0 0 0-.35.39 8.59 8.59 0 0 0-.16 2.13v4.73a3 3 0 0 0 .42 2 2.86 2.86 0 0 0 1.93.43h.15a4.2 4.2 0 0 0 2.13-.4 2.05 2.05 0 0 0 .6-.57 2.26 2.26 0 0 0 .28-.6c0-.18.09-.46.16-.83h.4l-.15 2.83A8.09 8.09 0 0 1 153 55c-.92 0-3.67 0-8.27.07v-.37a4.45 4.45 0 0 0 .56 0 1.14 1.14 0 0 0 .46-.14.65.65 0 0 0 .35-.38 8.1 8.1 0 0 0 .17-2.18zM163.2 55.25a5.91 5.91 0 0 1-4.1-1.53 5 5 0 0 1-1.71-3.9 5.1 5.1 0 0 1 1.76-3.93 5.92 5.92 0 0 1 4.12-1.6 5.8 5.8 0 0 1 4 1.55A5 5 0 0 1 169 49.7a5.23 5.23 0 0 1-1.67 4 5.86 5.86 0 0 1-4.13 1.55zm0-10.52a3.27 3.27 0 0 0-2.94 1.66 6 6 0 0 0-.65 1.62 7.8 7.8 0 0 0-.22 1.81 7.68 7.68 0 0 0 .21 1.84 5.85 5.85 0 0 0 .65 1.59 3.15 3.15 0 0 0 1.22 1.15 3.75 3.75 0 0 0 1.83.42 3.47 3.47 0 0 0 1.77-.44 3 3 0 0 0 1.16-1.21 5.93 5.93 0 0 0 .6-1.6 9 9 0 0 0 .06-3.25 6.07 6.07 0 0 0-.41-1.36 4.16 4.16 0 0 0-.72-1.15 3.16 3.16 0 0 0-1.09-.79 3.6 3.6 0 0 0-1.47-.29zM172.88 55v-3.15h.37c.39 2 1.4 3 3 3a2.5 2.5 0 0 0 1.64-.53 1.79 1.79 0 0 0 .65-1.47 2 2 0 0 0-.2-.92 1.89 1.89 0 0 0-.6-.7 4.27 4.27 0 0 0-.74-.47c-.23-.12-.53-.25-.89-.4a11.22 11.22 0 0 1-1.1-.49 7.24 7.24 0 0 1-.93-.6 2.5 2.5 0 0 1-.73-.89 2.65 2.65 0 0 1-.25-1.18 2.61 2.61 0 0 1 .91-2.1 3.32 3.32 0 0 1 2.26-.78 4.17 4.17 0 0 1 2.42.82l.36-.62h.18l.08 2.76H179q-.71-2.52-2.67-2.52a2 2 0 0 0-1.33.46 1.54 1.54 0 0 0-.54 1.23 1.6 1.6 0 0 0 .14.67 2 2 0 0 0 .31.49 1.83 1.83 0 0 0 .52.4 5.48 5.48 0 0 0 .54.29l.62.26c.53.23 1 .42 1.28.59a8 8 0 0 1 1.07.68 2.83 2.83 0 0 1 .88 1 3 3 0 0 1 .29 1.33 2.66 2.66 0 0 1-1.15 2.29 4.5 4.5 0 0 1-2.68.81 4.57 4.57 0 0 1-2.8-1l-.38.68zM195.44 49.88l3.39 3.89a3.6 3.6 0 0 0 .71.66 2.33 2.33 0 0 0 .86.28v.37h-.72L199 55h-1.2l-.75-.93-2.66-3.29-.2-.26a1.58 1.58 0 0 0-.19-.21l-.13-.11a.45.45 0 0 0-.2-.09h-.59V52a8.79 8.79 0 0 0 .15 2.13.83.83 0 0 0 .2.32.67.67 0 0 0 .37.16 2.24 2.24 0 0 0 .37.05h.42v.37h-4.66v-.37a4.45 4.45 0 0 0 .56 0 1.14 1.14 0 0 0 .46-.14.61.61 0 0 0 .34-.38 9 9 0 0 0 .14-2.13v-4.48a9 9 0 0 0-.14-2.13.7.7 0 0 0-.2-.32.67.67 0 0 0-.37-.17h-.79v-.37h4.75a7.79 7.79 0 0 1 1.36.1 4.32 4.32 0 0 1 1.15.38 1.9 1.9 0 0 1 .85.81 2.67 2.67 0 0 1 .31 1.35 2.4 2.4 0 0 1-.82 1.93 3.61 3.61 0 0 1-2.09.77zM193 45.54v4.18h1.15a5.07 5.07 0 0 0 .91-.14 1.68 1.68 0 0 0 .77-.36 1.87 1.87 0 0 0 .44-.7 3 3 0 0 0 .19-1.14 2.51 2.51 0 0 0-.59-1.74 2.12 2.12 0 0 0-1.65-.66h-1s-.22.23-.22.56zM204.47 52v-4.47a8.59 8.59 0 0 0-.16-2.13.71.71 0 0 0-.49-.45 3.64 3.64 0 0 0-.89-.09v-.37h4.72v.37h-.56a1.33 1.33 0 0 0-.46.14.76.76 0 0 0-.36.39 8.59 8.59 0 0 0-.16 2.13V52a8.59 8.59 0 0 0 .16 2.13.72.72 0 0 0 .49.44 3.16 3.16 0 0 0 .89.1v.37h-4.72v-.37a4.45 4.45 0 0 0 .56 0 1.14 1.14 0 0 0 .46-.14.7.7 0 0 0 .36-.38 8.59 8.59 0 0 0 .16-2.15zM217.12 55.25a5.91 5.91 0 0 1-4.1-1.53 5 5 0 0 1-1.71-3.9 5.1 5.1 0 0 1 1.76-3.93 5.92 5.92 0 0 1 4.12-1.6 5.8 5.8 0 0 1 4 1.55 5 5 0 0 1 1.7 3.86 5.23 5.23 0 0 1-1.67 4 5.86 5.86 0 0 1-4.1 1.55zm0-10.52a3.27 3.27 0 0 0-2.94 1.66 6 6 0 0 0-.65 1.62 7.8 7.8 0 0 0-.22 1.81 7.68 7.68 0 0 0 .21 1.84 5.85 5.85 0 0 0 .65 1.59 3.15 3.15 0 0 0 1.22 1.15 3.75 3.75 0 0 0 1.83.42 3.47 3.47 0 0 0 1.77-.44 3.07 3.07 0 0 0 1.16-1.21 5.93 5.93 0 0 0 .6-1.6 9 9 0 0 0 .06-3.25 6.07 6.07 0 0 0-.41-1.32 4.16 4.16 0 0 0-.72-1.15 3.16 3.16 0 0 0-1.09-.79 3.6 3.6 0 0 0-1.47-.33zM226.8 55v-3.15h.37c.39 2 1.4 3 3 3a2.5 2.5 0 0 0 1.64-.53 1.79 1.79 0 0 0 .65-1.47 2.11 2.11 0 0 0-.2-.92 1.89 1.89 0 0 0-.6-.7 4.69 4.69 0 0 0-.74-.47c-.23-.12-.53-.25-.89-.4s-.81-.34-1.11-.49a7.94 7.94 0 0 1-.92-.6 2.39 2.39 0 0 1-.73-.89 2.9 2.9 0 0 1 .65-3.28 3.37 3.37 0 0 1 2.27-.78 4.17 4.17 0 0 1 2.42.82l.36-.62h.18l.08 2.76h-.37q-.7-2.52-2.67-2.52a2 2 0 0 0-1.33.46 1.54 1.54 0 0 0-.54 1.23 1.6 1.6 0 0 0 .14.67 2 2 0 0 0 .31.49 1.83 1.83 0 0 0 .52.4 5.48 5.48 0 0 0 .54.29l.61.26c.54.23 1 .42 1.29.59a8 8 0 0 1 1.07.68 2.71 2.71 0 0 1 1.2 2.32 2.65 2.65 0 0 1-1.14 2.29 4.5 4.5 0 0 1-2.68.81 4.57 4.57 0 0 1-2.8-1L227 55zM253 45.29l.26-.76h.24l.13 3.16h-.37a3.61 3.61 0 0 0-1.11-2.19 3.22 3.22 0 0 0-2.27-.84 3.33 3.33 0 0 0-1.78.47 3.12 3.12 0 0 0-1.16 1.26 6.86 6.86 0 0 0-.6 1.66 9.06 9.06 0 0 0-.19 1.85 8 8 0 0 0 .2 1.8 6.12 6.12 0 0 0 .62 1.59 3.13 3.13 0 0 0 1.17 1.17 3.57 3.57 0 0 0 1.77.43 3.51 3.51 0 0 0 1.43-.27 2.39 2.39 0 0 0 1-.78 5.18 5.18 0 0 0 .66-1.1 8.15 8.15 0 0 0 .45-1.37h.29v3.5h-.21l-.38-.82a5.52 5.52 0 0 1-3.54 1.2 5.4 5.4 0 0 1-3.95-1.46 5.14 5.14 0 0 1-1.51-3.89 5.44 5.44 0 0 1 5.6-5.61 5.52 5.52 0 0 1 1.67.23 6.68 6.68 0 0 1 1.58.77zM263.2 55.25a5.91 5.91 0 0 1-4.1-1.53 5 5 0 0 1-1.71-3.9 5.1 5.1 0 0 1 1.76-3.93 5.92 5.92 0 0 1 4.12-1.6 5.8 5.8 0 0 1 4 1.55A5 5 0 0 1 269 49.7a5.23 5.23 0 0 1-1.67 4 5.86 5.86 0 0 1-4.13 1.55zm0-10.52a3.27 3.27 0 0 0-2.94 1.66 6 6 0 0 0-.65 1.62 7.8 7.8 0 0 0-.22 1.81 7.68 7.68 0 0 0 .21 1.84 5.85 5.85 0 0 0 .65 1.59 3.15 3.15 0 0 0 1.22 1.15 3.75 3.75 0 0 0 1.83.42 3.47 3.47 0 0 0 1.77-.44 3.07 3.07 0 0 0 1.16-1.21 6.28 6.28 0 0 0 .6-1.6 9 9 0 0 0 .06-3.25 6.07 6.07 0 0 0-.41-1.36 4.16 4.16 0 0 0-.72-1.15 3.16 3.16 0 0 0-1.09-.79 3.6 3.6 0 0 0-1.47-.29zM284.21 47.19V53a2.72 2.72 0 0 0 .21 1.4 2.62 2.62 0 0 0 1.37.33v.37h-4.81v-.37a2.58 2.58 0 0 0 1.36-.33 2.58 2.58 0 0 0 .22-1.4v-7l-1.83 4.46c-.22.51-.55 1.28-1 2.3s-.77 1.8-1 2.31h-.16L274.66 46v6.73a2.65 2.65 0 0 0 .32 1.47 1.47 1.47 0 0 0 1.22.5v.37h-3.46v-.37a1.28 1.28 0 0 0 1.44-1.46v-6.8a2.86 2.86 0 0 0-.14-1 .71.71 0 0 0-.49-.45 3.58 3.58 0 0 0-.89-.09v-.37l1.62.06 1.47-.06 3.52 8.19 3.43-8.19 1.5.06 1.58-.06v.38c-.75 0-1.21.18-1.37.55a5.54 5.54 0 0 0-.2 1.73zM300.69 47.19V53a2.72 2.72 0 0 0 .21 1.4 2.62 2.62 0 0 0 1.37.33v.37L301 55h-3.58v-.37a2.58 2.58 0 0 0 1.36-.33A2.58 2.58 0 0 0 299 53v-7l-1.83 4.46c-.22.51-.55 1.28-1 2.3s-.77 1.8-1 2.31H295L291.14 46v6.73a2.65 2.65 0 0 0 .32 1.47 1.47 1.47 0 0 0 1.22.5v.37h-3.46v-.37a1.28 1.28 0 0 0 1.44-1.46v-6.8a2.86 2.86 0 0 0-.14-1A.71.71 0 0 0 290 45a3.58 3.58 0 0 0-.89-.09v-.37l1.62.06 1.47-.06 3.52 8.19 3.43-8.19 1.5.06 1.58-.06v.38c-.75 0-1.21.18-1.37.55a5.54 5.54 0 0 0-.17 1.72zM315.54 47.88v3a4.89 4.89 0 0 1-1 3.33 4.13 4.13 0 0 1-3.2 1.08 4.87 4.87 0 0 1-3.23-.88 3.85 3.85 0 0 1-1-3v-3.88a8.1 8.1 0 0 0-.16-2.13.68.68 0 0 0-.48-.45 3.64 3.64 0 0 0-.89-.09v-.37H310.28v.37h-.79a.78.78 0 0 0-.38.17.7.7 0 0 0-.2.32 8.79 8.79 0 0 0-.15 2.13v3.93a3.57 3.57 0 0 0 .71 2.41 2.88 2.88 0 0 0 2.28.81q3.31 0 3.32-3.3v-3.5a10.12 10.12 0 0 0-.16-2.29.86.86 0 0 0-.52-.59 2.69 2.69 0 0 0-1-.14v-.37H317.04v.37a1.94 1.94 0 0 0-1 .22.67.67 0 0 0-.26.35 8.37 8.37 0 0 0-.24 2.5zM322.1 51.72v-5.9a2.4 2.4 0 0 0-.75-.75 2.22 2.22 0 0 0-1-.21v-.37h2.79l6.75 8.24v-4.45a14.27 14.27 0 0 0-.14-2.46l-.1-.33a.72.72 0 0 0-.14-.24 1.06 1.06 0 0 0-.15-.15.52.52 0 0 0-.21-.09L329 45l-.29-.05h-.31v-.37h3.46v.37H331.21a.5.5 0 0 0-.21.05l-.15.12a.59.59 0 0 0-.13.18 2.16 2.16 0 0 0-.1.25 12.05 12.05 0 0 0-.19 2.8v6.89h-.48l-1.06-1.32-6.25-7.59v5.38a7 7 0 0 0 .24 2.33 2.42 2.42 0 0 0 .12.23.91.91 0 0 0 .17.17l.18.11a.53.53 0 0 0 .21.06H324.02a1.46 1.46 0 0 0 .25 0v.37h-3.62v-.37l.47-.06a2.19 2.19 0 0 0 .38-.09.65.65 0 0 0 .35-.23 1.13 1.13 0 0 0 .18-.4 12.78 12.78 0 0 0 .07-2.11zM336.62 52v-4.47a8.1 8.1 0 0 0-.16-2.13.68.68 0 0 0-.46-.4 3.64 3.64 0 0 0-.89-.09v-.37h4.72v.37h-.56a1.37 1.37 0 0 0-.47.14.74.74 0 0 0-.35.39 8.59 8.59 0 0 0-.16 2.13V52a8.59 8.59 0 0 0 .16 2.13.72.72 0 0 0 .49.44 3.16 3.16 0 0 0 .89.1v.37h-4.72v-.37a4.45 4.45 0 0 0 .56 0 1.14 1.14 0 0 0 .46-.14.65.65 0 0 0 .35-.38 8.1 8.1 0 0 0 .14-2.15zM352.88 44.49L353 47h-.43a2.1 2.1 0 0 0-.56-1.56 2.56 2.56 0 0 0-1.65-.42h-.85a.93.93 0 0 0-.28 0 .9.9 0 0 0-.21.08.34.34 0 0 0-.16.12.32.32 0 0 0-.05.18V53a1.92 1.92 0 0 0 .33 1.3 2.15 2.15 0 0 0 1.45.4v.37h-1.32L348 55h-2.54v-.37a2.17 2.17 0 0 0 1.45-.4 2 2 0 0 0 .32-1.3v-7.5a.42.42 0 0 0-.08-.26.52.52 0 0 0-.3-.12 2.88 2.88 0 0 0-.35 0h-.61a7.21 7.21 0 0 0-1.06 0 2.21 2.21 0 0 0-.7.23 1.05 1.05 0 0 0-.5.59 3.85 3.85 0 0 0-.16 1.11h-.36v-2.49zM360.61 50.86V53a2.72 2.72 0 0 0 .21 1.4 2.62 2.62 0 0 0 1.37.33v.37h-4.85v-.37a2.62 2.62 0 0 0 1.39-.34A2.52 2.52 0 0 0 359 53v-2l-1.47-2.54-.29-.55c-.19-.37-.38-.72-.55-1s-.38-.65-.59-1a4.94 4.94 0 0 0-.52-.73.79.79 0 0 0-.25-.19 1.32 1.32 0 0 0-.36-.06h-.32v-.37h4.43v.37q-1.2 0-1.2.51a2.8 2.8 0 0 0 .42 1.12l2.08 3.85 1-1.63a11.25 11.25 0 0 0 1.58-3.18.5.5 0 0 0 0-.18.39.39 0 0 0-.08-.14l-.1-.12a.36.36 0 0 0-.13-.08h-.15a.6.6 0 0 0-.18 0h-.49v-.37H365.11v.37a1.49 1.49 0 0 0-.77.27 2.37 2.37 0 0 0-.48.44l-.44.71zM382.56 45.29l.26-.76h.24l.12 3.16h-.36a3.57 3.57 0 0 0-1.12-2.19 3.18 3.18 0 0 0-2.26-.84 3.33 3.33 0 0 0-1.78.47 3.12 3.12 0 0 0-1.16 1.26 6.86 6.86 0 0 0-.6 1.66 9.06 9.06 0 0 0-.19 1.85 8 8 0 0 0 .2 1.8 6.12 6.12 0 0 0 .62 1.59 3 3 0 0 0 1.17 1.17 3.57 3.57 0 0 0 1.77.43 3.51 3.51 0 0 0 1.43-.27 2.39 2.39 0 0 0 1-.78 5.18 5.18 0 0 0 .66-1.1 8.15 8.15 0 0 0 .45-1.37h.29v3.5h-.21l-.39-.82a5.47 5.47 0 0 1-3.53 1.2 5.4 5.4 0 0 1-3.95-1.46 5.14 5.14 0 0 1-1.51-3.89 5.44 5.44 0 0 1 5.6-5.61 5.52 5.52 0 0 1 1.67.23 6.68 6.68 0 0 1 1.58.77zM392.8 55.25a5.91 5.91 0 0 1-4.1-1.53 5 5 0 0 1-1.71-3.9 5.12 5.12 0 0 1 1.75-3.93 6 6 0 0 1 4.12-1.6 5.81 5.81 0 0 1 4.05 1.55 5 5 0 0 1 1.7 3.86 5.23 5.23 0 0 1-1.67 4 5.86 5.86 0 0 1-4.14 1.55zm0-10.52a3.35 3.35 0 0 0-1.75.45 3.29 3.29 0 0 0-1.19 1.21 6 6 0 0 0-.65 1.62 7.29 7.29 0 0 0-.22 1.81 7.68 7.68 0 0 0 .21 1.84 5.55 5.55 0 0 0 .65 1.59 3.19 3.19 0 0 0 1.21 1.15 3.82 3.82 0 0 0 1.84.42 3.47 3.47 0 0 0 1.77-.44 3.07 3.07 0 0 0 1.16-1.21 5.91 5.91 0 0 0 .59-1.6 8 8 0 0 0 .19-1.8 8.51 8.51 0 0 0-.12-1.45 6.07 6.07 0 0 0-.41-1.36 4.16 4.16 0 0 0-.72-1.15 3.16 3.16 0 0 0-1.09-.79 3.64 3.64 0 0 0-1.47-.29zM403.71 52v-4.47a8.1 8.1 0 0 0-.16-2.13.69.69 0 0 0-.49-.45 3.55 3.55 0 0 0-.88-.09v-.37h4.72v.37h-.56a1.37 1.37 0 0 0-.47.14.7.7 0 0 0-.35.39 8.1 8.1 0 0 0-.16 2.13v4.73a3 3 0 0 0 .42 2 2.85 2.85 0 0 0 1.93.43h.15a4.13 4.13 0 0 0 2.12-.4 1.83 1.83 0 0 0 .6-.57 1.77 1.77 0 0 0 .28-.6c.05-.18.1-.46.16-.83h.4l-.14 2.83a8.09 8.09 0 0 1-.83-.07q-1.38 0-8.27.07v-.37a4.45 4.45 0 0 0 .56 0 1.19 1.19 0 0 0 .46-.14.65.65 0 0 0 .35-.38 8.1 8.1 0 0 0 .16-2.22zM416 52v-4.47a8.1 8.1 0 0 0-.16-2.13.69.69 0 0 0-.49-.45 3.55 3.55 0 0 0-.88-.09v-.37h4.72v.37h-.56a1.37 1.37 0 0 0-.47.14.7.7 0 0 0-.35.39 8.1 8.1 0 0 0-.16 2.13v4.73a3 3 0 0 0 .42 2 2.85 2.85 0 0 0 1.93.43h.15a4.13 4.13 0 0 0 2.12-.4 1.83 1.83 0 0 0 .6-.57 1.77 1.77 0 0 0 .28-.6c.05-.18.1-.46.16-.83h.4l-.14 2.83a8.09 8.09 0 0 1-.83-.07q-1.38 0-8.27.07v-.37a4.45 4.45 0 0 0 .56 0 1.19 1.19 0 0 0 .46-.14.65.65 0 0 0 .35-.38A8.1 8.1 0 0 0 416 52zM428.35 52v-4.41a8.1 8.1 0 0 0-.16-2.13.73.73 0 0 0-.49-.45 3.55 3.55 0 0 0-.88-.09v-.43h7.95v2.41h-.37a4.24 4.24 0 0 0-.31-1.09 1.29 1.29 0 0 0-.6-.6 2.46 2.46 0 0 0-.79-.24 10.53 10.53 0 0 0-1.13 0h-1.15c-.25 0-.38 0-.4.06a2.94 2.94 0 0 0 0 .59v3.8a2.84 2.84 0 0 0 2-.44 2.39 2.39 0 0 0 .59-1.53h.39c0 1-.05 1.71-.07 2.17s0 1.09.07 2h-.37q-.17-1.17-.72-1.47a4.52 4.52 0 0 0-1.91-.35v2.62a3 3 0 0 0 .29 1.62c.31.4 1 .6 2 .57a10.13 10.13 0 0 0 1.15-.08 3 3 0 0 0 .85-.28 1.41 1.41 0 0 0 .65-.65 3.47 3.47 0 0 0 .31-1.13h.36l-.14 2.58h-8.7v-.37h.56a1.39 1.39 0 0 0 .46-.14.67.67 0 0 0 .35-.39 8 8 0 0 0 .21-2.15zM448.91 44.58l-.17 3.17h-.34a3.28 3.28 0 0 0-.93-2.23 3 3 0 0 0-2.21-.86 3.63 3.63 0 0 0-1.58.33 3.15 3.15 0 0 0-1.1.84 4.48 4.48 0 0 0-.67 1.25 7.11 7.11 0 0 0-.35 1.45 12.28 12.28 0 0 0-.09 1.54 8.12 8.12 0 0 0 .19 1.76 5.42 5.42 0 0 0 .6 1.51 3 3 0 0 0 1.15 1.08 3.48 3.48 0 0 0 1.71.4 3 3 0 0 0 2-.6 2.24 2.24 0 0 0 .71-1.8 1.41 1.41 0 0 0-.29-1 1.93 1.93 0 0 0-1.08-.33v-.37h4.19v.37c-.41 0-.67.08-.8.28a1.72 1.72 0 0 0-.19.94V54h-.7a1 1 0 0 0-.27 0l-.22.05-.24.1-.22.1-.28.16-.33.19a5.55 5.55 0 0 1-2.51.6 5.35 5.35 0 0 1-3.89-1.38 4.94 4.94 0 0 1-1.53-3.82 5.7 5.7 0 0 1 1.53-4.07 5.34 5.34 0 0 1 4-1.64 5.42 5.42 0 0 1 3.33 1l.34-.72zM454.91 52v-4.41a8.1 8.1 0 0 0-.16-2.13.73.73 0 0 0-.49-.45 3.55 3.55 0 0 0-.88-.09v-.43h7.95v2.41H461a4.24 4.24 0 0 0-.31-1.09 1.29 1.29 0 0 0-.6-.6 2.44 2.44 0 0 0-.8-.24 10.18 10.18 0 0 0-1.12 0H457q-.36 0-.39.06a2.94 2.94 0 0 0 0 .59v3.8a2.84 2.84 0 0 0 2-.44 2.39 2.39 0 0 0 .59-1.53h.37c0 1-.05 1.71-.07 2.17s0 1.09.07 2h-.37q-.17-1.17-.72-1.47a4.52 4.52 0 0 0-1.89-.29v2.62a3 3 0 0 0 .29 1.62c.31.4 1 .6 2 .57a10.16 10.16 0 0 0 1.16-.08 3 3 0 0 0 .85-.28 1.41 1.41 0 0 0 .65-.65 3.47 3.47 0 0 0 .31-1.13h.36l-.14 2.58h-8.7v-.37h.55a1.37 1.37 0 0 0 .47-.14.67.67 0 0 0 .35-.39 8 8 0 0 0 .17-2.21zM473.79 52v-4.44a9.62 9.62 0 0 0-.14-2.13.87.87 0 0 0-.2-.32.79.79 0 0 0-.37-.17h-.79v-.4h4.59a6 6 0 0 1 4.26 1.45 5.2 5.2 0 0 1 1.69 4.01 4.83 4.83 0 0 1-1.49 3.81 5.66 5.66 0 0 1-4 1.26h-5.02v-.37a4.45 4.45 0 0 0 .56 0 1.14 1.14 0 0 0 .46-.14.64.64 0 0 0 .34-.38 9.62 9.62 0 0 0 .11-2.18zm1.65-6.51V53.34a1.88 1.88 0 0 0 .08.4 1 1 0 0 0 .16.29c.27.4.87.61 1.79.61a3.88 3.88 0 0 0 1.69-.34 2.18 2.18 0 0 0 1-1 5.09 5.09 0 0 0 .54-1.3 9.41 9.41 0 0 0 .13-1.7 6.91 6.91 0 0 0-1-4 3.84 3.84 0 0 0-3.37-1.37 2.14 2.14 0 0 0-1 .11c.01.05-.02.22-.02.49zM488.14 52v-4.47a8.1 8.1 0 0 0-.14-2.13.7.7 0 0 0-.48-.45 3.64 3.64 0 0 0-.89-.09v-.37h4.72v.37h-.56a1.37 1.37 0 0 0-.47.14.7.7 0 0 0-.35.39 8.1 8.1 0 0 0-.16 2.13V52a8.1 8.1 0 0 0 .16 2.13.72.72 0 0 0 .49.44 3.12 3.12 0 0 0 .89.1v.37h-4.72v-.37a4.45 4.45 0 0 0 .56 0 1.14 1.14 0 0 0 .46-.14.65.65 0 0 0 .35-.38 8.1 8.1 0 0 0 .14-2.15zM495 55v-3.15h.37c.39 2 1.4 3 3 3a2.46 2.46 0 0 0 1.63-.53 1.77 1.77 0 0 0 .66-1.47 2.11 2.11 0 0 0-.2-.92 1.89 1.89 0 0 0-.6-.7 5.19 5.19 0 0 0-.74-.47c-.23-.12-.53-.25-.89-.4s-.81-.34-1.11-.49a8 8 0 0 1-.93-.6 2.47 2.47 0 0 1-.72-.89 2.9 2.9 0 0 1 .65-3.28 3.37 3.37 0 0 1 2.27-.78 4.12 4.12 0 0 1 2.41.82l.37-.62h.18l.08 2.76H501q-.71-2.52-2.67-2.52a2 2 0 0 0-1.33.46 1.54 1.54 0 0 0-.54 1.23 1.46 1.46 0 0 0 .14.67 2.33 2.33 0 0 0 .3.49 2.07 2.07 0 0 0 .53.4 5.48 5.48 0 0 0 .54.29l.61.26c.54.23 1 .42 1.28.59a8 8 0 0 1 1.08.68 2.71 2.71 0 0 1 1.16 2.35 2.65 2.65 0 0 1-1.1 2.26 4.69 4.69 0 0 1-5.48-.15l-.38.68zM515.12 44.49l.14 2.49h-.43a2.1 2.1 0 0 0-.56-1.56 2.56 2.56 0 0 0-1.65-.42h-.85a.88.88 0 0 0-.28 0 .9.9 0 0 0-.21.08.3.3 0 0 0-.16.12.32.32 0 0 0-.05.18V53a1.92 1.92 0 0 0 .33 1.3 2.15 2.15 0 0 0 1.45.4v.37h-5.2v-.37a2.12 2.12 0 0 0 1.44-.4 1.92 1.92 0 0 0 .33-1.3v-7.57a.42.42 0 0 0-.08-.26.52.52 0 0 0-.3-.12 2.88 2.88 0 0 0-.35 0h-.61a7.21 7.21 0 0 0-1.06 0 2.13 2.13 0 0 0-.7.23 1 1 0 0 0-.5.59 3.85 3.85 0 0 0-.16 1.11h-.36v-2.49zM523.92 49.88l3.39 3.89a3.61 3.61 0 0 0 .7.66 2.46 2.46 0 0 0 .87.28v.37H526.24l-.75-.93-2.66-3.29c0-.06-.11-.14-.21-.26a1.18 1.18 0 0 0-.18-.21l-.14-.11a.41.41 0 0 0-.19-.09h-.59V52a9.62 9.62 0 0 0 .14 2.13 1 1 0 0 0 .2.32.7.7 0 0 0 .38.16 2.24 2.24 0 0 0 .37.05h.39v.37h-4.65v-.37a4.45 4.45 0 0 0 .56 0 1.14 1.14 0 0 0 .46-.14.64.64 0 0 0 .34-.38 9.62 9.62 0 0 0 .14-2.13v-4.48a9.62 9.62 0 0 0-.14-2.13.8.8 0 0 0-.2-.32.71.71 0 0 0-.37-.17h-.79v-.37h4.75a7.87 7.87 0 0 1 1.36.1 4.32 4.32 0 0 1 1.15.38 2 2 0 0 1 .85.81 2.78 2.78 0 0 1 .31 1.35 2.43 2.43 0 0 1-.82 1.93 3.61 3.61 0 0 1-2.03.77zm-2.4-4.34v4.18h1.14a5.16 5.16 0 0 0 .92-.14 1.68 1.68 0 0 0 .77-.36 1.87 1.87 0 0 0 .44-.7 3.17 3.17 0 0 0 .18-1.14 2.46 2.46 0 0 0-.59-1.74 2.08 2.08 0 0 0-1.64-.66h-1s-.22.23-.22.56zM532.94 52v-4.47a8.1 8.1 0 0 0-.16-2.13.69.69 0 0 0-.49-.45 3.55 3.55 0 0 0-.88-.09v-.37h4.72v.37h-.56a1.37 1.37 0 0 0-.47.14.7.7 0 0 0-.35.39 8.1 8.1 0 0 0-.16 2.13V52a8.1 8.1 0 0 0 .16 2.13.72.72 0 0 0 .49.44 3.12 3.12 0 0 0 .89.1v.37h-4.72v-.37a4.45 4.45 0 0 0 .56 0 1.19 1.19 0 0 0 .46-.14.65.65 0 0 0 .35-.38 8.1 8.1 0 0 0 .16-2.15zM548.64 45.29l.25-.76h.24l.13 3.16h-.37a3.61 3.61 0 0 0-1.11-2.19 3.19 3.19 0 0 0-2.26-.84 3.39 3.39 0 0 0-1.79.47 3.27 3.27 0 0 0-1.16 1.26 7.28 7.28 0 0 0-.59 1.66 8.4 8.4 0 0 0-.19 1.85 8 8 0 0 0 .2 1.8 5.78 5.78 0 0 0 .62 1.59 3 3 0 0 0 1.16 1.17 3.63 3.63 0 0 0 1.78.43 3.46 3.46 0 0 0 1.42-.27 2.36 2.36 0 0 0 1-.78 5.18 5.18 0 0 0 .66-1.1 8.15 8.15 0 0 0 .45-1.37h.28v3.5h-.2l-.39-.82a6 6 0 0 1-7.49-.26 5.18 5.18 0 0 1-1.5-3.89 5.42 5.42 0 0 1 5.6-5.61 5.52 5.52 0 0 1 1.67.23 6.68 6.68 0 0 1 1.59.77zM562.48 44.49l.14 2.49h-.43a2.1 2.1 0 0 0-.56-1.56A2.56 2.56 0 0 0 560 45h-.85a.88.88 0 0 0-.28 0 .9.9 0 0 0-.21.08.3.3 0 0 0-.16.12.32.32 0 0 0-.05.18V53a1.92 1.92 0 0 0 .33 1.3 2.15 2.15 0 0 0 1.45.4v.37h-5.2v-.37a2.12 2.12 0 0 0 1.44-.4 1.92 1.92 0 0 0 .33-1.3v-7.57a.37.37 0 0 0-.09-.26.46.46 0 0 0-.29-.12 2.88 2.88 0 0 0-.35 0h-.61a7.21 7.21 0 0 0-1.06 0 2.13 2.13 0 0 0-.7.23 1 1 0 0 0-.5.59A3.85 3.85 0 0 0 553 47h-.37v-2.51z"/></svg>