<svg xmlns="http://www.w3.org/2000/svg" xmlns:xlink="http://www.w3.org/1999/xlink" width="188" height="41" viewBox="0 0 188 41">
    <defs>
        <path id="a" d="M.487.386H7V8.06H.487z"/>
        <path id="c" d="M0 .327h32.652V40H0z"/>
    </defs>
    <g fill="none" fill-rule="evenodd">
        <path fill="#116A66" d="M54.91 14.394c-1.326.365-2.166.515-3.1.515-2.965 0-5.05-1.937-5.05-4.66 0-1.961 1.232-3.75 3.005-4.332a6.646 6.646 0 0 1 2.004-.297c.827 0 1.328.094 2.207.406v-.501h.746v2.41h-.746V6.907c-.69-.367-1.232-.515-2.03-.515-1.842 0-3.277 1.692-3.277 3.858 0 2.099 1.57 3.846 3.452 3.846.38 0 .569-.041 1.043-.19V11.66H52v-.57h3.927v.57H54.91v2.735zM69.534 10.896h.658c.77 0 1.294-.613 1.294-1.494 0-.893-.458-1.405-1.249-1.405h-.703v2.899zm4.54 3.837h-1.417c-.658 0-.77-.067-1.149-.658l-1.673-2.621h-.3v2.81h.835v.469h-3.123v-.47h.848V7.84h-.848v-.468h3.29c.96 0 1.495.145 1.896.546.37.369.547.848.547 1.439 0 1.004-.513 1.65-1.56 1.974l1.582 2.43c.257.392.391.492.614.492h.457v.48zM86.71 14.241c1.126 0 2.119-1.494 2.119-3.189 0-1.685-.993-3.179-2.12-3.179-1.114 0-2.107 1.494-2.107 3.18 0 1.694.993 3.188 2.108 3.188m0 .636c-2.052 0-3.681-1.696-3.681-3.825 0-2.13 1.629-3.815 3.68-3.815 2.053 0 3.692 1.685 3.692 3.815s-1.64 3.825-3.691 3.825M101.007 14.832h-.613v-2.007h.613v.825c.502.402.881.546 1.428.546.691 0 1.194-.412 1.194-.992 0-.502-.324-.858-1.362-1.528-1.093-.692-1.225-.803-1.516-1.137-.279-.324-.424-.769-.424-1.26 0-1.227.904-2.042 2.264-2.042.436 0 .782.068 1.205.245v-.334h.602v1.908h-.602v-.77c-.469-.302-.77-.413-1.183-.413-.58 0-1.025.413-1.025.937 0 .446.256.725 1.327 1.405.512.335.836.536.959.625.257.18.49.424.68.724.212.346.313.714.313 1.15 0 1.27-.927 2.163-2.232 2.163-.647 0-1.115-.134-1.628-.435v.39zM115.852 14.832h-.613v-2.007h.613v.825c.502.402.881.546 1.427.546.692 0 1.194-.412 1.194-.992 0-.502-.324-.858-1.36-1.528-1.094-.692-1.228-.803-1.518-1.137-.279-.324-.423-.769-.423-1.26 0-1.227.903-2.042 2.263-2.042.436 0 .781.068 1.205.245v-.334h.602v1.908h-.602v-.77c-.468-.302-.769-.413-1.182-.413-.58 0-1.026.413-1.026.937 0 .446.256.725 1.327 1.405.513.335.837.536.96.625.256.18.49.424.68.724.211.346.312.714.312 1.15 0 1.27-.926 2.163-2.23 2.163-.648 0-1.116-.134-1.629-.435v.39zM138.693 14.733h-3.312v-.47h.937V9.447l-2.454 5.398-2.688-5.298v4.718h.937v.469h-2.576v-.47h.937V7.84h-.937v-.468h1.974l2.643 5.186 2.331-5.186h2.208v.468h-.937v6.424h.937zM151.887 14.241c1.126 0 2.119-1.494 2.119-3.189 0-1.685-.993-3.179-2.12-3.179-1.114 0-2.107 1.494-2.107 3.18 0 1.694.993 3.188 2.108 3.188m0 .636c-2.052 0-3.68-1.696-3.68-3.825 0-2.13 1.628-3.815 3.68-3.815 2.052 0 3.692 1.685 3.692 3.815s-1.64 3.825-3.692 3.825M171.505 14.855h-.781l-3.881-5.465v4.874h.881v.469h-2.52v-.47h.925V8.41l-.357-.57h-.803v-.467h2.22l3.613 5.14V7.84h-.881v-.468h2.521v.468h-.937z"/>
        <g transform="translate(181 6.673)">
            <mask id="b" fill="#fff">
                <use xlink:href="#a"/>
            </mask>
            <path fill="#116A66" d="M5.54 8.06H1.947v-.47H3.03V1.358H1.1v.926H.487V.386H1.1v.313h5.287V.386H7v1.897h-.613v-.926H4.468V7.59H5.54z" mask="url(#b)"/>
        </g>
        <path fill="#116A66" d="M73.75 32.5c-1.166.424-1.893.575-2.934.575-2.893 0-4.949-1.946-4.949-4.675 0-2.7 2.056-4.714 4.812-4.714.891 0 1.508.123 2.302.465v-.575h.754v2.453h-.754v-.877c-.78-.549-1.219-.699-1.946-.699-1.905 0-3.235 1.59-3.235 3.865 0 2.221 1.467 3.95 3.358 3.95.686 0 1.18-.153 1.823-.55v-1.042h.768V32.5zM88.95 32.404c1.13 0 2.128-1.5 2.128-3.203 0-1.692-.997-3.192-2.128-3.192-1.12 0-2.117 1.5-2.117 3.192 0 1.703.997 3.203 2.117 3.203m0 .638c-2.061 0-3.696-1.702-3.696-3.84 0-2.14 1.635-3.832 3.696-3.832 2.06 0 3.707 1.691 3.707 3.831 0 2.14-1.646 3.841-3.707 3.841M107.407 32.897h-5.287v-.47h.852v-6.451h-.852v-.471h3.137v.47h-.84v6.262h2.385v-.83h.605zM121.81 32.897h-5.287v-.47h.85v-6.451h-.85v-.471h3.137v.47h-.841v6.262h2.386v-.83h.605zM136.257 32.897h-5.331v-.47h.851v-6.451h-.851v-.471h4.614v-.313h.605v1.78h-.594v-.805h-2.329v2.642h1.792v-.762l.605-.01v2.206l-.605.01v-.783h-1.792v2.767h2.431v-.83h.604zM152.542 32.617c-1.098.302-1.792.425-2.565.425-2.453 0-4.178-1.602-4.178-3.853 0-1.624 1.02-3.102 2.487-3.584a5.506 5.506 0 0 1 1.657-.246c.683 0 1.098.078 1.826.336v-.415h.616v1.994h-.616v-.85c-.571-.303-1.02-.427-1.68-.427-1.523 0-2.71 1.4-2.71 3.192 0 1.737 1.299 3.181 2.856 3.181.313 0 .47-.033.862-.156v-1.86h-.963v-.47h3.248v.47h-.84v2.263zM168.02 32.897h-5.332v-.47h.852v-6.451h-.852v-.471h4.615v-.313h.605v1.78h-.594v-.805h-2.33v2.642h1.793v-.762l.604-.01v2.206l-.604.01v-.783h-1.792v2.767h2.43v-.83h.605z"/>
        <g transform="translate(0 .673)">
            <mask id="d" fill="#fff">
                <use xlink:href="#c"/>
            </mask>
            <path fill="#116A66" d="M2.452 24.29V2.777h26.467L2.452 24.29zM0 .326v26.467L16.169 40l16.483-13.206V.327H0z" mask="url(#d)"/>
        </g>
        <path fill="#FEFEFE" d="M17.159 18.075c-.121-.009-.218-.02-.212-.105.005-.086.104-.084.225-.075.12.01.217.034.212.106-.004.07-.104.084-.225.074m11.27 7.03c-.12-.19-.421-.194-.48-.193-.008 0-.016-.002-.021-.008-.054-.052-.223-.32-.397-.644-.167-.313-.386-1.006-.432-1.154a.028.028 0 0 0-.036-.019c-.108.03-.507.138-.75.138-.246 0-.63-.056-.721-.07a.03.03 0 0 1-.024-.023c-.338-1.513-1.29-2.36-2.608-2.512-1.124-.13-2.057.272-2.312.396a.03.03 0 0 1-.041-.039c.094-.205.306-.405.698-.53.454-.147 1.013-.054 1.467-.314a.803.803 0 0 0 .396-.594c.003-.024-.02-.04-.041-.032-.885.325-1.595-.064-1.712-.12-.075-.037-.1-.13.018-.124.046.003.059.004.087.004.122 0 .376.012.887-.002 1.374-.036 1.432-.984 1.43-1.177a.03.03 0 0 0-.035-.029c-.65.118-1.438-.037-1.652-.147-.095-.05-.103-.112-.032-.129.443-.107 1.737.16 3.217-.214 1.284-.323 1.967-1.05 2.212-1.366.02-.026-.011-.062-.04-.044-.595.368-1.864.525-2.597.52-.996-.01-2.64-.413-4.04-.454-.48-.014-.884.098-1.211.355-.328.258-.53.94-.53 1.581 0 .642.196 1.29.21 1.476.013.19.02.718-.251.718-.272 0-.363-.222-.355-.556.007-.335.139-.293.153-1.157.014-.864-.611-1.429-1.47-1.435-.864-.005-.98.451-.993.566-.003.016-.016.027-.032.025-.116-.01-.544-.06-.835.217-.493.473-.144 1.174-.126 1.21h.002c.139-.346.348-.47.549-.486.405-.027.328.28.112.328a.61.61 0 0 1-.318.003c-.005-.002-.011.002-.012.008-.047.315.205.544.262.593a.024.024 0 0 1 .01.025c-.034.138-.48.422-.52 1.635-.036 1.064.585 1.518.779 1.634.02.011.048-.005.045-.03a7.612 7.612 0 0 1-.004-.622c0-.026.032-.04.05-.022.097.088.256.333.279.67.028.403-.153.87-.314 1.121-.16.251-.403.452-.682.821-.228.302-.221.73-.211.875 0 .023-.022.037-.043.027a1.72 1.72 0 0 0-.7-.163c-.467-.02-1.026.18-1.026.665 0 .393.279.598.412.673.023.014.05-.008.044-.034-.034-.129-.042-.34.006-.409.076-.108.185-.105.254-.105.295 0 .355.313.998.325.6.01.935-.443.969-.485.035-.042.044.03.044.03.088.165-.03.442-.098.578-.013.026.015.053.04.04.098-.05.26-.148.387-.294.193-.225.188-.449.183-.727-.005-.276-.033-.73-.033-.73.007-.14.292-.25.585-.502a.923.923 0 0 0 .31-.548c.002-.019.02-.029.038-.023.115.04.467.215.689.215.196 0 .802.084 1.644-.647.843-.732 1.7-1.345 2.515-1.379.815-.035 1.142.47 1.358.95.168.374.173 1.01.168 1.271-.001.03.036.043.054.02.097-.127.34-.33.906-.353.975-.04 1.378.506 1.478.675.013.021-.004.046-.028.045-1.058-.06-1.22.497-1.222.78a.818.818 0 0 0 .427.746c.033.018.069-.02.048-.053-.188-.283-.047-.556.356-.592.46-.042.543.21 1.073.196.529-.015.698-.272.724-.305.026-.034.042.012.042.012a.754.754 0 0 1 .108.447.037.037 0 0 0 .066.025c.109-.134.269-.384.289-.54a.733.733 0 0 0-.092-.504"/>
        <path fill="#FEFEFE" d="M23.66 20.451a.028.028 0 0 0 .022.035c.128.023.65.13.967.388.35.287.506.472.569.603a.027.027 0 0 0 .02.016c.135.018 1.164.121 1.177-.796.014-.982-1.595-1.18-1.591-1.773.003-.592.518-.58.745-.435 0 0-.185.188-.185.432 0 .2.12.361.185.425.013.014.037.01.045-.009a.567.567 0 0 1 .599-.354c.43.037.796.46.875.828.007.03.048.03.054 0 .06-.287.12-.954-.431-1.505-.724-.723-1.677-.554-2.032-.31-.355.244-.452.512-.457.88-.011.763.925 1.187 1.009 1.27.083.084-.021.063-.097.035-.077-.028-.28-.118-.641-.126-.353-.006-.745.053-.833.396M19.414 26.725c.01.029-.02.055-.049.042-.167-.08-.546-.313-.508-.825.05-.654.547-.794 1.146-.794.6 0 .868.02 1.028-.307.13-.262-.077-.37-.085-.847-.008-.476.551-1.173 1.144-1.317.655-.16.898-.03.898-.03s.266.092.097.188c-.24.139-.423.339-.423.58 0 .414.674.59.674 1.043 0 .454-.41.48-.815.495-.404.014-.543.188-.564.313-.02.126.32.313.292.696-.024.346-.337.562-.582.657a.035.035 0 0 1-.046-.045c.035-.1.076-.305.014-.64 0 0-.028-.144-.115.015-.066.12-.287.422-.685.416-.397-.007-.647-.29-1.093-.242-.396.043-.396.389-.328.602M15.249 22.022a.028.028 0 0 1 .038.02c.023.11.114.472.397.807.339.402.6.449.6.546-.001.184-.166.412-.493.413-.37 0-.5-.208-.708-.345-.211-.137-.436-.198-.48-.104 0 0-.08.447-.55.544-.02.004-.036-.014-.033-.033.015-.077.042-.248.018-.337-.004-.015-.018-.024-.032-.021-.09.015-.434.056-.647-.161-.245-.251-.256-.502-.501-.695-.246-.193-.387-.241-.547-.225-.146.017-.27.143-.287.404a.027.027 0 0 1-.05.014.867.867 0 0 1-.151-.508c.01-.344.237-.824.715-.807.703.023.89.56 1.709.64.274.027.793-.06 1.002-.152"/>
        <path fill="#116A66" d="M13.22 14.678c-1.403.387-2.292.545-3.28.545-3.136 0-5.342-2.048-5.342-4.927 0-2.077 1.304-3.968 3.18-4.583a6.99 6.99 0 0 1 2.12-.315c.873 0 1.403.1 2.334.429v-.53h.787v2.55h-.787v-1.09c-.73-.386-1.304-.543-2.149-.543-1.947 0-3.466 1.79-3.466 4.082 0 2.22 1.662 4.068 3.653 4.068.401 0 .601-.043 1.102-.202v-2.377h-1.23v-.601h4.152v.6H13.22v2.894z"/>
    </g>
</svg>
