<?xml version="1.0" encoding="utf-8"?>
<!-- Generator: Adobe Illustrator 16.0.3, SVG Export Plug-In . SVG Version: 6.00 Build 0)  -->
<!DOCTYPE svg PUBLIC "-//W3C//DTD SVG 1.1//EN" "http://www.w3.org/Graphics/SVG/1.1/DTD/svg11.dtd">
<svg version="1.1" id="Layer_1" xmlns="http://www.w3.org/2000/svg" xmlns:xlink="http://www.w3.org/1999/xlink" x="0px" y="0px"
	 width="2028px" height="405.494px" viewBox="0 0 2028 405.494" enable-background="new 0 0 2028 405.494" xml:space="preserve">
<polygon fill="#FFFFFF" points="352.763,79.381 352.763,44.652 352.763,35.908 344.021,35.908 47.087,35.908 38.345,35.908 
	38.345,44.652 38.345,326.941 38.345,335.686 47.087,335.686 84.798,335.686 84.798,369.191 84.798,377.936 93.538,377.936 
	389.192,377.936 397.937,377.936 397.937,369.191 397.937,88.123 397.937,79.381 389.192,79.381 "/>
<g>
	<defs>
		<rect id="SVGID_1_" x="29.638" y="25.543" width="1968.564" height="360.658"/>
	</defs>
	<clipPath id="SVGID_2_">
		<use xlink:href="#SVGID_1_"  overflow="visible"/>
	</clipPath>
	<path clip-path="url(#SVGID_2_)" fill="#FFFFFF" d="M447.579,92.633c1.305,0,3.723,0.176,5.766,0.74
		c4.088,0.939,5.953,4.086,6.322,10.416c0.379,5.951,0.379,11.145,0.379,40.17v32.703c0,17.85,0,32.553-0.938,40.361
		c-0.736,5.387-1.676,9.473-5.391,10.227c-1.672,0.363-3.9,0.73-5.574,0.73c-1.123,0-1.496,0.574-1.496,1.121
		c0,1.117,0.932,1.494,2.982,1.494c5.572,0,17.289-0.564,18.223-0.564c0.92,0,12.641,0.564,22.867,0.564
		c2.037,0,2.973-0.564,2.973-1.494c0-0.547-0.365-1.121-1.488-1.121c-1.672,0-5.768-0.367-8.367-0.73
		c-5.578-0.754-6.691-4.84-7.25-10.227c-0.932-7.809-0.932-22.512-0.932-40.361v-32.703c0-29.025,0-34.219,0.377-40.17
		c0.371-6.506,1.855-9.666,6.869-10.592c2.238-0.389,3.35-0.564,4.658-0.564c0.74,0,1.484-0.363,1.484-1.127
		c0-1.117-0.928-1.48-2.975-1.48c-5.576,0-17.297,0.553-18.217,0.553c-0.934,0-12.65-0.553-18.781-0.553
		c-2.051,0-2.977,0.363-2.977,1.48C446.095,92.27,446.841,92.633,447.579,92.633"/>
	<path clip-path="url(#SVGID_2_)" fill="#FFFFFF" d="M614.751,227.426c4.094,2.23,8.182,3.17,17.479,3.17h10.227
		c2.975,0,3.9-0.377,3.9-1.316c0-0.537-0.555-1.299-1.479-1.299c-0.936,0-2.611,0-5.773-0.555
		c-4.08-0.563-9.473-2.057-18.215-10.967c-9.486-9.852-20.82-24.166-34.207-40.9c15.244-13.01,20.074-24.367,20.074-36.074
		c0-10.967-7.248-18.598-11.344-21.57c-8.555-5.955-20.084-6.881-30.494-6.881c-5.014,0-18.777,0.375-20.443,0.375
		c-0.934,0-11.9-0.375-19.334-0.375c-1.865,0-2.607,0.375-2.607,1.293c0,0.564,0.742,1.326,1.299,1.326
		c1.49,0,4.279,0.164,5.576,0.365c5.396,0.74,6.324,3.344,6.691,8.723c0.377,5.027,0.377,9.477,0.377,34.043v27.889
		c0,15.227,0,27.699-0.932,34.203c-0.74,4.652-1.109,7.621-4.273,8.375c-1.488,0.363-3.537,0.73-5.023,0.73
		c-0.926,0-1.299,0.762-1.299,1.299c0,0.939,0.932,1.316,2.604,1.316c5.021,0,15.988-0.564,16.172-0.564
		c0.75,0,11.164,0.564,20.082,0.564c1.854,0,2.611-0.564,2.611-1.316c0-0.537-0.193-1.299-1.303-1.299
		c-1.492,0-5.029-0.367-7.26-0.73c-5.023-0.754-5.949-3.723-6.508-8.375c-0.734-6.504-0.734-18.773-0.734-34.018v-3.721
		c0-0.926,0.373-1.314,1.113-1.314l20.822,0.389c1.117,0,1.482,0.176,2.229,0.926c3.533,4.273,10.791,14.49,17.662,23.051
		C601.739,216.082,607.687,223.703,614.751,227.426 M582.032,171.836c-3.902,2.607-8.365,2.793-12.273,2.793
		c-7.25,0-15.621-1.113-18.031-2.43c-0.74-0.539-1.113-1.115-1.113-2.043v-50.764c0-0.914,0.551-1.479,1.293-1.842
		c1.676-0.377,6.879-0.939,11.717-0.939c17.469,0,28.258,11.344,28.258,31.047C591.882,159.754,587.603,168.102,582.032,171.836"/>
	<path clip-path="url(#SVGID_2_)" fill="#FFFFFF" d="M750.7,111.033c-4.834,0-11.895,0.375-12.824,0.375
		c-2.047,0-9.48-0.375-15.99-0.375c-2.604,0-3.723,0.375-3.723,1.293c0,0.762,0.93,1.326,1.865,1.326c1.857,0,3.717,0,5.572,0.553
		c1.67,0.549,2.234,2.018,2.234,3.346c0,1.291-0.748,3.523-1.486,5.941c-3.541,11.344-24.92,65.275-34.398,86.461l-30.863-79.578
		c-2.414-6.32-4.465-11.158-4.465-13.199c0-1.117,0.182-2.033,1.857-2.805c1.488-0.555,4.098-0.719,5.947-0.719
		c1.125,0,1.68-0.762,1.68-1.504c0-0.74-1.48-1.115-4.465-1.115c-6.328,0-13.574,0.375-15.246,0.375
		c-2.043,0-11.346-0.375-19.154-0.375c-2.605,0-4.277,0.188-4.277,1.115c0,0.553,0.379,1.504,1.307,1.504
		c0.932,0,3.713,0,6.322,0.553c5.383,1.289,7.625,2.971,11.34,11.908l40.158,96.85c3.166,7.633,4.279,9.678,6.135,9.678
		c1.676,0,2.604-2.422,7.068-11.906c3.717-7.811,10.973-24.922,21.016-47.971c8.365-19.326,16.355-38.303,18.219-42.754
		c4.277-10.793,6.883-13.023,9.113-14.516c2.971-1.842,6.688-1.842,7.807-1.842c1.295,0,1.859-0.762,1.859-1.504
		C753.308,111.408,752.374,111.033,750.7,111.033"/>
	<path clip-path="url(#SVGID_2_)" fill="#FFFFFF" d="M804.104,230.596c1.848,0,2.604-0.564,2.604-1.316
		c0-0.537-0.375-1.299-1.297-1.299c-1.5,0-5.018-0.367-7.449-0.73c-4.834-0.754-5.391-3.723-5.945-8.375
		c-0.738-6.504-0.738-18.975-0.738-34.203v-27.889c0-24.566,0-29.016,0.18-34.043c0.375-5.564,1.299-7.809,5.768-8.725
		c1.855-0.363,2.969-0.363,4.084-0.363c0.564,0,1.309-0.762,1.309-1.328c0-0.916-0.744-1.289-2.607-1.289
		c-5.02,0-15.615,0.373-16.355,0.373c-0.939,0-11.158-0.373-16.551-0.373c-1.865,0-2.604,0.373-2.604,1.289
		c0,0.566,0.555,1.328,1.295,1.328c1.127,0,3.168,0.164,5.033,0.553c3.521,0.727,4.822,3.156,5.199,8.535
		c0.369,5.027,0.369,9.477,0.369,34.043v27.889c0,15.229-0.182,27.699-0.932,34.203c-0.555,4.652-1.115,7.621-4.271,8.375
		c-1.5,0.363-3.535,0.73-5.018,0.73c-0.938,0-1.303,0.762-1.303,1.299c0,0.939,0.922,1.316,2.6,1.316
		c5.023,0,15.242-0.564,16.182-0.564C784.396,230.031,794.991,230.596,804.104,230.596"/>
	<path clip-path="url(#SVGID_2_)" fill="#FFFFFF" d="M933.903,222.033c9.096,8.363,10.785,9.668,12.441,9.668
		c1.117,0,1.299-0.939,1.299-11.332l0.381-92.602c0-9.479,0.395-12.623,5.77-13.752c1.857-0.363,3.168-0.363,3.9-0.363
		c1.117,0,1.861-0.951,1.861-1.504c0-0.928-1.311-1.113-2.977-1.113c-6.682,0-12.076,0.373-13.949,0.373
		c-1.846,0-9.652-0.373-17.1-0.373c-1.857,0-3.156,0.186-3.156,1.113c0,0.553,0.186,1.504,1.299,1.504
		c1.32,0,5.023,0.166,8.006,0.715c5.004,0.941,5.943,4.475,6.125,14.715l1.678,79.191c-5.031-5.203-22.498-23.979-38.674-40.725
		c-25.289-26.01-49.094-51.324-51.691-53.896c-1.67-1.691-4.463-4.861-6.316-4.861c-1.307,0-2.236,1.689-2.236,7.996v90.559
		c0,14.313-0.555,18.588-4.639,19.715c-2.428,0.742-5.408,0.92-6.699,0.92c-0.744,0-1.309,0.574-1.309,1.299
		c0,1.117,0.941,1.316,2.6,1.316c7.449,0,14.332-0.564,15.813-0.564s7.992,0.564,17.287,0.564c1.865,0,2.977-0.377,2.977-1.316
		c0-0.725-0.555-1.299-1.297-1.299c-1.506,0-5.221-0.178-8.18-0.92c-4.467-1.127-5.959-5.027-6.318-18.035l-1.871-74.566
		c5.027,5.59,23.43,24.918,42.395,44.811C908.616,197.305,932.243,220.557,933.903,222.033"/>
	<path clip-path="url(#SVGID_2_)" fill="#FFFFFF" d="M1052.761,226.863c0.922-3.336,2.232-14.117,2.232-15.244
		c0-1.117-0.172-2.404-1.125-2.404c-0.936,0-1.297,0.551-1.666,2.404c-0.932,6.316-3.154,9.115-7.42,10.967
		c-4.303,1.682-12.117,1.682-16.373,1.682c-16.189,0-19.172-2.041-19.535-12.648c-0.188-3.16,0-21.568,0-26.947v-13.213
		c0-0.564,0.207-1.113,1.139-1.113c2.771,0,20.246,0.188,24.707,0.738c6.336,0.752,7.809,2.609,8.373,4.838
		c0.744,2.045,0.744,3.725,0.744,5.215c0,0.926,0.365,1.48,1.115,1.48c1.117,0,1.492-1.668,1.492-2.971
		c0-1.129,0.369-7.07,0.748-10.242c0.352-5.203,1.279-7.795,1.279-8.725c0-0.926-0.354-1.305-0.928-1.305
		c-0.535,0-1.301,0.92-2.396,2.047c-1.674,1.678-4.092,1.854-8.02,2.23c-3.709,0.377-25.273,0.377-27.314,0.377
		c-0.939,0-0.939-0.568-0.939-1.68v-42.957c0-1.102,0.207-1.666,0.939-1.666c1.855,0,20.824,0.188,23.605,0.564
		c8.918,1.102,10.59,2.23,11.729,4.836c0.744,1.857,0.922,4.451,0.922,5.568c0,1.314,0.375,2.053,1.305,2.053
		c0.744,0,1.283-0.938,1.477-1.666c0.365-1.867,0.748-8.938,0.936-10.428c0.357-4.449,1.303-6.328,1.303-7.434
		c0-0.74-0.199-1.479-0.744-1.479c-0.746,0-1.494,0.551-2.227,0.738c-1.305,0.189-4.281,0.74-7.461,0.93
		c-3.689,0.188-37.906,0-39.035,0c-0.926,0-11.541-0.377-18.963-0.377c-1.863,0-2.607,0.377-2.607,1.293
		c0,0.564,0.744,1.326,1.287,1.326c1.49,0,4.279,0.164,5.582,0.365c5.41,0.74,6.354,3.344,6.719,8.723
		c0.363,5.027,0.363,9.477,0.363,34.043v27.889c0,15.227,0,27.699-0.922,34.203c-0.75,4.652-1.127,7.799-4.297,8.375
		c-1.48,0.176-3.523,0.73-5.01,0.73c-0.945,0-1.328,0.762-1.328,1.299c0,0.939,0.957,1.316,2.639,1.316
		c2.59,0,6.316-0.199,9.482-0.377c3.512-0.188,6.693-0.188,7.055-0.188c2.432,0,6.711,0,13.568,0.365
		c6.705,0.199,16.207,0.564,28.453,0.564C1049.962,230.961,1051.634,230.961,1052.761,226.863"/>
	<path clip-path="url(#SVGID_2_)" fill="#FFFFFF" d="M1195.171,233.189c1.85,0,2.609-2.971,7.83-14.127
		c4.262-9.086,12.629-29.164,23.973-56.291c9.447-22.852,18.746-45.148,20.799-50.363c5.006-12.635,7.795-15.781,10.213-17.463
		c3.547-2.23,7.604-2.23,8.914-2.23c1.492,0,2.207-0.375,2.207-1.291c0-0.939-1.109-1.305-3.135-1.305
		c-5.379,0-13.381,0.553-14.49,0.553c-2.248,0-10.77-0.553-18.195-0.553c-3.002,0-4.098,0.365-4.098,1.48
		c0,0.93,0.926,1.115,2.035,1.115c2.063,0,4.848,0,7.068,0.74c1.846,0.926,2.42,2.805,2.42,4.273c0,1.68-0.732,4.273-1.67,7.07
		c-4.111,13.373-28.988,78.227-39.775,103.123l-35.678-95.139c-2.777-7.244-5.014-13.01-5.014-15.432
		c0-1.289,0.381-2.77,2.422-3.709c1.676-0.74,5.021-0.928,7.053-0.928c1.303,0,1.865-0.375,1.865-1.291
		c0-0.939-1.67-1.305-5.006-1.305c-7.082,0-15.447,0.553-17.303,0.553c-2.227,0-12.805-0.553-21.729-0.553
		c-2.988,0-4.832,0.176-4.832,1.305c0,0.752,0.369,1.291,1.48,1.291c1.127,0,4.273,0,7.061,0.74
		c6.494,1.867,9.275,3.896,13.377,14.303l45.543,113.916C1192.034,230.596,1192.95,233.189,1195.171,233.189"/>
	<path clip-path="url(#SVGID_2_)" fill="#FFFFFF" d="M1370.614,229.279c0-0.924-1.139-1.289-2.064-1.289
		c-1.676,0-4.088-0.188-6.508-0.93c-3.523-1.127-7.967-3.158-13.932-17.271c-10.029-23.98-36.227-89.197-39.195-95.891
		c-1.689-3.521-2.232-5.752-3.9-5.752c-1.109,0-1.871,0.938-3.895,6.129l-38.492,98.848c-3.15,7.998-6.291,13.551-13.729,14.502
		c-1.299,0.178-3.707,0.365-4.834,0.365c-0.746,0-1.498,0.564-1.498,1.289c0,0.939,1.117,1.316,3.152,1.316
		c6.723,0,14.873-0.564,16.576-0.564c1.855,0,10.736,0.564,14.654,0.564c1.473,0,2.391-0.377,2.391-1.316
		c0-0.725-0.355-1.289-1.645-1.289h-1.492c-2.773,0-5.566-1.127-5.566-4.275c0-2.793,0.934-6.691,2.395-10.592l9.322-25.271
		c0.352-0.926,0.902-1.303,1.664-1.303h37.721c0.916,0,1.113,0.189,1.475,0.941l14.686,36.225c1.117,2.594-0.559,3.91-1.504,4.275
		c-0.73,0.365-1.096,0.365-1.096,1.117c0,0.924,2.6,0.924,5.752,1.111c11.352,0.377,23.41,0.377,25.822,0.377
		C1368.729,230.596,1370.614,230.219,1370.614,229.279 M1319.323,180.057h-33.096c-0.564,0-0.734-0.363-0.564-1.129l15.254-43.281
		c0.924-2.406,1.869-2.406,2.775,0l16.166,43.281C1320.069,179.693,1320.069,180.057,1319.323,180.057"/>
	<path clip-path="url(#SVGID_2_)" fill="#FFFFFF" d="M1456.265,208.473c-0.932,0-1.484,0.939-1.678,2.057
		c-0.555,3.158-1.855,6.494-3.885,8.91c-3.914,4.65-11.182,4.828-19.682,4.828c-12.855,0-19.172-1.105-21.791-3.711
		c-2.939-2.783-3.314-12.271-3.314-35.498v-28.242c0-24.506,0-28.98,0.184-33.992c0.355-5.58,1.301-7.986,6.113-8.926
		c1.873-0.188,4.283-0.363,5.422-0.363c0.531,0,1.268-0.564,1.268-1.129c0-0.914-0.916-1.303-2.592-1.303
		c-5.014,0-17.285,0.389-18.033,0.389c-0.916,0-11.133-0.389-18.584-0.389c-1.824,0-2.574,0.389-2.574,1.303
		c0,0.564,0.75,1.305,1.293,1.305c1.484,0,4.281,0.188,5.578,0.375c5.367,0.752,6.305,3.348,6.686,8.738
		c0.365,5.012,0.365,9.486,0.365,33.992v27.877c0,15.23,0,27.689-0.926,34.182c-0.758,4.652-1.088,7.621-4.295,8.375
		c-1.461,0.375-3.51,0.74-4.971,0.74c-0.953,0-1.32,0.752-1.32,1.295c0,0.934,0.932,1.311,2.588,1.311
		c2.6,0,6.139-0.199,9.488-0.377c3.139-0.188,5.93-0.188,6.672-0.188c4.871,0,10.432,0.188,17.848,0.365
		c7.613,0.365,16.744,0.564,28.439,0.564c8.73,0,9.287-0.564,10.385-4.287c1.316-4.641,2.428-14.115,2.428-15.779
		C1457.376,209.211,1457.003,208.473,1456.265,208.473"/>
	<path clip-path="url(#SVGID_2_)" fill="#FFFFFF" d="M1554.55,208.473c-0.918,0-1.475,0.939-1.646,2.057
		c-0.574,3.158-1.871,6.494-3.914,8.91c-3.898,4.65-11.143,4.828-19.705,4.828c-12.799,0-19.129-1.105-21.748-3.711
		c-2.975-2.783-3.32-12.271-3.32-35.498v-28.242c0-24.506,0-28.98,0.168-33.992c0.365-5.58,1.322-7.986,6.137-8.926
		c1.838-0.188,4.281-0.363,5.391-0.363c0.574,0,1.316-0.564,1.316-1.129c0-0.914-0.934-1.303-2.613-1.303
		c-5.049,0-17.299,0.389-18.002,0.389c-0.939,0-11.18-0.389-18.613-0.389c-1.855,0-2.584,0.389-2.584,1.303
		c0,0.564,0.729,1.305,1.305,1.305c1.467,0,4.254,0.188,5.561,0.375c5.389,0.752,6.324,3.348,6.67,8.738
		c0.381,5.012,0.381,9.486,0.381,33.992v27.877c0,15.23,0,27.689-0.916,34.182c-0.746,4.652-1.107,7.621-4.279,8.375
		c-1.49,0.375-3.541,0.74-5.01,0.74c-0.939,0-1.297,0.752-1.297,1.295c0,0.934,0.936,1.311,2.598,1.311
		c2.6,0,6.115-0.199,9.473-0.377c3.154-0.188,5.947-0.188,6.713-0.188c4.814,0,10.371,0.188,17.805,0.365
		c7.631,0.365,16.723,0.564,28.42,0.564c8.748,0,9.281-0.564,10.408-4.287c1.305-4.641,2.43-14.115,2.43-15.779
		C1555.675,209.211,1555.313,208.473,1554.55,208.473"/>
	<path clip-path="url(#SVGID_2_)" fill="#FFFFFF" d="M1647.474,209.215c-0.938,0-1.279,0.574-1.66,2.414
		c-0.959,6.322-3.178,9.105-7.455,10.975c-4.26,1.664-12.074,1.664-16.336,1.664c-16.17,0-19.146-2.045-19.512-12.639
		c-0.193-3.156,0-21.543,0-26.936v-13.199c0-0.551,0.17-1.102,1.113-1.102c2.764,0,20.246,0.176,24.721,0.74
		c6.32,0.738,7.795,2.594,8.348,4.824c0.73,2.045,0.73,3.734,0.73,5.215c0,0.926,0.398,1.48,1.125,1.48
		c1.109,0,1.492-1.68,1.492-2.961c0-1.127,0.367-7.082,0.746-10.227c0.363-5.203,1.297-7.82,1.297-8.748
		c0-0.916-0.363-1.293-0.934-1.293c-0.576,0-1.301,0.928-2.43,2.045c-1.664,1.666-4.055,1.867-7.986,2.23
		c-3.709,0.363-25.279,0.363-27.307,0.363c-0.916,0-0.916-0.551-0.916-1.658v-42.939c0-1.092,0.17-1.656,0.916-1.656
		c1.855,0,20.809,0.176,23.598,0.564c8.926,1.092,10.592,2.219,11.695,4.814c0.764,1.854,0.938,4.461,0.938,5.578
		c0,1.293,0.383,2.043,1.32,2.043c0.742,0,1.277-0.941,1.469-1.678c0.383-1.846,0.746-8.916,0.938-10.406
		c0.381-4.449,1.318-6.316,1.318-7.434c0-0.74-0.211-1.48-0.764-1.48c-0.746,0-1.492,0.564-2.219,0.74
		c-1.313,0.191-4.297,0.74-7.451,0.941c-3.703,0.176-37.893,0-39,0c-0.936,0-11.539-0.387-18.979-0.387
		c-1.832,0-2.576,0.387-2.576,1.303c0,0.564,0.744,1.303,1.279,1.303c1.492,0,4.262,0.188,5.602,0.375
		c5.391,0.752,6.322,3.346,6.672,8.736c0.355,5.016,0.355,9.49,0.355,33.996v27.875c0,15.23,0,27.689-0.914,34.182
		c-0.723,4.652-1.113,7.799-4.264,8.375c-1.484,0.176-3.553,0.74-5.021,0.74c-0.938,0-1.303,0.752-1.303,1.289
		c0,0.939,0.916,1.316,2.584,1.316c2.594,0,6.322-0.199,9.494-0.377c3.533-0.188,6.686-0.188,7.07-0.188
		c2.428,0,6.668,0,13.564,0.365c6.709,0.199,16.164,0.564,28.418,0.564c6.307,0,8.004,0,9.113-4.098
		c0.916-3.336,2.221-14.117,2.221-15.234C1648.585,210.529,1648.388,209.215,1647.474,209.215"/>
	<path clip-path="url(#SVGID_2_)" fill="#FFFFFF" d="M1776.267,111.105c-3.193,0-14.883,0.387-15.996,0.387
		c-1.297,0-7.068-0.387-11.33-0.387c-1.686,0-2.602,0.387-2.602,0.939c0,0.736,0.916,1.49,2.406,1.854
		c1.857,0.578,2.602,1.855,2.602,4.086c0,2.043-0.744,4.641-2.787,8.186c-2.98,5.189-23.406,39.008-26.756,45.701l-29.748-49.246
		c-1.111-2.033-2.221-3.9-2.221-6.131c0-1.303,0.746-2.018,2.049-2.596c1.484-0.551,2.598-1.117,2.598-1.678
		c0-0.729-0.365-1.115-2.24-1.115c-6.307,0-12.992,0.387-14.121,0.387c-0.719,0-12.99-0.387-16.129-0.387
		c-1.482,0-2.061,0.387-2.061,1.115c0,0.75,0.746,1.49,1.662,1.49c1.322,0,4.453,0.766,6.9,2.23
		c2.943,2.043,6.859,5.578,10.756,11.52c5.559,8.359,27.711,43.482,28.992,45.879c2.426,4.473,3.535,7.633,3.535,16.18v13.564
		c0,2.607,0,9.299-0.363,15.791c-0.406,4.652-1.49,7.621-4.857,8.375c-1.449,0.375-3.322,0.74-4.813,0.74
		c-0.936,0-1.322,0.752-1.322,1.289c0,0.939,0.744,1.316,2.6,1.316c4.859,0,15.246-0.564,15.996-0.564
		c0.938,0,11.525,0.564,20.635,0.564c1.662,0,2.604-0.564,2.604-1.316c0-0.537-0.406-1.289-1.307-1.289
		c-1.506,0-5.193-0.365-7.449-0.74c-4.814-0.754-5.922-3.723-6.307-8.375c-0.576-6.492-0.576-13.184-0.576-15.791V189.52
		c0-5.201-0.721-10.215,2.068-15.793c3.32-6.693,26.393-43.859,31.756-50.166c3.533-4.271,5.027-5.939,8.18-7.807
		c2.619-1.479,5.771-2.043,7.646-2.043c1.262,0,2.006-0.93,2.006-1.666C1778.272,111.492,1777.376,111.105,1776.267,111.105"/>
	<path clip-path="url(#SVGID_2_)" fill="#FFFFFF" d="M527.083,345.906c-0.854,0-0.996,0.426-1.279,1.693
		c-0.424,2.266-2.123,7.385-4.818,10.086c-4.969,4.953-11.211,5.662-20.563,5.662c-26.668,0-44.977-20.566-44.977-43.684
		c0-12.203,1.994-22.973,11.219-31.496c4.393-4.098,12.049-8.348,28.078-8.348c11.063,0,20.148,2.961,24.533,6.645
		c3.262,2.563,5.254,7.375,5.254,12.059c0,1.707,0.139,2.563,0.994,2.563c0.705,0,1.27-0.703,1.414-2.563
		c0.145-1.676,0.145-8.357,0.275-12.338c0.281-4.404,0.572-5.811,0.572-6.811c0-0.703-0.291-1.277-1.557-1.277
		c-4.115-0.145-8.086-0.988-12.768-1.838c-6.092-0.994-13.191-1.406-18.156-1.406c-19.145,0-30.494,5.672-38.01,12.896
		c-11.063,10.773-14.043,24.836-14.043,32.896c0,11.51,2.98,25.26,15.18,35.762c9.793,8.496,22.412,12.891,41.127,12.891
		c8.092,0,17.455-0.705,22.555-2.691c2.135-0.854,2.416-1.268,3.123-3.545c1.275-4.109,2.977-14.609,2.977-15.463
		C528.214,346.75,527.649,345.906,527.083,345.906"/>
	<path clip-path="url(#SVGID_2_)" fill="#FFFFFF" d="M651.513,274.854c-34.467,0-49.506,27.645-49.506,47.076
		c0,21.711,14.607,47.369,48.789,47.369c30.066,0,50.07-22.252,50.07-49.205C700.866,292.008,679.587,274.854,651.513,274.854
		 M654.339,364.34c-22.549,0-39.43-17.59-39.43-45.664c0-26.232,15.037-39.301,35.887-39.301c19.719,0,37.299,15.195,37.299,44.102
		C688.095,358.391,665.554,364.34,654.339,364.34"/>
	<path clip-path="url(#SVGID_2_)" fill="#FFFFFF" d="M836.353,350.887c-0.705,0-1.141,0.703-1.277,1.541
		c-0.422,2.406-1.412,4.975-2.973,6.805c-2.984,3.551-8.512,3.689-15.041,3.689c-9.783,0-14.6-0.859-16.598-2.83
		c-2.264-2.127-2.553-9.355-2.553-27.102v-21.549c0-18.73,0-22.135,0.143-25.949c0.289-4.264,1.002-6.117,4.689-6.82
		c1.418-0.129,3.256-0.285,4.113-0.285c0.422,0,0.99-0.434,0.99-0.844c0-0.719-0.705-0.998-1.988-0.998
		c-3.828,0-13.186,0.279-13.758,0.279c-0.705,0-8.51-0.279-14.188-0.279c-1.42,0-1.98,0.279-1.98,0.998c0,0.41,0.561,1,0.99,1
		c1.143,0,3.273,0.129,4.258,0.279c4.111,0.553,4.816,2.563,5.1,6.67c0.287,3.814,0.287,7.219,0.287,25.949v21.27
		c0,11.633,0,21.135-0.703,26.098c-0.572,3.551-0.848,5.816-3.268,6.381c-1.131,0.295-2.697,0.564-3.826,0.564
		c-0.705,0-0.994,0.586-0.994,1.01c0,0.703,0.705,0.998,1.992,0.998c1.98,0,4.674-0.156,7.221-0.295
		c2.416-0.15,4.539-0.15,5.111-0.15c3.688,0,7.941,0.15,13.615,0.289c5.826,0.297,12.762,0.426,21.711,0.426
		c6.664,0,7.084-0.426,7.934-3.25c0.992-3.561,1.852-10.797,1.852-12.063C837.212,351.439,836.931,350.887,836.353,350.887"/>
	<path clip-path="url(#SVGID_2_)" fill="#FFFFFF" d="M971.827,350.887c-0.688,0-1.139,0.703-1.281,1.541
		c-0.404,2.406-1.414,4.975-2.965,6.805c-3,3.551-8.52,3.689-15.033,3.689c-9.787,0-14.609-0.859-16.59-2.83
		c-2.293-2.127-2.557-9.355-2.557-27.102v-21.549c0-18.73,0-22.135,0.141-25.949c0.275-4.264,0.99-6.117,4.672-6.82
		c1.434-0.129,3.258-0.285,4.107-0.285c0.439,0,1.002-0.434,1.002-0.844c0-0.719-0.707-0.998-1.986-0.998
		c-3.811,0-13.193,0.279-13.758,0.279c-0.713,0-8.512-0.279-14.18-0.279c-1.422,0-1.986,0.279-1.986,0.998c0,0.41,0.564,1,1.002,1
		c1.129,0,3.26,0.129,4.232,0.279c4.117,0.553,4.826,2.563,5.115,6.67c0.281,3.814,0.281,7.219,0.281,25.949v21.27
		c0,11.633,0,21.135-0.693,26.098c-0.586,3.551-0.865,5.816-3.277,6.381c-1.129,0.295-2.676,0.564-3.822,0.564
		c-0.707,0-0.992,0.586-0.992,1.01c0,0.703,0.703,0.998,1.988,0.998c1.984,0,4.672-0.156,7.236-0.295
		c2.404-0.15,4.535-0.15,5.096-0.15c3.693,0,7.951,0.15,13.625,0.289c5.799,0.297,12.756,0.426,21.695,0.426
		c6.674,0,7.09-0.426,7.941-3.25c0.986-3.561,1.855-10.797,1.855-12.063C972.696,351.439,972.396,350.887,971.827,350.887"/>
	<path clip-path="url(#SVGID_2_)" fill="#FFFFFF" d="M1103.226,351.439c-0.732,0-1.002,0.424-1.291,1.842
		c-0.699,4.824-2.406,6.939-5.67,8.363c-3.26,1.277-9.203,1.277-12.49,1.277c-12.324,0-14.602-1.551-14.889-9.641
		c-0.154-2.395,0-16.451,0-20.57v-10.076c0-0.414,0.135-0.838,0.852-0.838c2.143,0,15.451,0.133,18.852,0.568
		c4.832,0.559,5.955,1.994,6.381,3.674c0.564,1.574,0.564,2.852,0.564,3.98c0,0.703,0.307,1.129,0.881,1.129
		c0.838,0,1.137-1.279,1.137-2.258c0-0.842,0.277-5.414,0.561-7.809c0.287-3.969,0.996-5.941,0.996-6.654c0-0.705-0.299-1-0.709-1
		c-0.441,0-1.01,0.705-1.85,1.553c-1.289,1.289-3.129,1.43-6.115,1.703c-2.832,0.301-19.271,0.301-20.84,0.301
		c-0.709,0-0.709-0.445-0.709-1.289V282.92c0-0.842,0.135-1.268,0.709-1.268c1.434,0,15.9,0.129,18.008,0.426
		c6.814,0.842,8.104,1.701,8.947,3.684c0.572,1.406,0.703,3.395,0.703,4.266c0,0.982,0.299,1.535,0.988,1.535
		c0.568,0,0.996-0.693,1.127-1.252c0.283-1.424,0.57-6.805,0.719-7.955c0.273-3.404,1.008-4.813,1.008-5.66
		c0-0.564-0.166-1.123-0.574-1.123c-0.582,0-1.152,0.408-1.711,0.559c-0.98,0.129-3.275,0.564-5.682,0.693
		c-2.813,0.145-28.932,0-29.779,0c-0.711,0-8.789-0.279-14.469-0.279c-1.412,0-1.965,0.279-1.965,0.998c0,0.41,0.553,1,0.98,1
		c1.127,0,3.26,0.129,4.248,0.279c4.123,0.553,4.828,2.563,5.127,6.67c0.277,3.814,0.277,7.225,0.277,25.949v21.27
		c0,11.633,0,21.135-0.713,26.104c-0.568,3.545-0.844,5.961-3.264,6.375c-1.137,0.15-2.695,0.564-3.84,0.564
		c-0.709,0-0.996,0.586-0.996,1.01c0,0.703,0.709,0.994,2,0.994c1.982,0,4.816-0.152,7.229-0.291c2.709-0.15,5.115-0.15,5.385-0.15
		c1.863,0,5.102,0,10.363,0.289c5.1,0.152,12.35,0.426,21.688,0.426c4.855,0,6.123,0,6.959-3.121
		c0.703-2.551,1.701-10.785,1.701-11.629C1104.06,352.428,1103.923,351.439,1103.226,351.439"/>
	<path clip-path="url(#SVGID_2_)" fill="#FFFFFF" d="M1272.308,322.479c-3.814,0-11.615,0.307-12.209,0.307
		c-0.697,0-9.059-0.307-14.738-0.307c-1.428,0-2,0.156-2,0.998c0,0.436,0.572,1.012,1.012,1.012c1.139,0,3.256,0.154,4.248,0.295
		c5.104,0.988,5.391,2.406,5.391,12.186v20.846c0,2.277-1.004,2.842-2.541,3.686c-3.289,1.848-9.084,2.281-13.471,2.281
		c-11.504,0-21.986-3.41-31.932-12.627c-4.393-4.107-13.182-16.322-13.182-33.332c0-14.045,5.107-24.814,12.354-30.357
		c9.477-7.234,18.541-7.793,26.082-7.793c16.172,0,25.662,4.822,28.777,9.355c1.996,2.842,2.713,6.387,2.836,7.949
		c0,1.129,0.152,1.832,0.852,1.832c0.854,0,1.449-0.555,1.449-2.547c0-12.053,0.684-15.313,0.684-17.016
		c0-0.574-0.271-1.154-1.539-1.154c-3.117,0-7.52-0.703-10.082-1.268c-2.42-0.564-11.195-1.971-19.141-1.971
		c-9.506,0-21.994,0.842-33.195,7.643c-11.057,6.66-20.859,20.303-20.859,39.586c0,15.043,7.232,27.924,14.914,34.32
		c13.889,11.768,31.617,12.896,41.135,12.896c7.221,0,18.57-1.268,26.512-5.365c1.572-0.871,1.691-1.012,1.691-6.531V343.91
		c0-5.098,0-8.643,0.139-12.457c0.311-4.264,1.293-6.123,4.707-6.67c1.414-0.295,2.242-0.295,3.109-0.295
		c0.424,0,0.992-0.576,0.992-1.012C1274.302,322.635,1273.733,322.479,1272.308,322.479"/>
	<path clip-path="url(#SVGID_2_)" fill="#FFFFFF" d="M1408.206,351.439c-0.697,0-0.971,0.424-1.25,1.842
		c-0.715,4.824-2.426,6.939-5.682,8.363c-3.26,1.277-9.229,1.277-12.486,1.277c-12.338,0-14.623-1.551-14.908-9.641
		c-0.135-2.395,0-16.451,0-20.57v-10.076c0-0.414,0.145-0.838,0.863-0.838c2.131,0,15.445,0.133,18.871,0.568
		c4.83,0.559,5.945,1.994,6.381,3.674c0.549,1.574,0.549,2.852,0.549,3.98c0,0.703,0.307,1.129,0.842,1.129
		c0.867,0,1.158-1.279,1.158-2.258c0-0.842,0.283-5.414,0.559-7.809c0.277-3.969,0.988-5.941,0.988-6.654c0-0.705-0.285-1-0.711-1
		c-0.412,0-0.961,0.705-1.82,1.553c-1.283,1.289-3.115,1.43-6.133,1.703c-2.813,0.301-19.27,0.301-20.832,0.301
		c-0.715,0-0.715-0.445-0.715-1.289V282.92c0-0.842,0.145-1.268,0.715-1.268c1.432,0,15.912,0.129,18.02,0.426
		c6.805,0.842,8.086,1.701,8.945,3.684c0.57,1.406,0.693,3.395,0.693,4.266c0,0.982,0.291,1.535,1.004,1.535
		c0.549,0,0.988-0.693,1.123-1.252c0.281-1.424,0.57-6.805,0.703-7.955c0.291-3.404,1.016-4.813,1.016-5.66
		c0-0.564-0.174-1.123-0.586-1.123c-0.563,0-1.133,0.408-1.707,0.559c-0.979,0.129-3.262,0.564-5.654,0.693
		c-2.818,0.145-28.951,0-29.807,0c-0.703,0-8.787-0.279-14.465-0.279c-1.4,0-1.979,0.279-1.979,0.998c0,0.41,0.578,1,1,1
		c1.125,0,3.266,0.129,4.27,0.279c4.109,0.553,4.813,2.563,5.08,6.67c0.291,3.814,0.291,7.225,0.291,25.949v21.27
		c0,11.633,0,21.135-0.699,26.104c-0.563,3.545-0.854,5.961-3.275,6.375c-1.141,0.15-2.688,0.564-3.822,0.564
		c-0.719,0-0.994,0.586-0.994,1.01c0,0.703,0.723,0.994,2.004,0.994c1.961,0,4.789-0.152,7.223-0.291
		c2.703-0.15,5.102-0.15,5.367-0.15c1.877,0,5.117,0,10.361,0.289c5.1,0.152,12.332,0.426,21.705,0.426c4.855,0,6.105,0,6.957-3.121
		c0.705-2.551,1.703-10.785,1.703-11.629C1409.071,352.428,1408.921,351.439,1408.206,351.439"/>
	<path clip-path="url(#SVGID_2_)" fill="#004788" d="M370.108,117.01c-6.602,12.436-16.463,21.633-24.309,32.832
		C367.413,150.193,376.321,136.162,370.108,117.01"/>
	<path clip-path="url(#SVGID_2_)" fill="#004788" d="M368.288,343.936c5.043-23.271-1.533-45.16-24.268-43.285
		c-1.297,0.119-2.613,0.264-4.014,0.531c1.426,1.574,2.68,3.326,4.014,5.002C353.196,317.676,360.497,331.057,368.288,343.936"/>
	<path clip-path="url(#SVGID_2_)" fill="#004788" d="M373.11,277.695c-6.93-5.566-15.094-17.881-28.299-18.027
		c-0.258,0-0.529,0.049-0.791,0.061c-6.746,0.246-14.779,4.742-14.246,7.75c4.689,0.73,9.49,1.654,14.246,2.68
		C354.591,272.436,364.917,275.24,373.11,277.695"/>
	<path clip-path="url(#SVGID_2_)" fill="#004788" d="M373.11,174.186c-6.346-5.262-19.441-9.643-29.09-7.363
		c-4.832,1.139-8.82,3.924-10.625,9.158c3.416-0.527,6.992-0.834,10.625-1.031C353.8,174.422,364.034,174.736,373.11,174.186"/>
	<path clip-path="url(#SVGID_2_)" fill="#004788" d="M113.669,117.01c8.422,10.242,14.424,22.451,24.686,30.85
		C145.325,127.039,130.208,116.213,113.669,117.01"/>
	<path clip-path="url(#SVGID_2_)" fill="#004788" d="M197.347,257.252c-8.264-14.223-17.32-27.619-26.486-40.934
		C164.386,240.344,175.938,256.301,197.347,257.252"/>
	<path clip-path="url(#SVGID_2_)" fill="#004788" d="M134.161,150.723c-6.98-8.912-15.07-21.863-22.293-32.525
		C108.229,136.479,114.116,152.473,134.161,150.723"/>
	<path clip-path="url(#SVGID_2_)" fill="#004788" d="M172.071,117.01c-12.504,4.723-28.035,17.18-11.203,32.068
		c1.971-12.445,6.723-22.121,11.807-31.479C172.976,117,173.938,117,172.071,117.01"/>
	<path clip-path="url(#SVGID_2_)" fill="#004788" d="M175.683,118.197c-4.656,9.404-8.129,19.984-10.834,31.295
		C181.669,150.264,183.358,128.869,175.683,118.197"/>
	<path clip-path="url(#SVGID_2_)" fill="#004788" d="M139.644,188.334c3.68-1.303,8.02-4.287,10.154-6.951
		c-12.646-1.961-28.818-3.664-41.523-3.592C115.019,183.439,126.835,192.797,139.644,188.334"/>
	<path clip-path="url(#SVGID_2_)" fill="#004788" d="M212.997,207.287c-0.539-11.508,0.09-24.178-2.416-33.701
		C203.604,182.137,197.704,201.887,212.997,207.287"/>
	<path clip-path="url(#SVGID_2_)" fill="#004788" d="M107.667,174.771c13.736,1.314,29.867,1.176,43.203,2.877
		C144.103,164.158,117.183,163.428,107.667,174.771"/>
	<path clip-path="url(#SVGID_2_)" fill="#004788" d="M228.644,191.023c-0.6-8.887-11.148-13.996-15.646-17.438
		c2.031,10.604,2.805,22.477,4.828,33.08C222.733,204.338,229.118,197.893,228.644,191.023"/>
	<path clip-path="url(#SVGID_2_)" fill="#004788" d="M263.522,159.389c19.84,6.941,29.646-8.771,27.135-26.139
		c-7.029,6.188-15.559,14.221-22.273,20.455C266.212,155.748,262.202,157.805,263.522,159.389"/>
	<path clip-path="url(#SVGID_2_)" fill="#004788" d="M342.866,147.33c0.391-0.389,0.764-0.857,1.152-1.258
		c6.416-6.609,12.545-15.477,18.256-22.439c2.117-2.607,5.525-6.234,4.813-7.832c-9.033,1.469-18.301,4.826-23.068,11.297
		C340.462,131.924,339.397,138.488,342.866,147.33"/>
	<path clip-path="url(#SVGID_2_)" fill="#004788" d="M290.048,131.455c-16.656,1.971-34.307,2.98-31.902,24.059
		C267.722,148.857,280.599,140.26,290.048,131.455"/>
	<path clip-path="url(#SVGID_2_)" fill="#004788" d="M191.323,134.449c0.92,16.955,6.836,28.91,26.502,27.088
		C209.829,151.674,200.317,143.336,191.323,134.449"/>
	<path clip-path="url(#SVGID_2_)" fill="#004788" d="M192.075,131.641c-0.344-0.01,27.523,25.988,29.326,26.164
		C220.122,141.811,210.81,128.578,192.075,131.641"/>
	<path clip-path="url(#SVGID_2_)" fill="#004788" d="M172.071,215.121c10.225,12.842,19.9,26.232,30.094,39.123
		C207.854,229.258,190.636,218.709,172.071,215.121"/>
	<path clip-path="url(#SVGID_2_)" fill="#004788" d="M242.491,150.723c13.852-3.512,9.457-28.5-0.598-34.922
		C242.001,127.508,242.88,138.5,242.491,150.723"/>
	<path clip-path="url(#SVGID_2_)" fill="#004788" d="M333.188,326.941c5.621,10.432,19.375,16.559,32.693,18.172
		c-7.219-10.41-14.016-21.223-21.861-30.98c-3.146-3.91-6.424-7.691-10.021-11.156C329.333,312.547,329.743,320.545,333.188,326.941
		"/>
	<path clip-path="url(#SVGID_2_)" fill="#004788" d="M344.021,287.125c10.262,1.457,22.574-1.455,29.715-6.412
		c-9.764-2.277-19.406-4.662-29.715-6.365c-5.518-0.912-11.172-1.691-17.26-2.041C328.003,281.465,335.269,285.879,344.021,287.125"
		/>
	<path clip-path="url(#SVGID_2_)" fill="#004788" d="M138.364,301.182c-18.521-2.67-27.299,10.732-26.963,25.76
		c0.104,4.641,1.049,9.443,2.883,13.977c2.354-4.84,4.934-9.453,7.594-13.977C127.093,318.063,132.724,309.621,138.364,301.182"/>
	<path clip-path="url(#SVGID_2_)" fill="#004788" d="M127.06,326.941c-1.469,2.09-2.926,4.184-4.342,6.156
		c-2.053,2.83-5.723,4.979-5.408,8.406c10.535-1.141,23.039-6.479,29.039-14.563c4.707-6.338,5.418-14.346-1.969-23.342
		C138.417,310.561,132.581,319.051,127.06,326.941"/>
	<path clip-path="url(#SVGID_2_)" fill="#004788" d="M261.171,209.705c2.092-12.764,4.438-25.246,7.213-37.316
		C256.298,176.709,242.345,202.648,261.171,209.705"/>
	<path clip-path="url(#SVGID_2_)" fill="#004788" d="M310.519,213.934c-19.527,3.744-44.354,15.227-31.922,39.688
		C289.78,241.354,301.456,226.309,310.519,213.934"/>
	<path clip-path="url(#SVGID_2_)" fill="#004788" d="M311.134,216.318c-8.613,13.664-19.311,25.244-27.711,39.135
		C307.429,257.805,316.222,239.119,311.134,216.318"/>
	<path clip-path="url(#SVGID_2_)" fill="#004788" d="M344.021,190.236c11.082,2.303,25.873-5.602,30.908-13.035
		c-10.766,0.564-21.033,1.623-30.908,3.066c-3.59,0.527-7.137,1.104-10.627,1.738C335.767,186.844,339.608,189.332,344.021,190.236"
		/>
	<path clip-path="url(#SVGID_2_)" fill="#004788" d="M238.296,150.111c0.387-11.236,2.006-24.471,1.193-34.92
		C228.95,122.271,224.009,142.539,238.296,150.111"/>
	<path clip-path="url(#SVGID_2_)" fill="#004788" d="M154.009,271.684c-16.559,1.488-32.566,2.439-46.447,6.602
		C125.038,288.242,149.075,290.553,154.009,271.684"/>
	<path clip-path="url(#SVGID_2_)" fill="#004788" d="M93.54,88.125v238.816v42.25h295.652V88.125h-45.174H93.54z M371.317,112.783
		c3.809,16.299,3.047,30.625-7.248,36.119c-5.322,2.828-10.791,0.789-18.049,3.008c-0.648,0.199-1.32,0.564-2.002,0.996
		c-3.994,2.559-8.418,8.621-11.467,11.922c-4.803,5.199-8.375,8.346-11.814,12.963c2.994-0.623,6.162-1.07,9.637-1.221
		c4.506-4.676,7.357-10.359,13.645-12.225c0.463-0.143,0.896-0.305,1.398-0.402c13.252-2.441,24.949,7.563,33.092,12.039
		c-5.723,9.053-21.793,18.047-34.49,15.838c-5.238-0.904-9.922-3.672-13.041-9.203c-10.287,2.746-19.781,6.281-25.877,13.223
		c9.475-2.938,29.033-8.891,33.09,3.027c2.061-0.141,3.98,0.094,5.828,0.469c10.045,2.08,16.73,11.053,16.73,19.223
		c0,7.82-6.184,17.629-16.73,18.096c-0.262,0.01-0.49,0.096-0.754,0.096c-9.162,0-17.432-8.855-18.879-16.193
		c-1.527-7.621,3.201-19.201,12.002-21.689c-6.086-9.229-23.98-4.602-31.885-1.197c-5.818,2.49-11.221,8.842-16.854,13.811
		c-15.268,13.539-32.561,30.824-42.74,47.576c0.016,13.25-0.416,26.072-1.199,38.516c11.432-11.623,23.133-28.252,34.307-42.115
		c-1.244-4.451-3.65-6.906-4.225-10.844c-3.406-23.492,22.613-27.682,39.133-33.133c5.063,26.537-2.811,48.414-30.713,45.771
		c-4.471,4.754-7.531,10.908-10.824,16.828c12.297-3.889,22.658-5.672,43.363-6.193c3.244,0.178,7.389,0.236,10.207-0.408
		c3.674-0.832,6.484-5.752,9.625-7.229c3.268-1.543,6.408-2.215,9.436-2.273c14.232-0.301,25.852,13.68,34.49,23.945
		c-9.754,4.496-23.275,8.152-34.49,6.789c-9.352-1.139-17.105-5.77-19.67-16.404c-7.641-0.049-15.412-0.178-22.26,0.576
		c15.104,5.59,25.93,15.414,36.102,25.893c2.057-0.283,3.986-0.412,5.828-0.424c25.76-0.295,31.119,23.906,25.479,49.162
		c-15.645-1.418-32.119-8.701-38.311-20.572c-3.676-7.057-3.729-15.736,2.205-25.76c-11.922-12.363-28.432-25.873-51.773-22.875
		c4.412,1.605,7.166,3.459,9.037,9.039c10.967,0.979,19.602,9.9,19.602,18.482c0,11.682-13.225,19.787-20.051,20.072
		c-6.854,0.279-19.336-7.67-20.074-20.072c-0.326-5.445,8.326-17.611,18.727-18.482c-7.16-13.947-17.584-4.307-24.709,1.188
		c-6.041,4.699-16.381,13.621-18.047,21.666c-1.16,5.672-0.826,11.199-0.336,16.742c0.564,6.355,1.334,12.73,0.336,19.391
		c-2.959,0.961-9.678,0.961-12.65,0c-0.729-6.918-0.154-13.316,0.268-19.391c0.375-5.387,0.633-10.531-0.268-15.521
		c-2.371-13.295-17.418-24.977-27.68-31.309c-8.477-0.645-15.021,0.602-16.246,7.234c10.381,2.326,19.252,12.875,19.715,19.588
		c0.623,9.066-4.244,15.898-9.854,20.008c-3.83,2.809-8.004,4.346-11.021,4.416c-4.193,0-8.111-1.725-11.43-4.416
		c-5.838-4.742-9.766-12.574-9.766-19.809c0-6.602,8.875-19.254,20.541-19.201c1.621-5.012,4.676-10.07,11.494-9.91
		c-25.137-8.545-42.279,10.748-53.631,23.746c7.771,9.744,7.25,18.295,2.469,25.174c-6.729,9.689-21.971,16.055-34.963,17.58
		c-2.131-5.645-3.318-11.74-3.369-17.58c-0.115-13.572,6.012-25.76,21.424-27.57c2.15-0.258,5.377,0.785,7.824,0
		c4.773-1.523,11.461-12.75,16.252-16.848c7.109-6.086,12.646-9.352,22.264-10.217c-4.895-2.561-14.225-0.623-21.063-1.225
		c-4.721,7.402-8.223,15.785-17.453,17.451c-13.809,2.535-25.408-7.01-36.107-9.625c7.555-16.635,36.844-30.465,52.973-12.639
		c21.842-0.988,39.578,2.139,53.566,9.039c-3.264-5.988-7.111-11.375-10.84-16.859c-26.406,1.387-36.867-20.023-28.889-45.762
		c19.648,4.947,38.412,13.246,35.525,33.119c-0.168,2.943-2.178,6.041-1.826,9.023c0.73,6.283,11.43,16.043,15.662,21.705
		c5.936,7.852,9.723,14.266,15.658,21.037c-3.002-12.83,2.309-28.557-1.832-42.115c-2.35-7.797-18.402-24.486-24.064-30.705
		c-4.162-4.592-8.453-9.066-13.238-13.857c-4.461-4.465-9.855-11.123-13.846-13.225c-8.445-4.475-29.799-7.494-36.713-0.611
		c10.297,1.939,18.373,14.619,17.529,24.496c-0.834,9.594-6.418,18.918-23.342,19.713c-8.625,0.611-18.16-7.891-18.252-18.977
		c-0.16-24.035,19.273-24.104,21.658-25.232c2.285-2.771,4.654-4.193,6.609-4.824c9.006-2.9,16.428-1.846,25.287,0.631
		c0.012,0,2.596,1.588,2.604,1.588c-7.209-3.852-9.939-12.59-23.076-12.445c-5.172,0.031-9.207,8.604-16.855,9.627
		c-16.217,2.146-23.188-8.914-33.703-15.652c9.898-12.955,43.969-18.402,50.232,2.17c3.061,0.365,8.939,1.305,8.939,1.305
		s-18.879-18.705-26.662-26.926c-23.229,2.865-30.723-17.309-24.672-37.951c18.059,2.502,32.514,4.475,31.297,25.893
		c-0.336,1.891-3.291,8.805-3.291,8.805s20.482,21.619,21.201,20.492c0.738-1.082,0.129-17.92,0.129-17.92
		s-8.758-8.338-9.613-12.574c-2.986-14.832,12.166-20.174,25.273-24.695c8.461,12.248,7.746,37.895-12.025,36.73
		c-4.559,22.533,12.393,34.303,23.455,44.529c9.527,8.818,19.045,16.156,26.5,24.082c0.094-3.5-1.057-5.777-0.613-9.619
		c-3.285-3.662-7.211-4.297-9.621-7.842c-7.203-10.615,2.689-24.41,7.215-32.506c7.119,5.838,21.145,12.357,18.654,25.295
		c-1.186,6.223-7.516,9.607-12.021,13.832c1.17,16.873,10.342,25.777,18.652,35.531c-3.449-18.068,3.521-45.99-1.795-61.387
		c-3.219-9.299-9.279-13.494-15.068-20.467c-22.697,3.781-29.688-12.67-30.693-32.527c16.764-3.652,29.498,3.77,33.1,16.85
		c0.762,2.76,0.584,6.051,1.215,10.252c1.113,7.387,12.279,11.695,13.832,18.047c0.41-6.973,1.229-21.674,1.229-21.674
		s-10.359-8.422-11.447-15.643c-1.859-12.213,7.68-19.256,15.045-27.09c2.316,7.41,12.566,14.574,12.055,25.895
		c-0.389,8.219-6.051,11.881-11.457,16.838c-0.451,7.678,0.998,13.467,0.617,21.064c4.02-6.363,8.68-12.188,13.826-17.438
		c-4.309-23.461,16.584-26.713,36.721-27.689c-1.926,14.973-1.969,30.672-16.248,33.115c-4.76,0.785-9.566-2.619-15.658-1.223
		c-7.898,1.822-15.436,21.701-16.244,33.713c-1.184,17.324,1.141,34.1-1.207,49.363c6.678-9.586,14.342-18.16,16.242-32.512
		c-20.174-9.594-5.775-37.754,9.646-42.754c8.836,9.475,16.197,39.619-5.246,42.836c-1.533,3.465-3.725,10.359-3.273,13.609
		c17.23-18.871,55.549-37.082,54.857-73.883c-19.727,0.492-18.92-24.953-12.654-39.127c15.088,1.738,38.66,23.754,18.689,37.328
		c1.277,4.98,0.527,12.906,0,18.049c6.227-4.004,12.738-12.939,18.643-19.258c-5.521-11.098-3.123-19.059,2.816-24.729
		C350.649,117.857,361.702,114.404,371.317,112.783"/>
	<path clip-path="url(#SVGID_2_)" fill="#004788" d="M308.103,115.801c6.275,9.137,9.561,18.883,13.416,32.068
		C336.835,137.441,320.401,118.748,308.103,115.801"/>
	<path clip-path="url(#SVGID_2_)" fill="#004788" d="M270.187,173.586c-0.957,11.896-3.691,24.049-4.879,35.709
		C281.905,206.346,278.903,181.383,270.187,173.586"/>
	<path clip-path="url(#SVGID_2_)" fill="#004788" d="M316.524,148.904c-0.686-12.588-6.617-23.461-12.021-33.104
		C299.835,128.227,298.919,152.52,316.524,148.904"/>
	<path clip-path="url(#SVGID_2_)" fill="#004788" d="M113.083,269.268c-1.854,1.783-4.707,4.168-4.213,6.041
		c12.85-5.027,28.855-6.879,43.926-9.641C141.474,253.566,122.083,260.77,113.083,269.268"/>
	<polygon clip-path="url(#SVGID_2_)" fill="#B1B3B5" points="344.021,44.652 47.089,44.652 47.089,326.941 93.542,326.941 
		93.542,88.123 344.021,88.123 	"/>
	<path clip-path="url(#SVGID_2_)" fill="#B1B3B5" d="M324.349,272.307c2.566,10.635,10.318,15.266,19.672,16.404
		c11.213,1.363,24.734-2.289,34.49-6.789c-8.639-10.266-20.26-24.246-34.49-23.945c-3.029,0.059-6.172,0.73-9.436,2.268
		c-3.141,1.482-5.951,6.402-9.625,7.234c-2.818,0.645-6.965,0.592-10.209,0.414c-20.705,0.516-31.066,2.299-43.361,6.188
		c3.291-5.92,6.352-12.074,10.824-16.828c27.898,2.643,35.773-19.234,30.711-45.771c-16.518,5.445-42.539,9.641-39.135,33.133
		c0.578,3.938,2.984,6.393,4.223,10.84c-11.168,13.867-22.873,30.496-34.303,42.119c0.783-12.443,1.217-25.266,1.199-38.51
		c10.178-16.758,27.473-34.043,42.74-47.582c5.635-4.967,11.033-11.322,16.854-13.811c7.906-3.404,25.799-8.033,31.883,1.197
		c-8.801,2.49-13.527,14.068-11.998,21.689c1.445,7.338,9.715,16.193,18.877,16.193c0.266,0,0.494-0.086,0.756-0.096
		c10.545-0.467,16.73-10.275,16.73-18.096c0-8.17-6.686-17.143-16.73-19.221c-1.85-0.375-3.771-0.611-5.828-0.471
		c-4.057-11.92-23.617-5.963-33.092-3.029c6.098-6.941,15.59-10.475,25.879-13.221c3.117,5.529,7.801,8.301,13.041,9.205
		c12.695,2.207,28.768-6.785,34.49-15.842c-8.145-4.471-19.842-14.479-33.094-12.033c-0.502,0.092-0.936,0.254-1.396,0.398
		c-6.287,1.865-9.139,7.547-13.65,12.223c-3.473,0.152-6.639,0.6-9.633,1.221c3.439-4.613,7.014-7.76,11.814-12.963
		c3.051-3.301,7.473-9.357,11.469-11.918c0.68-0.436,1.352-0.801,2.002-0.998c7.256-2.219,12.727-0.178,18.047-3.006
		c10.295-5.496,11.057-19.822,7.25-36.121c-9.617,1.621-20.67,5.072-27.299,11.389c-5.941,5.674-8.342,13.635-2.82,24.732
		c-5.902,6.316-12.412,15.254-18.643,19.254c0.529-5.143,1.279-13.066,0-18.045c19.975-13.574-3.6-35.594-18.686-37.33
		c-6.268,14.172-7.076,39.621,12.652,39.127c0.693,36.801-37.625,55.014-54.857,73.883c-0.451-3.254,1.742-10.145,3.273-13.609
		c21.445-3.217,14.082-33.359,5.248-42.836c-15.422,5.002-29.826,33.16-9.648,42.754c-1.9,14.348-9.564,22.92-16.244,32.512
		c2.352-15.258,0.025-32.043,1.211-49.361c0.805-12.016,8.346-31.895,16.242-33.715c6.09-1.396,10.9,2.01,15.658,1.225
		c14.279-2.445,14.324-18.146,16.25-33.117c-20.137,0.975-41.031,4.229-36.721,27.689c-5.148,5.248-9.809,11.074-13.828,17.439
		c0.383-7.6-1.07-13.387-0.617-21.068c5.408-4.955,11.07-8.619,11.457-16.838c0.512-11.32-9.738-18.484-12.053-25.891
		c-7.367,7.832-16.904,14.877-15.047,27.09c1.088,7.221,11.447,15.639,11.447,15.639s-0.82,14.703-1.227,21.678
		c-1.553-6.352-12.721-10.662-13.834-18.049c-0.631-4.203-0.455-7.488-1.215-10.252c-3.602-13.08-16.338-20.504-33.1-16.848
		c1.008,19.855,7.998,36.305,30.691,32.527c5.791,6.973,11.852,11.164,15.07,20.465c5.314,15.395-1.654,43.318,1.791,61.387
		c-8.309-9.754-17.48-18.652-18.648-35.527c4.508-4.23,10.838-7.609,12.023-13.834c2.488-12.941-11.541-19.459-18.656-25.293
		c-4.525,8.09-14.416,21.887-7.215,32.502c2.406,3.547,6.338,4.18,9.621,7.842c-0.443,3.842,0.709,6.119,0.615,9.619
		c-7.455-7.926-16.973-15.266-26.502-24.084c-11.063-10.227-28.014-21.994-23.455-44.527c19.77,1.162,20.488-24.484,12.023-36.732
		c-13.104,4.523-28.256,9.863-25.271,24.697c0.857,4.238,9.613,12.576,9.613,12.576s0.609,16.838-0.129,17.916
		c-0.719,1.131-21.201-20.486-21.201-20.486s2.957-6.92,3.291-8.809c1.217-21.418-13.236-23.391-31.297-25.895
		c-6.051,20.645,1.445,40.818,24.674,37.953c7.783,8.219,26.66,26.928,26.66,26.928s-5.879-0.941-8.939-1.303
		c-6.264-20.576-40.334-15.129-50.23-2.176c10.516,6.74,17.484,17.803,33.703,15.652c7.646-1.02,11.682-9.592,16.855-9.627
		c13.135-0.141,15.867,8.596,23.074,12.445c-0.01,0-2.59-1.584-2.604-1.584c-8.857-2.477-16.283-3.535-25.287-0.635
		c-1.957,0.635-4.322,2.055-6.609,4.826c-2.383,1.127-21.816,1.199-21.66,25.232c0.09,11.086,9.631,19.588,18.254,18.982
		c16.924-0.801,22.506-10.125,23.344-19.719c0.842-9.877-7.236-22.559-17.529-24.496c6.912-6.879,28.268-3.863,36.711,0.611
		c3.992,2.104,9.385,8.76,13.848,13.225c4.783,4.785,9.076,9.26,13.232,13.852c5.668,6.225,21.719,22.914,24.068,30.707
		c4.141,13.566-1.168,29.289,1.832,42.119c-5.938-6.771-9.725-13.186-15.656-21.043c-4.232-5.656-14.936-15.416-15.664-21.693
		c-0.352-2.988,1.658-6.086,1.826-9.035c2.885-19.867-15.877-28.172-35.525-33.113c-7.98,25.738,2.484,47.148,28.887,45.762
		c3.732,5.484,7.576,10.871,10.842,16.859c-13.986-6.9-31.723-10.027-53.566-9.039c-16.129-17.826-45.418-3.99-52.973,12.633
		c10.701,2.621,22.297,12.166,36.107,9.631c9.229-1.666,12.732-10.055,17.451-17.451c6.836,0.602,16.17-1.336,21.066,1.225
		c-9.617,0.865-15.156,4.131-22.266,10.217c-4.791,4.092-11.477,15.324-16.252,16.848c-2.447,0.791-5.674-0.258-7.824,0
		c-15.41,1.811-21.537,13.998-21.422,27.57c0.049,5.84,1.236,11.93,3.369,17.58c12.99-1.525,28.23-7.891,34.963-17.58
		c4.779-6.879,5.303-15.426-2.469-25.174c11.352-12.998,28.49-32.291,53.627-23.746c-6.816-0.16-9.871,4.898-11.492,9.916
		c-11.664-0.059-20.539,12.594-20.539,19.195c0,7.234,3.926,15.066,9.764,19.809c3.314,2.691,7.236,4.416,11.43,4.416
		c3.018-0.07,7.189-1.607,11.02-4.416c5.609-4.109,10.479-10.941,9.855-20.008c-0.465-6.719-9.336-17.262-19.715-19.588
		c1.225-6.633,7.768-7.879,16.248-7.229c10.26,6.326,25.305,18.008,27.68,31.303c0.895,4.99,0.643,10.135,0.266,15.521
		c-0.424,6.07-0.996,12.473-0.266,19.391c2.973,0.961,9.689,0.961,12.648,0c0.998-6.66,0.229-13.035-0.334-19.391
		c-0.494-5.543-0.826-11.07,0.334-16.742c1.668-8.045,12.004-16.967,18.045-21.666c7.127-5.494,17.551-15.135,24.713-1.188
		c-10.402,0.871-19.055,13.037-18.729,18.482c0.74,12.402,13.223,20.352,20.074,20.072c6.826-0.285,20.051-8.385,20.051-20.072
		c0-8.582-8.633-17.504-19.602-18.482c-1.869-5.574-4.625-7.434-9.039-9.039c23.346-2.998,39.855,10.512,51.777,22.875
		c-5.938,10.029-5.883,18.703-2.205,25.76c6.188,11.871,22.664,19.154,38.309,20.578c5.641-25.262,0.281-49.463-25.477-49.168
		c-1.844,0.012-3.773,0.141-5.828,0.424c-10.176-10.479-21.002-20.307-36.102-25.893
		C308.935,272.129,316.71,272.258,324.349,272.307 M344.021,259.729c0.26-0.012,0.533-0.061,0.791-0.061
		c13.205,0.141,21.369,12.461,28.297,18.027c-8.191-2.455-18.518-5.26-29.088-7.537c-4.756-1.025-9.557-1.949-14.246-2.68
		C329.241,264.471,337.274,259.975,344.021,259.729 M344.021,274.348c10.309,1.703,19.951,4.088,29.715,6.365
		c-7.141,4.957-19.453,7.869-29.715,6.412c-8.752-1.246-16.018-5.66-17.26-14.818C332.849,272.656,338.503,273.43,344.021,274.348
		 M283.423,255.453c8.402-13.891,19.098-25.471,27.713-39.135C316.222,239.119,307.429,257.805,283.423,255.453 M310.519,213.934
		c-9.063,12.375-20.736,27.42-31.922,39.688C266.167,229.16,290.991,217.678,310.519,213.934 M344.021,166.822
		c9.648-2.279,22.744,2.102,29.088,7.361c-9.074,0.553-19.311,0.236-29.088,0.766c-3.631,0.197-7.209,0.502-10.627,1.031
		C335.2,170.744,339.187,167.961,344.021,166.822 M344.021,180.268c9.875-1.443,20.143-2.502,30.908-3.064
		c-5.035,7.432-19.826,15.336-30.908,13.033c-4.412-0.904-8.254-3.395-10.627-8.23C336.884,181.371,340.431,180.795,344.021,180.268
		 M345.8,149.846c7.846-11.205,17.707-20.402,24.309-32.838C376.321,136.164,367.413,150.197,345.8,149.846 M344.021,127.096
		c4.768-6.467,14.035-9.828,23.066-11.295c0.715,1.596-2.695,5.227-4.813,7.834c-5.711,6.963-11.838,15.828-18.254,22.439
		c-0.389,0.398-0.766,0.869-1.154,1.258C339.399,138.486,340.46,131.922,344.021,127.096 M321.522,147.869
		c-3.859-13.186-7.146-22.932-13.42-32.068C320.401,118.748,336.837,137.441,321.522,147.869 M304.503,115.801
		c5.404,9.643,11.338,20.514,12.021,33.104C298.919,152.52,299.831,128.227,304.503,115.801 M265.306,209.295
		c1.188-11.66,3.922-23.813,4.883-35.709C278.905,181.385,281.907,206.35,265.306,209.295 M268.384,172.389
		c-2.775,12.072-5.121,24.553-7.215,37.316C242.345,202.648,256.296,176.709,268.384,172.389 M263.522,159.389
		c-1.322-1.586,2.688-3.639,4.861-5.684c6.715-6.234,15.246-14.268,22.271-20.455C293.169,150.617,283.362,166.33,263.522,159.389
		 M290.048,131.455c-9.449,8.805-22.326,17.402-31.902,24.059C255.741,134.438,273.392,133.426,290.048,131.455 M191.323,134.447
		c8.994,8.891,18.504,17.229,26.502,27.09C198.159,163.357,192.243,151.404,191.323,134.447 M192.073,131.643
		c18.736-3.064,28.047,10.168,29.328,26.16C219.599,157.629,191.729,131.631,192.073,131.643 M111.87,118.197
		c7.219,10.662,15.309,23.613,22.291,32.527C114.116,152.473,108.229,136.479,111.87,118.197 M113.669,117.008
		c16.541-0.797,31.654,10.029,24.686,30.852C128.093,139.463,122.089,127.25,113.669,117.008 M139.644,188.332
		c-12.811,4.465-24.629-4.895-31.371-10.543c12.709-0.068,28.881,1.635,41.521,3.596
		C147.663,184.049,143.321,187.033,139.644,188.332 M107.667,174.773c9.514-11.344,36.434-10.615,43.203,2.877
		C137.536,175.947,121.403,176.088,107.667,174.773 M164.849,149.488c2.703-11.307,6.176-21.887,10.834-31.291
		C183.358,128.869,181.667,150.266,164.849,149.488 M160.87,149.08c-16.834-14.889-1.301-27.35,11.199-32.072
		c1.869-0.01,0.906-0.01,0.604,0.59C167.591,126.955,162.839,136.633,160.87,149.08 M210.585,173.586
		c2.502,9.521,1.871,22.193,2.412,33.699C197.706,201.885,203.604,182.135,210.585,173.586 M212.997,173.586
		c4.498,3.441,15.047,8.549,15.646,17.436c0.475,6.871-5.91,13.32-10.818,15.643C215.802,196.061,215.028,184.189,212.997,173.586
		 M170.86,216.318c9.166,13.314,18.223,26.711,26.488,40.934C175.937,256.301,164.386,240.344,170.86,216.318 M202.163,254.244
		c-10.191-12.891-19.869-26.275-30.094-39.129C190.636,218.715,207.853,229.258,202.163,254.244 M113.083,269.268
		c9-8.492,28.391-15.705,39.713-3.594c-15.072,2.756-31.076,4.613-43.926,9.635C108.376,273.43,111.229,271.051,113.083,269.268
		 M107.56,278.285c13.883-4.162,29.891-5.113,46.449-6.602C149.075,290.553,125.036,288.242,107.56,278.285 M111.399,326.941
		c-0.336-15.027,8.445-28.43,26.965-25.76c-5.639,8.439-11.273,16.881-16.488,25.76c-2.658,4.523-5.238,9.137-7.592,13.977
		C112.45,336.385,111.505,331.582,111.399,326.941 M146.349,326.941c-6,8.084-18.508,13.422-29.043,14.563
		c-0.311-3.428,3.359-5.576,5.414-8.406c1.416-1.973,2.869-4.061,4.342-6.156c5.518-7.891,11.357-16.381,17.318-23.342
		C151.765,312.596,151.054,320.604,146.349,326.941 M242.491,150.725c0.389-12.223-0.49-23.215-0.596-34.924
		C251.95,122.223,256.343,147.213,242.491,150.725 M239.489,115.191c0.813,10.449-0.807,23.684-1.193,34.922
		C224.007,142.541,228.95,122.27,239.489,115.191 M344.021,300.65c22.732-1.875,29.311,20.014,24.268,43.285
		c-7.791-12.885-15.092-26.254-24.268-37.752c-1.336-1.676-2.586-3.428-4.014-5.002C341.407,300.908,342.724,300.77,344.021,300.65
		 M344.021,314.133c7.848,9.758,14.643,20.57,21.861,30.975c-13.318-1.607-27.072-7.734-32.693-18.166
		c-3.447-6.402-3.852-14.395,0.811-23.965C337.595,306.441,340.874,310.223,344.021,314.133"/>
</g>
</svg>
