<?xml version="1.0" encoding="utf-8"?>
<!-- Generator: Adobe Illustrator 19.2.1, SVG Export Plug-In . SVG Version: 6.00 Build 0)  -->
<svg version="1.1" id="coyote" xmlns="http://www.w3.org/2000/svg" xmlns:xlink="http://www.w3.org/1999/xlink" x="0px" y="0px"
	 viewBox="0 0 1000 1000" style="enable-background:new 0 0 1000 1000;" xml:space="preserve">
<style type="text/css">
	.st0{fill:#FFFFFF;}
	.st1{fill:#A59483;}
	.st2{fill:#4D4129;}
	.st3{fill:#29ABE2;}
</style>
<path id="XMLID_36_" class="st0" d="M46.6,239.7c0,0,76.9,159.6,72.9,280.7c0,0,13.5,52.7,34.2,106.1c0,0-11.4,60.6-23.5,97.1
	c-12.1,36.5,6.5,80.2,38.1,108.6c0,0,67.4,16.3,105.7,0.3c0,0,404.1-263.9,672.6-337.2c0,0-156.6-174.4-354.3-237.5
	c0,0-64.3-77.7-142.2-94.1c0,0-29-3-105.1,65.7c0,0-120.5-19.6-237.1-67.1C107.9,162.2,73.2,142.9,46.6,239.7z"/>
<path id="XMLID_4_" class="st1" d="M724,345c-41.1-24.5-89.2-47.7-143.4-64.8c-38.6-41-77.8-71.2-94.9-77.4
	c-21.2-7.7-37.9-13.3-37.9-13.3c-0.1,0-0.2,0-0.3,0c-0.1,0-0.2-0.1-0.2-0.1c-14,0-53.3,33.6-94.9,66.9
	c-38-4.9-118.5-20.5-245.8-70.3c0,0-0.6-0.4-1.8-0.5c-3.7-0.6-15.1,2.4-29,51.5c0,0,75.4,161.6,71.2,279.7c0,0,20,74.8,32.3,99.1
	c5.9,11.6-1.4,41.4-17.7,96.3c-8.4,28.2-18,61,22.3,97.3c0,0,7.4,1.5,18.5,2.6c16.3,1.7,40.8,2.5,62.2-3.8c0,0,1-0.8,3-2.2
	c42.2-26.3,459.3-284.3,636.3-319.6C903.9,486.5,835,410.2,724,345z M440.3,227.6c74.3,22.1,110.2,97.2,110.2,97.2l-74,109.8
	C450.1,420.2,370.1,350,370.1,350C395.9,258.4,440.3,227.6,440.3,227.6z M137.7,345.9C107,254.5,92,239.6,92,239.6
	c2.2-9.6,11.7-25.9,11.7-25.9c56.7-2.1,161.6,113.1,161.6,113.1l-42.1,31.8C162.1,345.7,137.7,345.9,137.7,345.9z M142.7,359
	c24.7,3.7,71.9,16.6,71.9,16.6L333,352.5c62.9,29.6,139.9,102.6,139.9,102.6c-136.8-21.4-203,73.1-203,73.1l-15.7-4.3
	C257.5,457.5,142.7,359,142.7,359z M460,473.4C471.7,619,347.1,602.1,284.5,611.8c10.6-15.4,37.7-31.1,37.7-31.1
	C394.3,582.5,460,473.4,460,473.4z M324.8,540.5c1.4-13.9,13.9-24.1,27.8-22.7s24.1,13.9,22.7,27.8c-1.4,13.9-13.9,24.1-27.8,22.7
	C333.5,566.9,323.3,554.4,324.8,540.5z M225.4,544.8c-4.7,5.7-12.2,9.1-20.1,8.3c-12.7-1.3-21.9-12.6-20.6-25.3s12.6-21.9,25.3-20.6
	L225.4,544.8z M151.8,499.1c0,0,0,0.1,0,0.2C151.8,499.2,151.8,499.2,151.8,499.1z M152.5,507.2c0,0.6,0.1,1.1,0.1,1.5
	C152.6,508.2,152.5,507.7,152.5,507.2z M152.7,509.9c0,0.2,0,0.4,0,0.4C152.7,510.2,152.7,510.1,152.7,509.9z M171.4,569.6
	c0,0-16.6-33.9-18.7-59.2l14.9,0c0,0,6.9,40.4,31.4,50.3c24.5,10,19.8,40.9,19.8,40.9C212.3,581.2,185.8,582.5,171.4,569.6z
	 M264.9,797.9c0,0-29.8,14.8-80.1,5.4c0,0-23.7-24.4-24.4-38.1c-0.7-13.7,74.7-13.2,74.7-13.2s206.4-245.3,246.5-98
	C393.1,704,309.2,762.1,264.9,797.9z M552.8,627.1c0,0-2.8-19.8-31.7-52.3c22.1,12.2,27.9,23,27.9,23c4.9-15.6,5.8-31.7,3.7-55.2
	C576.2,571.3,552.8,627.1,552.8,627.1z M604.1,574.7c0-0.2,0-0.3-0.1-0.5c-8.5-7.5-20-15.5-20-15.5c9,1.9,14.9,3.9,18.5,5.3
	c-6.2-32.4-22.8-57.2-22.8-57.2l19,18.5c8.5,12.6,18.7,64.7,18.7,64.7L604.1,574.7z M633.9,536.1l-7.5-7.9
	c-7.1-71.8-60.2-80.2-60.2-80.2c7.8-17.8,10.6-38.2,10.6-38.2C638.2,427.7,633.9,536.1,633.9,536.1z M757.9,517.7
	c-20.3-123.8-163.3-180.8-163.3-180.8l-6.8-41.5c138.8,25.1,286.8,179.5,286.8,179.5L757.9,517.7z"/>
<g id="XMLID_8_">
	<path id="XMLID_10_" class="st2" d="M239.3,335.5c0,0-60.8-65.9-127.6-111.2L106,241c0,0,37.3,57.2,44.2,90.1c0,0,33.3,5,72.9,16.1
		C223.2,347.2,232.5,340.3,239.3,335.5z"/>
	<path id="XMLID_20_" class="st2" d="M270.7,628.4c20.3-22.3,43.5-44.8,60.9-43.2C431.3,593.9,460,473.4,460,473.4
		s-101,46.2-136.9,48.8L270.7,628.4z M334.5,544.2c0.5,7.4,6.3,13.6,14,14.4c8.6,0.9,16.3-5.4,17.1-14c0.4-3.9-0.7-7.7-2.8-10.7
		c8-1.3,17.4-2,28.4-1.6c-18.1,61.8-72.3,31.9-72.3,31.9S320.7,553.3,334.5,544.2z"/>
	<path id="XMLID_60_" class="st2" d="M580.1,280.2c-38.7-41.1-77.8-71.2-94.9-77.4c-21.2-7.7-37.9-13.3-37.9-13.3
		c-14,0-53.3,33.6-94.9,66.9c-37.8-4.8-118.4-20.4-246.3-70.3c0,0-13.2-9.2-30.3,51.1c0,0,75.4,161.6,71.2,279.7
		c0,0,20,74.8,32.3,99.1c5.9,11.6-1.4,41.4-17.7,96.3c-8.4,28.2-18,61,22.3,97.3c0,0,44.6,9.3,80.2-1.2v0l0,0h0
		c0,0,453.2-284.6,639.8-321.8C903.9,486.5,772.4,340.8,580.1,280.2z M264.1,808.3c0,0,1.5-2.3,4.3-6.4L264.1,808.3z M552.8,627.1
		c0,0,0-0.3-0.2-1c0.1,0.2,0.2,0.4,0.4,0.6C552.9,627,552.8,627.1,552.8,627.1z M617.5,590c0,0-15.1-36.2-64.7-47.4
		c0,0,9.9,34.4,8.9,52.4c0,0,3.2-16.8,2.8-30.2c7.9,2.2,24.6,7.4,38.7,15.3c-13.9,7.7-28.4,15.9-43.5,24.6
		c-2.6,11.2-5.8,19.6-6.7,21.9c-0.2-0.6-0.6-1.8-1.2-3.3c-0.8-2.6-2.2-6.4-4.6-11.3c-0.1,0-0.1,0.1-0.2,0.1
		c-8-17.1-23.6-43.6-45.9-51.3c0,0-22.3-1.2-44.3,20.9c0,0,52.1-5.6,86.5,32.5c-69.6,40.3-152.2,90.7-248.8,153.5
		c21.1-25.3,52-57.4,89.3-81.7c0,0-62.1,27-128.4,106.6c0,0-42.1,13-70.1,2.3c0,0-5.3-2.4-10.2-10.3c10.1,1.8,31.2,2.7,40.1,2.3
		c11-0.4,13.4-15.9,18.7-29.5c1-2.4,1.5-4.7,1.8-6.8c27.9-26.9,133.8-121.5,133.8-121.5c-61.7,42.9-126.9,93-144.2,106.3
		c-0.5-0.1-1.1-0.2-1.7-0.2c-7.7-0.8-42.6-3.8-54.4-4.8c0.7-4.5,1.7-9.4,3-14.5c16.1-65.9,30.3-89.6,19-109.5
		c-10.5-18.5-27.8-55.2-34.1-90.9c1.8-0.1,3.7-0.2,5.8-0.2c3,15.8,12.5,44.1,42.3,53.3c6.9,2.1,14.3,18.5,12.7,38.7
		c-0.2,2.1-0.5,4.3-0.8,6.5c0,0,18.5-50.7,11.7-99.3c0,0-52.9-28.2-73-45.9c0,0-16.6-137.5-69.1-230.8l11.8-31.2
		c26.2-4.2,72.9-5.3,183.7,118.4c-23.1,16.6-46.8,33.6-67.3,50.1l-46.1-10.8c0,0,101.6,77.6,83.3,213.4c0,0,36.8-154.7,181.4-142.6
		l-98.9-70.2c0,0,19.7-82.9,43.2-106.1c0,0,31.6-35.3,65.9-55.4c69.8,0.8,133.1,119.6,133.1,119.6c3.4,60.4,0.3,86.5,0.2,87
		c0,0,0,0,0,0l0,0.1c0,0,44.6,16.6,55.4,93c0,0,0-66.9-34.6-116.1l0,0c13.2-44.5,10.6-70.4,10.1-74.5
		c45.7,15.9,140.9,58.6,218.5,157.7c-30.5,12.1-99.1,41.9-212.2,104.3C616.2,583.3,617.5,590,617.5,590z M206.2,544.1
		c4.4,0.4,8.5-1.2,11.4-4c0.6,4.6,1.4,11.6,1.9,20.5c-12.2-1.4-39.8-8.4-31.9-41.5c2.8,0.9,5.6,1.9,8.5,3.2
		c-1.3,1.9-2.1,4.1-2.4,6.5C192.9,536.4,198.5,543.3,206.2,544.1z"/>
	<path id="XMLID_64_" class="st2" d="M436.4,235.5c0,0,32.1,1.4,97.3,62.3c0,0-41.3-64.4-87-78.5c0,0-25.5-19.1-60.6,85.7
		C386.1,304.9,421.3,244.1,436.4,235.5z"/>
	<path id="XMLID_65_" class="st2" d="M455.4,264.1l-24.5,109l-50.1-13.8c33.4,34,114.3,92.6,114.3,92.6c25.3-40.6,55.4-127,55.4-127
		l-24.2,21.9C477.5,271.1,455.4,264.1,455.4,264.1z"/>
	<path id="XMLID_66_" class="st2" d="M580.5,506.8c0,0,23.1,29,30.4,53.9c0,0-2.9-21.2-12.1-35.4c0,0,18.7,2,35.2,10.8
		C620,511.3,580.5,506.8,580.5,506.8z"/>
</g>
<path id="XMLID_27_" class="st3" d="M953.3,489.1c-1.6-1.8-40.4-44.7-104.1-96.1c-37.4-30.2-75.6-56.9-113.6-79.4
	c-46.7-27.7-93.2-49.2-138.2-63.8c-4.9-5.6-19.7-22.1-41.3-40c-35.4-29.5-70.5-48-104.2-55l-0.5-0.1l-0.5,0c-0.3,0-0.8-0.1-1.5-0.1
	c-8.1,0-39.6,4.8-107.3,65.1c-22.2-4-128.5-24.2-230.6-65.7c-1.6-0.8-5.6-2.3-11.1-2.3c-7.5,0-19,2.9-31,16.7
	c-12.2,14.1-22.9,37.3-31.6,69l-0.9,3.3l1.5,3c0.2,0.4,19.3,40.2,37.6,94.2c24.1,70.9,36,133.9,34.4,182.3l0,1.3l0.3,1.2
	c0.1,0.5,13.4,52.2,33.6,104.7c-2.3,11.7-12.3,62.1-22.7,93.4c-6.4,19.3-5.5,41.2,2.8,63.3c7.5,20.2,21,39.7,37.9,54.8l1.7,1.5
	l2.2,0.5c1.3,0.3,31.8,7.6,64,7.6c19.1,0,35-2.6,47.3-7.7l0.8-0.3l0.7-0.5c1-0.7,102.4-66.7,235.2-140.9
	c77.9-43.5,151.3-81.2,218-112.1c83.2-38.5,156.1-66.5,216.9-83.1L963,500L953.3,489.1z M274,832.4c-38.3,16-105.7-0.3-105.7-0.3
	c-31.7-28.4-50.2-72.1-38.1-108.6c12.1-36.5,23.5-97.1,23.5-97.1C133,573,119.5,520.3,119.5,520.3c4-121-72.9-280.7-72.9-280.7
	c26.6-96.7,61.3-77.5,61.3-77.5c116.6,47.5,237.1,67.1,237.1,67.1C421,160.6,450,163.6,450,163.6c77.9,16.3,142.2,94.1,142.2,94.1
	c197.7,63.1,354.3,237.5,354.3,237.5C678.1,568.5,274,832.4,274,832.4z"/>
</svg>
