<?xml version="1.0" encoding="UTF-8"?>
<svg width="86px" height="112px" viewBox="0 0 86 112" version="1.1" xmlns="http://www.w3.org/2000/svg" xmlns:xlink="http://www.w3.org/1999/xlink">
    <title>logo-blue</title>
    <g id="Page-1" stroke="none" stroke-width="1" fill="none" fill-rule="evenodd">
        <g id="Artboard" transform="translate(-282.000000, -142.000000)" fill="#003DA5" fill-rule="nonzero">
            <g id="logo-blue" transform="translate(282.000000, 142.000000)">
                <path d="M43.415,-0.001 C19.672109,-0.231333372 0.236322859,18.8261679 0,42.569 L0,111.999 L85.953,111.999 L86,43.399 C86.1092545,31.9963309 81.6837337,21.017408 73.6972446,12.878072 C65.7107556,4.73873595 54.8176914,0.105903746 43.415,-0.001 M82.347,107.061 L3.669,107.061 L3.669,44.687 C3.669,22.9606705 21.2816705,5.34800059 43.008,5.34800059 C64.7343295,5.34800059 82.347,22.9606705 82.347,44.687 L82.347,107.061 Z" id="Path_34"></path>
                <path d="M80.958,42.099 C80.9053333,41.3223333 80.8303333,40.552 80.733,39.788 L79.227,39.788 C80.097,40.994 80.574,41.611 80.958,42.099" id="Path_35"></path>
                <path d="M9.879,42.501 L5.026,42.519 C5.026,42.527 5.026,42.535 5.026,42.542 C6.7438501,43.2971254 8.37222672,44.241282 9.881,45.357 L9.879,42.501 Z" id="Path_36"></path>
                <path d="M80.774,43.417 C80.561,42.772 79.711,42.672 79.392,42.177 C78.9456545,41.9983206 78.4355,42.1672459 78.184,42.577 C78.131,43.524 77.284,44.068 77.708,45.163 C77.547,44.763 77.071,44.863 76.644,44.863 L76.591,44.911 C77.018,44.166 76.442,43.654 75.745,43.678 C75.367,42.904 74.781,42.719 74.03,43.863 C73.74,43.702 73.289,44.121 73.446,44.363 C73.675,45.169 72.934,44.617 72.458,44.416 C71.326,44.258 71.181,44.548 70.915,44.955 C70.815,44.755 70.515,44.81 70.278,44.907 C70.0797503,45.0360088 69.9938051,45.2827413 70.069,45.507 C70.492,45.807 69.589,46.155 69.955,46.65 L70.487,47.05 C70.373,47.393 70.008,47.55 70.169,47.993 C70.2641962,48.029838 70.3122636,48.1362094 70.277,48.232 C70.2581066,48.281567 70.2187406,48.3205685 70.169,48.339 C69.8326517,48.5093374 69.5126434,48.7101794 69.213,48.939 C69.0886756,48.9331295 68.9695392,48.9893259 68.895,49.089 C68.467,48.939 68.946,48.689 68.681,48.489 C68.467,47.989 67.881,47.643 67.83,47.099 C67.672,46.899 67.354,46.849 67.249,47.05 C67.302,46.65 66.717,46.997 66.874,46.55 C66.6183411,46.3477782 66.2998602,46.2416179 65.974,46.25 C65.9398599,46.1629908 65.8574023,46.1044852 65.764,46.101 L65.288,46.001 L65.288,37.901 L80.446,37.901 C77.0724285,19.3027466 60.5569382,6.00114625 41.6669699,6.66831167 C22.7770015,7.3354771 7.24107731,21.7690855 5.188,40.559 L13.077,40.559 L13.057,37.852 L33.195,37.852 L33.195,13.602 L46.495,13.602 L46.543,34.269 L65.237,34.269 L65.237,37.891 L64.39,38.791 L64.39,46.208 C63.967,46.508 63.557,46.68 63.395,46.382 C63.509,46.282 63.451,46.082 63.451,45.935 C62.867,45.988 62.867,45.04 62.125,45.19 C62.173,44.89 61.803,44.99 61.646,44.847 C60.899,44.647 59.892,45.047 59.203,44.447 C58.885,44.596 58.727,44.5 58.397,44.547 C58.297,44.447 58.188,44.297 58.03,44.347 L57.765,44.747 C57.285,44.647 56.648,44.252 56.153,44.647 C55.839,44.599 55.467,44.647 55.411,44.998 C55.4165056,45.6808864 55.3639834,46.3630061 55.254,47.037 C55.197,47.331 55.516,47.532 55.572,47.843 C55.110808,47.8344703 54.6494889,47.850493 54.19,47.891 C54.085,47.991 54.137,48.141 54.137,48.242 C53.9181236,48.088643 53.7652542,47.8582675 53.709,47.597 C53.867,47.254 53.6,46.952 53.6,46.553 C53.547,46.303 53.761,45.711 53.386,45.51 C53.016,45.461 52.435,45.36 52.274,45.31 C52.061,45.16 52.223,44.504 51.742,44.565 C51.669485,44.2246112 51.4298263,43.9439434 51.105,43.819 L50.205,43.819 C50.471,43.013 49.565,42.973 49.246,42.377 C49.0805812,42.3695099 48.9221835,42.4444024 48.823,42.577 C48.558,42.377 48.397,42.928 48.137,42.877 C47.658,42.93 47.5,42.277 46.969,42.534 L46.651,42.783 C46.651,39.964 46.546,37.421 46.546,34.326 L45.004,36.104 L45.004,42.55 L44.79,42.55 C44.904,42.405 44.69,42.35 44.633,42.25 L44.153,42.25 C44.267,42.101 44.102,42.004 43.996,41.907 C43.621,41.907 43.145,41.859 43.04,42.25 C42.67,42.995 43.145,43.89 42.879,44.587 C42.828,44.287 42.456,44.14 42.073,44.244 C41.86,44.587 40.957,44.192 40.957,44.889 C41.118,45.436 41.118,46.182 41.857,46.331 C41.8701203,46.4418397 41.8313771,46.5525344 41.752,46.631 C41.494729,46.3532709 41.097002,46.2550182 40.74,46.381 C40.635,46.732 40.108,46.881 40.212,47.324 C39.6466057,47.3810377 39.0984294,47.5510676 38.6,47.824 C38.653,47.675 38.439,47.524 38.334,47.524 C38.544,47.181 39.29,47.573 39.544,47.029 C39.491,46.48 39.649,46.223 39.491,45.783 C39.863,44.393 38.64,43.249 37.842,42.306 C37.156,42.455 36.678,41.561 36.093,42.157 C35.7243696,41.9152992 35.2543604,41.8900997 34.862,42.091 L34.862,42.115 C33.173,42.915 34.757,45.274 34.648,45.472 L34.648,45.586 C34.12,45.336 34.329,44.64 33.802,44.543 C33.374,44.243 32.902,44.543 32.528,44.692 L32.528,44.892 C32.262,44.844 32.156,44.992 31.995,45.142 C31.895,45.742 32.475,45.887 32.528,46.382 C31.677,46.435 30.618,45.982 29.981,46.582 C30.299,47.327 29.234,47.025 29.081,47.573 C28.395,48.468 26.425,46.973 26.372,48.573 C26.053,48.473 25.949,48.773 25.84,48.873 C25.896,49.368 25.521,49.518 25.63,50.016 C26.053,50.016 25.896,50.511 26.267,50.463 L26.445,50.753 C26.4614646,50.7660177 26.4727987,50.7844356 26.477,50.805 L26.445,50.753 C26.281,50.62 25.602,50.902 25.845,50.358 C25.583,49.958 24.945,50.208 24.894,49.666 C24.5092509,49.553572 24.0982467,49.5704337 23.724,49.714 L23.724,49.914 C23.511,49.814 23.354,50.014 23.245,50.163 C23.354,50.506 23.036,50.506 22.926,50.808 L22.926,51.634 L22.717,51.634 C23.036,50.889 22.238,50.985 22.399,50.292 C21.971,49.892 22.772,49.082 21.971,48.949 C21.652,48.7 21.165,49.195 21.12,48.649 C20.75,48.549 20.165,48.299 19.846,48.649 C19.793,48.749 19.637,48.799 19.584,48.949 L19.455,48.949 C19.35,48.103 19.402,47.06 18.395,46.762 C17.283,46.862 16.695,45.916 15.634,46.419 C15.2221576,46.3337562 14.8004424,46.5115928 14.574,46.866 L14.513,47.136 L13.562,47.07 L13.562,47.075 L13.462,47.065 L13.137,47.047 C12.5639029,46.9746356 11.9863685,47.1422265 11.5410283,47.5101245 C11.095688,47.8780225 10.822104,48.4135452 10.785,48.99 C10.5444589,48.8946589 10.2758848,48.8988414 10.0384291,49.0016263 C9.80097336,49.1044112 9.61411209,49.2973682 9.519,49.538 L9.519,49.538 C9.48926717,49.6115145 9.4687771,49.6884362 9.458,49.767 L9.458,50.242 C8.489,50.242 8.376,48.795 4.958,48.867 L4.958,52.797 C9.38195996,53.3515521 13.5981679,54.9991312 17.226,57.591 C27.096,50.638 42.01,48.748 53.952,52.757 C57.1250946,53.8232376 60.1695358,55.239639 63.029,56.98 C68.509,53.023 74.211,49.44 81.049,48.51 L81.049,44.691 C81.049,44.182 81.036,43.675 81.016,43.17 C80.9046588,43.217097 80.8175339,43.307837 80.775,43.421" id="Path_37"></path>
                <path d="M44.943,22.295 C42.501,18.867 35.125,15.043 35.125,15.043 L44.943,15.043 L44.943,22.295 Z" id="Path_38"></path>
                <polygon id="Path_39" points="52.21 39.151 48.555 35.761 52.218 35.761"></polygon>
                <polygon id="Path_40" points="57.942 39.2 54.287 35.76 57.95 35.76"></polygon>
                <polygon id="Path_41" points="63.354 39.297 59.702 35.76 63.362 35.76"></polygon>
                <polygon id="Path_42" points="18.581 43.192 15.038 39.763 18.645 39.763"></polygon>
                <polygon id="Path_43" points="25.118 43.192 21.455 39.763 25.147 39.763"></polygon>
                <polygon id="Path_44" points="31.51 43.192 27.847 39.763 31.518 39.763"></polygon>
                <polygon id="Path_45" points="71.538 42.342 67.664 39.784 71.538 39.784"></polygon>
                <polygon id="Path_46" points="77.378 42.342 73.448 39.784 77.378 39.784"></polygon>
                <rect id="Rectangle_9" x="4.962" y="72.635" width="76.087" height="2.981"></rect>
                <rect id="Rectangle_10" x="4.962" y="69.505" width="76.087" height="2.385"></rect>
                <rect id="Rectangle_11" x="4.962" y="62.796" width="76.087" height="1"></rect>
                <rect id="Rectangle_12" x="4.962" y="66.769" width="76.087" height="2.039"></rect>
                <rect id="Rectangle_13" x="4.962" y="64.532" width="76.087" height="1.539"></rect>
                <path d="M26.182,95.455 C26.0170656,95.1978895 25.8148596,94.9667007 25.582,94.769 C25.3073518,94.5541676 24.9978553,94.3880881 24.667,94.278 C24.2780748,94.1426163 23.8688038,94.0749682 23.457,94.078 C22.8812913,94.0599183 22.3114386,94.1981482 21.808,94.478 C21.3361186,94.7596675 20.9643671,95.1821283 20.745,95.686 C20.49712,96.2603285 20.3770152,96.8816663 20.393,97.507 C20.3941912,97.8905371 20.4306784,98.2731507 20.502,98.65 C20.5645007,98.9919716 20.6606342,99.3269317 20.789,99.65 C20.9559602,100.089721 21.2062012,100.493095 21.526,100.838 C21.8117314,101.144531 22.1608307,101.385113 22.549,101.543 C22.9451364,101.699649 23.3680498,101.777438 23.794,101.772 C24.3788398,101.784822 24.9542643,101.623299 25.447,101.308 C25.9192754,100.990344 26.2842921,100.537124 26.494,100.008 C26.7347464,99.3891218 26.8512959,98.7289011 26.837,98.065 C26.8424534,97.4796826 26.7584854,96.8969651 26.588,96.337 C26.495163,96.0287829 26.3605809,95.7347211 26.188,95.463" id="Path_47"></path>
                <path d="M4.963,105.763 L81.05,105.763 L81.05,76.308 L4.963,76.308 L4.963,105.763 Z M60.812,81.743 C61.562,81.763 62.057,81.772 62.312,81.772 C62.567,81.772 63.198,81.772 64.173,81.727 C64.883,81.727 65.383,81.691 65.721,81.671 C65.668,82.11 65.636,82.762 65.621,83.625 L65.242,83.625 L65.201,83.044 C65.169,82.701 65.15,82.508 65.137,82.46 C65.1307485,82.4228077 65.1141085,82.3881409 65.089,82.36 C65.0595926,82.3368561 65.0254516,82.3204684 64.989,82.312 C64.9356667,82.312 64.738,82.296 64.396,82.264 C64.053,82.243 63.796,82.235 63.59,82.235 L62.863,82.235 C62.8170099,82.7426509 62.7966507,83.2522982 62.802,83.762 L62.802,87.215 C62.802,87.751 62.802,88.271 62.826,88.778 C62.814693,89.0029526 62.8434742,89.2281238 62.911,89.443 C62.9619601,89.5181716 63.0382807,89.5724835 63.126,89.596 C63.4037283,89.6487473 63.6864917,89.6702145 63.969,89.66 L63.969,90.035 C63.2676667,90.003 62.74,89.987 62.386,89.987 L60.544,90.035 L60.544,89.66 C60.8348093,89.6708039 61.1259202,89.6493395 61.412,89.596 C61.4930822,89.5761151 61.5641662,89.5274226 61.612,89.459 C61.6861336,89.278109 61.7202475,89.0833185 61.712,88.888 C61.712,88.803 61.712,88.247 61.736,87.211 L61.736,83.231 L61.699,82.231 L60.824,82.231 C60.4204562,82.2246621 60.0169296,82.2447048 59.616,82.291 C59.5461915,82.2825789 59.4770889,82.3114349 59.434,82.367 C59.3596503,82.5724761 59.3187963,82.7885631 59.313,83.007 L59.237,83.616 L58.863,83.616 C58.863,82.673 58.834,82.024 58.798,81.662 C59.229,81.681 59.898,81.707 60.814,81.734 M15.263,94.331 C14.7207475,94.1146314 14.138025,94.0184208 13.555,94.049 C13.0725909,94.0461236 12.5926212,94.11763 12.132,94.261 C11.7445918,94.3953238 11.392745,94.6158692 11.103,94.906 C10.7867199,95.2256222 10.5372077,95.6049897 10.369,96.022 C10.1617217,96.5618393 10.0615245,97.1368693 10.074,97.715 C10.0278061,98.7844312 10.4259338,99.8253539 11.174,100.591 C11.9479562,101.333709 12.9923986,101.726911 14.064,101.679 C14.5729,101.682648 15.0791681,101.605695 15.564,101.451 C15.8997597,101.339351 16.2166834,101.177517 16.504,100.971 L16.596,101.099 L16.367,101.646 C15.9373838,101.866437 15.482775,102.034313 15.013,102.146 C14.5408388,102.254747 14.0575022,102.307444 13.573,102.303 C12.99831,102.308164 12.4258389,102.231049 11.873,102.074 C11.3815539,101.935306 10.9175062,101.713428 10.501,101.418 C10.1298595,101.152401 9.8054399,100.826967 9.541,100.455 C9.29027462,100.103868 9.09718072,99.7149792 8.969,99.303 C8.83801747,98.8607127 8.77430478,98.4012397 8.78,97.94 C8.74755759,96.7585883 9.22650146,95.620641 10.094,94.818 C11.0878943,93.9620605 12.3717531,93.5190791 13.682,93.58 C14.0163995,93.5796692 14.3504571,93.6013829 14.682,93.645 C15.058145,93.6990739 15.4307873,93.7752051 15.798,93.873 C16.237,93.987 16.508,94.059 16.604,94.079 C16.5208713,94.2858099 16.4540018,94.4987892 16.404,94.716 C16.3379334,95.1020761 16.2951893,95.4917822 16.276,95.883 L15.903,95.883 L15.903,95.19 C15.8648413,94.8058288 15.6179828,94.4739926 15.261,94.327 M18.735,88.911 C18.735,88.826 18.735,88.27 18.764,87.234 L18.764,82.9 L16.729,87.158 C16.411,87.8246667 16.161,88.3616667 15.979,88.769 C15.85,89.064 15.652,89.531 15.39,90.176 L15.163,90.176 C15.111,90.023 15.063,89.905 15.022,89.812 L14.622,88.958 L11.793,83.1 L11.793,87.237 C11.793,87.773 11.793,88.293 11.817,88.8 C11.8053699,89.0248931 11.8338124,89.2500629 11.901,89.465 C11.9517465,89.5420648 12.0289288,89.5979064 12.118,89.622 C12.3998215,89.6744404 12.6864898,89.6962339 12.973,89.687 L12.973,90.06 L11.55,90.024 L10.078,90.06 L10.078,89.686 C10.3618446,89.6946506 10.645799,89.6728596 10.925,89.621 C11.0082162,89.6004227 11.081935,89.5520999 11.134,89.484 C11.200397,89.3012346 11.2306245,89.1073029 11.223,88.913 C11.223,88.828 11.223,88.272 11.247,87.236 L11.247,84.5 C11.247,83.9666667 11.239,83.443 11.223,82.929 C11.2341879,82.7043804 11.205408,82.4795584 11.138,82.265 C11.0849439,82.1905952 11.0080104,82.1366006 10.92,82.112 C10.6392826,82.0614446 10.3541391,82.0396652 10.069,82.047 L10.069,81.669 C10.469,81.669 10.875,81.693 11.245,81.693 C11.615,81.693 11.99,81.693 12.338,81.669 C12.681,82.469 13.002,83.148 13.289,83.74 L15.53,88.365 L17.544,84.118 C18.093,82.975 18.459,82.156 18.644,81.669 C19.044,81.669 19.415,81.693 19.701,81.693 C19.987,81.693 20.394,81.693 20.986,81.669 L20.986,82.047 C20.6983623,82.0392608 20.4106576,82.0596915 20.127,82.108 C20.0443112,82.1320061 19.9712215,82.1813155 19.918,82.249 C19.8470549,82.4305519 19.8170085,82.6255122 19.83,82.82 C19.83,82.897 19.83,83.457 19.801,84.497 L19.801,87.229 C19.801,87.765 19.801,88.284 19.83,88.792 C19.8186841,89.0166245 19.8474669,89.2414691 19.915,89.456 C19.9653603,89.5336377 20.0426492,89.5899125 20.132,89.614 C20.4135932,89.665545 20.6998695,89.6869989 20.986,89.678 L20.986,90.056 C20.18,90.032 19.632,90.019 19.302,90.019 C19.04,90.019 18.455,90.019 17.556,90.056 L17.556,89.679 C17.8424638,89.6880776 18.1290799,89.6666233 18.411,89.615 C18.5017046,89.6050525 18.5842418,89.5579919 18.639,89.485 C18.7113291,89.3038231 18.7414242,89.108547 18.727,88.914 M26.738,100.984 C25.8416666,101.867134 24.6226865,102.344534 23.365,102.305 C22.7749383,102.310418 22.1887859,102.208773 21.635,102.005 C21.1190791,101.81838 20.654006,101.513582 20.277,101.115 C19.8994486,100.698554 19.6139093,100.207209 19.439,99.673 C19.2478718,99.1361127 19.1484832,98.5708823 19.145,98.001 C19.1379441,97.4151963 19.2337297,96.8326978 19.428,96.28 C19.6215071,95.7402515 19.938627,95.2532704 20.354,94.858 C20.7744667,94.4434134 21.2749739,94.1188153 21.825,93.904 C22.4252879,93.6799191 23.062352,93.5706888 23.703,93.582 C24.3041415,93.5740087 24.9022861,93.6680077 25.472,93.86 C25.9517558,94.01137 26.3962149,94.2575738 26.779,94.584 C27.1048885,94.8618009 27.3779358,95.1961653 27.585,95.571 C27.7465364,95.867648 27.8669736,96.184889 27.943,96.514 C28.034352,96.8955319 28.0793437,97.2866911 28.077,97.679 C28.1100969,98.9195975 27.6249022,100.117909 26.738,100.986 M29.979,90 C29.571512,90.0564841 29.160351,90.0822235 28.749,90.077 L25.226,90.04 L23.635,90.061 L23.635,89.684 C23.9074604,89.698424 24.1803255,89.6645698 24.441,89.584 C24.49253,89.5624956 24.5334956,89.52153 24.555,89.47 C24.6145291,89.2688221 24.6431886,89.0597763 24.64,88.85 C24.6633333,88.3313333 24.6753333,87.883 24.676,87.505 L24.676,84.5 C24.676,83.969 24.676,83.444 24.652,82.933 C24.663307,82.7080474 24.6345258,82.4828762 24.567,82.268 C24.5136041,82.1939384 24.4368031,82.1400368 24.349,82.115 C24.0713956,82.0667267 23.7896649,82.046292 23.508,82.054 L23.508,81.676 L25.189,81.712 L26.97,81.683 C27.821,81.683 28.442,81.6619997 28.828,81.6619997 C29.1956291,81.6619061 29.5629403,81.6836109 29.928,81.727 C29.8741357,81.9200561 29.8313987,82.1160451 29.8,82.314 C29.8,82.351 29.756,82.762 29.686,83.552 L29.313,83.552 C29.3202277,83.1838078 29.2947947,82.8156998 29.237,82.452 C29.0093243,82.3557584 28.7687645,82.2934285 28.523,82.267 C28.085982,82.2100406 27.6457141,82.181647 27.205,82.182 L26.576,82.206 L25.876,82.246 C25.86,82.6833333 25.8476667,83.0943333 25.839,83.479 L25.812,85.493 C26.275,85.517 26.698,85.529 27.086,85.529 C27.4896164,85.5333054 27.893098,85.5119289 28.294,85.465 C28.3833292,85.4646579 28.4694316,85.431569 28.536,85.372 C28.5975283,85.2178002 28.6313801,85.0539577 28.636,84.888 L28.672,84.488 L29.023,84.488 L29.023,84.602 L28.998,85.81 L29.023,87.181 L28.623,87.181 L28.623,86.781 C28.6330126,86.5961399 28.6058083,86.4111511 28.543,86.237 C28.4777437,86.1580905 28.3853817,86.1063821 28.284,86.092 C27.8515598,86.03036 27.4145954,86.00627 26.978,86.02 C26.7113333,86.02 26.3363333,86.032 25.853,86.056 C25.853,86.456 25.825,87.031 25.825,87.805 C25.825,88.579 25.825,89.082 25.853,89.456 C26.425,89.5 27.063,89.52 27.764,89.52 C28.1206741,89.5280152 28.4774829,89.5119788 28.832,89.472 C29.0336795,89.4423062 29.2312984,89.3896302 29.421,89.315 C29.4818801,89.1525632 29.529045,88.9853117 29.562,88.815 C29.651,88.472 29.707,88.207 29.736,88.03 L30.136,88.03 C30.0444575,88.6842279 29.9933605,89.3434799 29.983,90.004 M37.063,102.08 C36.902,102.107 36.773,102.128 36.663,102.136 L35.72,102.136 L32.23,102.099 C31.839,102.105 31.458,102.117 31.065,102.141 L31.065,101.841 C31.2379251,101.777025 31.4008861,101.68881 31.549,101.579 C31.5875736,101.541248 31.6155124,101.493993 31.63,101.442 C31.6805589,101.209515 31.7033848,100.971858 31.698,100.734 C31.718,100.194 31.727,99.876 31.727,99.771 L31.727,96.596 C31.727,96.061 31.727,95.537 31.698,95.026 C31.713059,94.8009931 31.6845371,94.5751948 31.614,94.361 C31.5619572,94.2873308 31.4865434,94.2334135 31.4,94.208 C31.1206852,94.1600136 30.8372915,94.1399148 30.554,94.148 L30.554,93.77 C31.509,93.794 32.101,93.81 32.331,93.81 C32.561,93.81 33.137,93.81 34.024,93.77 L34.024,94.148 C33.7380545,94.1399426 33.4520099,94.1600394 33.17,94.208 C33.0868599,94.2316299 33.013343,94.2809913 32.96,94.349 C32.8935172,94.5317238 32.8636165,94.7257381 32.872,94.92 C32.872,94.997 32.872,95.557 32.848,96.595 L32.848,100.564 C32.848,100.964 32.848,101.313 32.872,101.575 C33.319,101.599 33.766,101.61 34.21,101.61 C34.9936981,101.643873 35.7783928,101.572231 36.543,101.397 C36.5996523,101.267686 36.6454762,101.133893 36.68,100.997 L36.914,100.018 L37.314,100.018 C37.23,100.607 37.145,101.291 37.065,102.085 M38.936,90.03 C38.4717039,89.4790878 38.0396496,88.9017911 37.642,88.301 C37.308,87.822 37.01,87.427 36.751,87.093 C36.351,86.565 35.951,86.093 35.567,85.659 L35.627,85.482 C35.827,85.482 35.99,85.501 36.094,85.501 C36.6841051,85.5433002 37.2685138,85.3619443 37.731,84.993 C38.1030133,84.6501403 38.3061978,84.1615474 38.287,83.656 C38.3068515,83.2198292 38.1312514,82.797509 37.808,82.504 C37.3949487,82.1878564 36.8795142,82.0357552 36.361,82.077 C35.9507784,82.0746975 35.5427621,82.1371318 35.152,82.262 C35.152,82.476 35.123,82.662 35.116,82.862 C35.116,82.918 35.116,83.491 35.076,84.576 L35.076,87.2 C35.076,87.736 35.076,88.256 35.104,88.763 C35.0900844,88.9887268 35.1158062,89.2151466 35.18,89.432 C35.2340642,89.5071542 35.3125239,89.5612278 35.402,89.585 C35.6807433,89.6377215 35.9644976,89.6591875 36.248,89.649 L36.248,90.024 C35.692,90 35.1803333,89.9876667 34.713,89.987 C34.335,89.987 33.701,89.987 32.813,90.024 L32.813,89.649 C33.0968336,89.6591705 33.3809173,89.6377049 33.66,89.585 C33.7437552,89.5656718 33.8178654,89.5170925 33.869,89.448 C33.935397,89.2652346 33.9656245,89.0713029 33.958,88.877 C33.958,88.792 33.958,88.237 33.985,87.202 L33.985,84.47 C33.985,83.934 33.985,83.411 33.958,82.899 C33.969307,82.6740474 33.9405258,82.4488762 33.873,82.234 C33.8202505,82.1610374 33.7451034,82.1073108 33.659,82.081 C33.3776566,82.0433741 33.0933382,82.0329927 32.81,82.05 L32.81,81.672 L33.516,81.672 L34.649,81.696 C34.878,81.696 35.221,81.696 35.696,81.675 L36.765,81.643 C37.3190399,81.6165355 37.8735582,81.6841597 38.405,81.843 C38.7355103,81.9659455 39.0165513,82.19394 39.205,82.492 C39.3920607,82.7855113 39.4900146,83.1269605 39.487,83.475 C39.4841318,83.81993 39.3928949,84.1583671 39.222,84.458 C39.0368441,84.7866072 38.7703126,85.0620919 38.448,85.258 C38.0417302,85.5013764 37.5954685,85.6706714 37.13,85.758 C37.23,85.895 37.46,86.201 37.83,86.68 L39.316,88.642 C39.742,89.186 39.993,89.492 40.061,89.556 C40.0936721,89.5813034 40.1305786,89.6006031 40.17,89.613 C40.3012549,89.641826 40.4358316,89.6525921 40.57,89.645 L40.57,90.02 C40.27,89.996 40.01,89.984 39.789,89.984 C39.5048824,89.9800127 39.2207658,89.9920317 38.938,90.02 M46.368,102.067 C46.207,102.094 46.078,102.115 45.985,102.123 L45.042,102.123 L41.548,102.087 C41.16,102.101 40.774,102.113 40.386,102.137 L40.386,101.837 C40.5521465,101.76836 40.7082317,101.677535 40.85,101.567 C40.8908905,101.531277 40.9189837,101.483168 40.93,101.43 C40.9809271,101.197504 41.0054158,100.959996 41.003,100.722 C41.003,100.181 41.027,99.864 41.027,99.759 L41.027,96.584 C41.027,96.0466667 41.019,95.523 41.003,95.013 C41.0131938,94.7884201 40.9844359,94.5637704 40.918,94.349 C40.8646041,94.2749384 40.7878031,94.2210368 40.7,94.196 C40.4220502,94.1477989 40.139995,94.127365 39.858,94.135 L39.858,93.757 C40.813,93.781 41.405,93.797 41.632,93.797 C41.859,93.797 42.438,93.797 43.324,93.757 L43.324,94.135 C43.0390188,94.1273533 42.753977,94.1477852 42.473,94.196 C42.3901062,94.2195667 42.3168908,94.2689608 42.264,94.337 C42.1972339,94.5199981 42.1673266,94.7143958 42.176,94.909 C42.176,94.985 42.176,95.546 42.147,96.584 L42.147,100.553 C42.147,100.953 42.147,101.301 42.176,101.564 C42.623,101.588 43.07,101.599 43.509,101.599 C44.2934197,101.633176 45.0788603,101.561192 45.844,101.385 C45.8999146,101.255502 45.9453927,101.121743 45.98,100.985 L46.218,100.006 L46.618,100.006 C46.529,100.595 46.444,101.279 46.364,102.074 M47.655,88.337 C47.321,87.857 47.023,87.463 46.764,87.128 C46.364,86.6 45.964,86.128 45.58,85.694 L45.641,85.517 C45.847,85.517 46,85.537 46.109,85.537 C46.6965234,85.5783717 47.2781871,85.3978062 47.739,85.031 C48.1115812,84.6885375 48.3148799,84.1996699 48.295,83.694 C48.3154187,83.2577296 48.139722,82.8351772 47.816,82.542 C47.4021217,82.2267289 46.88672,82.0747424 46.368,82.115 C45.9581245,82.1129525 45.5504772,82.1753819 45.16,82.3 C45.16,82.514 45.131,82.7 45.124,82.9 C45.124,82.956 45.124,83.529 45.084,84.614 L45.084,87.232 C45.084,87.768 45.084,88.288 45.111,88.795 C45.0952931,89.020838 45.1213968,89.2476356 45.188,89.464 C45.2420642,89.5391542 45.3205239,89.5932278 45.41,89.617 C45.6891244,89.6694424 45.9731421,89.6912383 46.257,89.682 L46.257,90.056 C45.6996667,90.0313333 45.1876667,90.0196667 44.721,90.021 C44.342,90.021 43.709,90.021 42.821,90.056 L42.821,89.682 C43.1045263,89.6912373 43.3882126,89.6694411 43.667,89.617 C43.7507904,89.5977542 43.8249268,89.5491575 43.876,89.48 C43.942397,89.2972346 43.9726245,89.1033029 43.965,88.909 C43.965,88.824 43.965,88.268 43.989,87.232 L43.989,84.5 C43.989,83.9626667 43.981,83.439 43.965,82.929 C43.9765309,82.7043672 43.9477433,82.4794847 43.88,82.265 C43.8269439,82.1905952 43.7500104,82.1366006 43.662,82.112 C43.3879016,82.0655776 43.1098713,82.046484 42.832,82.055 L42.832,81.677 L43.532,81.677 L44.664,81.701 C44.893,81.701 45.236,81.701 45.708,81.68 L46.776,81.648 C47.331681,81.621624 47.8878278,81.6892406 48.421,81.848 C48.7535783,81.9700736 49.0367895,82.1981183 49.227,82.497 C49.4134839,82.7907709 49.5113879,83.1320461 49.509,83.48 C49.5058269,83.8250186 49.4142442,84.1634615 49.243,84.463 C49.0585391,84.7921251 48.7918532,85.0677694 48.469,85.263 C48.0628139,85.5065491 47.6165204,85.6758562 47.151,85.763 C47.251,85.9 47.482,86.206 47.851,86.685 L49.322,88.685 C49.75,89.229 49.999,89.535 50.067,89.599 C50.1017214,89.6237091 50.1402215,89.6426214 50.181,89.655 C50.3122983,89.6835336 50.4468352,89.6942965 50.581,89.687 L50.581,90.062 C50.281,90.038 50.021,90.025 49.799,90.025 C49.5148628,90.0212876 49.2307428,90.0336406 48.948,90.062 C48.4833985,89.5116791 48.0513297,88.934697 47.654,88.334 M55.697,102.083 C55.2898503,102.139513 54.8790195,102.165253 54.468,102.16 L50.945,102.124 L49.362,102.141 L49.362,101.766 C49.6344544,101.780256 49.9072902,101.746405 50.168,101.666 C50.2186687,101.643229 50.2592288,101.602669 50.282,101.552 C50.3417055,101.350518 50.3703677,101.141115 50.367,100.931 C50.391,100.411 50.404,99.964 50.404,99.586 L50.404,96.578 C50.404,96.045 50.404,95.522 50.379,95.01 C50.3912469,94.785413 50.3627892,94.560462 50.295,94.346 C50.2421968,94.2717804 50.1656438,94.2178052 50.078,94.193 C49.7997233,94.1447195 49.5173285,94.1242852 49.235,94.132 L49.235,93.754 L50.916,93.789 L52.698,93.762 C53.552,93.762 54.169,93.741 54.556,93.741 C54.9235914,93.7411941 55.2908664,93.7625628 55.656,93.805 C55.6022623,93.9988268 55.5591976,94.1954556 55.527,94.394 C55.527,94.431 55.482,94.841 55.413,95.631 L55.033,95.631 C55.0397193,95.2627827 55.0139528,94.8946902 54.956,94.531 C54.7291737,94.4363616 54.4901676,94.3740854 54.246,94.346 C53.8075812,94.289666 53.3660231,94.2612754 52.924,94.261 L52.295,94.285 L51.595,94.326 C51.579,94.7633333 51.5666667,95.174 51.558,95.558 L51.534,97.573 C51.9913333,97.597 52.4143333,97.6093333 52.803,97.61 C53.2073148,97.6145333 53.6114976,97.592821 54.013,97.545 C54.1031384,97.5426134 54.1898262,97.5098411 54.259,97.452 C54.3152029,97.2969295 54.3462613,97.1338732 54.351,96.969 L54.388,96.569 L54.738,96.569 L54.738,96.683 L54.714,97.892 L54.738,99.263 L54.338,99.263 L54.338,98.863 C54.3472348,98.6780947 54.3197037,98.4931939 54.257,98.319 C54.1945929,98.2377555 54.1018096,98.1854069 54,98.174 C53.5675771,98.1121847 53.1305974,98.0880939 52.694,98.102 C52.431,98.102 52.057,98.102 51.572,98.138 C51.553,98.538 51.54,99.113 51.54,99.885 C51.54,100.657 51.54,101.163 51.572,101.538 C52.137,101.583 52.782,101.602 53.479,101.602 C53.8356737,101.609979 54.1924801,101.593943 54.547,101.554 C54.7490253,101.525468 54.9468181,101.47241 55.136,101.396 C55.1962021,101.234711 55.2446619,101.06928 55.281,100.901 C55.365,100.555 55.4213333,100.293 55.45,100.115 L55.85,100.115 C55.7595447,100.769681 55.7084529,101.429199 55.697,102.09 M56.314,82.056 C56.030348,82.0484477 55.7466425,82.0688798 55.467,82.117 C55.38434,82.1410675 55.3112676,82.1903651 55.258,82.258 C55.1910552,82.4406051 55.1611403,82.6347123 55.17,82.829 C55.17,82.906 55.17,83.466 55.145,84.506 L55.145,88.806 C55.1336627,89.0306254 55.162446,89.2554737 55.23,89.47 C55.2806732,89.5477697 55.3583219,89.6040472 55.448,89.628 C55.7339696,89.6793053 56.0247447,89.6987574 56.315,89.686 L56.315,90.063 C55.481,90.0383333 54.9326667,90.026 54.67,90.026 L52.852,90.063 L52.852,89.686 C53.1358125,89.6951503 53.4197848,89.6736931 53.699,89.622 C53.7825481,89.6021887 53.856505,89.5537098 53.908,89.485 C53.974397,89.3022346 54.0046245,89.1083029 53.997,88.914 C53.997,88.829 53.997,88.274 54.025,87.239 L54.025,84.5 C54.025,83.964 54.025,83.439 53.997,82.929 C54.008307,82.7040474 53.9795258,82.4788762 53.912,82.264 C53.8592505,82.1910374 53.7841034,82.1373108 53.698,82.111 C53.4182938,82.0634055 53.1346397,82.0429771 52.851,82.05 L52.851,81.672 C53.601,81.696 54.177,81.712 54.584,81.712 C54.991,81.712 55.556,81.712 56.314,81.672 L56.314,82.056 Z M66.705,99.363 C66.65534,99.7476994 66.6296239,100.135112 66.628,100.523 C66.6247935,100.910631 66.6461697,101.298075 66.692,101.683 C66.2110134,101.862022 65.7181575,102.007373 65.217,102.118 C64.5862131,102.242793 63.9450028,102.307416 63.302,102.311 C62.465685,102.324332 61.6377765,102.142521 60.884,101.78 C60.203081,101.448608 59.6322484,100.927775 59.24,100.28 C58.8423033,99.5919964 58.6426106,98.8074155 58.663,98.013 C58.6377152,97.337405 58.7748875,96.6656037 59.063,96.054 C59.3154937,95.5473372 59.6690943,95.0977642 60.102,94.733 C60.4742062,94.4125969 60.8947316,94.1530592 61.348,93.964 C62.1018624,93.6922293 62.8999478,93.5640201 63.701,93.586 C64.1644273,93.5931337 64.6261446,93.6440264 65.08,93.738 C65.564,93.838 66.109,93.967 66.716,94.138 C66.6580987,94.3322339 66.6126728,94.5299704 66.58,94.73 C66.547,94.923 66.507,95.319 66.454,95.919 L66.087,95.919 L66.06,95.242 L66.06,94.992 C66.0481093,94.9078989 66.0220752,94.8264156 65.983,94.751 C65.8475164,94.5795352 65.6734609,94.4424836 65.475,94.351 C65.1503273,94.2215589 64.815959,94.1179047 64.475,94.041 C64.1663394,93.9868289 63.8533643,93.9610544 63.54,93.964 C62.8608905,93.9475546 62.189728,94.1129285 61.596,94.443 C61.0489486,94.7590391 60.6146194,95.2384798 60.354,95.814 C60.0684617,96.4240238 59.923889,97.0904938 59.931,97.764 C59.9196905,98.491303 60.089817,99.2099585 60.426,99.855 C60.723845,100.442892 61.1808796,100.93527 61.745,101.276 C62.3352361,101.616931 63.0075155,101.789842 63.689,101.776 C64.0288789,101.777647 64.3680167,101.744136 64.701,101.676 C64.9876269,101.620567 65.2654657,101.526721 65.527,101.397 C65.5698343,101.148408 65.5875901,100.896141 65.58,100.644 L65.58,99.988 C65.5935317,99.7864619 65.5756515,99.5840452 65.527,99.388 C65.4539077,99.3063648 65.3505261,99.2582887 65.241,99.255 C64.8852634,99.2118269 64.5273406,99.1891229 64.169,99.187 L64.169,98.82 L66.006,98.86 C66.3691231,98.8663468 66.7323232,98.8529939 67.094,98.82 L67.126,99.11 L66.705,99.363 Z M68.778,82.382 C68.7058836,82.5878287 68.6673907,82.8039295 68.664,83.022 L68.584,83.631 L68.22,83.631 C68.22,82.688 68.196,82.039 68.156,81.677 C68.587,81.696 69.264,81.722 70.172,81.749 C70.918,81.769 71.413,81.778 71.658,81.778 C71.903,81.778 72.549,81.778 73.524,81.733 C74.229,81.733 74.734,81.697 75.067,81.677 C75.019,82.116 74.982,82.768 74.967,83.631 L74.588,83.631 L74.544,83.06 C74.512,82.717 74.488,82.524 74.48,82.475 C74.4727234,82.4371193 74.4542628,82.402288 74.427,82.375 C74.3982522,82.350617 74.3638848,82.333777 74.327,82.326 C74.271,82.326 74.0736667,82.31 73.735,82.278 C73.4689962,82.2547976 73.2019856,82.2451185 72.935,82.249 L72.209,82.249 C72.1596783,82.7567754 72.1383127,83.2668786 72.145,83.777 L72.145,87.23 C72.145,87.766 72.145,88.285 72.169,88.793 C72.1578121,89.0176196 72.186592,89.2424416 72.254,89.457 C72.306442,89.5326346 72.3829163,89.5883163 72.471,89.615 C72.7502449,89.6664636 73.0341925,89.6879189 73.318,89.679 L73.318,90.06 C72.613,90.028 72.084,90.012 71.73,90.012 L69.892,90.06 L69.892,89.683 C70.1797914,89.6921271 70.4677386,89.6706735 70.751,89.619 C70.8340549,89.5999337 70.9073008,89.5512216 70.957,89.482 C71.0274167,89.3002175 71.0590929,89.1057324 71.05,88.911 C71.05,88.826 71.05,88.271 71.079,87.236 L71.079,83.25 L71.042,82.243 L70.163,82.243 C69.7588009,82.2372359 69.354646,82.2572767 68.953,82.303 C68.8847271,82.3030883 68.8194117,82.3308744 68.772,82.38 M76.16,102.088 C75.7511134,102.143913 75.3386655,102.169649 74.926,102.165 L71.403,102.129 L69.825,102.146 L69.825,101.771 C70.0954653,101.784778 70.3662482,101.75093 70.625,101.671 C70.6755623,101.648075 70.7160749,101.607562 70.739,101.557 C70.7985839,101.355492 70.8272435,101.146108 70.824,100.936 C70.848,100.416 70.859,99.969 70.859,99.591 L70.859,96.583 C70.859,96.05 70.859,95.527 70.835,95.015 C70.8463373,94.7903746 70.817554,94.5655263 70.75,94.351 C70.6971968,94.2767804 70.6206438,94.2228052 70.533,94.198 C70.2547233,94.1497195 69.9723285,94.1292852 69.69,94.137 L69.69,93.759 L71.371,93.794 L73.152,93.767 C74.007,93.767 74.623,93.746 75.01,93.746 C75.3775891,93.7462735 75.7448595,93.767642 76.11,93.81 C76.0531142,94.0032865 76.0086896,94.200024 75.977,94.399 C75.977,94.436 75.932,94.846 75.863,95.636 L75.485,95.636 C75.4911524,95.2677976 75.4653894,94.8997545 75.408,94.536 C75.1811315,94.4414869 74.9421433,94.3792154 74.698,94.351 C74.2595712,94.2947705 73.8180197,94.2663803 73.376,94.266 L72.747,94.29 L72.047,94.331 C72.031,94.7683333 72.0193333,95.179 72.012,95.563 L71.988,97.578 C72.445,97.602 72.871,97.615 73.257,97.615 C73.6613147,97.6195305 74.0654974,97.5978182 74.467,97.55 C74.5571384,97.5476134 74.6438262,97.5148411 74.713,97.457 C74.7686515,97.3017786 74.799693,97.1388108 74.805,96.974 L74.841,96.574 L75.192,96.574 L75.192,96.688 L75.168,97.897 L75.192,99.268 L74.792,99.268 L74.792,98.868 C74.8012348,98.6830947 74.7737037,98.4981939 74.711,98.324 C74.6485159,98.2428443 74.5557734,98.1905188 74.454,98.179 C74.0212398,98.1172022 73.5839296,98.0931116 73.147,98.107 C72.885,98.107 72.51,98.107 72.027,98.143 C72.008,98.543 71.995,99.118 71.995,99.89 C71.995,100.662 71.995,101.168 72.027,101.543 C72.592,101.588 73.237,101.607 73.934,101.607 C74.2906737,101.614976 74.6474798,101.59894 75.002,101.559 C75.2047283,101.529156 75.4033614,101.476142 75.594,101.401 C75.6512073,101.238994 75.6986262,101.073696 75.736,100.906 C75.822,100.56 75.8783333,100.298 75.905,100.12 L76.305,100.12 C76.2147295,100.774639 76.1649682,101.434227 76.156,102.095" id="Path_48"></path>
            </g>
        </g>
    </g>
</svg>