<?xml version="1.0" encoding="UTF-8"?>
<svg width="132px" height="160px" viewBox="0 0 132 160" version="1.1" xmlns="http://www.w3.org/2000/svg" xmlns:xlink="http://www.w3.org/1999/xlink">
    <!-- Generator: Sketch 50.2 (55047) - http://www.bohemiancoding.com/sketch -->
    <title>LOGO</title>
    <desc>Created with Sketch.</desc>
    <defs>
        <polygon id="path-1" points="0 0 124 0 124 132 0 154"></polygon>
        <filter x="-4.8%" y="-3.9%" width="109.7%" height="107.8%" filterUnits="objectBoundingBox" id="filter-2">
            <feOffset dx="0" dy="0" in="SourceAlpha" result="shadowOffsetOuter1"></feOffset>
            <feGaussianBlur stdDeviation="2" in="shadowOffsetOuter1" result="shadowBlurOuter1"></feGaussianBlur>
            <feColorMatrix values="0 0 0 0 0   0 0 0 0 0   0 0 0 0 0  0 0 0 0.197860054 0" type="matrix" in="shadowBlurOuter1"></feColorMatrix>
        </filter>
    </defs>
    <g id="Batch-A-Designs" stroke="none" stroke-width="1" fill="none" fill-rule="evenodd">
        <g id="02-Mission-Home" transform="translate(-39.000000, 0.000000)">
            <g id="Header/Img-Area">
                <g id="LOGO" transform="translate(43.000000, 0.000000)">
                    <polygon id="logo-3" fill-opacity="0.699999988" fill="#007077" points="9 9.85483871 116 9.85483871 116 141.016129 9 160"></polygon>
                    <g id="Rectangle-4-Copy-7">
                        <use fill="black" fill-opacity="1" filter="url(#filter-2)" xlink:href="#path-1"></use>
                        <use fill="#FFFFFF" fill-rule="evenodd" xlink:href="#path-1"></use>
                    </g>
                    <g id="LOGO_Mission-College_white" transform="translate(19.438695, 14.494141)">
                        <path d="M42.4960411,40.7353149 C43.4598759,34.7500972 46.5393692,20.3511622 42.3939412,0.197658651 C42.3939412,0.197658651 37.7218026,18.2059259 42.2105026,40.7353149" id="Fill-1" fill="#E68F1C"></path>
                        <path d="M35.4630904,0.726075591 C35.4630904,0.726075591 34.9147654,8.4427262 35.6035844,12.9268758 C35.6035844,12.9268758 37.4732362,16.4235853 39.0030288,23.0714572 C39.0030288,23.0714572 38.2820725,19.8688182 39.0337441,12.284414 C39.0337441,12.284414 38.3642643,7.3506266 35.4630904,0.726075591" id="Fill-2" fill="#E68F1C"></path>
                        <path d="M28.5288267,2.44783886 C28.5288267,2.44783886 29.7375307,21.0166604 41.3476301,40.3408508 C41.3476301,40.3408508 39.479116,34.9167562 39.0115609,27.9216307 C39.0115609,27.9216307 34.9952508,11.1965805 28.5288267,2.44783886" id="Fill-3" fill="#E68F1C"></path>
                        <path d="M22.0919803,5.21306917 C22.0919803,5.21306917 24.2073545,13.3113858 26.303105,16.7952973 C26.303105,16.7952973 29.5259364,20.1702832 32.3816062,24.5679749 C32.3816062,24.5679749 30.6678062,20.9139917 29.103601,14.7231521 C29.103601,14.7231521 27.7433114,11.4377525 22.0919803,5.21306917" id="Fill-4" fill="#E68F1C"></path>
                        <path d="M15.9910115,9.15685695 C15.9910115,9.15685695 21.3024833,20.9145605 31.1370677,31.4211843 C31.1370677,31.4211843 35.7807662,34.9167562 38.9080389,38.3469159 C38.9080389,38.3469159 36.5395479,35.2495053 33.6645388,28.602771 C33.6645388,28.602771 25.7789541,16.3635767 15.9910115,9.15685695" id="Fill-5" fill="#E68F1C"></path>
                        <path d="M6.43997481,19.8386717 C6.43997481,19.8386717 23.3916926,25.0651077 39.9816524,40.7193885 L39.164853,40.7193885 C39.164853,40.7193885 22.3337211,35.1579282 6.43997481,19.8386717" id="Fill-6" fill="#E68F1C"></path>
                        <path d="M3.08603456,26.5303414 C3.08603456,26.5303414 9.49159685,27.1759315 15.4486589,29.5009091 C15.4486589,29.5009091 19.1313666,32.4026519 23.3561425,34.5501634 C23.3561425,34.5501634 18.2665033,32.9287936 12.7056118,32.2977079 C12.7056118,32.2977079 6.22781171,29.229875 3.08603456,26.5303414" id="Fill-7" fill="#E68F1C"></path>
                        <path d="M1.06053109,32.8932435 C1.06053109,32.8932435 9.4458083,32.1171134 26.840054,36.7221333 C26.840054,36.7221333 31.7428417,39.4495383 36.2710734,40.7492506 L25.4769203,40.7492506 C25.4769203,40.7492506 7.61853229,36.9109755 1.06053109,32.8932435" id="Fill-8" fill="#E68F1C"></path>
                        <path d="M0.245722409,39.3596676 C0.245722409,39.3596676 5.32114152,38.3204666 10.9730413,38.4953732 C10.9730413,38.4953732 16.5254008,40.3254932 20.2314294,40.7193885 L5.02052973,40.7193885 C5.02052973,40.7193885 3.32749096,40.326062 0.245722409,39.3596676" id="Fill-9" fill="#E68F1C"></path>
                        <path d="M10.6937596,14.1461026 C10.6937596,14.1461026 14.8937926,20.280062 18.5363998,23.6081217 C18.5363998,23.6081217 22.9625316,25.7792385 27.3130127,29.0731701 C27.3130127,29.0731701 23.7412214,25.2832433 20.9887891,20.880148 C20.9887891,20.880148 17.5233637,17.6504909 10.6937596,14.1461026" id="Fill-10" fill="#E68F1C"></path>
                        <path d="M49.1592707,0.726075591 C49.1592707,0.726075591 49.7087333,8.4427262 49.020483,12.9268758 C49.020483,12.9268758 47.1505469,16.4235853 45.6210386,23.0714572 C45.6210386,23.0714572 46.3408574,19.8688182 45.5897545,12.284414 C45.5897545,12.284414 46.2580967,7.3506266 49.1592707,0.726075591" id="Fill-11" fill="#E68F1C"></path>
                        <path d="M56.0943875,2.44783886 C56.0943875,2.44783886 54.8856835,21.0166604 43.2752997,40.3408508 C43.2752997,40.3408508 45.1816392,34.9167562 45.6491943,27.9216307 C45.6491943,27.9216307 49.6282478,11.1965805 56.0943875,2.44783886" id="Fill-12" fill="#E68F1C"></path>
                        <path d="M62.5306651,5.21306917 C62.5306651,5.21306917 60.4152909,13.3113858 58.320678,16.7952973 C58.320678,16.7952973 55.096709,20.1702832 52.241608,24.5679749 C52.241608,24.5679749 53.9554081,20.9139917 55.5196132,14.7231521 C55.5196132,14.7231521 56.8804717,11.4377525 62.5306651,5.21306917" id="Fill-13" fill="#E68F1C"></path>
                        <path d="M68.6324872,9.15685695 C68.6324872,9.15685695 63.3204465,20.9145605 53.4841557,31.4211843 C53.4841557,31.4211843 48.8421636,34.9167562 45.7137533,38.3469159 C45.7137533,38.3469159 48.0449878,35.2495053 50.9208501,28.602771 C50.9208501,28.602771 58.8445446,16.3635767 68.6324872,9.15685695" id="Fill-14" fill="#E68F1C"></path>
                        <path d="M78.1838082,19.8386717 C78.1838082,19.8386717 61.2315216,25.0651077 44.6421306,40.7193885 L45.4577925,40.7193885 C45.4577925,40.7193885 62.2900619,35.1579282 78.1838082,19.8386717" id="Fill-15" fill="#E68F1C"></path>
                        <path d="M81.5371797,26.5303414 C81.5371797,26.5303414 75.1316174,27.1759315 69.1751242,29.5009091 C69.1751242,29.5009091 65.4924165,32.4026519 61.2670717,34.5501634 C61.2670717,34.5501634 66.3578485,32.9287936 71.9170336,32.2977079 C71.9170336,32.2977079 78.3948337,29.229875 81.5371797,26.5303414" id="Fill-16" fill="#E68F1C"></path>
                        <path d="M83.5612611,32.8932435 C83.5612611,32.8932435 75.1759839,32.1171134 57.7817383,36.7221333 C57.7817383,36.7221333 52.8798037,39.4495383 48.3521408,40.7492506 L59.1465784,40.7492506 C59.1465784,40.7492506 77.0043976,36.9109755 83.5612611,32.8932435" id="Fill-17" fill="#E68F1C"></path>
                        <path d="M84.3774918,39.3596676 C84.3774918,39.3596676 79.3015039,38.3204666 73.6501729,38.4953732 C73.6501729,38.4953732 68.0978134,40.3254932 64.391216,40.7193885 L79.6026845,40.7193885 C79.6026845,40.7193885 81.2951545,40.326062 84.3774918,39.3596676" id="Fill-18" fill="#E68F1C"></path>
                        <path d="M73.9294546,14.1461026 C73.9294546,14.1461026 69.7288528,20.280062 66.0873832,23.6081217 C66.0873832,23.6081217 61.6606826,25.7792385 57.3087795,29.0731701 C57.3087795,29.0731701 60.8819929,25.2832433 63.6355627,20.880148 C63.6355627,20.880148 67.0998505,17.6504909 73.9294546,14.1461026" id="Fill-19" fill="#E68F1C"></path>
                        <path d="M8.3810112,91.6948435 C7.94445576,91.001474 7.32844333,90.552405 6.41693833,90.552405 C5.37716851,90.552405 4.59421273,91.3868373 4.59421273,92.4007267 C4.59421273,93.4151848 5.5569099,93.8386578 6.34015008,94.2109386 L8.18847176,95.1733514 C8.92023537,95.6355029 9.2925162,96.2262036 9.2925162,97.0990301 C9.2925162,98.7039046 7.82898898,99.9103334 6.26307742,99.9103334 C4.91501698,99.9103334 3.86244912,99.075901 3.41338004,97.8307937 L3.95231981,97.5870621 C4.36327917,98.6137495 5.12063886,99.3324307 6.28867351,99.3324307 C7.55937689,99.3324307 8.67621937,98.3313394 8.67621937,97.0475536 C8.67621937,95.9565916 7.55937689,95.49444 6.72522894,95.0837651 L4.9792916,94.159462 C4.33739868,93.7615851 3.9782003,93.1967649 3.9782003,92.4266071 C3.9782003,90.9889604 5.00488768,89.9747867 6.45533246,89.9747867 C7.43111207,89.9747867 8.35541511,90.5012128 8.81756663,91.3353607" id="Fill-20" fill="#007077"></path>
                        <path d="M13.5153013,91.3481588 L11.615503,96.0208662 L15.4023015,96.0208662 L13.5153013,91.3481588 Z M11.3845695,96.5984845 L10.0879856,99.7817842 L9.45889075,99.7817842 L13.5153013,89.7822472 L17.5589138,99.7817842 L16.9298189,99.7817842 L15.6335195,96.5984845 L11.3845695,96.5984845 Z" id="Fill-22" fill="#007077"></path>
                        <polyline id="Fill-24" fill="#007077" points="27.1477758 100.102588 19.0221566 91.46391 19.0221566 99.7817842 18.4061442 99.7817842 18.4061442 89.9747867 26.531479 98.5494749 26.531479 90.1030515 27.1477758 90.1030515"></polyline>
                        <polyline id="Fill-26" fill="#007077" points="31.1908195 99.7820686 30.5745227 99.7820686 30.5745227 90.6809542 28.07151 90.6809542 28.07151 90.1033359 33.6938321 90.1033359 33.6938321 90.6809542 31.1908195 90.6809542"></polyline>
                        <path d="M36.8003436,91.3481588 L34.9005453,96.0208662 L38.6873438,96.0208662 L36.8003436,91.3481588 Z M34.6696118,96.5984845 L33.3730279,99.7817842 L32.743933,99.7817842 L36.8003436,89.7822472 L40.8439561,99.7817842 L40.2148612,99.7817842 L38.9185617,96.5984845 L34.6696118,96.5984845 Z" id="Fill-28" fill="#007077"></path>
                        <path d="M53.1670487,92.0802068 C52.422487,91.1687018 51.1131051,90.5526894 49.91919,90.5526894 C47.506048,90.5526894 45.5163791,92.6319446 45.5163791,95.0069768 C45.5163791,96.1366174 46.0041267,97.2019833 46.8126785,97.9980215 C47.6215148,98.7681792 48.7767514,99.3327151 49.91919,99.3327151 C51.0360324,99.3327151 52.4483675,98.7295007 53.1670487,97.8566742 L53.1670487,98.7039046 C52.2555437,99.4612643 51.1387012,99.9103334 49.9450705,99.9103334 C47.249234,99.9103334 44.9003666,97.6641348 44.9003666,94.9555003 C44.9003666,92.2084716 47.2108399,89.9750711 49.9578685,89.9750711 C51.1259031,89.9750711 52.3070202,90.4372226 53.1670487,91.2329764" id="Fill-30" fill="#007077"></path>
                        <polyline id="Fill-32" fill="#007077" points="55.3873668 99.2041659 57.8519853 99.2041659 57.8519853 99.7817842 54.7713543 99.7817842 54.7713543 90.1030515 55.3873668 90.1030515"></polyline>
                        <path d="M62.627077,91.3481588 L60.7272788,96.0208662 L64.5140772,96.0208662 L62.627077,91.3481588 Z M60.4963452,96.5984845 L59.1997613,99.7817842 L58.5706665,99.7817842 L62.627077,89.7822472 L66.6706895,99.7817842 L66.0415947,99.7817842 L64.7450108,96.5984845 L60.4963452,96.5984845 Z" id="Fill-34" fill="#007077"></path>
                        <path d="M68.9811627,94.6216136 C69.5843771,94.6216136 70.1875915,94.5960175 70.6753391,94.1722601 C71.1374906,93.7999793 71.3559106,93.222361 71.3559106,92.6447427 C71.3559106,91.9257771 71.0220239,91.2070959 70.3289388,90.8990897 C69.8155951,90.6550737 69.1609041,90.6809542 68.5960839,90.6809542 L68.1979226,90.6809542 L68.1979226,94.6216136 L68.9811627,94.6216136 Z M72.3697999,99.7820686 L71.6639168,99.7820686 L68.5059288,95.1992319 L68.1979226,95.1992319 L68.1979226,99.7820686 L67.5819101,99.7820686 L67.5819101,90.1030515 L68.7883389,90.1030515 C69.5715791,90.1030515 70.3417368,90.1158495 70.9964278,90.5907991 C71.6895129,91.0788311 71.9722074,91.8489888 71.9722074,92.6706231 C71.9722074,94.3520015 70.8038883,95.224828 69.1992983,95.1992319 L72.3697999,99.7820686 Z" id="Fill-36" fill="#007077"></path>
                        <path d="M76.8624815,91.3481588 L74.9626832,96.0208662 L78.7494817,96.0208662 L76.8624815,91.3481588 Z M74.7317497,96.5984845 L73.4351658,99.7817842 L72.8060709,99.7817842 L76.8624815,89.7822472 L80.906094,99.7817842 L80.2769991,99.7817842 L78.9804153,96.5984845 L74.7317497,96.5984845 Z" id="Fill-38" fill="#007077"></path>
                        <path d="M13.1316444,73.856648 C12.4502198,72.936611 11.3421937,72.4420377 10.2006084,72.4420377 C8.15548125,72.4420377 6.77499911,74.0099401 6.77499911,76.0038751 C6.77499911,78.0319381 8.17254531,79.4974562 10.2518006,79.4974562 C11.3421937,79.4974562 12.4328713,78.9693236 13.1316444,78.1340381 L13.1316444,82.1389721 C12.0239028,82.4796844 11.2230298,82.7353608 10.1835443,82.7353608 C8.39409364,82.7353608 6.68996323,82.0536518 5.36067325,80.8435258 C3.94634739,79.565428 3.29876646,77.8954257 3.29876646,75.986811 C3.29876646,74.2314884 3.96341145,72.5444221 5.19031709,71.2833883 C6.45135084,69.9879421 8.27492965,69.2044175 10.08116,69.2044175 C11.1547735,69.2044175 12.1433512,69.4427455 13.1316444,69.8519984" id="Fill-40" fill="#007077"></path>
                        <path d="M18.3811169,75.748483 C18.3811169,77.9639663 20.0169911,79.5827764 22.0109261,79.5827764 C24.004861,79.5827764 25.6407352,77.9639663 25.6407352,75.748483 C25.6407352,73.9760964 24.004861,72.3570019 22.0109261,72.3570019 C20.0169911,72.3570019 18.3811169,73.9760964 18.3811169,75.748483 M29.1172523,75.7311346 C29.1172523,79.8896451 26.1350241,82.8206811 22.0109261,82.8206811 C17.8868281,82.8206811 14.9045999,79.8896451 14.9045999,75.7311346 C14.9045999,71.8459334 18.3128607,69.1190972 22.0109261,69.1190972 C25.7089915,69.1190972 29.1172523,71.8459334 29.1172523,75.7311346" id="Fill-41" fill="#007077"></path>
                        <polyline id="Fill-42" fill="#007077" points="34.3672936 79.5657124 38.3722276 79.5657124 38.3722276 82.3946485 31.0270046 82.3946485 31.0270046 69.5454142 34.3672936 69.5454142"></polyline>
                        <polyline id="Fill-43" fill="#007077" points="43.1612549 79.5657124 47.1659045 79.5657124 47.1659045 82.3946485 39.8209659 82.3946485 39.8209659 69.5454142 43.1612549 69.5454142"></polyline>
                        <polyline id="Fill-44" fill="#007077" points="51.9552163 72.3740659 51.9552163 74.521293 55.7215379 74.521293 55.7215379 77.3505135 51.9552163 77.3505135 51.9552163 79.5657124 55.9260222 79.5657124 55.9260222 82.3943641 48.6152117 82.3943641 48.6152117 69.5454142 55.9260222 69.5454142 55.9260222 72.3740659"></polyline>
                        <path d="M71.1613803,75.2200661 C71.1275366,77.0945527 70.9910242,78.6965831 69.8494388,80.2983292 C68.5881206,82.0536518 66.69657,82.8206811 64.5493429,82.8206811 C60.5105652,82.8206811 57.6984088,80.0767809 57.6984088,76.0380032 C57.6984088,71.862713 60.5273449,69.1190972 64.6685069,69.1190972 C67.3100228,69.1190972 69.3548656,70.3118747 70.4628916,72.7147782 L67.2929588,74.0440682 C66.8327981,72.8171626 65.8612845,71.9992255 64.5152148,71.9992255 C62.3167956,71.9992255 61.1752102,74.0952604 61.1752102,76.0550672 C61.1752102,78.0487178 62.3679878,80.0767809 64.566407,80.0767809 C66.014861,80.0767809 67.1226026,79.3268156 67.2588307,77.8445179 L64.5319945,77.8445179 L64.5319945,75.2200661" id="Fill-45" fill="#007077"></path>
                        <polyline id="Fill-46" fill="#007077" points="76.3940731 72.3740659 76.3940731 74.521293 80.1603947 74.521293 80.1603947 77.3505135 76.3940731 77.3505135 76.3940731 79.5657124 80.364879 79.5657124 80.364879 82.3943641 73.0540685 82.3943641 73.0540685 69.5454142 80.364879 69.5454142 80.364879 72.3740659"></polyline>
                        <polyline id="Fill-47" fill="#007077" points="6.35835174 49.2670586 9.57777034 49.2670586 12.1302687 55.989728 14.8326464 49.2670586 18.08534 49.2670586 19.987129 61.8449744 16.7176558 61.8449744 15.8001784 54.6052642 15.7669035 54.6052642 12.7474188 61.8449744 11.4462845 61.8449744 8.56046819 54.6052642 8.52690888 54.6052642 7.47604742 61.8449744 4.22306951 61.8449744"></polyline>
                        <polygon id="Fill-48" fill="#007077" points="21.3869504 61.8449744 24.6564236 61.8449744 24.6564236 49.2670586 21.3869504 49.2670586"></polygon>
                        <path d="M33.7140246,52.5032569 C33.1133698,52.0027112 32.3460561,51.6691089 31.5454675,51.6691089 C30.9448127,51.6691089 30.1442241,52.0194909 30.1442241,52.7202548 C30.1442241,53.4542936 31.0284266,53.7378413 31.595522,53.9209955 L32.4293856,54.1712684 C34.1810109,54.6885937 35.5321998,55.5725118 35.5321998,57.6076849 C35.5321998,58.859049 35.2318724,60.1434036 34.2310655,60.9940468 C33.2467539,61.8281948 31.9291243,62.1785767 30.661265,62.1785767 C29.0765829,62.1785767 27.5251758,61.6447562 26.2408212,60.7440584 L27.6417802,58.1082305 C28.4591485,58.8254897 29.4269649,59.4093648 30.5443762,59.4093648 C31.3119743,59.4093648 32.1293426,59.025708 32.1293426,58.1415054 C32.1293426,57.2243124 30.8447036,56.9072054 30.1442241,56.7069871 C28.0922713,56.1233964 26.7410825,55.5895758 26.7410825,53.1536818 C26.7410825,50.6014678 28.5592576,48.9334563 31.0781967,48.9334563 C32.3460561,48.9334563 33.8974632,49.3336084 35.0151589,49.9675381" id="Fill-49" fill="#007077"></path>
                        <path d="M44.0053569,52.5032569 C43.4049865,52.0027112 42.6373884,51.6691089 41.8367998,51.6691089 C41.2364294,51.6691089 40.4355563,52.0194909 40.4355563,52.7202548 C40.4355563,53.4542936 41.3197589,53.7378413 41.8868543,53.9209955 L42.7210023,54.1712684 C44.4726276,54.6885937 45.8238165,55.5725118 45.8238165,57.6076849 C45.8238165,58.859049 45.5234891,60.1434036 44.5223978,60.9940468 C43.5383706,61.8281948 42.2204566,62.1785767 40.9528816,62.1785767 C39.3679152,62.1785767 37.8165081,61.6447562 36.5321535,60.7440584 L37.9333969,58.1082305 C38.7507652,58.8254897 39.7182972,59.4093648 40.8359929,59.4093648 C41.6033066,59.4093648 42.4206749,59.025708 42.4206749,58.1415054 C42.4206749,57.2243124 41.1363203,56.9072054 40.4355563,56.7069871 C38.383888,56.1233964 37.0324147,55.5895758 37.0324147,53.1536818 C37.0324147,50.6014678 38.8508743,48.9334563 41.3698134,48.9334563 C42.6373884,48.9334563 44.1890799,49.3336084 45.3064912,49.9675381" id="Fill-50" fill="#007077"></path>
                        <polygon id="Fill-51" fill="#007077" points="47.39115 61.8449744 50.6606232 61.8449744 50.6606232 49.2670586 47.39115 49.2670586"></polygon>
                        <path d="M55.5810438,55.339303 C55.5810438,57.5078602 57.1825055,59.0925422 59.1343491,59.0925422 C61.0859083,59.0925422 62.68737,57.5078602 62.68737,55.339303 C62.68737,53.6041729 61.0859083,52.0194909 59.1343491,52.0194909 C57.1825055,52.0194909 55.5810438,53.6041729 55.5810438,55.339303 M66.0905116,55.3225234 C66.0905116,59.3928696 63.171136,62.2621906 59.1343491,62.2621906 C55.0975622,62.2621906 52.1781866,59.3928696 52.1781866,55.3225234 C52.1781866,51.5192296 55.514494,48.8501269 59.1343491,48.8501269 C62.7542042,48.8501269 66.0905116,51.5192296 66.0905116,55.3225234" id="Fill-52" fill="#007077"></path>
                        <polyline id="Fill-53" fill="#007077" points="67.6237171 49.2670586 70.8931902 49.2670586 76.8821052 56.9572599 76.9153801 56.9572599 76.9153801 49.2670586 80.1848532 49.2670586 80.1848532 61.8449744 76.9153801 61.8449744 70.9264651 54.1379935 70.8931902 54.1379935 70.8931902 61.8449744 67.6237171 61.8449744"></polyline>
                        <path d="M2.63326827,65.6767083 L82.4071621,65.6767083 M2.63326827,86.2679049 L82.4071621,86.2679049" id="Stroke-54" stroke="#007077" stroke-width="1.53"></path>
                    </g>
                </g>
            </g>
        </g>
    </g>
</svg>