<?xml version="1.0" encoding="UTF-8"?>
<svg width="212px" height="124px" viewBox="0 0 212 124" version="1.1" xmlns="http://www.w3.org/2000/svg" xmlns:xlink="http://www.w3.org/1999/xlink">
    <title>0F31034E-5DC4-42D6-AAC5-9F718FC3DE68</title>
    <g id="Visual-designs" stroke="none" stroke-width="1" fill="none" fill-rule="evenodd">
        <g id="Home_Landing" transform="translate(-119.000000, 0.000000)">
            <g id="Group-7" transform="translate(119.000000, 0.000000)">
                <rect id="Rectangle-Copy-13" fill="#006E79" x="0" y="0" width="212" height="124"></rect>
                <g id="Group-Copy" transform="translate(31.000000, 23.000000)" fill="#FFFFFF">
                    <path d="M31,18.3584112 C31.1537746,17.9998595 31.3460426,17.1496542 31.5770036,15.8067916 L31.9230462,15.8067916 C32.903733,17.8117503 34.4468637,18.8137278 36.5530366,18.8137278 C37.7838314,18.8137278 38.7836652,18.4274716 39.5529369,17.65516 C40.3220091,16.8738143 40.7067447,15.9125905 40.7067447,14.7724923 C40.7067447,14.0826917 40.5047037,13.4436827 40.1010205,12.8548628 C39.706512,12.2574104 38.8119868,11.6597573 37.4180434,11.0619034 L34.8076655,9.9860474 C32.576638,9.03927808 31.4615231,7.46193148 31.4615231,5.25521215 C31.4615231,3.62747558 32.0481003,2.34463929 33.2212545,1.40690403 C34.3940099,0.468968009 35.9375395,0 37.8510454,0 C39.6297244,0 41.0386265,0.450498379 42.0769538,1.35149514 C41.7496593,1.79295946 41.4806037,2.59297552 41.269388,3.75154332 L40.9233454,3.75154332 C40.2978759,1.9495498 39.1488548,1.04835229 37.4758834,1.04835229 C36.4375561,1.04835229 35.5577901,1.36554812 34.8361866,1.99993977 C34.1153808,2.62529737 33.7549779,3.44378306 33.7549779,4.45499533 C33.7549779,6.12890598 34.846159,7.40210594 37.0291194,8.27559901 L39.4228967,9.18603134 C41.8074993,10.1516718 43,11.6738103 43,13.7514429 C43,15.5813417 42.3366353,17.0805938 41.0097065,18.2481957 C39.6827776,19.4159983 37.9707144,20 35.8751122,20 C34.0290197,20 32.4039158,19.4529376 31,18.3584112" id="Fill-1-Copy"></path>
                    <path d="M47.9079081,11.1494883 C48.0008599,11.1738933 48.330021,11.185899 48.8947704,11.185899 L50.2907032,11.185899 L51.3371871,11.185899 C51.8690203,11.185899 52.2180553,11.1673984 52.384292,11.1311845 L52.384292,11.1219342 C51.8592904,10.1047962 51.0978725,8.55448737 50.1012803,6.47100769 C49.4495828,7.85166233 48.7185967,9.41141828 47.9079081,11.1494883 M44,17 C45.8940219,13.3116938 48.0209408,8.97822927 50.3805497,4 L50.7790624,4 C51.2442353,4.98722219 52.1251035,6.86778599 53.4208389,9.64129777 C54.7169883,12.4154 55.910042,14.8681039 57,17 C56.6008663,16.9391843 56.2522454,16.9092685 55.9531021,16.9092685 C55.6939136,16.9092685 55.3183802,16.9391843 54.8265017,17 C54.6008504,16.303473 53.8826995,14.6439321 52.6734983,12.0217707 C52.4406013,11.9851632 52.0317377,11.9670563 51.4473215,11.9670563 L50.2704153,11.9670563 L48.9846169,11.9670563 C48.3666635,11.9670563 47.874578,11.9851632 47.5093955,12.0217707 C47.356201,12.2941622 47.0307663,13.0422546 46.5320562,14.2654575 C45.9670998,15.6222976 45.6248965,16.5335493 45.5054462,17 C45.2328015,16.9391843 44.9802376,16.9092685 44.7477546,16.9092685 C44.4751099,16.9092685 44.2258583,16.9391843 44,17" id="Fill-3-Copy"></path>
                    <path d="M58,17.8176667 C58.1058076,14.9819476 58.1591107,12.0307647 58.1591107,8.96432545 C58.1591107,6.41020544 58.143539,4.75529185 58.1123956,4 L58.4120508,4 C62.1875862,8.28898613 65.3893648,11.8255878 68.016588,14.6106356 L68.016588,11.4993399 C68.016588,8.93878217 67.9730672,6.52525402 67.8858258,4.25917081 C68.0976407,4.3233405 68.2942831,4.35490618 68.4753539,4.35490618 C68.6440472,4.35490618 68.8187296,4.3233405 69,4.25917081 C68.8937931,7.37690425 68.8406897,9.66853074 68.8406897,11.134258 C68.8406897,13.8360306 68.8562613,16.124542 68.8874047,18 L68.5877495,18 C66.1036661,14.984855 62.8929038,11.3745309 58.9546642,7.16861233 C58.9546642,12.859779 59.0079673,16.4092561 59.1141742,17.8176667 C58.9269147,17.7661648 58.751833,17.7341838 58.5899274,17.721516 C58.4214338,17.721516 58.2245917,17.753497 58,17.8176667" id="Fill-5-Copy"></path>
                    <path d="M77.10866,3.22378648 C77.0358999,4.83850199 77.0005084,6.65741343 77.0005084,8.67992547 L77.0005084,13.5496709 C77.0005084,15.3769169 77.0358999,17.1188332 77.10866,18.7760151 C77.9424359,18.9462776 78.8877246,19.0312104 79.9455146,19.0312104 C84.518529,19.0312104 86.8045419,16.2093774 86.8045419,10.5665053 C86.8045419,8.03419802 86.3227036,6.13471948 85.3592249,4.86806972 C84.4028641,3.60201528 82.7894871,2.96878962 80.5216642,2.96878962 C79.4717828,2.96878962 78.3337194,3.05372242 77.10866,3.22378648 M75,2 C75.544317,2.08493281 76.6374986,2.12739921 78.2825105,2.12739921 C78.4570952,2.12739921 79.0694272,2.10656289 80.1195063,2.0636996 C81.1699808,2.0212332 81.742176,2 81.8370806,2 C86.6129533,2 89,4.83453317 89,10.5028057 C89,13.3500391 88.2646876,15.644614 86.7936674,17.3865303 C85.3299627,19.1288434 83.4020167,20 81.010818,20 C80.8736019,20 80.3585471,19.9787668 79.4678285,19.9359035 C78.5767145,19.8934371 78.0723365,19.8724024 77.9568693,19.8724024 C76.7905321,19.8724024 75.8053045,19.9150672 75,20 C75.1237713,17.3994289 75.1854593,15.3132173 75.1854593,13.7409682 L75.1854593,8.74362508 C75.1854593,5.93092044 75.1237713,3.68258238 75,2" id="Fill-7-Copy"></path>
                    <path d="M92,18 C92.1125178,16.0234735 92.1700143,14.400998 92.1700143,13.1315401 L92.1700143,9.68135113 C92.1700143,8.1082733 92.1125178,6.21462738 92,4 C92.4184674,4.06613913 92.7598287,4.09900201 93.0257972,4.09900201 C93.4168491,4.09900201 93.7416468,4.06613913 94,4 C93.8872918,6.40601748 93.8307473,8.26328688 93.8307473,9.57201488 L93.8307473,13.1315401 C93.8307473,14.3745423 93.8872918,15.9972245 94,18 C93.5748691,17.9340676 93.2407425,17.900998 92.9957163,17.900998 C92.6507377,17.900998 92.318515,17.9340676 92,18" id="Fill-9-Copy"></path>
                    <path d="M98,17 C98.1076324,14.738959 98.1623245,13.2318612 98.1623245,12.4783123 L98.1623245,8.5398265 C98.1623245,7.52484227 98.1076324,6.01163249 98,4 C99.1580703,4.10350946 100.352148,4.15477129 101.58632,4.15477129 C102.566106,4.15477129 103.669484,4.10350946 104.896066,4 C104.832226,4.23107256 104.801474,4.41344637 104.801474,4.54692429 C104.801474,4.70504732 104.832226,4.88722397 104.896066,5.09404574 C103.340748,4.99073344 101.65561,4.93888013 99.8408453,4.93888013 C99.7770054,5.95997634 99.7454748,7.57354101 99.7454748,9.77977129 C101.067232,9.77977129 102.63559,9.72811514 104.450355,9.62460568 C104.386515,9.83142744 104.355763,10.0136041 104.355763,10.1717271 C104.355763,10.3054022 104.386515,10.487776 104.450355,10.7186514 C102.976783,10.6153391 101.408425,10.563683 99.7454748,10.563683 C99.7454748,11.2689274 99.7770054,13.1013407 99.8408453,16.0607256 C102.401835,16.0607256 104.121229,16.0092666 105,15.9061514 C104.936744,16.1427445 104.905992,16.3314274 104.905992,16.4710174 C104.905992,16.580836 104.936744,16.7569006 105,17 C103.80456,16.8966877 102.647852,16.8448344 101.528319,16.8448344 C100.5425,16.8448344 99.3667176,16.8966877 98,17" id="Fill-11-Copy"></path>
                    <path d="M115.4487,16.7358704 C115.481761,16.0547104 115.498488,15.4958404 115.498488,15.0594598 L115.498488,14.6824317 L115.498488,14.2255366 C115.498488,13.3764765 115.481761,12.6327772 115.4487,11.9928452 C115.721255,12.0527953 116.011718,12.0828699 116.324615,12.0828699 C116.557812,12.0828699 116.763458,12.0527953 116.94175,11.9928452 C116.908099,13.0213571 116.890781,13.7648573 116.890781,14.2255366 L116.890781,15.6776823 C116.890781,16.0306108 116.908099,16.5203689 116.94175,17.1479524 C115.351683,17.7159841 113.897007,18 112.580282,18 C110.523033,18 108.909941,17.4443168 107.742383,16.3321536 C106.580532,15.2148121 106,13.6039282 106,11.4999004 C106,9.43789738 106.599818,7.83896371 107.801027,6.70329856 C109.007746,5.56783257 110.642485,5 112.70485,5 C114.334079,5 115.764943,5.34974185 117,6.0488272 C116.833122,6.38920807 116.699107,6.85267577 116.599531,7.43843361 L116.399789,7.43843361 C115.470938,6.2671171 114.233322,5.68135926 112.68891,5.68135926 C111.175591,5.68135926 109.963755,6.17430406 109.051434,7.16079116 C108.140294,8.1470791 107.684724,9.60798823 107.684724,11.5449127 C107.684724,13.3681114 108.13439,14.7873941 109.035691,15.8033583 C109.941321,16.8135466 111.14804,17.3186407 112.654865,17.3186407 C113.906453,17.3186407 114.836091,17.1242512 115.4487,16.7358704" id="Fill-13-Copy"></path>
                    <path d="M120.847665,11 C120.847665,12.9954182 121.308546,14.5403955 122.229893,15.6343232 C123.15704,16.722364 124.413949,17.2663844 126.000621,17.2663844 C127.580458,17.2663844 128.833432,16.7290628 129.7612,15.6542164 C130.687518,14.5789642 131.15192,13.027694 131.15192,11 C131.15192,8.97900476 130.69104,7.43077949 129.7699,6.35573019 C128.848553,5.27459111 127.592265,4.73361559 126.000621,4.73361559 C124.359265,4.73361559 123.090134,5.2971233 122.193644,6.42352975 C121.296532,7.5499362 120.847665,9.07562928 120.847665,11 M119,11 C119,8.83082009 119.637776,7.12202761 120.912292,5.87301357 C122.18743,4.62440552 123.882642,4 126.000621,4 C128.09188,4 129.781707,4.62115764 131.069894,5.86347291 C132.356838,7.10578819 133,8.81782856 133,11 C133,13.0987414 132.383559,14.7914975 131.15192,16.0786742 C129.919867,17.359761 128.202077,18 126.000621,18 C123.80973,18 122.095668,17.3500174 120.857608,16.0498492 C119.618926,14.749681 119,13.0662626 119,11" id="Fill-15-Copy"></path>
                    <path d="M48.0278988,52.3377523 C45.9566842,49.8278164 43.7175724,48.5725438 41.3113938,48.5725438 C38.2917371,48.5725438 35.9023689,49.7305226 34.1441193,52.0485115 C32.384832,54.352282 31.5059148,57.6696141 31.5059148,62.0005078 C31.5059148,66.4418979 32.4024726,69.793354 34.196211,72.0552821 C36.0007412,74.3042106 38.3494322,75.4274562 41.2420766,75.4274562 C43.6482552,75.4274562 46.0953186,74.2558684 48.5832666,71.9104586 L48.7223161,72.1385607 C48.5488156,72.8697875 48.4384061,73.6830741 48.3921255,74.5800456 C47.790477,75.1174973 46.7839248,75.6555583 45.3726763,76.1938225 C43.9605977,76.7318835 42.5263127,77 41.0683685,77 C37.007501,77 33.8143437,75.6281373 31.4884817,72.8831933 C29.1630348,70.124031 28,66.4965368 28,62.0005078 C28,57.3245157 29.2325595,53.6551792 31.6970559,50.9924982 C34.1725518,48.3308327 37.3949717,47 41.363693,47 C43.8626405,47 46.4074535,47.6489638 49,48.9448601 C48.7333155,49.6348538 48.4851018,50.7381937 48.2534911,52.2552862 L48.0278988,52.3377523 Z" id="Fill-17-Copy"></path>
                    <path d="M48.7723778,61.5 C48.7723778,64.492901 49.4632018,66.8105004 50.8450516,68.4513842 C52.2357814,70.0831778 54.120966,70.8990746 56.5,70.8990746 C58.8697503,70.8990746 60.7504949,70.092672 62.1412247,68.4806749 C63.5317527,66.8684757 64.2274204,64.5415841 64.2274204,61.5 C64.2274204,58.4683141 63.5365964,56.1464726 62.1549484,54.5336674 C60.7726949,52.9115701 58.8885194,52.1009254 56.5,52.1009254 C54.0384224,52.1009254 52.1350741,52.9459108 50.790157,54.6350738 C49.4448363,56.3252467 48.7723778,58.6131515 48.7723778,61.5 M46,61.5 C46,58.246715 46.9558114,55.6832759 48.8688469,53.8096828 C50.7808734,51.9366956 53.3245911,51 56.5,51 C59.638678,51 62.1735157,51.9316455 64.1039076,53.7953404 C66.034905,55.6592374 67,58.2273226 67,61.5 C67,64.6476365 66.0756722,67.1864311 64.2274204,69.1169896 C62.3789667,71.0392659 59.8031599,72 56.5,72 C53.2146001,72 50.6432333,71.0245195 48.7856978,69.0747706 C46.9283641,67.1238096 46,64.5991554 46,61.5" id="Fill-19-Copy"></path>
                    <path d="M69,72 C69.165498,69.7603776 69.248141,67.328682 69.248141,64.7038872 L69.248141,59.2579151 C69.248141,55.3614564 69.165498,52.6084076 69,51 C69.719842,51.0989095 70.2201503,51.1483642 70.5030437,51.1483642 C70.9300327,51.1483642 71.4068195,51.0989095 71.9323444,51 C71.7672703,54.4926126 71.6842034,57.1810213 71.6842034,59.0656367 L71.6842034,64.0679526 C71.6842034,66.4153084 71.7327297,68.5515068 71.830418,70.4753166 L73.2887498,70.4753166 C75.9051435,70.4753166 78.1430746,70.3915924 80,70.224144 C79.9025236,70.5988508 79.8544211,70.8949636 79.8544211,71.1122772 C79.8544211,71.3390303 79.9025236,71.6349379 80,72 C77.6082258,71.8321412 75.7883837,71.7478014 74.5438644,71.7478014 C72.6369293,71.7478014 70.7893277,71.8321412 69,72" id="Fill-21-Copy"></path>
                    <path d="M81,72 C81.149522,69.7603776 81.2251718,67.328682 81.2251718,64.7038872 L81.2251718,59.2579151 C81.2251718,55.3614564 81.149522,52.6084076 81,51 C81.654381,51.0989095 82.108675,51.1483642 82.365845,51.1483642 C82.7539701,51.1483642 83.1875247,51.0989095 83.6659161,51 C83.5150115,54.4926126 83.4397567,57.1810213 83.4397567,59.0656367 L83.4397567,64.0679526 C83.4397567,66.4153084 83.4841985,68.5515068 83.5730821,70.4753166 L84.8984356,70.4753166 C87.2767638,70.4753166 89.3114087,70.3915924 91,70.224144 C90.9113139,70.5988508 90.8670696,70.8949636 90.8670696,71.1122772 C90.8670696,71.3390303 90.9113139,71.6349379 91,72 C88.8253141,71.8321412 87.1710911,71.7478014 86.0397014,71.7478014 C84.3060757,71.7478014 82.6263728,71.8321412 81,72" id="Fill-23-Copy"></path>
                    <path d="M92,72 C92.1693104,68.5217217 92.2539656,66.2031361 92.2539656,65.0432436 L92.2539656,58.9845394 C92.2539656,57.4232918 92.1693104,55.0955117 92,52 C93.8183272,52.1593028 95.696058,52.2386544 97.6346411,52.2386544 C99.1737511,52.2386544 100.90763,52.1593028 102.836278,52 C102.736099,52.355783 102.687252,52.636012 102.687252,52.8412868 C102.687252,53.0849382 102.736099,53.3653671 102.836278,53.6829734 C100.392041,53.5240703 97.7430991,53.4449186 94.8911092,53.4449186 C94.7925863,55.0157604 94.742083,57.4982461 94.742083,60.8919759 C96.8191363,60.8919759 99.2838649,60.8126243 102.135648,60.6537212 C102.035883,60.9719271 101.986828,61.2523561 101.986828,61.495008 C101.986828,61.7004827 102.035883,61.981911 102.135648,62.3370944 C99.8201524,62.1777915 97.3554238,62.0982401 94.742083,62.0982401 C94.742083,63.1827785 94.7925863,66.001659 94.8911092,70.5554812 C98.9164738,70.5554812 101.619644,70.4763294 103,70.3170266 C102.900235,70.682004 102.850974,70.9716273 102.850974,71.186896 C102.850974,71.3549935 102.900235,71.6264279 103,72 C101.122269,71.8410969 99.3037351,71.7619452 97.5450183,71.7619452 C95.9955593,71.7619452 94.1465989,71.8410969 92,72" id="Fill-25-Copy"></path>
                    <path d="M119.461445,70.8609826 C119.516649,69.7077642 119.543543,68.7620717 119.543543,68.023288 L119.543543,67.3859019 L119.543543,66.6121535 C119.543543,65.1759267 119.516649,63.9165802 119.461445,62.834114 C119.907522,62.9353059 120.385346,62.9863133 120.895322,62.9863133 C121.276692,62.9863133 121.61398,62.9353059 121.904759,62.834114 C121.849353,64.5743281 121.822661,65.8336746 121.822661,66.6121535 L121.822661,69.0705838 C121.822661,69.6670406 121.849353,70.4963212 121.904759,71.558837 C119.302103,72.5195438 116.923092,73 114.767727,73 C111.401119,73 108.763279,72.0588323 106.852993,70.1781424 C104.950795,68.286346 104,65.5605385 104,61.9996915 C104,58.5100079 104.983554,55.8045622 106.948032,53.8827373 C108.922014,51.9609124 111.597061,51 114.972365,51 C117.637706,51 119.979914,51.5921376 122,52.7751788 C121.727218,53.3516851 121.509032,54.135923 121.344635,55.1268639 L121.018064,55.1268639 C119.498652,53.144365 117.474521,52.1530127 114.946077,52.1530127 C112.469601,52.1530127 110.487126,52.9882578 108.99481,54.6564858 C107.502292,56.3255364 106.756943,58.7985696 106.756943,62.0751741 C106.756943,65.1607068 107.493394,67.5638106 108.967916,69.2826345 C110.450324,70.9924087 112.424508,71.8467817 114.890267,71.8467817 C116.937045,71.8467817 118.46131,71.5181134 119.461445,70.8609826" id="Fill-27-Copy"></path>
                    <path d="M124,73 C124.169013,69.3483556 124.253713,66.9141324 124.253713,65.6960919 L124.253713,59.3336315 C124.253713,57.6945094 124.169013,55.250172 124,52 C125.818342,52.167607 127.696131,52.2503784 129.634336,52.2503784 C131.174099,52.2503784 132.907935,52.167607 134.836038,52 C134.736379,52.3731939 134.687424,52.667951 134.687424,52.8836521 C134.687424,53.1391909 134.736379,53.4335352 134.836038,53.7673043 C132.391572,53.6005229 129.742931,53.5173387 126.891087,53.5173387 C126.792593,55.1663685 126.742278,57.7737718 126.742278,61.3364525 C128.81919,61.3364525 131.28386,61.2538874 134.135705,61.0864869 C134.036434,61.420256 133.986896,61.7150131 133.986896,61.9697262 C133.986896,62.1858401 134.036434,62.48101 134.135705,62.8535847 C131.820232,62.6870098 129.355756,62.6036191 126.742278,62.6036191 C126.742278,63.7419843 126.792593,66.7027659 126.891087,71.4832806 C130.9165,71.4832806 133.619536,71.4003027 135,71.233315 C134.900147,71.6160039 134.851385,71.9206688 134.851385,72.1464841 C134.851385,72.3231732 134.900147,72.6078162 135,73 C133.122212,72.8330122 131.304064,72.7500344 129.544973,72.7500344 C127.994914,72.7500344 126.146266,72.8330122 124,73" id="Fill-29-Copy"></path>
                    <path d="M0,50 C1.71973873,35.8303986 2.8659614,24.8303318 3.43907273,17 L4.0662168,17 C4.69902723,18.8987542 6.31677157,23.0103499 8.92025931,29.3339853 C11.5235447,35.6578211 13.4343205,40.1612741 14.6521821,42.8445447 C17.0761678,37.1328482 20.7422995,28.5182004 25.6501724,17 L26.1338362,17 C26.8745098,26.1957191 27.8296953,37.1953851 29,50 C28.1518681,49.8430566 27.5967677,49.7644847 27.334294,49.7644847 C27.0355962,49.7644847 26.4503426,49.8430566 25.5787358,50 C25.3876987,46.3127327 25.0831321,41.6050328 24.6652384,35.8775017 C24.2588798,30.1499705 24.0022749,26.7134519 23.8948165,25.5679456 C19.7270101,34.779299 16.4613683,42.8445447 14.0968793,49.7644847 L13.7566956,49.7644847 C11.6666201,44.162829 8.49609217,36.0973828 4.24531409,25.5679456 C3.12297107,38.1687146 2.56139482,46.3127327 2.56139482,50 C1.92838202,49.8430566 1.55237889,49.7644847 1.4329807,49.7644847 C1.0628463,49.7644847 0.585051151,49.8430566 0,50" id="Fill-31-Copy"></path>
                    <path d="M34,46 C34.1689875,42.6119861 34.2537961,39.8300307 34.2537961,37.6545473 L34.2537961,31.7391184 C34.2537961,29.0425613 34.1689875,25.7957749 34,22 C34.6266182,22.1131061 35.1392485,22.1697626 35.5372612,22.1697626 C36.124414,22.1697626 36.6120635,22.1131061 37,22 C36.8308026,26.1243409 36.7464138,29.3084743 36.7464138,31.5521935 L36.7464138,37.6545473 C36.7464138,39.7849536 36.8308026,42.5667023 37,46 C36.3633056,45.8866871 35.8605416,45.8300307 35.4923378,45.8300307 C34.9752991,45.8300307 34.4775733,45.8866871 34,46" id="Fill-33-Copy"></path>
                    <path d="M45.0339776,32.963134 C45.429705,33.1221429 46.1275687,33.2007168 47.1279756,33.2007168 C49.1395727,33.2007168 50.7057986,32.7195547 51.82706,31.7564035 C52.9591048,30.7930455 53.5253306,29.467627 53.5253306,27.7791141 C53.5253306,26.3290112 53.0581892,25.2182236 52.1243133,24.4473718 C51.2008138,23.6771403 49.9749746,23.2917144 48.4467955,23.2917144 C47.5564598,23.2917144 46.4738555,23.3543668 45.1987792,23.4786377 C45.0996948,27.9091747 45.0447609,30.7026855 45.0339776,31.8585497 L45.0339776,32.963134 Z M42,46 C42.1865717,43.5635872 42.2801628,40.7762796 42.2801628,37.6372503 L42.2801628,30.3453808 L42.2801628,28.9856379 C42.2801628,26.7650966 42.1865717,24.4364128 42,22 C42.8242116,22.1133119 43.9125127,22.1699679 45.2646999,22.1699679 C45.4404883,22.1699679 46.1768057,22.1418467 47.4742625,22.0849839 C48.7711089,22.028328 49.5023398,22 49.6671414,22 C54.3171923,22 56.642116,23.8415253 56.642116,27.5239556 C56.642116,31.0252522 54.3501526,33.2519967 49.7660224,34.2037753 C52.6679552,38.1130362 55.74588,42.0454557 59,46 C58.3837233,45.8866881 57.7302136,45.8300321 57.0376399,45.8300321 C56.2897253,45.8300321 55.6138352,45.8866881 55.0095626,46 C53.7013225,44.152685 52.2502543,42.1186536 50.6565615,39.8981123 C49.0626653,37.6771576 47.595117,35.8755395 46.2539166,34.4928448 L45.0339776,34.4928448 L45.0339776,37.6544125 C45.0339776,40.8835951 45.1275687,43.6657333 45.3143438,46 C44.5116989,45.8866881 43.9564598,45.8300321 43.6488301,45.8300321 C43.0331638,45.8300321 42.4836216,45.8866881 42,46 L42,46 Z" id="Fill-35-Copy"></path>
                    <path d="M66.313353,35.1991145 C66.4633976,35.244197 66.9948978,35.2661344 67.9074509,35.2661344 L70.1621479,35.2661344 L71.8531203,35.2661344 C72.7123018,35.2661344 73.2752208,35.2327251 73.5436899,35.1657051 L73.5436899,35.1487991 C72.6955855,33.270428 71.4664282,30.4080907 69.8562181,26.5615859 C68.8038919,29.1113646 67.6230711,31.9902053 66.313353,35.1991145 M60,46 C63.0599028,39.1909298 66.4956219,31.1905944 70.306956,22 L70.9514429,22 C71.7024715,23.8226218 73.125579,27.2943781 75.2193557,32.4150678 C77.3127296,37.5359587 79.2387383,42.064739 81,46 C80.3559159,45.8878975 79.7917885,45.8319469 79.3090276,45.8319469 C78.8911182,45.8319469 78.2836893,45.8878975 77.4885536,46 C77.1244186,44.714142 75.9653492,41.6509459 74.0111443,36.8090031 C73.6355293,36.7421844 72.9749302,36.7083725 72.0301528,36.7083725 L70.1297222,36.7083725 L68.0524605,36.7083725 C67.05411,36.7083725 66.2595786,36.7421844 65.6690675,36.8090031 C65.4219471,37.3123574 64.8958847,38.6936133 64.0908803,40.9515631 C63.1781258,43.4562592 62.6256797,45.1388032 62.4321323,46 C61.9918672,45.8878975 61.5838264,45.8319469 61.2080101,45.8319469 C60.7679464,45.8319469 60.3651421,45.8878975 60,46" id="Fill-37-Copy"></path>
                    <path d="M83,46 C84.4822371,35.6947452 85.4705948,27.6948125 85.9650731,22 L86.5050666,22 C87.0512485,23.3811729 88.4454497,26.3712222 90.6900657,30.969946 C92.9336836,35.5692758 94.5818115,38.8448134 95.631455,40.7961544 C97.721559,36.6423316 100.881669,30.3767447 105.112582,22 L105.529405,22 C106.168214,28.6876568 106.991081,36.6875894 108,46 C107.269362,45.8860472 106.791053,45.8290708 106.564276,45.8290708 C106.306756,45.8290708 105.802496,45.8860472 105.051097,46 C104.885805,43.3182698 104.623095,39.894432 104.262766,35.7290927 C103.913817,31.5635513 103.69183,29.0640648 103.599602,28.2310373 C100.0067,34.9304127 97.1911477,40.7961544 95.152348,45.8290708 L94.8592943,45.8290708 C93.0576525,41.7546512 90.3241478,35.8889095 86.6599778,28.2310373 C85.6919821,37.3951476 85.2080841,43.3182698 85.2080841,46 C84.6625011,45.8860472 84.3377065,45.8290708 84.2350978,45.8290708 C83.9164917,45.8290708 83.5040604,45.8860472 83,46" id="Fill-39-Copy"></path>
                    <path d="M116.312552,35.7489993 C116.463662,35.7960418 116.994762,35.8191504 117.907262,35.8191504 L120.161817,35.8191504 L121.853035,35.8191504 C122.71174,35.8191504 123.275883,35.7838685 123.543851,35.7141301 L123.543851,35.6967986 C122.696227,33.7399952 121.466195,30.7585729 119.85577,26.752119 C118.803241,29.4077513 117.622773,32.4067114 116.312552,35.7489993 M110,47 C113.06007,39.9075161 116.495495,31.5733574 120.30668,22 L120.951012,22 C121.702329,23.8986193 123.125176,27.5149092 125.218548,32.8490761 C127.31212,38.1836556 129.23907,42.901318 131,47 C130.356273,46.8834254 129.791929,46.8254475 129.308782,46.8254475 C128.89051,46.8254475 128.283654,46.8834254 127.489221,47 C127.12414,45.660939 125.964223,42.4696823 124.010477,37.4260236 C123.635121,37.3564915 122.974671,37.3216222 122.029733,37.3216222 L120.129379,37.3216222 L118.052327,37.3216222 C117.053594,37.3216222 116.258757,37.3564915 115.668825,37.4260236 C115.42161,37.9503 114.895749,39.3892231 114.090637,41.7413487 C113.177532,44.3505575 112.624673,46.1033037 112.431857,47 C111.991624,46.8834254 111.583628,46.8254475 111.207869,46.8254475 C110.767435,46.8254475 110.365081,46.8834254 110,47" id="Fill-41-Copy"></path>
                    <path d="M136.855678,33.5062097 C137.227786,33.6584736 137.88489,33.734208 138.826378,33.734208 C140.719963,33.734208 142.194112,33.2726456 143.249232,32.3495208 C144.31496,31.4267935 144.84762,30.1560061 144.84762,28.5379536 C144.84762,27.1480982 144.407987,26.0844374 143.529332,25.3449834 C142.659654,24.6069209 141.505795,24.2377903 140.068368,24.2377903 C139.230106,24.2377903 138.210891,24.2974237 137.010315,24.4166904 C136.917492,28.6627862 136.865675,31.3397288 136.855678,32.4475183 L136.855678,33.5062097 Z M134,46 C134.175853,43.665353 134.264392,40.9939762 134.264392,37.9856707 L134.264392,30.9976319 L134.264392,29.6948413 C134.264392,27.566327 134.175853,25.334647 134,23 C134.776651,23.108334 135.800558,23.1627991 137.072741,23.1627991 C137.23819,23.1627991 137.931811,23.1353678 139.152584,23.0813002 C140.372949,23.026835 141.06147,23 141.216514,23 C145.592651,23 147.781433,24.7643531 147.781433,28.2938543 C147.781433,31.6492261 145.623864,33.7827098 141.309541,34.6952993 C144.041388,38.4418661 146.937459,42.2104972 150,46 C149.420622,45.8908709 148.805748,45.8372009 148.153336,45.8372009 C147.449923,45.8372009 146.813628,45.8908709 146.244246,46 C145.013069,44.2300812 143.647248,42.2806658 142.147598,40.1523503 C140.647337,38.0236373 139.266419,36.2974496 138.003621,34.972197 L136.855678,34.972197 L136.855678,38.0021693 C136.855678,41.0965456 136.943197,43.762953 137.11905,46 C136.364432,45.8908709 135.84136,45.8372009 135.551875,45.8372009 C134.972089,45.8372009 134.455546,45.8908709 134,46 L134,46 Z" id="Fill-43-Copy"></path>
                </g>
            </g>
        </g>
    </g>
</svg>