<svg width="104" height="89" viewBox="0 0 104 89" xmlns="http://www.w3.org/2000/svg" xmlns:xlink="http://www.w3.org/1999/xlink"><defs><path id="a" d="M.08.03h98.656v61.157H.08z"/></defs><g fill="none" fill-rule="evenodd"><path d="M34.64 16.82l-3.21-7.43-2.55 7.43h5.76zm35.716 6.776c0 1.306 1.893 1.47 1.893 1.47.988 0 .74.49.33.49h-7.16c-.494 0-.576-.49.164-.49 2.475 0 2.223-1.552 2.223-1.552V7.431H63.32c-1.855.154-2.124 1.674-2.263 2.776-.165 1.306-.658.653-.658.653V7.104c-1.564.408-1.564 1.674-1.564 1.674l-.281 15.308s.164 2.086-.706 1.47C57.272 25.147 44.35 9.88 44.35 9.88v12.9c0 2.204 1.527 2.199 1.81 2.286.358.109.483.155.33.408-.062.102-.494.082-.494.082H35.71c-.368 0-.735-.382 0-.409 2.222-.081 1.852-1.673 1.852-1.673l-2.51-5.675H28.55c-.164.164-1.726 5.337-1.81 5.879-.165 1.061 1.283 1.367 1.543 1.367.443 0 1.134.51-.041.51h-5.329c-.906 0-.537-.44-.123-.49.74-.089 1.482-.316 2.222-1.387.726-1.052 7.16-18.37 7.16-18.37l8.147 18.451s.49 1.062 1.399 1.062c1.48 0 1.399-1.388 1.399-1.388V8.696c-.073-.387.411-1.837-2.14-1.837-1.07 0-.664-.49-.082-.49h3.95L57.848 21.8 57.6 8.696s-.165-1.265-1.564-1.592c-1.041-.243-.494-.653-.494-.653h22.055v4.327s-.38.5-.575-.571c-.165-.899-.41-2.796-2.387-2.817-3.868-.04-4.28 0-4.28 0v16.206zm-53.327 23.84h6.255c.329 0 .247-.516-.248-.49-1.434.075-1.48-1.163-1.48-1.163V30.454s-.289-1.264 1.81-1.306c.78-.016.74-.572.247-.572H18.84L11.927 44.09l-7.49-15.431s-3.046.034-3.291 0c-1.728-.245-1.215.613-.33.653 1.811.082 1.811 1.102 1.811 1.102v15.268S2.835 47 .487 46.947c-.29-.007-.082.49-.082.49H5.96s.473-.592-.617-.49c-1.518.142-1.481-1.47-1.481-1.47V32.332l7.488 15.186 7.654-16.166v14.37s-.238 1.224-1.728 1.224c-.576 0-.412.49-.247.49M22.75 69.57c5.287 1.444 11.018-.886 12.701-6.405 1.443-4.732-.955-9.78-5.5-11.73-5.335-2.288-11.48.46-13.391 5.592-1.955 5.25.713 11.047 6.19 12.543zm10.761-6.712c-.591 3.778-3.952 6.962-7.825 6.426-5.029-.695-7.735-5.689-7.445-10.328.216-3.439 2.337-6.98 6.12-7.458 6.295-.795 10.017 5.82 9.15 11.36z" fill="#011745"/><g transform="translate(5.245 27.813)"><mask id="b" fill="#fff"><use xlink:href="#a"/></mask><path d="M61.82 2.56c.329-1.143.76-1.011 1.728-1.225.74-.163.823-.653-.165-.571 1.564.081-11.027 0-11.274 0-.823 0-.856.494 0 .571 1.81.163 2.057 1.225 2.057 1.225l.247 13.634L41.081.764h-3.786c-.724 0-.415.617.165.571 2.057-.163 1.975 1.225 1.975 1.225v15.022s0 1.388-1.81 1.388c-.76 0-.165.572-.165.572h5.432s.535-.613-.494-.572c-1.674.067-1.728-1.306-1.728-1.306V4.193s12.896 15.182 13.414 15.594c.411.326.905-.041.905-.041l.33-17.268s.239-1.143 2.057-1.143c2.14 0 2.057 1.225 2.057 1.225v15.43s.084.97-1.975 1.196c-.74.082-.412.52-.165.52h6.666s.412-.328 0-.491c-.87-.346-2.057-.081-2.14-1.388-.051-.819 0-15.267 0-15.267" fill="#011745" mask="url(#b)"/><path d="M84.698 10.888h5.596l-2.88-7.022-2.716 7.022zm-3.21-7.92v1.96c-2.762-4.256-9.825-5.116-13.05-.573-2.318 3.264-2.547 8.613-.014 11.678.298.361.378.552.704.834.306.264.676.646.961.806 5.69 3.206 9.57.42 10.714-1.042 1.087-1.39 4.8-10.642 7.27-16.602 2.485 5.37 4.564 10.852 6.97 16.303.53 1.201.93 2.516 3.115 2.673.777.047.694.66.201.618-.371-.03-6.954 0-7.16 0-.33 0-.662-.587.167-.638 2.332-.146 1.735-1.493 1.735-1.493l-2.305-5.359-6.412.016s-.762 1.879-1.831 4.573c-1.07 2.694 1.304 1.762 1.601 2.43.051.112.333.38-.197.471-3.292-.081-2.716-.204-6.418.138-3.064.283-4.463.335-6.548-.27-4.892-1.419-7.928-7.196-5.744-12.64A10.042 10.042 0 0 1 73.429.63c1.675-.185 5.424-.152 7.994 1.142.202.102.065.76.065 1.195zM16.94 26.916c.114.268.358.116.358.116V23.87s-5.31-1.956-9.506-.735c-3.59 1.045-7.86 4.638-7.708 10.03.15 5.29 4.368 8.58 8.655 9.156 0 0 5.059 1.03 9.546-3.184v-1.878s-3.868 4.736-8.394 4.327c-4.526-.408-7.366-4.123-7.53-8.286-.055-1.39-.045-7.401 5.555-9.267 4.553-1.517 8.838 2.445 9.024 2.884m42.904 30.507c9.013 1.763 10.118-6.122 8.97-6.531 3.21 1.143 5.761 9.96-4.032 10.287-9.589.32-15.186-9.368-25.511-12.573-5.768-1.79-8.27-.824-9.382-.694-.7.081-.666-.466-.082-.572 2.54-.46 2.716-1.919 2.716-1.919V25.338c0-.707-.412-1.878-1.646-1.878-.84 0-1.405-.68-.083-.571h6.008c.827 0 .677.571.082.571-2.222 0-1.975 2.123-1.975 2.123v20.982c12.097 1.388 19.093 9.716 24.935 10.86" fill="#011745" mask="url(#b)"/></g><path d="M62.539 77.562c8.311 2.613 6.487-4.327 5.76-4.409 3.621.409 5.655 9.849-3.127 7.838-4.28-.98-9.875-6.49-15.636-8-3.957-1.038-6.699-.667-6.83-.654-.412.04-.388-.594.205-.613 2.588-.08 2.428-1.428 2.428-1.428V53.15c0-.708-.247-1.878-1.481-1.878-.51 0-.914-.654.082-.572h5.678c.827 0 .677.572.083.572-2.223 0-1.976 2.123-1.976 2.123V71.52c8.477 2.042 8.035 3.912 14.814 6.042m6.744-24.252c-3.529 2.952-3.501 8.783-1.574 11.719 4.627 7.048 12.018 3.065 12.018 3.065l.022-4.646s-.175-1.276-1.935-1.228c-.165-.104-.216-.272-.05-.578 2.904.085 4.182-.082 6.007 0 .118.211.07.667-.257.653-1.883-.082-1.675.997-1.675.997s.121 2.84.039 5.453c-3.926 1.762-8.13 2.283-12.222.79-3.027-1.103-5.12-4.072-5.572-7.086-.606-4.037 1.015-8.44 4.602-10.334 3.066-1.62 6.369-1.689 9.794-1.276 1.719.207 2.94.458 3.416.548.185.035.22.239.22.239s-.004 2.24.047 3.969c.007.248-.553.15-.605-.022-.674-2.207-2.55-3.627-4.724-4.112-2.76-.615-5.341 0-7.551 1.849" fill="#011745"/><path d="M63.897 68.826c-.14-.188-.916-.566-.114-.296 1.013.343 2.355 1.28 2.532 2.555.117.848-.225 1.92-1.266 2.558-1.89 1.157-3.58-.163-6.671-1.932-1.813-1.209-3.793-1.67-8.02-1.986-.657 0-.134-.61.166-.613 2.676-.028 2.386-1.429 2.386-1.429V53.151s.165-1.878-1.728-1.878c-.5 0-.33-.653 0-.572h12.591s.102 3.518 0 4.328c-.082.653-.411.653-.494 0-.347-2.76-1.728-3.266-2.633-3.348-.906-.081-5.432 0-5.432 0v7.838h4.855c.577 0 1.235-.95 1.235-1.96 0-.697.494-.163.494-.163v5.144s-.33.49-.494-.082c-.165-.571-.165-1.96-1.317-2.04-1.152-.082-4.773 0-4.773 0v8.98s.939.348 2.924 1.178c1.328.555 2.837 1.68 4.524 1.475.688-.083 2.862-1.042 1.235-3.225m20.861-1.143V52.987s.165-1.877-1.728-1.877c-.5 0-.33-.653 0-.572h12.591s.103 3.517 0 4.327c-.082.654-.411.654-.493 0-.348-2.759-1.729-3.265-2.634-3.347-.905-.082-5.432 0-5.432 0v7.838h4.856c.576 0 1.234-.95 1.234-1.96 0-.697.494-.163.494-.163v5.144s-.329.49-.494-.082c.083.286.028-1.946-1.316-2.041-1.152-.082-4.774 0-4.774 0v7.674s.163 1.062 1.564 1.062h4.526c1.07 0 3.087-.735 3.375-3.552.083-.816.288-.816.411-.449l-.329 4.98H82.62c-.659 0-.176-.552.082-.571 2.14-.164 2.057-1.715 2.057-1.715M29.992 47.2c5.287 1.444 11.018-.886 12.701-6.406 1.444-4.731-.955-9.78-5.5-11.73-5.335-2.288-11.48.46-13.391 5.593-1.955 5.249.713 11.046 6.19 12.543zm10.762-6.713c-.592 3.779-3.953 6.963-7.826 6.427-5.029-.695-7.735-5.69-7.445-10.328.216-3.44 2.337-6.98 6.12-7.458 6.295-.795 10.017 5.82 9.15 11.36zM86.733 16.82l-3.21-7.43-2.55 7.43h5.76zm7.963 8.736c-.33.04-6.25 0-6.893 0-.368 0-.73-.312 0-.409 2.47-.326 1.852-1.673 1.852-1.673l-2.51-5.675h-6.502c-.164.164-1.726 5.337-1.81 5.879-.165 1.061 1.283 1.367 1.543 1.367.309 0 1.134.51-.041.51h-5.329c-.906 0-.537-.44-.123-.49.74-.089.946 0 2.222-1.387.866-.943 7.16-18.37 7.16-18.37l8.147 18.451s.65 1.27 1.728 1.286c1.224.018.885.47.556.51zM23.57.983c.164.048.155.33.155.33s.007 1.418.007 5.173c.027-.073-.341.409-.617-.081.075.133-.307-4.572-4.58-5.494-2.3-.496-5.268.187-6.363 2.593-.917 2.017-.41 4.353 1.579 5.65 3.537 2.306 8.175 2.856 10.015 6.64 1.908 3.924-.9 9.389-5.68 9.803-4.909.426-7.913-.365-8.795-.647-.182-.058-.273-.298-.273-.298l.004-4.613s.487-.561.615.274c.315 2.057 3.967 5.542 8.657 4.442 4.576-1.072 5.021-7.073 1.041-9.38-3.072-1.78-6.529-2.448-8.81-5.281-1.894-2.352-1.798-5.832.288-7.831C14.532-1.301 22.381.633 23.571.983" fill="#011745"/></g></svg>