<?xml version="1.0" encoding="utf-8"?>
<!-- Generator: Adobe Illustrator 19.2.1, SVG Export Plug-In . SVG Version: 6.00 Build 0)  -->
<svg version="1.1" id="Layer_1" xmlns="http://www.w3.org/2000/svg" xmlns:xlink="http://www.w3.org/1999/xlink" x="0px" y="0px"
	 viewBox="0 0 250 250" style="enable-background:new 0 0 250 250;" xml:space="preserve">
<style type="text/css">
	.st0{fill:#EBAB21;}
</style>
<g>
	<circle class="st0" cx="125" cy="125" r="123.8"/>
	<g>
		<g id="XMLID_9_">
			<circle id="XMLID_10_" class="st0" cx="125" cy="124.8" r="110.9"/>
		</g>
		<path id="XMLID_2_" d="M125,243.8C59.5,243.8,6.2,190.5,6.2,125S59.5,6.2,125,6.2S243.8,59.5,243.8,125
			C244,190.3,190.5,243.8,125,243.8z M125,21C67.8,21,21.2,67.6,21.2,124.8S67.8,228.6,125,228.6S228.8,182,228.8,124.8
			C228.9,67.6,182.2,21,125,21z"/>
		<path d="M71.1,57.5v23h6.3c0,0,0.2-13.9,16.2-13.9h20.2v29.1c-30.9,5-50.1,25.7-50.1,50.7c0,28.5,25.1,51.7,64.5,51.7
			c15.6,0,30.3-3.8,42-9.9V167H164c-7.1,14.3-19.8,22.8-34.7,22.8c-22.8,0-40.4-19.4-40.4-43.6c0-18.2,10.3-33.7,24.9-40.2V140
			c0,0,0.2,7.1-7.5,7.1h-5.9v8.3h51.1v-8.3h-5.9c-7.9,0-7.5-7.1-7.5-7.1v-36.2c11.1,2.6,20.4,10.3,26.1,21.8h6.3v-21.2
			c-9.3-4.9-20.4-8.3-32.3-9.5V66.6h20.2c16,0,16.2,13.9,16.2,13.9h6.3v-23H71.1z"/>
	</g>
</g>
</svg>
