<svg id="Layer_1" xmlns="http://www.w3.org/2000/svg" xmlns:xlink="http://www.w3.org/1999/xlink" width="500" height="95.6" viewBox="0 0 500 95.6"><style>.st0{fill:#202d60}.st1{fill:#faab33}.st2{fill:url(#SVGID_1_)}.st3{fill:url(#SVGID_2_)}.st4{fill:#f3db17}.st5{opacity:.71;fill:url(#SVGID_3_);enable-background:new}.st6{fill:url(#SVGID_4_)}.st7{fill:url(#SVGID_5_)}.st8{clip-path:url(#SVGID_7_)}.st9{fill:url(#SVGID_8_)}.st10{opacity:.3;fill:url(#SVGID_9_);enable-background:new}.st11{clip-path:url(#SVGID_11_)}.st12{fill:url(#SVGID_12_)}.st13{opacity:.3;fill:url(#SVGID_13_);enable-background:new}.st14{clip-path:url(#SVGID_15_)}.st15{fill:url(#SVGID_16_)}.st16{opacity:.3;fill:url(#SVGID_17_);enable-background:new}.st17{fill:url(#SVGID_18_)}.st18{opacity:.9;fill:url(#SVGID_19_);enable-background:new}.st19{fill:url(#SVGID_20_)}.st20{fill:url(#SVGID_21_)}.st21{fill:url(#SVGID_22_)}.st22{opacity:.7;fill:url(#SVGID_23_);enable-background:new}.st23{opacity:.49}.st24{fill:#fff}</style><path class="st0" d="M112.7 17.1l3.6 19.2h.1l5.3-19.2h6.1l5.2 19.2h.1l3.6-19.2h5.7l-6.2 26H130l-5.2-19.3h-.1l-5.3 19.3h-6.1l-6.2-26zm51.2 15.1H150c.6 4.5 2.3 6.4 5.9 6.4h8.4V43h-9.8c-6.6 0-10.2-4.6-10.2-13s3.6-13 10.2-13h9.8v4.4h-8.4c-2.3 0-5.2.4-5.9 6.4h13.9v4.4zM190 21.5h-13.4c-1.7 0-3.2 1-3.2 3.1 0 2.3 1.5 3.1 3.2 3.1h7.7c2.6 0 7 1.6 7 7.7 0 6-4.4 7.7-7 7.7h-16.1v-4.4h13.6c1.8 0 3.2-1.4 3.2-3.2 0-1.9-1.4-3.2-3.2-3.2h-7.6c-2.7 0-7.1-1.5-7.1-7.6 0-6 4.4-7.6 7.1-7.6H190v4.4zm24.7-4.4v4.4h-8.3v21.6h-5.2V21.5h-8.3v-4.4zm10.3 0h5.7v10.8h11V17.1h5.7v26h-5.7V32.2h-11v10.9H225zm29.6 0h5.2v26h-5.2zm11.9 16.5V17.1h5.2v16.2c0 3.1 1.9 5.3 5.1 5.3h6.8V43H275c-4.5.1-8.5-2.4-8.5-9.4m20 0V17.1h5.2v16.2c0 3.1 1.9 5.3 5.1 5.3h6.8V43H295c-4.6.1-8.5-2.4-8.5-9.4m41.8-12.1h-13.4c-1.7 0-3.2 1-3.2 3.1 0 2.3 1.5 3.1 3.2 3.1h7.7c2.6 0 7 1.6 7 7.7 0 6-4.4 7.7-7 7.7h-16.1v-4.4h13.7c1.8 0 3.2-1.4 3.2-3.2 0-1.9-1.4-3.2-3.2-3.2h-7.6c-2.7 0-7.1-1.5-7.1-7.6 0-6 4.4-7.6 7.1-7.6h15.8v4.4h-.1zm32.4 0h-8.9c-4.3 0-6 3-6 8.6 0 5.5 1.7 8.6 6 8.6h8.9v4.4h-10.4c-6.6 0-10.2-4.6-10.2-13s3.6-13 10.2-13h10.4v4.4zm14.6-4.8c9.7 0 12.3 5.9 12.3 13.4 0 7.4-2.6 13.4-12.3 13.4-9.7 0-12.3-5.9-12.3-13.4s2.6-13.4 12.3-13.4m-6.9 13.4c0 4.6.7 9.1 6.9 9.1s6.9-4.4 6.9-9.1c0-4.6-.7-9.1-6.9-9.1s-6.9 4.4-6.9 9.1m23 3.5V17.1h5.2v16.2c0 3.1 1.9 5.3 5.1 5.3h6.8V43h-8.6c-4.6.1-8.5-2.4-8.5-9.4m19.9 0V17.1h5.2v16.2c0 3.1 1.9 5.3 5.1 5.3h6.8V43h-8.6c-4.5.1-8.5-2.4-8.5-9.4m38-1.4h-13.9c.6 4.5 2.3 6.4 5.9 6.4h8.4V43h-9.8c-6.6 0-10.2-4.6-10.2-13s3.6-13 10.2-13h9.8v4.4h-8.4c-2.3 0-5.2.4-5.9 6.4h13.9v4.4zm3.9-2.1c0-8.4 3.6-13 10.2-13h13v4.4H465c-4.3 0-6 3-6 8.6 0 5.5 1.7 8.6 6 8.6h6.3v-6.4h-6.9V28h12.1v15.1h-13c-6.7 0-10.3-4.7-10.3-13m46.4 2.1h-13.9c.6 4.5 2.3 6.4 5.9 6.4h8.4V43h-9.8c-6.6 0-10.2-4.6-10.2-13s3.6-13 10.2-13h9.8v4.4h-8.4c-2.3 0-5.2.4-5.9 6.4h13.9v4.4z"/><path class="st1" d="M153.8 69.2V52.8h6.5v15.8c0 2.2 1 4.4 4.4 4.4h7.2v5.5h-9.1c-5.2 0-9-2.9-9-9.3m58.9-.9h-13.6c.4 2 1.4 4.7 5.2 4.7h8.8v5.5h-10.4c-7 0-10.8-4.6-10.8-12.8 0-8.3 3.8-12.9 10.8-12.9h10.4v5.5h-8.8c-2.2 0-4.5 1-5.2 4.7h13.6v5.3zm23.1 10.2V52.8h9.6l5.4 16.1 5.3-16.1h9.7v25.7h-6.4V62.9h-.2l-5.3 15.6h-6.2l-5.3-15.6h-.2v15.6zm65.7-26c10.2 0 13 5.8 13 13.2 0 7.3-2.8 13.2-13 13.2-10.3 0-13.1-5.9-13.1-13.2.1-7.4 2.9-13.2 13.1-13.2m-6.3 13.2c0 4.2.7 7.9 6.4 7.9 5.6 0 6.3-3.7 6.3-7.9s-.7-7.9-6.3-7.9c-5.7 0-6.4 3.7-6.4 7.9m54.7-13.2c10.3 0 13 5.8 13 13.2 0 7.3-2.8 13.2-13 13.2-10.3 0-13-5.9-13-13.2 0-7.4 2.7-13.2 13-13.2m-6.3 13.2c0 4.2.7 7.9 6.3 7.9s6.3-3.7 6.3-7.9-.7-7.9-6.3-7.9-6.3 3.7-6.3 7.9m48.5 3.7v9.2h-6.5V52.8h14.7c5.6 0 7.9 2.8 7.9 8.3 0 5.9-3.1 7.2-5 7.8l5.5 9.7h-7.3l-5.1-9.2h-4.2zm0-5.2h6.4c1.6 0 3.3-.5 3.3-3s-1.7-2.9-3.3-2.9h-6.4v5.9zm56.9 4.1h-13.6c.4 2 1.4 4.7 5.2 4.7h8.8v5.5H439c-7 0-10.8-4.6-10.8-12.8 0-8.3 3.8-12.9 10.8-12.9h10.4v5.5h-8.8c-2.2 0-4.5 1-5.2 4.7H449v5.3z"/><linearGradient id="SVGID_1_" gradientUnits="userSpaceOnUse" x1="-2737.661" y1="450.232" x2="-2737.661" y2="537.332" gradientTransform="matrix(-1 0 0 1 -2689.811 -446.032)"><stop offset=".055" stop-color="#c5e6f9"/><stop offset=".264" stop-color="#94b4dd"/><stop offset=".497" stop-color="#224c8d"/></linearGradient><path class="st2" d="M4.3 12.9c0-4.8 3.9-8.7 8.7-8.7h69.7c4.8 0 8.7 3.9 8.7 8.7v69.7c0 4.8-3.9 8.7-8.7 8.7H13c-4.8 0-8.7-3.9-8.7-8.7V12.9z"/><linearGradient id="SVGID_2_" gradientUnits="userSpaceOnUse" x1="-2737.661" y1="450.232" x2="-2737.661" y2="537.332" gradientTransform="matrix(-1 0 0 1 -2689.811 -446.032)"><stop offset=".172" stop-color="#0f99bd" stop-opacity=".22"/><stop offset=".65" stop-color="#242359"/><stop offset=".81" stop-color="#376678" stop-opacity=".602"/><stop offset=".941" stop-color="#4da192" stop-opacity=".276"/><stop offset="1" stop-color="#57c09e" stop-opacity=".13"/></linearGradient><path class="st3" d="M4.3 12.9c0-4.8 3.9-8.7 8.7-8.7h69.7c4.8 0 8.7 3.9 8.7 8.7v69.7c0 4.8-3.9 8.7-8.7 8.7H13c-4.8 0-8.7-3.9-8.7-8.7V12.9z"/><path class="st4" d="M30.9 19.6C25 19.5 20.1 24 20 29.7S24.6 40 30.5 40.1 41.3 35.7 41.4 30c.2-5.6-4.6-10.3-10.5-10.4z"/><radialGradient id="SVGID_3_" cx="35.298" cy="67.48" r="10.512" gradientTransform="matrix(.9962 0 0 -.9962 -4.413 97.074)" gradientUnits="userSpaceOnUse"><stop offset="0" stop-color="#f3df34" stop-opacity=".22"/><stop offset="1" stop-color="#fdee0e"/></radialGradient><path class="st5" d="M30.9 19.6C25 19.5 20.1 24 20 29.7S24.6 40 30.5 40.1 41.3 35.7 41.4 30c.2-5.6-4.6-10.3-10.5-10.4z"/><linearGradient id="SVGID_4_" gradientUnits="userSpaceOnUse" x1="35.249" y1="77.747" x2="35.249" y2="57.166" gradientTransform="matrix(.9962 0 0 -.9962 -4.413 97.074)"><stop offset="0" stop-color="#fff" stop-opacity=".77"/><stop offset=".45" stop-color="#fff" stop-opacity="0"/><stop offset=".472" stop-color="#fcf0dc" stop-opacity=".006"/><stop offset=".499" stop-color="#f9e1b8" stop-opacity=".014"/><stop offset=".53" stop-color="#f6d398" stop-opacity=".023"/><stop offset=".565" stop-color="#f3c87c" stop-opacity=".033"/><stop offset=".603" stop-color="#f1bf66" stop-opacity=".045"/><stop offset=".648" stop-color="#f0b855" stop-opacity=".058"/><stop offset=".704" stop-color="#efb34a" stop-opacity=".074"/><stop offset=".783" stop-color="#eeb043" stop-opacity=".097"/><stop offset="1" stop-color="#eeaf41" stop-opacity=".16"/></linearGradient><path class="st6" d="M30.9 19.6C25 19.5 20.1 24 20 29.7S24.6 40 30.5 40.1 41.3 35.7 41.4 30c.2-5.6-4.6-10.3-10.5-10.4z"/><linearGradient id="SVGID_5_" gradientUnits="userSpaceOnUse" x1="35.249" y1="77.747" x2="35.249" y2="57.166" gradientTransform="matrix(.9962 0 0 -.9962 -4.413 97.074)"><stop offset="0" stop-color="#fff" stop-opacity=".77"/><stop offset=".45" stop-color="#fff" stop-opacity="0"/><stop offset=".472" stop-color="#fcf0dc" stop-opacity=".006"/><stop offset=".499" stop-color="#f9e1b8" stop-opacity=".014"/><stop offset=".53" stop-color="#f6d398" stop-opacity=".023"/><stop offset=".565" stop-color="#f3c87c" stop-opacity=".033"/><stop offset=".603" stop-color="#f1bf66" stop-opacity=".045"/><stop offset=".648" stop-color="#f0b855" stop-opacity=".058"/><stop offset=".704" stop-color="#efb34a" stop-opacity=".074"/><stop offset=".783" stop-color="#eeb043" stop-opacity=".097"/><stop offset="1" stop-color="#eeaf41" stop-opacity=".16"/></linearGradient><path class="st7" d="M30.9 19.6C25 19.5 20.1 24 20 29.7S24.6 40 30.5 40.1 41.3 35.7 41.4 30c.2-5.6-4.6-10.3-10.5-10.4z"/><defs><path id="SVGID_6_" d="M4.3 18.3h87.1v43.1H4.3z"/></defs><clipPath id="SVGID_7_"><use xlink:href="#SVGID_6_" overflow="visible"/></clipPath><g class="st8"><linearGradient id="SVGID_8_" gradientUnits="userSpaceOnUse" x1="69.912" y1="36.655" x2="69.912" y2="70.277" gradientTransform="matrix(1 0 0 -1 0 98)"><stop offset=".393" stop-color="#b02529"/><stop offset=".47" stop-color="#b32e29"/><stop offset=".589" stop-color="#bc432a"/><stop offset=".737" stop-color="#cc6129"/><stop offset=".904" stop-color="#e68925"/><stop offset=".976" stop-color="#f69e21"/></linearGradient><path class="st9" d="M48.5 41.5c4.5-4.2 8.9-9.5 14-13.1C65.7 26 70 30.6 75 31.6c2.2.4 3.5 3.9 5.3 5.7 1.2.6 4.6 1.1 5.8 1.7 1.5.8 3.7 3.6 5.2 4.5.1 8.8 0 17.8 0 17.8s-13.3-9.7-29-9.6c-1.9-1.2-14.4-9.6-13.8-10.2z"/><linearGradient id="SVGID_9_" gradientUnits="userSpaceOnUse" x1="69.912" y1="36.655" x2="69.912" y2="70.277" gradientTransform="matrix(1 0 0 -1 0 98)"><stop offset="0" stop-color="#dc8028"/><stop offset="1" stop-color="#f8d961"/></linearGradient><path class="st10" d="M48.5 41.5c4.5-4.2 8.9-9.5 14-13.1C65.7 26 70 30.6 75 31.6c2.2.4 3.5 3.9 5.3 5.7 1.2.6 4.6 1.1 5.8 1.7 1.5.8 3.7 3.6 5.2 4.5.1 8.8 0 17.8 0 17.8s-13.3-9.7-29-9.6c-1.9-1.2-14.4-9.6-13.8-10.2z"/></g><defs><path id="SVGID_10_" d="M4.3 18.3h87.1v43.1H4.3z"/></defs><clipPath id="SVGID_11_"><use xlink:href="#SVGID_10_" overflow="visible"/></clipPath><g class="st11"><linearGradient id="SVGID_12_" gradientUnits="userSpaceOnUse" x1="48.4" y1="46.108" x2="48.4" y2="62.275" gradientTransform="matrix(1 0 0 -1 0 98)"><stop offset=".393" stop-color="#b02529"/><stop offset=".47" stop-color="#b32e29"/><stop offset=".589" stop-color="#bc432a"/><stop offset=".737" stop-color="#cc6129"/><stop offset=".904" stop-color="#e68925"/><stop offset=".976" stop-color="#f69e21"/></linearGradient><path class="st12" d="M29.9 39.8c4.5-4.8 6-5 15.7-2.5 4.6 2.8 14.5 9.5 21.3 14.4-7.9-.1-14.8.1-20.7.1-4.9-4-10.2-7.8-16.3-12z"/><linearGradient id="SVGID_13_" gradientUnits="userSpaceOnUse" x1="48.4" y1="46.108" x2="48.4" y2="62.275" gradientTransform="matrix(1 0 0 -1 0 98)"><stop offset="0" stop-color="#dc8028"/><stop offset="1" stop-color="#f8d961"/></linearGradient><path class="st13" d="M29.9 39.8c4.5-4.8 6-5 15.7-2.5 4.6 2.8 14.5 9.5 21.3 14.4-7.9-.1-14.8.1-20.7.1-4.9-4-10.2-7.8-16.3-12z"/></g><defs><path id="SVGID_14_" d="M4.3 18.3h87.1v43.1H4.3z"/></defs><clipPath id="SVGID_15_"><use xlink:href="#SVGID_14_" overflow="visible"/></clipPath><g class="st14"><linearGradient id="SVGID_16_" gradientUnits="userSpaceOnUse" x1="25.6" y1="41.731" x2="25.6" y2="64.528" gradientTransform="matrix(1 0 0 -1 0 98)"><stop offset=".393" stop-color="#b02529"/><stop offset=".47" stop-color="#b32e29"/><stop offset=".589" stop-color="#bc432a"/><stop offset=".737" stop-color="#cc6129"/><stop offset=".904" stop-color="#e68925"/><stop offset=".976" stop-color="#f69e21"/></linearGradient><path class="st15" d="M4.5 42.9c0-5.5 9.2-7 14.2-9.1 3.5-1.5 3.7 2.5 3.7 2.5s-.2-.2 2.1-.1c2.3.8 22.4 16 22.4 16L4.3 56.3s.1-4.2.2-13.4z"/><linearGradient id="SVGID_17_" gradientUnits="userSpaceOnUse" x1="25.6" y1="41.731" x2="25.6" y2="64.528" gradientTransform="matrix(1 0 0 -1 0 98)"><stop offset="0" stop-color="#dc8028"/><stop offset="1" stop-color="#f8d961"/></linearGradient><path class="st16" d="M4.5 42.9c0-5.5 9.2-7 14.2-9.1 3.5-1.5 3.7 2.5 3.7 2.5s-.2-.2 2.1-.1c2.3.8 22.4 16 22.4 16L4.3 56.3s.1-4.2.2-13.4z"/></g><linearGradient id="SVGID_18_" gradientUnits="userSpaceOnUse" x1="-2737.661" y1="491.432" x2="-2737.661" y2="537.387" gradientTransform="matrix(-1 0 0 1 -2689.811 -446.032)"><stop offset="0" stop-color="#37b24a"/><stop offset=".079" stop-color="#56b748"/><stop offset=".244" stop-color="#7cc144"/><stop offset=".383" stop-color="#90c741"/><stop offset=".478" stop-color="#97c940"/><stop offset=".546" stop-color="#91c140"/><stop offset=".623" stop-color="#86b13f"/><stop offset=".704" stop-color="#749a3e"/><stop offset=".788" stop-color="#5d7d39"/><stop offset=".874" stop-color="#425b30"/><stop offset=".962" stop-color="#253821"/><stop offset="1" stop-color="#162818"/></linearGradient><path class="st17" d="M4.3 55v27.6c0 4.8 3.9 8.7 8.7 8.7h69.7c4.8 0 8.7-3.9 8.7-8.7V55s-16-9.6-43.6-9.6S4.3 55 4.3 55z"/><linearGradient id="SVGID_19_" gradientUnits="userSpaceOnUse" x1="-2737.661" y1="491.432" x2="-2737.661" y2="537.387" gradientTransform="matrix(-1 0 0 1 -2689.811 -446.032)"><stop offset="0" stop-color="#c1d730" stop-opacity=".13"/><stop offset=".136" stop-color="#b1c835" stop-opacity=".225"/><stop offset=".387" stop-color="#8bad3d" stop-opacity=".401"/><stop offset=".723" stop-color="#548b42" stop-opacity=".636"/><stop offset="1" stop-color="#0a7142" stop-opacity=".83"/></linearGradient><path class="st18" d="M4.3 55v27.6c0 4.8 3.9 8.7 8.7 8.7h69.7c4.8 0 8.7-3.9 8.7-8.7V55s-16-9.6-43.6-9.6S4.3 55 4.3 55z"/><linearGradient id="SVGID_20_" gradientUnits="userSpaceOnUse" x1="-2737.661" y1="537.399" x2="-2737.661" y2="491.443" gradientTransform="matrix(-1 0 0 1 -2689.811 -446.032)"><stop offset="0" stop-color="#0e1d17" stop-opacity=".16"/><stop offset=".051" stop-color="#293731" stop-opacity=".143"/><stop offset=".27" stop-color="#9ba19f" stop-opacity=".072"/><stop offset=".421" stop-color="#e3e5e4" stop-opacity=".023"/><stop offset=".491" stop-color="#fff" stop-opacity="0"/><stop offset="1" stop-color="#f9ed1f" stop-opacity=".77"/></linearGradient><path class="st19" d="M4.3 55v27.6c0 4.8 3.9 8.7 8.7 8.7h69.7c4.8 0 8.7-3.9 8.7-8.7V55s-16-9.6-43.6-9.6S4.3 55 4.3 55z"/><linearGradient id="SVGID_21_" gradientUnits="userSpaceOnUse" x1="62.082" y1="5.695" x2="62.082" y2="50.772" gradientTransform="matrix(.9962 0 0 -.9962 -4.413 97.074)"><stop offset="0" stop-color="#4664aa"/><stop offset=".521" stop-color="#4969ae"/><stop offset=".983" stop-color="#53c8e9"/></linearGradient><path class="st20" d="M91.3 84C71.2 81.3 44.9 68.3 37 62.4c-1.9-1.8-4.5-3.2-.7-5.2 3.2-1.7 6.7-1 9.3-3.1 3-2.5-.9-4-2.4-4.6-1.8-.7-11.8-2.9-11.4-3.1-1.1.3-8 1.4-8 1.4 5 1.4 8.5 2.3 12.2 3.3 1.3.4 2.4 1.4.4 1.9-4.6 1.1-11.3 1.4-12.7 5.1-.7 1.9 1.4 3.8 5.2 6.7 11.3 8.8 47.9 26.6 52.8 26.6 8.6 0 9.6-7.4 9.6-7.4z"/><linearGradient id="SVGID_22_" gradientUnits="userSpaceOnUse" x1="62.082" y1="5.695" x2="62.082" y2="50.772" gradientTransform="matrix(.9962 0 0 -.9962 -4.413 97.074)"><stop offset="0" stop-color="#1b76ba" stop-opacity=".67"/><stop offset=".058" stop-color="#1485b3" stop-opacity=".712"/><stop offset=".119" stop-color="#0891ad" stop-opacity=".757"/><stop offset=".185" stop-color="#009aa6" stop-opacity=".805"/><stop offset=".257" stop-color="#00a1a1" stop-opacity=".857"/><stop offset=".339" stop-color="#00a59d" stop-opacity=".916"/><stop offset=".454" stop-color="#00a69c"/><stop offset=".539" stop-color="#00a2a0" stop-opacity=".905"/><stop offset=".676" stop-color="#0198a8" stop-opacity=".751"/><stop offset=".85" stop-color="#1287b2" stop-opacity=".558"/><stop offset="1" stop-color="#1b76ba" stop-opacity=".39"/></linearGradient><path class="st21" d="M91.3 84C71.2 81.3 44.9 68.3 37 62.4c-1.9-1.8-4.5-3.2-.7-5.2 3.2-1.7 6.7-1 9.3-3.1 3-2.5-.9-4-2.4-4.6-1.8-.7-11.8-2.9-11.4-3.1-1.1.3-8 1.4-8 1.4 5 1.4 8.5 2.3 12.2 3.3 1.3.4 2.4 1.4.4 1.9-4.6 1.1-11.3 1.4-12.7 5.1-.7 1.9 1.4 3.8 5.2 6.7 11.3 8.8 47.9 26.6 52.8 26.6 8.6 0 9.6-7.4 9.6-7.4z"/><linearGradient id="SVGID_23_" gradientUnits="userSpaceOnUse" x1="62.082" y1="50.808" x2="62.082" y2="5.731" gradientTransform="matrix(.9962 0 0 -.9962 -4.413 97.074)"><stop offset="0" stop-color="#294b9b" stop-opacity=".16"/><stop offset=".041" stop-color="#3b5aa3" stop-opacity=".141"/><stop offset=".124" stop-color="#6980b9" stop-opacity=".103"/><stop offset=".238" stop-color="#b2bedb" stop-opacity=".051"/><stop offset=".35" stop-color="#fff" stop-opacity="0"/><stop offset="1" stop-color="#fff" stop-opacity=".77"/></linearGradient><path class="st22" d="M91.3 84C71.2 81.3 44.9 68.3 37 62.4c-1.9-1.8-4.5-3.2-.7-5.2 3.2-1.7 6.7-1 9.3-3.1 3-2.5-.9-4-2.4-4.6-1.8-.7-11.8-2.9-11.4-3.1-1.1.3-8 1.4-8 1.4 5 1.4 8.5 2.3 12.2 3.3 1.3.4 2.4 1.4.4 1.9-4.6 1.1-11.3 1.4-12.7 5.1-.7 1.9 1.4 3.8 5.2 6.7 11.3 8.8 47.9 26.6 52.8 26.6 8.6 0 9.6-7.4 9.6-7.4z"/><g class="st23"><path class="st24" d="M81.8 90.9c-4.3-.2-9-3-12.8-4.7-7.1-3.2-14.1-6.7-21-10.4-5.9-3.2-11.9-6.4-17.4-10.4-2.4-1.8-8.5-5.2-5.6-8.6 2.9-3.3 11-1.2 12.9-4.6V52c-1.8-2.8-7.1-2.3-9.9-3.6-2.2-1.1-1-.7 1-1.1 1-.2 2.1-.6 3.1-.5 2.7.2 5.7 1.4 8.3 2.1 1.4.4 5 1 5.7 2.4 2.8 5.5-19.1 3.3-9.2 11.2 8.8 7 20.7 11.5 31.1 15.4 6.6 2.5 13.4 4.3 20.3 5.7 2.9.6 3 1.1 1.3 3.5-1.9 2.9-4.7 3.7-7.8 3.8v.2c4.5-.2 8.1-2.3 9.2-6.9V84c-11.4-1.6-22.4-5.5-32.9-10-4.9-2.1-9.6-4.4-14.3-7-2.5-1.4-7.9-3.7-9.2-6.5-2.7-6.1 12.7-3 11.8-8.3-.4-2.6-7-3.5-8.9-3.9-1.7-.4-4-1.5-5.8-1.5-2 0-4.5.8-6.5 1.1v.2c3.3.9 6.8 1.7 10.1 2.7 5.5 1.8-1.5 2.9-3.4 3.3-2.4.5-8.1 1.3-8.1 4.8.1 4.3 10.3 9.4 13.7 11.4 8.4 5 17.1 9.5 26 13.7 5.3 2.5 12.2 6.9 18.3 7.2v-.3z"/></g><path class="st0" d="M82.6 0H13C5.8 0 0 5.8 0 13v69.6c0 7.2 5.8 13 13 13h69.6c7.2 0 13-5.8 13-13V13c0-7.2-5.8-13-13-13zm8.5 13v69.6c0 4.7-3.8 8.5-8.5 8.5H13c-4.7 0-8.5-3.8-8.5-8.5V13c0-4.7 3.8-8.5 8.5-8.5h69.6c4.7 0 8.5 3.8 8.5 8.5z"/></svg>