<svg xmlns="http://www.w3.org/2000/svg" xmlns:xlink="http://www.w3.org/1999/xlink" width="233" height="41" viewBox="0 0 233 41"><defs><path id="a" d="M.419.036H8.55v9.275H.419z"/><path id="c" d="M0 .331h20.685v27.567H0z"/></defs><g fill="none" fill-rule="evenodd"><path fill="#14325F" d="M56 41h1V0h-1zm30.971-28.439a.341.341 0 0 1-.077.217c-.05.065-.107.098-.167.098-.509.046-.922.206-1.243.48-.323.272-.654.792-.997 1.558l-5.238 11.533c-.034.108-.129.161-.288.161a.32.32 0 0 1-.286-.16l-2.94-5.992-3.375 5.991a.321.321 0 0 1-.289.161c-.149 0-.25-.053-.296-.16l-5.146-11.534c-.322-.72-.66-1.223-1.017-1.509-.355-.285-.852-.461-1.488-.529-.054 0-.106-.028-.153-.085a.28.28 0 0 1-.073-.191c0-.185.055-.276.165-.276.458 0 .937.02 1.438.06.466.04.905.06 1.316.06.419 0 .912-.02 1.48-.06.596-.04 1.122-.06 1.581-.06.11 0 .165.092.165.276 0 .184-.034.276-.104.276-.457.034-.818.148-1.083.343a.913.913 0 0 0-.395.767c0 .162.055.363.163.605L72.822 24l2.467-4.48-2.252-4.606c-.404-.828-.736-1.36-.995-1.6-.261-.238-.654-.384-1.18-.438-.05 0-.095-.028-.14-.085a.291.291 0 0 1-.067-.191c0-.184.047-.275.144-.275.458 0 .88.02 1.264.059.368.04.761.06 1.18.06.41 0 .844-.02 1.304-.06.471-.04.937-.06 1.396-.06.11 0 .163.092.163.276 0 .184-.033.276-.102.276-.917.06-1.376.317-1.376.767 0 .203.107.515.32.94l1.487 2.952 1.48-2.702c.205-.382.308-.706.308-.968 0-.62-.458-.949-1.376-.989-.081 0-.123-.092-.123-.276 0-.066.021-.128.062-.188.04-.059.082-.087.122-.087.329 0 .733.02 1.212.059.46.04.835.06 1.13.06.211 0 .524-.016.935-.05.519-.046.955-.07 1.304-.07.08 0 .122.079.122.237 0 .21-.075.315-.225.315-.534.054-.964.199-1.288.434-.326.235-.732.77-1.218 1.604l-1.97 3.567 2.666 5.318 3.947-8.965a2.4 2.4 0 0 0 .206-.908c0-.659-.46-1.01-1.376-1.05-.082 0-.124-.092-.124-.276 0-.184.063-.275.186-.275.334 0 .733.02 1.19.059.424.04.78.06 1.068.06.302 0 .65-.02 1.047-.06.41-.04.78-.06 1.109-.06.095 0 .142.079.142.237m3.873 7.141c0-.502-.178-.919-.53-1.25-.352-.331-.805-.497-1.36-.497-.527 0-.984.216-1.371.648-.386.432-.65.999-.787 1.7l2.856-.08c.431-.005.738-.046.92-.12a.4.4 0 0 0 .272-.4m1.869.882c0 .187-.124.28-.37.28h-5.628a9.912 9.912 0 0 0-.06 1.126c0 1.077.26 1.905.785 2.484.524.58 1.267.868 2.233.868.486 0 .975-.127 1.468-.38a3.5 3.5 0 0 0 1.192-.975l.05-.02c.061 0 .122.037.181.11.057.074.087.16.087.261 0 .14-.218.435-.657.878a4.785 4.785 0 0 1-1.428 1.02 3.833 3.833 0 0 1-1.612.35c-1.233 0-2.269-.44-3.111-1.323-.842-.884-1.264-1.968-1.264-3.253 0-1.312.412-2.422 1.238-3.333.825-.91 1.87-1.366 3.137-1.366 1.061 0 1.953.34 2.675 1.019.721.68 1.084 1.431 1.084 2.254m8.152 3.112c0 .817-.327 1.502-.983 2.058-.658.555-1.45.833-2.379.833-.328 0-.833-.07-1.517-.21-.513-.102-.863-.151-1.046-.151-.054-.468-.18-1.182-.379-2.138 0-.101.1-.15.298-.15.164 0 .263.053.297.16.16.495.47.927.935 1.295.466.368.945.552 1.437.552.514 0 .913-.138 1.196-.412.286-.275.428-.66.428-1.154a1.16 1.16 0 0 0-.355-.834c-.238-.241-.748-.538-1.536-.892-1.033-.463-1.717-.898-2.049-1.306-.331-.409-.497-.896-.497-1.466 0-.703.311-1.307.934-1.81.622-.506 1.358-.76 2.208-.76.355 0 .856.061 1.5.181.355.067.588.1.698.1.02.79.064 1.463.133 2.019 0 .1-.1.15-.299.15-.17 0-.266-.053-.287-.16-.075-.49-.263-.885-.562-1.19-.3-.305-.66-.457-1.075-.457-1.064 0-1.597.456-1.597 1.365 0 .309.126.593.379.854.251.26.8.598 1.645 1.013 1.01.496 1.673.924 1.993 1.286.32.36.48.77.48 1.224m7.948-5.401c0 .362-.09.543-.267.543l-3.06-.08v4.818c0 1.258.46 1.886 1.376 1.886.569 0 1.084-.13 1.55-.39.055 0 .106.034.15.105.043.07.068.146.068.225 0 .168-.256.394-.765.678a3.463 3.463 0 0 1-1.718.428c-.777 0-1.4-.234-1.864-.699-.463-.465-.696-1.079-.696-1.843v-.09l.04-4.877c0-.188-.081-.281-.246-.281h-.78c-.151 0-.226-.087-.226-.256 0-.133.061-.23.183-.297.95-.551 1.776-1.327 2.478-2.327.076-.11.17-.162.286-.162.193 0 .287.053.287.16l-.082 1.918h3.019c.177 0 .267.18.267.541m17.457-5.735c0 .21-.076.315-.225.315-.604.054-1.06.199-1.371.434-.314.235-.653.77-1.023 1.604l-5.155 11.533c-.047.108-.143.161-.286.161-.14 0-.227-.056-.268-.17l-4.6-11.524c-.254-.653-.464-1.085-.632-1.297a1.496 1.496 0 0 0-.672-.473c-.281-.104-.737-.193-1.366-.268-.049 0-.094-.028-.138-.085a.297.297 0 0 1-.068-.191c0-.184.048-.275.144-.275.46 0 .968.02 1.524.059.528.04 1.003.06 1.422.06.418 0 .937-.02 1.554-.06.643-.04 1.196-.06 1.654-.06.108 0 .164.092.164.276 0 .184-.034.276-.103.276-.601.027-1.037.104-1.304.233-.268.127-.4.324-.4.592 0 .168.082.46.248.877l3.545 9.132 3.68-8.862c.123-.393.185-.683.185-.875 0-.663-.596-1.03-1.788-1.097-.081 0-.123-.092-.123-.276 0-.184.062-.275.186-.275.32 0 .742.02 1.263.059.575.04 1.05.06 1.427.06.309 0 .701-.02 1.181-.06.492-.04.9-.06 1.222-.06.082 0 .122.079.122.237m2.743 9.419c-1.993.442-2.99 1.175-2.99 2.195 0 .953.377 1.43 1.127 1.43.361 0 .718-.09 1.069-.268.352-.177.588-.396.712-.659l.082-2.698zm1.572 4.529c-.382 0-.714-.094-.995-.277a1.378 1.378 0 0 1-.577-.748c-.733.736-1.692 1.104-2.876 1.104-.617 0-1.12-.185-1.51-.557a1.84 1.84 0 0 1-.584-1.39c0-1.372 1.663-2.483 4.99-3.333l.062-1.566v-.05c0-.482-.121-.865-.365-1.15-.242-.285-.567-.426-.97-.426-.405 0-.747.095-1.027.286-.282.19-.424.43-.43.718-.01.429-.124.762-.345 1.004-.223.24-.52.361-.889.361a.756.756 0 0 1-.535-.192.664.664 0 0 1-.204-.51c0-.515.48-1.057 1.437-1.623.96-.565 1.85-.848 2.67-.848.74 0 1.339.215 1.797.643.46.428.69 1.004.69 1.727v.12l-.155 4.537v.072c0 .702.233 1.052.698 1.052.225 0 .49-.133.792-.401l.07-.02c.055 0 .107.036.154.106.049.07.073.145.073.225 0 .195-.209.432-.622.713-.415.28-.864.423-1.349.423zm7.278-.523c0 .188-.055.281-.162.281-.283 0-.64-.017-1.08-.05-.49-.035-.906-.05-1.242-.05-.328 0-.736.015-1.221.05-.439.033-.8.05-1.08.05-.109 0-.164-.093-.164-.28 0-.169.055-.259.165-.271.582-.069.96-.204 1.136-.407.172-.204.26-.635.26-1.288v-9.319c0-.542-.067-.896-.206-1.063-.136-.168-.451-.278-.943-.33-.11-.014-.165-.101-.165-.257 0-.164.054-.247.165-.247.718-.18 1.306-.373 1.766-.577.46-.204.745-.375.861-.517a.307.307 0 0 1 .226-.11c.192 0 .289.053.289.161-.11 1.499-.164 2.663-.164 3.494v8.763c0 .655.085 1.084.256 1.29.172.203.551.338 1.14.407.108.012.163.102.163.27m5.73 0c0 .188-.055.281-.163.281-.282 0-.64-.017-1.079-.05a18.16 18.16 0 0 0-1.242-.05c-.328 0-.736.015-1.222.05-.438.033-.799.05-1.078.05-.11 0-.165-.093-.165-.28 0-.169.054-.259.165-.271.582-.069.96-.204 1.134-.407.174-.204.262-.635.262-1.288v-9.319c0-.542-.069-.896-.206-1.063-.136-.168-.451-.278-.943-.33-.11-.014-.165-.101-.165-.257 0-.164.055-.247.165-.247.718-.18 1.306-.373 1.766-.577.457-.204.744-.375.86-.517a.308.308 0 0 1 .227-.11c.192 0 .289.053.289.161-.11 1.499-.166 2.663-.166 3.494v8.763c0 .655.086 1.084.258 1.29.17.203.55.338 1.14.407.108.012.163.102.163.27m7.272-6.284c0-.502-.177-.919-.53-1.25-.353-.331-.806-.497-1.36-.497-.528 0-.985.216-1.372.648-.387.432-.648.999-.785 1.7l2.855-.08c.43-.005.737-.046.92-.12a.402.402 0 0 0 .272-.4m1.867.882c0 .187-.122.28-.37.28h-5.627c-.04.362-.06.736-.06 1.126 0 1.077.262 1.905.784 2.484.525.58 1.269.868 2.234.868.485 0 .976-.127 1.468-.38a3.48 3.48 0 0 0 1.192-.975l.05-.02c.063 0 .123.037.18.11a.4.4 0 0 1 .088.261c0 .14-.218.435-.657.878a4.785 4.785 0 0 1-1.428 1.02 3.829 3.829 0 0 1-1.612.35c-1.233 0-2.269-.44-3.111-1.323-.842-.884-1.263-1.968-1.263-3.253 0-1.312.412-2.422 1.237-3.333.826-.91 1.871-1.366 3.137-1.366 1.061 0 1.953.34 2.675 1.019.723.68 1.083 1.431 1.083 2.254m10.988-2.675c0 .17-.055.263-.164.276-.465.047-.824.18-1.073.4-.25.218-.525.65-.828 1.296l-4.845 10.24c-.541 1.097-1.172 1.646-1.89 1.646-.35 0-.628-.092-.836-.276a.9.9 0 0 1-.313-.709c0-.3.092-.545.28-.736.187-.19.437-.286.752-.286.148 0 .317.05.506.15.125.06.212.09.269.09.226 0 .493-.375.802-1.124l1.283-2.71-2.395-6.285c-.253-.612-.508-1.035-.764-1.266-.256-.232-.603-.375-1.042-.43-.11-.013-.165-.106-.165-.276 0-.184.052-.276.155-.276.266 0 .592.02.974.06.428.04.803.06 1.127.06.317 0 .713-.02 1.187-.06.434-.04.793-.06 1.072-.06.111 0 .166.092.166.276 0 .17-.055.263-.166.276-.715.088-1.072.29-1.072.607 0 .221.094.586.282 1.09l1.655 4.141 1.961-4.142c.17-.382.253-.696.253-.943 0-.422-.33-.672-.992-.753-.11-.013-.165-.104-.165-.271 0-.188.054-.28.165-.28.287 0 .607.02.961.06.346.04.66.06.943.06.141 0 .37-.017.689-.05.437-.047.79-.07 1.057-.07.115 0 .17.09.17.275m17.238 4.694a96.296 96.296 0 0 0-.72 3.413c-.39 0-1.099.09-2.126.27-1.314.235-2.285.352-2.916.352-1.562 0-2.929-.3-4.107-.904a6.593 6.593 0 0 1-2.752-2.584c-.657-1.121-.985-2.367-.985-3.74 0-1.35.345-2.598 1.04-3.739a7.182 7.182 0 0 1 2.871-2.665c1.22-.635 2.592-.953 4.119-.953.643 0 1.505.066 2.586.2.843.107 1.456.16 1.837.16.09.938.248 2.076.475 3.414 0 .107-.111.16-.33.16-.136 0-.22-.053-.245-.16-.248-.91-.778-1.66-1.593-2.248-.815-.59-1.753-.883-2.814-.883-1.607 0-2.959.648-4.05 1.947-1.091 1.298-1.64 2.888-1.64 4.767 0 1.827.542 3.383 1.624 4.662 1.082 1.283 2.402 1.924 3.964 1.924 2.444 0 4.176-1.132 5.197-3.393.048-.107.14-.161.277-.161.19 0 .288.054.288.16m8.963-.581c0-1.225-.24-2.204-.723-2.936-.483-.733-1.145-1.1-1.988-1.1-.835 0-1.495.368-1.98 1.105-.488.737-.73 1.712-.73 2.93 0 1.212.24 2.174.718 2.886.48.713 1.144 1.07 1.992 1.07.85 0 1.513-.354 1.992-1.06.48-.705.719-1.67.719-2.895m2.074.02c0 1.33-.443 2.427-1.33 3.288-.889.859-2.038 1.289-3.45 1.289-1.412 0-2.563-.432-3.455-1.294-.89-.864-1.333-1.959-1.333-3.283 0-1.345.447-2.465 1.345-3.358.897-.893 2.045-1.34 3.443-1.34 1.406 0 2.554.445 3.444 1.335.891.89 1.336 2.01 1.336 3.363m6.162 3.975c0 .188-.055.281-.165.281-.28 0-.64-.017-1.076-.05-.495-.034-.908-.05-1.245-.05-.328 0-.736.016-1.221.05-.437.033-.798.05-1.079.05-.11 0-.164-.093-.164-.281 0-.168.055-.258.164-.27.582-.069.96-.204 1.136-.407.174-.205.263-.635.263-1.289v-9.318c0-.541-.07-.896-.207-1.063-.137-.167-.451-.278-.945-.33-.11-.014-.163-.101-.163-.258 0-.162.053-.246.163-.246.718-.18 1.308-.372 1.766-.576.46-.205.746-.376.862-.518a.305.305 0 0 1 .227-.11c.192 0 .288.054.288.16-.11 1.5-.165 2.664-.165 3.494v8.763c0 .656.085 1.086.256 1.29.17.204.552.339 1.14.407.11.013.165.103.165.27m5.73.001c0 .188-.055.281-.165.281-.28 0-.64-.017-1.079-.05a18.81 18.81 0 0 0-1.242-.05c-.328 0-.736.016-1.221.05-.44.033-.798.05-1.08.05-.108 0-.163-.093-.163-.281 0-.168.055-.258.164-.27.582-.069.96-.204 1.136-.407.174-.205.26-.635.26-1.289v-9.318c0-.541-.068-.896-.204-1.063-.137-.167-.453-.278-.945-.33-.11-.014-.163-.101-.163-.258 0-.162.052-.246.163-.246.718-.18 1.308-.372 1.766-.576.459-.205.746-.376.862-.518a.305.305 0 0 1 .227-.11c.19 0 .287.054.287.16-.109 1.5-.164 2.664-.164 3.494v8.763c0 .656.085 1.086.256 1.29.17.204.552.339 1.14.407.11.013.165.103.165.27m7.269-6.283c0-.503-.176-.92-.528-1.25-.352-.332-.807-.496-1.362-.496-.527 0-.982.215-1.37.647-.387.432-.648 1-.786 1.702l2.854-.08c.433-.008.74-.048.92-.121a.403.403 0 0 0 .272-.402m1.87.885c0 .185-.125.279-.37.279h-5.627a9.98 9.98 0 0 0-.062 1.125c0 1.077.261 1.906.785 2.483.524.58 1.269.87 2.234.87.486 0 .975-.128 1.47-.381.491-.255.887-.58 1.19-.974l.051-.02c.061 0 .122.036.18.109a.41.41 0 0 1 .086.261c0 .141-.219.434-.656.879a4.812 4.812 0 0 1-1.427 1.019 3.842 3.842 0 0 1-1.614.35c-1.23 0-2.269-.44-3.11-1.323-.842-.884-1.264-1.968-1.264-3.253 0-1.312.413-2.422 1.238-3.332.825-.91 1.87-1.366 3.136-1.366 1.062 0 1.953.34 2.677 1.017.722.68 1.083 1.432 1.083 2.257m7.516-.143c0-.855-.135-1.485-.404-1.887-.27-.401-.702-.601-1.296-.601-1.133 0-1.7.936-1.7 2.81 0 .85.131 1.468.395 1.852.262.385.699.577 1.305.577 1.134 0 1.7-.917 1.7-2.75m1.858 7.998c0-.462-.156-.793-.467-.992-.31-.201-.834-.308-1.565-.321l-2.382-.05c-.472 0-.891-.068-1.255-.202-.835.448-1.252 1.035-1.252 1.762 0 .662.284 1.197.852 1.608.57.412 1.291.617 2.168.617 1.053 0 1.966-.235 2.741-.7.774-.469 1.16-1.042 1.16-1.722m1.408-9.645c0 .361-.09.543-.268.543l-1.304-.04c.15.38.225.769.225 1.163 0 .965-.358 1.768-1.079 2.41-.72.642-1.602.964-2.646.964h-.408c-.546 0-.98.07-1.3.21-.32.14-.48.305-.48.492 0 .234.132.427.4.577.265.15.638.23 1.114.237l2.376.03c1.024.019 1.82.23 2.391.632.57.402.855.96.855 1.676 0 1.085-.602 2.032-1.806 2.841-1.203.81-2.628 1.215-4.276 1.215-1.08 0-1.992-.258-2.73-.772s-1.108-1.14-1.108-1.874c0-.496.236-.978.704-1.448a4.258 4.258 0 0 1 1.659-1.038 2.638 2.638 0 0 1-1.038-.8c-.266-.345-.4-.69-.4-1.032 0-.241.252-.5.755-.776a5.114 5.114 0 0 1 1.565-.553c-.588-.28-1.048-.654-1.377-1.123a2.664 2.664 0 0 1-.492-1.566c0-.924.364-1.73 1.093-2.42a3.65 3.65 0 0 1 2.6-1.033c.532 0 1.058.09 1.574.271.517.18.943.425 1.277.733l1.856-.06c.178 0 .268.18.268.541"/><g transform="translate(224.187 17.308)"><mask id="b" fill="#fff"><use xlink:href="#a"/></mask><path fill="#14325F" d="M6.683 2.426c0-.504-.176-.92-.529-1.25-.353-.332-.806-.497-1.36-.497-.528 0-.985.215-1.371.647-.388.432-.648 1-.785 1.702l2.853-.08c.432-.008.739-.047.92-.121a.403.403 0 0 0 .272-.401m1.868.884c0 .186-.123.28-.369.28H2.554c-.04.361-.06.735-.06 1.124 0 1.078.261 1.906.785 2.484.524.58 1.268.869 2.233.869.486 0 .976-.128 1.468-.381.494-.255.89-.58 1.192-.974l.051-.02c.062 0 .123.037.18.11a.41.41 0 0 1 .087.26c0 .141-.219.434-.658.88A4.802 4.802 0 0 1 6.405 8.96a3.824 3.824 0 0 1-1.61.351c-1.235 0-2.27-.44-3.113-1.324C.84 7.103.419 6.019.419 4.735c0-1.313.412-2.423 1.237-3.333C2.482.492 3.528.036 4.794.036c1.061 0 1.952.34 2.674 1.018.722.68 1.083 1.43 1.083 2.256" mask="url(#b)"/></g><g transform="translate(0 6)"><mask id="d" fill="#fff"><use xlink:href="#c"/></mask><path fill="#14325F" d="M19.595 16.085c-1.08 2.273-2.2 4.546-3.196 6.576-2.41-4.995-4.858-10.065-7.186-15.142-1.286-2.88-2.16-4.953-2.16-5.44 0-.366.5-.609 1.371-.69l.955-.08c.25-.286.291-.853-.083-.975-1.454.08-3.57.122-4.733.122C3.274.456 1.404.414.286.331c-.334.164-.375.732-.126.978l.997.08c1.745.161 2.243 1.257 3.03 2.924 2.7 5.64 5.276 11.284 7.933 16.926.54 1.179 2.16 4.831 2.866 6.54.208.076.416.119.623.119a.943.943 0 0 0 .498-.12c1.05-2.944 3.084-7.28 4.578-10.304l-.882-1.829c-.065.143-.134.289-.208.44" mask="url(#d)"/></g><path fill="#14325F" d="M31.265 6.334c-.956.08-2.615.122-3.986.122-1.536 0-2.784-.042-3.904-.125-.292.125-.374.57-.083.978l1.245.08c1.33.081 1.537.53.043 3.978a74.489 74.489 0 0 1-1.807 4.007l.829 1.852c.694-1.542 2.306-4.798 3.135-6.224.914-1.666 1.662-3.491 3.407-3.613l1.207-.08c.246-.326.203-.853-.086-.975"/><path fill="#14325F" d="M28.217 28.078a6.036 6.036 0 0 1-.27.68c-.03.065-.061.127-.092.19-2.393-5.21-8.176-17.621-8.923-19.325-.788-1.828-.75-2.112.87-2.234l1.081-.08c.247-.326.21-.853-.085-.975-.955.08-2.49.122-4.566.122-1.66 0-3.238-.042-4.446-.125-.328.164-.37.652-.08.978l.996.08c1.41.122 2.036.973 2.658 2.234 1.578 3.246 9.93 21.345 10.963 24.155.166.077.373.12.583.12a.927.927 0 0 0 .496-.12l.137-.298c.277-.831 1.072-3.266 1.402-4.289-.396-.334-.881-.569-.724-1.113"/><path fill="#14325F" d="M48.87 7.44c.012-.116-.252-.634-.86-.696-.603-.064-2.472.31-3.44.954-.2-.266-.164-1.083-.691-1.06-.419.019-1.862.287-3.502 2.56 0 0-.742.487-.82.455-.078-.03-.286-.025-.205-.286.08-.261.578-1.128.578-1.128s.371-.507.496-.9c.127-.395-.419-.931-.744-.917-.85.037-1.046 1.285-1.44 1.302-.09.005-.455-.27-.546-.265-.722.033-1.314.717-1.817 2.713-.11.429.07 2.488-.808 3.433-.458.492-.844.675-1.125.575-.285-.102.357-1.277.38-1.444.188-1.126.11-1.223.142-1.454.068-.472-.162-1.23-.761-1.204-.788.036-.915 1.281-1.53 1.305-.34.016-.146-.322-.631-.3-.298.012-.918 1.674-.966 2.51-.05.836-.03 1.162.078 1.93.156 1.154.178 1.629-.127 2.528 0 0-.309 1.323-.975 1.212-.41-.07-.364-.433-.506-1.304-.136-.848-.64-.744-1.18-.639-.476.096-.674 1.16-.693 1.357l-.007.893c-.071.755.813 4.364.813 4.364s.884 2.132.207 4.247c-.634 1.859.086.459.751 1.011.133-.421.232-.888.37-1.303l.117-.394C32.359 17.461 39.75 11.181 40.167 11.38c-.673 1.088-5.845 4.666-9.599 15.119.048-.042.098-.082.15-.125 1.52-1.263 2.123-1.778 3.415-1.503.606.128 1.484.039 2.02-.21.206-.096 1.156-1.024.687-1.244-1.52-.713-1.812-.41-2.408-1.135-.174-.21-.049-.63.54-.99.65-.402 1.557-.859 2.869-.272.76.337 1.353.575 1.874.671.518.095 1.56.046 1.612-.47.031-.339-.23-.374-.202-.651.046-.495 1.403-.526 1.49-1.418.024-.246-.57-.903-1.376-1.004-.972-.123-1.684.744-2.294.12-.116-.119-.373-2.213 1.712-2.222l.926-.04c1.612-.072 2.422-1 2.433-1.098.02-.23-.11-.23-.088-.452.031-.32 1.371-.571 1.454-1.427.05-.529-.487-.824-1.022-.78-.217.019-1.079.325-1.695.096-.616-.229-.09-.683.139-.905 1.22-1.184 4.598-.6 4.707-1.749.052-.544-.703-.438-.66-.878.072-.744 1.954-.712 2.02-1.371"/></g></svg>